<svg xmlns="http://www.w3.org/2000/svg" xmlns:xlink="http://www.w3.org/1999/xlink" viewBox="0 0 453.54 705.83"><defs><style>.cls-1{fill:none;}.cls-2{fill:#080808;}.cls-3{fill:#a7ce3a;}.cls-4{fill:#fff;}.cls-5{clip-path:url(#clip-path);}.cls-6{opacity:0.3;}.cls-7{fill:#b6b6b7;}.cls-8{clip-path:url(#clip-path-2);}.cls-9{fill:#0d0d0d;}.cls-10{font-size:16px;font-family:PatrickHand-Regular, Patrick Hand;}</style><clipPath id="clip-path"><rect class="cls-1" x="80.32" y="363.38" width="97.44" height="97.44"/></clipPath><clipPath id="clip-path-2"><rect class="cls-1" x="279.52" y="363.38" width="97.44" height="97.44"/></clipPath></defs><g id="Artwork"><path class="cls-2" d="M86.81,524.93a28.65,28.65,0,1,1,28.65-28.65A28.68,28.68,0,0,1,86.81,524.93Zm0-55.24a26.6,26.6,0,1,0,26.6,26.59A26.62,26.62,0,0,0,86.81,469.69Z"/><path class="cls-3" d="M87.12,530.52a34.4,34.4,0,0,1,0-68.8,2.06,2.06,0,1,1,0,4.11,30.29,30.29,0,0,0,0,60.58,2.06,2.06,0,1,1,0,4.11Z"/><path class="cls-3" d="M360.44,530.52a2.06,2.06,0,0,1,0-4.11,30.29,30.29,0,1,0,0-60.58,2.06,2.06,0,0,1,0-4.11,34.4,34.4,0,0,1,0,68.8Z"/><path class="cls-3" d="M360.44,465.83H87.12a2.06,2.06,0,0,1,0-4.11H360.44a2.06,2.06,0,1,1,0,4.11Z"/><path class="cls-3" d="M358.63,530.52H85.31a2.06,2.06,0,1,1,0-4.11H358.63a2.06,2.06,0,0,1,0,4.11Z"/><path class="cls-2" d="M360.82,524.93a28.65,28.65,0,1,1,28.65-28.65A28.68,28.68,0,0,1,360.82,524.93Zm0-55.24a26.6,26.6,0,1,0,26.59,26.59A26.62,26.62,0,0,0,360.82,469.69Z"/><path class="cls-2" d="M360.82,524.21a1,1,0,0,1-1-1V469.61a1,1,0,1,1,2,0v53.57A1,1,0,0,1,360.82,524.21Z"/><path class="cls-2" d="M387.29,497.31H333.86a1,1,0,1,1,0-2.05h53.43a1,1,0,0,1,0,2.05Z"/><path class="cls-2" d="M379.56,516.06a1,1,0,0,1-.72-.3l-37.55-37.55a1,1,0,0,1,0-1.46,1,1,0,0,1,1.45,0l37.55,37.55a1,1,0,0,1-.73,1.76Z"/><path class="cls-2" d="M342.26,516.44a1,1,0,0,1-.72-.3,1,1,0,0,1,0-1.46l37.51-37.51a1,1,0,0,1,1.45,0,1,1,0,0,1,0,1.46L343,516.14A1,1,0,0,1,342.26,516.44Z"/><circle class="cls-4" cx="360.82" cy="496.28" r="4.58"/><path class="cls-2" d="M360.82,502.92a6.64,6.64,0,1,1,6.63-6.64A6.65,6.65,0,0,1,360.82,502.92Zm0-9.16a2.53,2.53,0,1,0,2.52,2.52A2.52,2.52,0,0,0,360.82,493.76Z"/><g class="cls-5"><g class="cls-6"><rect class="cls-7" x="128.53" y="340.56" width="1.03" height="143.09"/></g><g class="cls-6"><rect class="cls-7" x="57.5" y="411.59" width="143.09" height="1.03"/></g><g class="cls-6"><rect class="cls-7" x="57.5" y="411.59" width="143.09" height="1.03" transform="translate(-253.6 211.95) rotate(-45)"/></g><g class="cls-6"><rect class="cls-7" x="128.53" y="340.56" width="1.03" height="143.09" transform="translate(-253.6 211.95) rotate(-45)"/></g><g class="cls-6"><rect class="cls-7" x="128.53" y="340.56" width="1.03" height="143.09"/></g><g class="cls-6"><rect class="cls-7" x="57.5" y="411.59" width="143.09" height="1.03"/></g><g class="cls-6"><rect class="cls-7" x="57.5" y="411.59" width="143.09" height="1.03" transform="translate(-253.6 211.95) rotate(-45)"/></g><g class="cls-6"><rect class="cls-7" x="128.53" y="340.56" width="1.03" height="143.09" transform="translate(-253.6 211.95) rotate(-45)"/></g><g class="cls-6"><rect class="cls-7" x="57.5" y="411.59" width="143.09" height="1.03" transform="translate(-301.36 376.99) rotate(-67.95)"/></g><g class="cls-6"><rect class="cls-7" x="128.53" y="340.56" width="1.03" height="143.09" transform="translate(-301.36 376.95) rotate(-67.94)"/></g><g class="cls-6"><rect class="cls-7" x="57.5" y="411.59" width="143.09" height="1.03" transform="translate(-150.55 83.01) rotate(-22.96)"/></g><g class="cls-6"><rect class="cls-7" x="128.53" y="340.56" width="1.03" height="143.09" transform="translate(-150.44 82.91) rotate(-22.94)"/></g><g class="cls-6"><rect class="cls-7" x="57.5" y="411.59" width="143.09" height="1.03" transform="translate(-301.36 376.99) rotate(-67.95)"/></g><g class="cls-6"><rect class="cls-7" x="128.53" y="340.56" width="1.03" height="143.09" transform="translate(-301.36 376.95) rotate(-67.94)"/></g><g class="cls-6"><rect class="cls-7" x="57.5" y="411.59" width="143.09" height="1.03" transform="translate(-150.55 83.01) rotate(-22.96)"/></g><g class="cls-6"><rect class="cls-7" x="128.53" y="340.56" width="1.03" height="143.09" transform="translate(-150.44 82.91) rotate(-22.94)"/></g></g><g class="cls-8"><g class="cls-6"><rect class="cls-7" x="327.73" y="340.56" width="1.03" height="143.09"/></g><g class="cls-6"><rect class="cls-7" x="256.7" y="411.59" width="143.09" height="1.03"/></g><g class="cls-6"><rect class="cls-7" x="256.7" y="411.59" width="143.09" height="1.03" transform="translate(-195.26 352.8) rotate(-45)"/></g><g class="cls-6"><rect class="cls-7" x="327.73" y="340.56" width="1.03" height="143.09" transform="translate(-195.26 352.8) rotate(-45)"/></g><g class="cls-6"><rect class="cls-7" x="327.73" y="340.56" width="1.03" height="143.09"/></g><g class="cls-6"><rect class="cls-7" x="256.7" y="411.59" width="143.09" height="1.03"/></g><g class="cls-6"><rect class="cls-7" x="256.7" y="411.59" width="143.09" height="1.03" transform="translate(-195.26 352.8) rotate(-45)"/></g><g class="cls-6"><rect class="cls-7" x="327.73" y="340.56" width="1.03" height="143.09" transform="translate(-195.26 352.8) rotate(-45)"/></g><g class="cls-6"><rect class="cls-7" x="256.7" y="411.59" width="143.09" height="1.03" transform="translate(-176.95 561.62) rotate(-67.95)"/></g><g class="cls-6"><rect class="cls-7" x="327.73" y="340.56" width="1.03" height="143.09" transform="translate(-176.96 561.58) rotate(-67.94)"/></g><g class="cls-6"><rect class="cls-7" x="256.7" y="411.59" width="143.09" height="1.03" transform="translate(-134.77 160.72) rotate(-22.96)"/></g><g class="cls-6"><rect class="cls-7" x="327.73" y="340.56" width="1.03" height="143.09" transform="translate(-134.68 160.56) rotate(-22.94)"/></g><g class="cls-6"><rect class="cls-7" x="256.7" y="411.59" width="143.09" height="1.03" transform="translate(-176.95 561.62) rotate(-67.95)"/></g><g class="cls-6"><rect class="cls-7" x="327.73" y="340.56" width="1.03" height="143.09" transform="translate(-176.96 561.58) rotate(-67.94)"/></g><g class="cls-6"><rect class="cls-7" x="256.7" y="411.59" width="143.09" height="1.03" transform="translate(-134.77 160.72) rotate(-22.96)"/></g><g class="cls-6"><rect class="cls-7" x="327.73" y="340.56" width="1.03" height="143.09" transform="translate(-134.68 160.56) rotate(-22.94)"/></g></g><rect x="210.79" y="414.62" width="23.67" height="4.11" transform="translate(-228.13 558.1) rotate(-79.3)"/><rect x="222.76" y="395.95" width="4.11" height="20.18" transform="translate(-217.15 547.75) rotate(-78.81)"/><rect x="201.17" y="436.23" width="23.67" height="4.11" transform="translate(-264.31 340.11) rotate(-52.46)"/><rect x="204.19" y="436.69" width="4.11" height="20.18" transform="translate(-272.74 333.97) rotate(-51.97)"/><path d="M178.73,462.88H77.18V361.33H178.73Zm-97.44-4.11h93.33V365.44H81.29Z"/><path d="M378.8,462.88H277.25V361.33H378.8Zm-97.44-4.11h93.33V365.44H281.36Z"/><polygon class="cls-3" points="218.7 431.4 218.03 431.28 126.18 414.9 166.78 358.05 168.45 359.25 129.74 413.45 217.72 429.14 277.96 336.38 181.73 338.78 181.68 336.73 281.81 334.23 218.7 431.4"/><rect class="cls-3" x="200.24" y="330.16" width="2.05" height="102.98" transform="translate(-114.38 87.48) rotate(-19.21)"/><path class="cls-3" d="M330.49,414.89A211.92,211.92,0,0,1,304.7,383c-18.78-28.53-30.92-59.88-30.92-79.87h2.06c0,19.62,12,50.53,30.58,78.74A210.1,210.1,0,0,0,332,413.45Z"/><path class="cls-3" d="M228.24,430.51c1.47-5.22-.72-10.2-7.49-11.39-26.78-4.71-73.61-12.33-91.7-12.33a4.81,4.81,0,0,0-4.93,3.32c-.45,1.49-1.12,5.31,3.84,7.31,18.08,7.27,65,14.85,90.94,19.13C223.28,437.27,226.84,435.49,228.24,430.51Z"/><circle class="cls-3" cx="220.21" cy="428.3" r="8.24"/><rect x="247.71" y="303.12" width="30.84" height="5.59"/><circle class="cls-3" cx="328.24" cy="412.1" r="5.32"/><circle class="cls-3" cx="129.05" cy="412.1" r="5.32"/><path class="cls-4" d="M162.16,310.36,161,330.45s9.43,34.53,9.66,35.1S195,421.74,195,421.74l7.36,12.38,9.37-.92-10.51-30.38L183.47,345.6l-2.21-10.39L195,308.72Z"/><g class="cls-6"><path class="cls-7" d="M197.44,225.07a3.63,3.63,0,0,0-1.14.19,4.49,4.49,0,0,0-2.25-.77,3.39,3.39,0,0,0-2.57,1,3.19,3.19,0,0,0-1.56,1.25,4.8,4.8,0,0,0,.44,5.77,4.57,4.57,0,0,0,4.13,1.44,5.74,5.74,0,0,0,6-5.45A3.27,3.27,0,0,0,197.44,225.07Z"/></g><g class="cls-6"><path class="cls-7" d="M202.62,308.93a111.33,111.33,0,0,0-30.38,8.73c-3.8,1.69-.76,7.4,3,5.7A105.31,105.31,0,0,1,204,315.24C208.15,314.68,206.72,308.38,202.62,308.93Z"/></g><path class="cls-4" d="M193.19,249.94c.69.49.85,2.57,1,4,1,6.89,1.38,14.51,2.9,21.79.6,2.84,1.36,6.3.89,7.6-3.27,1.84-3.13-1.91-3.75-5.31-.59-3.21-.81-6-1.44-8.08A13.52,13.52,0,0,1,190,270a43.71,43.71,0,0,0-1.52,6.7c-.37,2.39-.59,6.93-1.24,6.91-.77.3-1.85.26-2.2-.23-1-1.63-.43-3.82-.21-5.73.24-2.62,1.15-5.64,1.58-8.44.26-1.77,3.24-12.36,3.51-13.53C190.38,253.36,191.32,248.56,193.19,249.94Zm-1.84,12.75c-.38,1.48-.56,2.37-.84,3.63.75,0,.88.36,1.74-.08,0-1-.06-4.6-.47-4.81C191.68,261.38,191.41,262.45,191.35,262.69Z"/><path class="cls-2" d="M193.15,236.77a6.4,6.4,0,0,1-3.61-1.05,6.12,6.12,0,0,1-2.6-4.19,29.5,29.5,0,0,1-.4-8.38,1,1,0,0,1,1.08-1,1,1,0,0,1,1,1.08,27.35,27.35,0,0,0,.38,7.92,4.13,4.13,0,0,0,1.72,2.84,4.83,4.83,0,0,0,3.77.55c5.44-1.22,7.14-8.79,6.91-10.93a1,1,0,0,1,.91-1.13,1,1,0,0,1,1.13.91c.33,3-1.78,11.66-8.51,13.15A7.58,7.58,0,0,1,193.15,236.77Z"/><path d="M184.92,189.83c-.27-1.23-1.25-2.06-2.19-1.85a2.36,2.36,0,1,0,2.19,1.85Z"/><path d="M198.4,193.92a2.06,2.06,0,0,1,1.2-2.6c.93-.21,1.91.62,2.18,1.85a2.06,2.06,0,0,1-1.19,2.6C199.65,196,198.68,195.15,198.4,193.92Z"/><path class="cls-2" d="M193.61,224.77a27.84,27.84,0,0,1-4.71-.41c-8.59-1.51-16-7-20.71-15.36a43.26,43.26,0,0,1-4.53-28.82c3.75-21.26,21.13-36,38.82-32.93,8.59,1.51,15.94,7,20.7,15.35a43.24,43.24,0,0,1,4.53,28.83C224.3,210.79,209.55,224.77,193.61,224.77Zm4.14-75.88c-15,0-28.83,13.28-32.06,31.64A41.18,41.18,0,0,0,170,208c4.45,7.85,11.3,12.94,19.27,14.34,16.54,2.91,32.89-11.12,36.44-31.26a41.26,41.26,0,0,0-4.29-27.46c-4.46-7.84-11.3-12.94-19.28-14.34A25.89,25.89,0,0,0,197.75,148.89Z"/><path class="cls-2" d="M157.81,311.57a1,1,0,0,1-.71-.29,1,1,0,0,1-.32-.78c.37-8.93,10.7-63,18.07-92.5a1,1,0,1,1,2,.5c-6.92,27.7-16.88,79.38-17.93,90.92,9.92-.81,19.51-1.81,28.81-2.78s19-2,29-2.79l-2.91-49.35a1,1,0,0,1,2-.12l3,50.35a1,1,0,0,1-.94,1.08c-10.33.83-20.32,1.87-30,2.88s-19.68,2-30.05,2.88Z"/><path class="cls-2" d="M266,299.8a1,1,0,0,1-.9-.53c-5.92-10.82-51.6-75-56-80a1,1,0,0,1,.09-1.45,1,1,0,0,1,1.45.09c4.46,5,50.35,69.55,56.3,80.42a1,1,0,0,1-.9,1.52Z"/><path class="cls-2" d="M254.3,304.34a1,1,0,0,1-.84-.43c-7.7-10.8-35.38-44.28-39.36-48.79a1,1,0,1,1,1.53-1.36c4,4.52,31.77,38.11,39.5,49a1,1,0,0,1-.24,1.43A1,1,0,0,1,254.3,304.34Z"/><path class="cls-2" d="M202.4,435.16a1,1,0,0,1-.88-.51c-8.72-14.92-37.26-74.85-40.69-97-1.59-10.26-.77-17.64.18-26.18l0-.32a1,1,0,0,1,1.14-.91,1,1,0,0,1,.9,1.14l0,.32c-.94,8.39-1.75,15.64-.2,25.63,3.17,20.43,30.64,79.46,40.43,96.25a1,1,0,0,1-.37,1.4A1,1,0,0,1,202.4,435.16Z"/><path class="cls-2" d="M212,434.79a1,1,0,0,1-1-.69c-.76-2.22-1.75-5.06-2.91-8.39-8.1-23.2-24.94-71.49-27.84-90.2a1,1,0,1,1,2-.31c2.88,18.52,19.67,66.69,27.75,89.84,1.16,3.32,2.15,6.17,2.91,8.39a1,1,0,0,1-1,1.36Z"/><path class="cls-2" d="M176.93,337.51a2.05,2.05,0,0,1-.65-4l35-11.78a2.05,2.05,0,1,1,1.31,3.89l-35,11.78A1.91,1.91,0,0,1,176.93,337.51Z"/><path class="cls-9" d="M191.1,207.57a4.43,4.43,0,0,1-.81-.07,3,3,0,0,1-2.88-2.9c-.2-1.63.1-4.32,1.09-9.94.23-1.35.49-2.7.74-4s.5-2.64.74-4a1,1,0,1,1,2,.36c-.23,1.34-.49,2.67-.74,4s-.5,2.68-.74,4c-.93,5.26-1.23,8-1.07,9.34.11.9.26,1,1.19,1.12a2.41,2.41,0,0,0,1.14-.06,1,1,0,0,1,1.28.69,1,1,0,0,1-.69,1.28A4.43,4.43,0,0,1,191.1,207.57Z"/><path d="M193,216.73a11,11,0,0,1-10.15-6.37,1,1,0,1,1,1.85-.88,9.24,9.24,0,0,0,3.36,3.82,9.72,9.72,0,0,0,7.37,1.09,1,1,0,0,1,.5,2A12.72,12.72,0,0,1,193,216.73Z"/><path class="cls-2" d="M234.94,399.39l-.2,0L222.57,397a1,1,0,0,1-.67-.45,1,1,0,0,1-.13-.79l13.28-55.43-29-13.26a1,1,0,1,1,.85-1.87l29.75,13.61a1,1,0,0,1,.58,1.18L224,395.17l10.3,2,26.1-64.64c-8.62-5.21-15-9.29-21.2-13.23-6.35-4-12.93-8.23-21.91-13.65a1,1,0,0,1,1.07-1.76c9,5.43,15.58,9.63,21.94,13.68s12.93,8.23,21.91,13.66a1,1,0,0,1,.42,1.26l-26.75,66.24A1,1,0,0,1,234.94,399.39Z"/><path class="cls-2" d="M172.79,194.3l-.2,0a1,1,0,0,1-.81-1.21c.37-1.84,2-8,7.55-10.51a11.67,11.67,0,0,1,3.82-1,1,1,0,1,1,.16,2.05,9.66,9.66,0,0,0-3.14.78c-4.78,2.15-6.15,7.91-6.37,9A1,1,0,0,1,172.79,194.3Z"/><path class="cls-2" d="M209.5,196.44a1,1,0,0,1-1-.95,9.37,9.37,0,0,0-.79-3.13c-2.08-4.65-7.45-6-9-6.36a1,1,0,1,1,.4-2c1.84.37,8,2,10.52,7.54a11.61,11.61,0,0,1,1,3.82,1,1,0,0,1-.95,1.1Z"/><path class="cls-2" d="M157.2,311.87a1,1,0,0,1-.83-.43c-4.15-5.74-9-13.22-13.68-20.45s-9.5-14.68-13.62-20.37a1,1,0,0,1,0-1.25c7.09-8.79,15.19-17.51,23-25.94S168,226.34,175.05,217.6a1,1,0,0,1,1.6,1.29c-7.09,8.79-15.19,17.51-23,25.94-7.62,8.21-15.5,16.69-22.43,25.22,4,5.65,8.7,12.85,13.21,19.82,4.11,6.33,8.33,12.86,12.09,18.21.4-3,1-6.46,1.6-10.05.66-3.92,1.35-8,1.83-11.67a70.68,70.68,0,0,0-5.67-6.86,73.63,73.63,0,0,1-6-7.37,1,1,0,0,1,0-1.25l3.45-4.13c6.59-7.86,9.6-11.45,17.13-22a1,1,0,0,1,1.43-.24,1,1,0,0,1,.24,1.44c-7.57,10.58-10.8,14.43-17.22,22.09l-2.94,3.51a74.75,74.75,0,0,0,5.44,6.54,71.07,71.07,0,0,1,6.06,7.37,1,1,0,0,1,.18.72c-.49,3.87-1.21,8.09-1.9,12.17-.79,4.64-1.53,9-1.9,12.57a1,1,0,0,1-.76.88A.78.78,0,0,1,157.2,311.87Z"/><ellipse class="cls-4" cx="211.96" cy="439.65" rx="5.75" ry="11.03" transform="translate(-274.8 403.88) rotate(-60.06)"/><path class="cls-2" d="M217.1,448.09a17.7,17.7,0,0,1-8.53-2.58c-3.8-2.19-6.64-5.33-7.41-8.19a4.79,4.79,0,0,1,.35-3.7c1.9-3.29,8-3.22,13.84.16,3.81,2.19,6.65,5.33,7.41,8.19a4.79,4.79,0,0,1-.35,3.7C221.47,447.29,219.53,448.09,217.1,448.09Zm-10.27-14.83c-1.74,0-3,.5-3.54,1.39a2.74,2.74,0,0,0-.15,2.14c.63,2.31,3.16,5,6.46,6.94h0c5.11,2.95,9.91,2.85,11,.91a2.74,2.74,0,0,0,.15-2.14c-.62-2.32-3.15-5-6.45-6.94A15.62,15.62,0,0,0,206.83,433.26Z"/><ellipse class="cls-4" cx="231.34" cy="398.36" rx="5.75" ry="11.04" transform="translate(-204.3 548.13) rotate(-78.83)"/><path class="cls-2" d="M234.14,405.43A21.4,21.4,0,0,1,230,405a18.3,18.3,0,0,1-7.78-3.37c-2.14-1.72-3.12-3.71-2.74-5.62.74-3.72,6.53-5.62,13.15-4.3a18.26,18.26,0,0,1,7.77,3.37c2.15,1.72,3.13,3.71,2.75,5.62C242.6,403.63,238.91,405.43,234.14,405.43Zm-5.57-12.07c-3.93,0-6.71,1.37-7,3.06-.21,1.1.52,2.42,2,3.62a16.32,16.32,0,0,0,6.88,2.95h0c5.8,1.15,10.31-.49,10.74-2.69.22-1.09-.51-2.41-2-3.61a16.37,16.37,0,0,0-6.89-3A19.71,19.71,0,0,0,228.57,393.36Z"/><ellipse class="cls-4" cx="264.19" cy="299.36" rx="11.63" ry="5.43"/><path class="cls-2" d="M264.19,305.82c-7.22,0-12.66-2.78-12.66-6.46s5.44-6.45,12.66-6.45,12.66,2.77,12.66,6.45S271.41,305.82,264.19,305.82Zm0-10.85c-6.25,0-10.61,2.31-10.61,4.39s4.36,4.4,10.61,4.4,10.61-2.32,10.61-4.4S270.44,295,264.19,295Z"/><path class="cls-2" d="M86.81,524.21a1,1,0,0,1-1-1V469.61a1,1,0,0,1,2.06,0v53.57A1,1,0,0,1,86.81,524.21Z"/><path class="cls-2" d="M113.28,497.31H59.86a1,1,0,1,1,0-2.05h53.42a1,1,0,1,1,0,2.05Z"/><path class="cls-2" d="M105.56,516.06a1,1,0,0,1-.73-.3L67.28,478.21a1,1,0,0,1,0-1.46,1,1,0,0,1,1.45,0l37.55,37.55a1,1,0,0,1,0,1.46A1,1,0,0,1,105.56,516.06Z"/><path class="cls-2" d="M68.26,516.44a1,1,0,0,1-.73-.3,1,1,0,0,1,0-1.46L105,477.17a1,1,0,1,1,1.45,1.46L69,516.14A1,1,0,0,1,68.26,516.44Z"/><circle class="cls-4" cx="86.81" cy="496.28" r="4.58"/><path class="cls-2" d="M86.81,502.92a6.64,6.64,0,1,1,6.63-6.64A6.64,6.64,0,0,1,86.81,502.92Zm0-9.16a2.53,2.53,0,1,0,2.52,2.52A2.52,2.52,0,0,0,86.81,493.76Z"/></g><g id="CC_Laura_Henneke" data-name="CC Laura Henneke"><text class="cls-10" transform="translate(345.89 608.98)">Laura Henneke</text></g></svg>