<svg xmlns="http://www.w3.org/2000/svg" xmlns:xlink="http://www.w3.org/1999/xlink" viewBox="0 0 453.54 705.83"><defs><style>.cls-1{fill:none;}.cls-2{opacity:0.3;}.cls-3{fill:#b6b6b7;}.cls-4{fill:#fff;}.cls-5{fill:#26beef;}.cls-6{clip-path:url(#clip-path);}.cls-7{fill:#b7b7b7;}.cls-8{fill:#0c0d0d;}.cls-9{font-size:16px;font-family:PatrickHand-Regular, Patrick Hand;}</style><clipPath id="clip-path"><circle class="cls-1" cx="233.92" cy="348.14" r="34.32"/></clipPath></defs><g id="Artwork"><g class="cls-2"><rect class="cls-3" x="103.52" y="268.66" width="242.93" height="179.8"/></g><polyline class="cls-4" points="355.38 374.49 355.38 260.02 112.46 260.02 112.46 439.81 355.38 439.81"/><polygon points="356.4 440.83 111.44 440.83 111.44 259 356.4 259 356.4 375.51 354.37 375.51 354.37 261.03 113.47 261.03 113.47 438.8 356.4 438.8 356.4 440.83"/><rect class="cls-4" x="122.99" y="270.49" width="221.86" height="155.3"/><path d="M345.87,426.8H122V269.47h223.9Zm-221.87-2H343.84V271.5H124Z"/><circle class="cls-4" cx="342.07" cy="432.91" r="3.15"/><path d="M342.07,437.07a4.17,4.17,0,1,1,4.17-4.16A4.17,4.17,0,0,1,342.07,437.07Zm0-6.3a2.14,2.14,0,1,0,2.14,2.14A2.14,2.14,0,0,0,342.07,430.77Z"/><polygon class="cls-5" points="148.71 320.76 141.14 312.85 149.11 304.51 150.58 305.91 143.95 312.85 150.18 319.36 148.71 320.76"/><polygon class="cls-5" points="159.33 320.76 157.87 319.36 164.49 312.43 158.26 305.91 159.73 304.51 167.3 312.43 159.33 320.76"/><rect class="cls-5" x="168.06" y="326.32" width="85.03" height="2.03"/><rect class="cls-5" x="208.79" y="334.72" width="122.96" height="2.03"/><rect class="cls-5" x="240.83" y="334.72" width="90.92" height="2.03"/><rect class="cls-5" x="145.25" y="389.63" width="19.97" height="2.03" transform="translate(-262.02 441.56) rotate(-75.28)"/><polygon class="cls-5" points="149.73 398.72 142.16 390.8 150.13 382.46 151.59 383.87 144.97 390.8 151.19 397.31 149.73 398.72"/><polygon class="cls-5" points="160.35 398.72 158.88 397.31 165.51 390.38 159.28 383.87 160.75 382.46 168.32 390.38 160.35 398.72"/><rect class="cls-5" x="240.83" y="343.12" width="90.92" height="2.03"/><rect class="cls-5" x="240.83" y="351.51" width="90.92" height="2.03"/><rect class="cls-5" x="168.06" y="368.31" width="85.03" height="2.03"/><rect class="cls-5" x="207.18" y="359.91" width="122.97" height="2.03"/><circle class="cls-4" cx="233.92" cy="348.14" r="34.32"/><path d="M233.92,383.47a35.34,35.34,0,1,1,35.34-35.33A35.38,35.38,0,0,1,233.92,383.47Zm0-68.64a33.31,33.31,0,1,0,33.31,33.31A33.35,33.35,0,0,0,233.92,314.83Z"/><g class="cls-6"><path d="M252.77,376.87c-5-.1-10.08-.2-14.91-.18h0a1.31,1.31,0,0,1-1-.54c-1.95-2.5-1.12-21.39.83-29h0c1.78-6.93,8.28-12.14,19.31-15.48,11.48-3.48,26.56-2.3,35.87,2.82,4.68,2.58,7.73,6,8.84,10,1.76,6.33,1,16.57-3.87,23.87a16.4,16.4,0,0,1-11.72,7.65,163.31,163.31,0,0,1-19.75,1C261.83,377.05,257.27,377,252.77,376.87Zm4.74-43.31c-10.33,3.13-16.39,7.88-18,14.11-2.14,8.33-2.24,24.55-1.28,27.08,4.74,0,9.73.08,14.57.17,11.34.23,23.07.47,33-.78,4.21-.53,7.69-2.81,10.34-6.8,4.5-6.74,5.22-16.51,3.62-22.27-1-3.47-3.7-6.53-7.91-8.85-5.46-3-13-4.58-20.58-4.58A48.22,48.22,0,0,0,257.51,333.56Z"/><path d="M260.17,362.14a59,59,0,0,0,9.52-.76A55.37,55.37,0,0,0,300.93,345a1,1,0,0,0-1.39-1.36,53.5,53.5,0,0,1-30.16,15.79,61.14,61.14,0,0,1-21.78-.55,1,1,0,1,0-.38,1.9A65.5,65.5,0,0,0,260.17,362.14Z"/><path class="cls-4" d="M218.59,354.54h0a26.07,26.07,0,0,1,11.67-6.42c2.06-.5,13.3-3.2,19.17,3,5.11,5.36,3.31,17.47.26,20.65-5.45,5.67-23.35,4.71-28.21,1.56s-5.8-11.4-2.89-18.76"/><path d="M221,374.11c-5-3.23-6.4-12-3.26-19.93l.08-.2.15-.15A27.14,27.14,0,0,1,230,347.18c4.15-1,14.42-2.73,20.1,3.24s3.6,18.52.26,22c-3,3.16-9.42,4.39-15.59,4.39C229,376.8,223.42,375.72,221,374.11Zm9.54-25a25.05,25.05,0,0,0-11.07,6c-2.72,7.07-1.59,14.67,2.59,17.39,4.46,2.9,21.88,3.89,27-1.42,2.86-3,4.4-14.41-.26-19.3-2.73-2.86-6.78-3.68-10.52-3.68A33.2,33.2,0,0,0,230.49,349.07Z"/><ellipse class="cls-4" cx="215.98" cy="355.98" rx="10.49" ry="10.12"/><path d="M205,356.59a10.37,10.37,0,0,1,2.64-7.53,11,11,0,0,1,7.69-3.67,10.84,10.84,0,0,1,11.58,10,10.3,10.3,0,0,1-2.64,7.53,11,11,0,0,1-7.68,3.66c-.22,0-.43,0-.64,0A10.84,10.84,0,0,1,205,356.59Zm10.38-10.23a10,10,0,0,0-7,3.35,9.33,9.33,0,0,0-2.4,6.82,9.9,9.9,0,0,0,10.56,9.06,10.08,10.08,0,0,0,7-3.34,9.36,9.36,0,0,0,2.39-6.82,9.85,9.85,0,0,0-10-9.08Z"/><path d="M221,356a5,5,0,1,0-5,4.41A4.72,4.72,0,0,0,221,356Z"/><ellipse class="cls-4" cx="251.17" cy="355.98" rx="10.49" ry="10.12"/><path d="M240.22,356.59a10.29,10.29,0,0,1,2.64-7.53,11,11,0,0,1,7.68-3.67,10.88,10.88,0,0,1,11.59,10,10.35,10.35,0,0,1-2.64,7.53,11,11,0,0,1-7.69,3.66c-.21,0-.42,0-.64,0A10.82,10.82,0,0,1,240.22,356.59Zm10.38-10.23a10.05,10.05,0,0,0-7,3.35,9.36,9.36,0,0,0-2.39,6.82,9.89,9.89,0,0,0,10.56,9.06,10.06,10.06,0,0,0,7-3.34,9.33,9.33,0,0,0,2.4-6.82,9.86,9.86,0,0,0-10-9.08Z"/><path d="M256.16,356a5,5,0,1,0-5,4.41A4.72,4.72,0,0,0,256.16,356Z"/><path d="M237.25,370.9a.49.49,0,0,0,0-1l-4.86-.17a.51.51,0,0,0-.5.47.48.48,0,0,0,.46.5l4.87.17Z"/></g><path class="cls-7" d="M230.52,347c.36-1.06.67-2.12.95-3.19a46.47,46.47,0,0,0-.95-9.73C227.6,320,218.86,310.33,212,304.73a1,1,0,0,0-1.37.13,1,1,0,0,0,.13,1.37c6.58,5.4,15,14.69,17.81,28.26a44.89,44.89,0,0,1,.76,12.85c.37-.1.75-.21,1.15-.3Z"/><path class="cls-7" d="M223.56,301.32a1,1,0,0,0-1.37-.17,1,1,0,0,0-.17,1.36c5.17,6.67,11.25,17.53,10.87,31.36a45.07,45.07,0,0,1-1.42,10c0,1-.05,2-.12,3l1.33-.25a47,47,0,0,0,2.15-12.69C235.25,318.76,228,307,223.56,301.32Z"/><path class="cls-7" d="M230.52,347l.83-.17c.07-1,.11-2,.12-3-.28,1.07-.59,2.13-.95,3.19Z"/><path d="M87.63,322.2a16.2,16.2,0,0,1-2.5-.21,1,1,0,0,1-.85-1.16,1,1,0,0,1,1.16-.84c2.82.44,4.85.1,6-1a4,4,0,0,0,1.18-3l-3-27.19a1,1,0,0,1,.9-1.12,1,1,0,0,1,1.12.9l3,27.22a6.09,6.09,0,0,1-1.82,4.64A7.41,7.41,0,0,1,87.63,322.2Z"/><path d="M81.41,296a2.27,2.27,0,1,0-2.72,1.73A2.28,2.28,0,0,0,81.41,296Z"/><path d="M79.19,298.77a3.53,3.53,0,0,1-.72-.08,3.26,3.26,0,0,1-2.06-1.45,3.28,3.28,0,0,1,1-4.55,3.29,3.29,0,0,1,5,3.51h0A3.3,3.3,0,0,1,79.19,298.77Zm0-4.56a1.28,1.28,0,0,0-.68.2,1.25,1.25,0,0,0-.55.79,1.22,1.22,0,0,0,.16.95,1.26,1.26,0,1,0,1.34-1.91Z"/><path d="M42.88,342.67a17,17,0,0,1-10-3c-6.5-4.65-8.15-13.45-7.68-18.24.16-1.58.62-3.6,1.95-4.2,1.66-.75,3.12.94,5.16,3.28,2.52,2.89,5.64,6.49,9.6,6.31,2.69-.12,5.38-2,8-5.64-23.27-25.31-32.3-55.24-21-69.85,6.06-7.82,20.16-13.74,31.48-10.1C67,243.32,74,248.86,74.16,255h0c.09,3.37-1.81,5.23-4,7.39A27.56,27.56,0,0,0,66,267.11c-4,6.06-3,12-1.71,20.33,1.09,6.82,2.44,15.3,1.55,26.66-.75,9.47-1.34,16.95-7.13,22.37A24.08,24.08,0,0,1,42.88,342.67Zm-15-23.6c-.16.13-.68,1.2-.76,3.46-.12,3.82,1.19,11.38,6.9,15.47,7,5,17.56,2.35,23.29-3,5-4.66,5.67-10.73,6.48-21.05.88-11.12-.45-19.47-1.52-26.18-1.39-8.74-2.4-15.05,2-21.77a29.37,29.37,0,0,1,4.39-5.08c2.09-2.05,3.48-3.41,3.41-5.88h0c-.13-5-6.38-10-12.34-11.88-10.51-3.39-23.62,2.12-29.25,9.4C19.74,266.5,29,295.66,52,320.38l.55.6-.46.67c-3.15,4.6-6.53,7-10.05,7.18-4.88.22-8.56-3.95-11.22-7C29.79,320.68,28.43,319.12,27.93,319.07Z"/><path d="M105.38,296.68a2.27,2.27,0,1,0-2.72,1.73A2.27,2.27,0,0,0,105.38,296.68Z"/><path d="M103.17,299.48a3.63,3.63,0,0,1-.73-.08,3.26,3.26,0,0,1-2.06-1.45,3.3,3.3,0,0,1,3.5-5,3.29,3.29,0,0,1,2.49,3.94h0a3.25,3.25,0,0,1-1.45,2.06A3.3,3.3,0,0,1,103.17,299.48Zm0-4.56a1.26,1.26,0,0,0-1.06,1.94,1.3,1.3,0,0,0,.79.56,1.27,1.27,0,0,0,1-.17,1.25,1.25,0,0,0,.55-.79h0a1.22,1.22,0,0,0-.16-.95,1.26,1.26,0,0,0-.79-.56A1.33,1.33,0,0,0,103.16,294.92Z"/><path class="cls-4" d="M61.82,278.72c-1.72,5.18-3.26,9.87-3.53,14.95-.36-.16-.27.4-.67.31a6.26,6.26,0,1,0,1.8,11.49c2.36,14.32,10.45,29.1,23.37,33.89a23.1,23.1,0,0,0,8.75,1.53c13.23-.27,24.34-11.93,28.84-28.29a5.85,5.85,0,0,0,1.68.64,6.25,6.25,0,1,0,2.73-12.2,6.15,6.15,0,0,0-2.45-.06c.14-2,.2-3.93.16-5.94a60.73,60.73,0,0,0-4.09-21"/><path d="M91,341.91a24,24,0,0,1-8.59-1.59C68.54,335.16,61,319.42,58.65,307a7.27,7.27,0,0,1-6.29-13,7.14,7.14,0,0,1,5-1.05c.39-5,1.92-9.62,3.54-14.5l1.93.64c-1.66,5-3.22,9.68-3.49,14.68l-.07,1.47-.86-.38a1.2,1.2,0,0,1-1,.16,5.24,5.24,0,1,0,1.51,9.63l1.27-.75.24,1.46c2,12.12,9.15,28.06,22.72,33.1a21.37,21.37,0,0,0,8.37,1.46c12.42-.25,23.36-11.06,27.89-27.54l.34-1.24,1.13.63a5.24,5.24,0,0,0,7-7.38,5.15,5.15,0,0,0-3.28-2.31,5.24,5.24,0,0,0-2,0l-1.29.23.1-1.3c.14-2,.19-4,.15-5.85a59.6,59.6,0,0,0-4-20.6l1.89-.74a61.86,61.86,0,0,1,4.16,21.3c0,1.57,0,3.2-.08,4.85a7.27,7.27,0,0,1,3.89,13.41,7.28,7.28,0,0,1-5.49,1c-.27-.07-.53-.14-.8-.23-5,16.72-16.43,27.62-29.47,27.89Z"/><path d="M79.19,306.11a11,11,0,0,1-2.33-.26,10.62,10.62,0,1,1,2.33.26Zm0-18.22a7.57,7.57,0,1,0,1.66.18A8,8,0,0,0,79.19,287.89Z"/><path d="M103.31,306.82a10.86,10.86,0,0,1-2.32-.26,10.62,10.62,0,1,1,2.32.26Zm0-18.22a7.57,7.57,0,1,0,1.67.18A7.83,7.83,0,0,0,103.3,288.6Z"/><path d="M121.76,300.09a.82.82,0,0,1-.22,0l-9.08-2a1,1,0,1,1,.44-2l9.08,2a1,1,0,0,1-.22,2Z"/><path d="M70.31,293.4h-.06l-10.83-.6a1,1,0,1,1,.11-2l10.83.6a1,1,0,0,1,0,2Z"/><path d="M93.63,295.68h0l-4.83-.07a1,1,0,0,1-1-1,1,1,0,0,1,1-1l4.83.06a1,1,0,0,1,0,2Z"/><path class="cls-4" d="M58.77,294.36c.86.5,1.46-16.3,4.1-15.93a106.18,106.18,0,0,0,16.19.7c17-.05,40.37-.43,43.49-9.75,2-6.09-5.67-13.64-7.92-15.83-9.8-9.56-28-14.73-42-6C57.23,257.27,56,292.73,58.77,294.36Z"/><path d="M58.81,295.38a1.15,1.15,0,0,1-.55-.14h0c-.43-.25-1.58-.92-1.69-7.16-.19-12.1,3.85-34,15.55-41.36,10.9-6.85,29.75-7,43.22,6.1,6.92,6.75,9.67,12.43,8.17,16.88-3.19,9.53-23.7,10.39-44.44,10.45H78a100.94,100.94,0,0,1-15.07-.71c-1,1-1.8,7.46-2.16,10.25-.59,4.54-.72,5.22-1.45,5.58A1.25,1.25,0,0,1,58.81,295.38Zm29.87-51.23a28.85,28.85,0,0,0-15.48,4.29c-9.38,5.89-12.71,21.55-13.71,28a66,66,0,0,0-.82,13.38c0-.13,0-.26,0-.39.79-6.08,1.47-10.48,3-11.67a1.7,1.7,0,0,1,1.27-.35,98.9,98.9,0,0,0,14.93.71h1.12c13.82,0,39.53-.12,42.53-9.06,1.22-3.65-1.35-8.63-7.67-14.78A37.28,37.28,0,0,0,88.68,244.15Z"/><path d="M83.09,297.65a2.27,2.27,0,1,0-2.72,1.73A2.29,2.29,0,0,0,83.09,297.65Z"/><path d="M107.77,298.89a2.28,2.28,0,1,0-2.72,1.72A2.28,2.28,0,0,0,107.77,298.89Z"/><path d="M89.1,322H89a1,1,0,0,1,0-2h.06a3.7,3.7,0,0,0,2.87-1,4.9,4.9,0,0,0,1-3.31l-3.25-19.75a1,1,0,0,1,2-.33l3.25,19.8a6.87,6.87,0,0,1-1.46,4.95A5.61,5.61,0,0,1,89.1,322Z"/><path d="M87.49,331.17a18.68,18.68,0,0,1-5.62-.89,1,1,0,0,1-.66-1.28,1,1,0,0,1,1.28-.66,15.53,15.53,0,0,0,8.93.27,1,1,0,1,1,.54,2A16.91,16.91,0,0,1,87.49,331.17Z"/><path class="cls-4" d="M87,365.39c-6.87-3.29-7-12.7-9-23.46,0-.18-1.24-5.57-1-7.87s3.08-2.51,3.92-2.27c2.54.7,1.7,6.49,5.66,8,4.18,1.63,9.57-3.66,21.56-8.41,1.49-.59,4.43-1.7,5.49-.55.7.77.26,2.21.18,2.56-1.18,4.88-13.58,6.8-14.64,11.59-.49,2.18,8.11,12.19,5.43,15.86A14.54,14.54,0,0,1,87,365.39Z"/><path d="M92.79,367.69a14.48,14.48,0,0,1-6.27-1.38h0c-6.19-3-7.34-10.33-8.66-18.86-.27-1.72-.55-3.51-.88-5.34A35.55,35.55,0,0,1,75.92,334a3.27,3.27,0,0,1,1.42-2.46,5.06,5.06,0,0,1,3.78-.7c1.66.46,2.24,2.17,2.81,3.84s1.22,3.55,2.95,4.23c2.12.83,5-.7,9.38-3a112.09,112.09,0,0,1,11.44-5.4c1.64-.65,5-2,6.61-.29,1,1.12.58,2.84.43,3.4-.71,3-4.38,4.82-7.93,6.59-3.1,1.54-6.29,3.14-6.72,5.06,0,.56,1.21,2.72,2.11,4.3,2.44,4.27,5.21,9.11,3.16,11.93A15.67,15.67,0,0,1,92.79,367.69Zm-5.4-3.22a13.51,13.51,0,0,0,16.32-4.19c1.29-1.76-1.46-6.56-3.27-9.73-1.71-3-2.59-4.6-2.33-5.75.63-2.86,4.11-4.6,7.79-6.44,3.14-1.56,6.37-3.18,6.85-5.17.31-1.2.14-1.54.06-1.63s-.89-.57-4.36.8a111.87,111.87,0,0,0-11.24,5.32c-4.87,2.56-8.09,4.25-11.06,3.09-2.62-1-3.46-3.49-4.14-5.47-.41-1.21-.81-2.36-1.43-2.53a3.13,3.13,0,0,0-2.08.41,1.26,1.26,0,0,0-.56,1,33.17,33.17,0,0,0,1,7.41c.37,2,.65,3.84.92,5.58,1.29,8.29,2.31,14.83,7.53,17.33Z"/><path class="cls-4" d="M343.19,287.43a7.12,7.12,0,0,1,3.07,1.73c.07-.29.13-.57.21-.85,6.31-23.69,25.94-39,43.84-34.27,16.27,4.34,25.51,23.77,22.34,45.06A7.12,7.12,0,1,1,410,309.79c-7.4,21.26-25.74,34.53-42.56,30-14.75-3.93-23.72-20.29-22.89-39.19a7.11,7.11,0,1,1-1.38-13.22Z"/><path class="cls-8" d="M374.18,341.74a26.88,26.88,0,0,1-7-.92c-14.4-3.83-24-19.62-23.69-38.67a8.17,8.17,0,0,1-4.25,0,8.15,8.15,0,0,1-5.77-9.95,8.16,8.16,0,0,1,10-5.77,8.37,8.37,0,0,1,2.21,1c6.63-23.83,26.64-39.21,44.92-34.35,16,4.27,25.85,23.25,23.29,44.54a8.17,8.17,0,0,1,3.93.06,8.13,8.13,0,1,1-7.39,14C403.49,330,388.89,341.73,374.18,341.74ZM345.66,299l-.08,1.74c-.82,18.77,8.28,34.47,22.15,38.16,16.23,4.33,34-8.32,41.33-29.41l.63-1.8,1.14,1.53a6.1,6.1,0,1,0,2.25-9.16l-1.72.82.28-1.89c3.13-20.93-6.16-39.82-21.59-43.92-17.34-4.63-36.44,10.43-42.6,33.54l-.62,2.53-1.27-1.21a6.11,6.11,0,0,0-2.64-1.47h0a6.1,6.1,0,1,0,1.19,11.33Z"/><path class="cls-8" d="M405.29,296.17l7.35-.51c-.21,1.2-1.14,4-1.27,5.18-3.55,1.4-6.88,3.39-10.08,4.75"/><path d="M385.76,301.46a2.76,2.76,0,1,1,2,3.37A2.77,2.77,0,0,1,385.76,301.46Z"/><path d="M357.86,293.15a2.75,2.75,0,1,1,1.95,3.37A2.76,2.76,0,0,1,357.86,293.15Z"/><path d="M371.39,322.37l-.18,0c-2.41-.43-4.09-1.45-5-3a6.22,6.22,0,0,1-.37-4.84l10.4-23.77a1,1,0,1,1,1.86.82l-10.38,23.7h0a4.29,4.29,0,0,0,.26,3.09,4.9,4.9,0,0,0,3.58,2,1,1,0,0,1-.17,2Z"/><path d="M398.7,314.19l-22.9-6.09,1.8-19.31,28.1,7.48Zm-18.54-9.13,16.07,4.28,4-10.32L381.2,294Z"/><path d="M370.18,306.6l-22.44-6-3-21.19L378.2,289Zm-18.79-9.21,16.52,4.4,4.64-10.19-22.9-6.55Z"/><path class="cls-8" d="M366.51,333.63a1,1,0,0,1-.54-1.87,16.87,16.87,0,0,1,7.3-2.53,16.67,16.67,0,0,1,6.12.51,1,1,0,0,1-.54,2,14.38,14.38,0,0,0-5.38-.45,15,15,0,0,0-6.42,2.23A1,1,0,0,1,366.51,333.63Z"/><path class="cls-8" d="M354.78,283.83a1,1,0,0,1-.66-.25,1,1,0,0,1-.11-1.43,16.88,16.88,0,0,1,6.22-4.57,16.67,16.67,0,0,1,6-1.32,1,1,0,0,1,1,1,1,1,0,0,1-1,1.05,14.58,14.58,0,0,0-5.27,1.16,14.77,14.77,0,0,0-5.48,4A1,1,0,0,1,354.78,283.83Z"/><path class="cls-8" d="M402.86,292.41a1,1,0,0,1-.95-.64,14.63,14.63,0,0,0-2.86-4.57,14.82,14.82,0,0,0-5.64-3.8,1,1,0,0,1-.59-1.31,1,1,0,0,1,1.31-.59,17,17,0,0,1,6.41,4.32,16.62,16.62,0,0,1,3.26,5.2,1,1,0,0,1-.57,1.32A1,1,0,0,1,402.86,292.41Z"/><path class="cls-8" d="M390.07,336.94a.75.75,0,0,1-.26,0,1,1,0,0,1-.72-1.24,4.32,4.32,0,0,0-.49-3.61c-1.61-2.54-6.21-4.57-13.3-5.85-10.76-2-19.44-.2-20.61,4.19a1,1,0,0,1-1.24.72,1,1,0,0,1-.72-1.24c1.5-5.61,10.71-7.88,22.94-5.67,7.87,1.43,12.66,3.64,14.64,6.77a6.28,6.28,0,0,1,.74,5.21A1,1,0,0,1,390.07,336.94Z"/><path class="cls-4" d="M360.16,364.15c-6.37-4.18-5.26-13.53-5.73-24.45,0-.18-.49-5.69,0-7.94s3.39-2.07,4.19-1.72c2.42,1,.82,6.66,4.53,8.72,3.92,2.18,10-2.33,22.5-5.42,1.55-.39,4.61-1.1,5.51.19.59.85,0,2.22-.17,2.56-1.82,4.68-14.37,4.91-16.07,9.51-.77,2.1,6.4,13.17,3.26,16.45A14.53,14.53,0,0,1,360.16,364.15Z"/><path d="M367.76,367.37a14.76,14.76,0,0,1-8.15-2.37h0c-5.74-3.76-5.88-11.22-6.05-19.85,0-1.74-.07-3.55-.15-5.4a36.36,36.36,0,0,1,0-8.21,3.26,3.26,0,0,1,1.73-2.24,5.08,5.08,0,0,1,3.85-.2c1.58.68,1.94,2.46,2.27,4.18s.73,3.69,2.36,4.6c2,1.1,5,0,9.69-1.71a111.7,111.7,0,0,1,12.07-3.82c2.6-.65,5.41-1.08,6.58.6.87,1.25.2,2.9,0,3.44-1.12,2.85-5,4.17-8.75,5.45-3.28,1.12-6.66,2.27-7.34,4.12-.11.54.83,2.85,1.51,4.54,1.85,4.56,3.94,9.73,1.52,12.25A15.5,15.5,0,0,1,367.76,367.37Zm-10.4-36.52a2.85,2.85,0,0,0-1.25.25,1.21,1.21,0,0,0-.67.88,32,32,0,0,0,0,7.48c.09,2.07.13,3.89.16,5.66.16,8.38.29,15,5.13,18.19h0a13.53,13.53,0,0,0,16.74-2c1.5-1.57-.57-6.69-1.94-10.08-1.29-3.19-1.94-4.9-1.54-6,1-2.75,4.7-4,8.59-5.33,3.32-1.13,6.74-2.3,7.49-4.2.46-1.15.34-1.51.27-1.61s-.8-.68-4.43.21a111.73,111.73,0,0,0-11.85,3.76c-5.17,1.88-8.58,3.12-11.38,1.57-2.45-1.36-3-3.92-3.36-6-.25-1.26-.48-2.46-1.08-2.71A2.65,2.65,0,0,0,357.36,330.85Z"/><path class="cls-8" d="M68.41,288.09a1,1,0,0,1-.77-1.67,14,14,0,0,1,10.21-4.94,1,1,0,0,1,1.06,1,1,1,0,0,1-1,1.05,11.9,11.9,0,0,0-4.3.95,12.06,12.06,0,0,0-4.45,3.27A1,1,0,0,1,68.41,288.09Z"/><path class="cls-8" d="M117.07,285.93h0a14.23,14.23,0,0,1-6.28-1.53,13.77,13.77,0,0,1-4.07-3.13,1,1,0,0,1,1.52-1.35,11.88,11.88,0,0,0,8.85,4,1,1,0,0,1,1,1A1,1,0,0,1,117.07,285.93Z"/><path d="M99.3,470a17.55,17.55,0,0,1-2.5-.21,1,1,0,0,1-.85-1.16,1,1,0,0,1,1.16-.85c2.8.44,4.83.11,6-1a4.06,4.06,0,0,0,1.2-3l-3-27.19a1,1,0,0,1,.91-1.12,1,1,0,0,1,1.11.9l3,27.23a6.07,6.07,0,0,1-1.82,4.63A7.42,7.42,0,0,1,99.3,470Z"/><path d="M93.08,443.72a2.28,2.28,0,1,0-2.72,1.72A2.28,2.28,0,0,0,93.08,443.72Z"/><path d="M90.86,446.51a2.94,2.94,0,0,1-.72-.08,3.29,3.29,0,1,1,3.5-5,3.27,3.27,0,0,1,.43,2.48h0a3.29,3.29,0,0,1-3.21,2.57Zm0-4.55a1.26,1.26,0,0,0-.28,2.49,1.27,1.27,0,0,0,1.51-.95h0a1.28,1.28,0,0,0-.17-.95,1.25,1.25,0,0,0-.79-.55Z"/><path d="M117.05,444.43a2.28,2.28,0,1,0-2.72,1.72A2.26,2.26,0,0,0,117.05,444.43Z"/><path d="M114.83,447.22a2.94,2.94,0,0,1-.72-.08,3.26,3.26,0,0,1-2.06-1.45,3.29,3.29,0,0,1,1-4.54,3.32,3.32,0,0,1,2.48-.44,3.28,3.28,0,0,1,2.06,1.46,3.23,3.23,0,0,1,.43,2.48A3.3,3.3,0,0,1,114.83,447.22Zm0-4.55a1.26,1.26,0,0,0-1.23,1,1.26,1.26,0,0,0,1,1.51,1.26,1.26,0,0,0,.56-2.46Z"/><path class="cls-4" d="M73.49,426.47c-1.72,5.18-3.26,9.86-3.53,14.94-.36-.16-.27.41-.67.32a6.25,6.25,0,1,0,1.8,11.49c2.36,14.32,10.45,29.09,23.37,33.89a23.07,23.07,0,0,0,8.74,1.52c13.24-.27,24.35-11.92,28.85-28.29a6.25,6.25,0,1,0,4.41-11.56,6.15,6.15,0,0,0-2.45-.06c.14-1.94.2-3.92.16-5.94a60.78,60.78,0,0,0-4.09-20.95"/><path d="M102.72,489.66a24.25,24.25,0,0,1-8.62-1.6c-13.9-5.16-21.41-20.9-23.78-33.37A7.27,7.27,0,1,1,69,440.64c.38-5,1.92-9.62,3.54-14.49l1.93.64c-1.66,5-3.22,9.67-3.49,14.68l-.07,1.46-.86-.37a1.29,1.29,0,0,1-1,.16,5.24,5.24,0,0,0-2.3,10.22,5.15,5.15,0,0,0,3.8-.6l1.28-.75.24,1.46c2,12.12,9.15,28.07,22.72,33.11a22.18,22.18,0,0,0,8.37,1.46c12.42-.26,23.36-11.07,27.89-27.55l.34-1.24,1.13.63A5.14,5.14,0,0,0,134,460a5.24,5.24,0,0,0,2.29-10.23,5.44,5.44,0,0,0-2.05,0l-1.29.23.1-1.3c.14-2,.19-3.94.15-5.85a60,60,0,0,0-4-20.59l1.89-.75a61.9,61.9,0,0,1,4.16,21.3c0,1.57,0,3.2-.08,4.85a7,7,0,0,1,1.58.18,7.27,7.27,0,1,1-4,14c-5,16.72-16.43,27.63-29.47,27.9Z"/><path class="cls-4" d="M70.44,442.11c.85.49,1.46-16.31,4.09-15.94a106.3,106.3,0,0,0,16.2.7c17-.05,40.37-.43,43.49-9.74,2.05-6.1-5.67-13.64-7.92-15.84-9.8-9.56-28-14.73-42-6C68.9,405,67.63,440.47,70.44,442.11Z"/><path d="M70.48,443.12a1,1,0,0,1-.55-.14h0c-.44-.25-1.58-.92-1.69-7.16-.19-12.09,3.85-34,15.55-41.36,10.9-6.84,29.75-7,43.22,6.11,6.92,6.74,9.67,12.43,8.17,16.88-3.19,9.52-23.7,10.38-44.44,10.44h-1.1a100.8,100.8,0,0,1-15.08-.7c-1,1-1.79,7.45-2.16,10.24-.58,4.55-.72,5.22-1.44,5.58A1.12,1.12,0,0,1,70.48,443.12Zm29.87-51.23a28.85,28.85,0,0,0-15.48,4.29c-9.38,5.89-12.72,21.56-13.71,28a65.17,65.17,0,0,0-.82,13.37c0-.13,0-.26,0-.39.79-6.08,1.47-10.48,3-11.67a1.68,1.68,0,0,1,1.26-.35,97.69,97.69,0,0,0,14.94.71h1.12c13.82,0,39.53-.12,42.53-9.06,1.22-3.65-1.36-8.62-7.67-14.78A37.35,37.35,0,0,0,100.35,391.89Z"/><path d="M100.77,469.76h-.07a1,1,0,0,1-1-1,1,1,0,0,1,1-1h.07a3.69,3.69,0,0,0,2.86-1,4.85,4.85,0,0,0,1-3.32l-3.25-19.74a1,1,0,0,1,.84-1.17,1,1,0,0,1,1.16.84l3.26,19.8a6.86,6.86,0,0,1-1.46,4.94A5.61,5.61,0,0,1,100.77,469.76Z"/><path d="M99.15,478.92a18.34,18.34,0,0,1-5.62-.9,1,1,0,0,1,.63-1.93,15.62,15.62,0,0,0,8.93.26,1,1,0,0,1,1.25.71,1,1,0,0,1-.71,1.25A16.55,16.55,0,0,1,99.15,478.92Z"/><path class="cls-4" d="M98.62,513.13c-6.87-3.29-7-12.7-9-23.45,0-.19-1.25-5.58-1.05-7.88s3.07-2.5,3.92-2.27c2.54.7,1.7,6.49,5.66,8,4.18,1.63,9.57-3.66,21.56-8.41,1.49-.58,4.43-1.7,5.49-.54.7.76.26,2.2.18,2.55-1.18,4.88-13.58,6.8-14.64,11.59-.49,2.19,8.11,12.19,5.43,15.86A14.54,14.54,0,0,1,98.62,513.13Z"/><path d="M104.46,515.44a14.49,14.49,0,0,1-6.27-1.39c-6.19-3-7.34-10.32-8.66-18.85-.27-1.73-.55-3.52-.88-5.34a35.89,35.89,0,0,1-1.06-8.14A3.26,3.26,0,0,1,89,479.26a5.11,5.11,0,0,1,3.79-.71c1.66.46,2.24,2.18,2.81,3.84s1.21,3.55,3,4.23c2.13.83,5-.69,9.38-3a109.79,109.79,0,0,1,11.44-5.41c2.5-1,5.23-1.79,6.6-.29,1,1.11.59,2.83.45,3.39-.72,3-4.39,4.83-7.94,6.6-3.1,1.55-6.3,3.15-6.72,5.06,0,.56,1.21,2.73,2.11,4.31,2.44,4.27,5.21,9.11,3.15,11.93A15.63,15.63,0,0,1,104.46,515.44Zm-12.61-35a3.15,3.15,0,0,0-1.69.46,1.22,1.22,0,0,0-.55,1,33.45,33.45,0,0,0,1,7.39,1.74,1.74,0,0,1,.05.22c.33,1.84.61,3.65.88,5.39,1.29,8.28,2.31,14.83,7.53,17.33h0a13.52,13.52,0,0,0,16.32-4.2c1.28-1.76-1.46-6.55-3.27-9.73-1.71-3-2.59-4.6-2.34-5.75.64-2.86,4.12-4.59,7.8-6.43,3.13-1.57,6.37-3.19,6.85-5.17.31-1.21.14-1.55.06-1.64s-.89-.57-4.36.81a110.21,110.21,0,0,0-11.25,5.31c-4.86,2.57-8.08,4.25-11.06,3.09-2.61-1-3.46-3.48-4.13-5.46-.42-1.22-.81-2.37-1.43-2.54A1.9,1.9,0,0,0,91.85,480.47Z"/><path d="M96.69,446.25c-.27-1.19-1.21-2-2.11-1.79A2,2,0,0,0,93.42,447c.27,1.19,1.21,2,2.11,1.79A2,2,0,0,0,96.69,446.25Z"/><path d="M114.76,441.9c-.26-1.19-1.21-2-2.11-1.79a2,2,0,0,0-1.15,2.51c.26,1.19,1.21,2,2.11,1.79A2,2,0,0,0,114.76,441.9Z"/><path class="cls-8" d="M86.52,445.56a1,1,0,0,1-.65-.24,1,1,0,0,1-.12-1.43A14.26,14.26,0,0,1,91,440.06a13.92,13.92,0,0,1,5-1.1h0a1,1,0,0,1,0,2,11.93,11.93,0,0,0-4.29.94,12.09,12.09,0,0,0-4.45,3.28A1,1,0,0,1,86.52,445.56Z"/><path class="cls-8" d="M121,439.64h0A14,14,0,0,1,110.67,435a1,1,0,0,1,.08-1.44,1,1,0,0,1,1.43.08,11.93,11.93,0,0,0,8.86,4,1,1,0,0,1,1,1A1,1,0,0,1,121,439.64Z"/><path d="M237.73,252.61a16.23,16.23,0,0,1-2.51-.21,1,1,0,0,1,.32-2c2.79.44,4.82.11,6-1a4.07,4.07,0,0,0,1.19-3l-3-27.19a1,1,0,0,1,.9-1.12,1,1,0,0,1,1.12.9l3,27.23a6.1,6.1,0,0,1-1.82,4.64A7.45,7.45,0,0,1,237.73,252.61Z"/><path d="M231.5,226.38a2.27,2.27,0,1,0-2.72,1.73A2.27,2.27,0,0,0,231.5,226.38Z"/><path d="M229.28,229.18a3.61,3.61,0,0,1-.72-.08,3.29,3.29,0,0,1,1.44-6.43,3.31,3.31,0,0,1,2.5,3.93h0A3.32,3.32,0,0,1,229.28,229.18Zm0-4.56a1.26,1.26,0,0,0-1.23,1,1.27,1.27,0,0,0,.17.95,1.26,1.26,0,0,0,2.29-.4,1.22,1.22,0,0,0-.16-.95,1.26,1.26,0,0,0-.79-.56A1.33,1.33,0,0,0,229.28,224.62Z"/><path d="M255.48,227.09a2.28,2.28,0,1,0-2.72,1.73A2.28,2.28,0,0,0,255.48,227.09Z"/><path d="M253.26,229.89a3.53,3.53,0,0,1-.72-.08,3.29,3.29,0,1,1,3.93-2.5h0A3.32,3.32,0,0,1,253.26,229.89Zm0-4.56a1.28,1.28,0,0,0-1.24,1,1.27,1.27,0,1,0,1.51-1A1.24,1.24,0,0,0,253.26,225.33Z"/><path class="cls-4" d="M208.39,224.08c-.37-.16-.27.4-.67.31a6.26,6.26,0,1,0,1.8,11.49c2.35,14.32,10.45,29.1,23.36,33.89a23.1,23.1,0,0,0,8.75,1.53C254.86,271,266,259.37,270.47,243a6.09,6.09,0,0,0,1.68.64,6.25,6.25,0,1,0,.28-12.26,58.29,58.29,0,0,0,.16-5.94s-.24-11.54-4.09-20.95c-6.25-15.32-13.91-23.75-33.12-22.21C213.09,184.07,208.67,221.19,208.39,224.08Z"/><path d="M241.14,272.32a23.92,23.92,0,0,1-8.61-1.6c-13.9-5.16-21.41-20.89-23.78-33.37a7.27,7.27,0,1,1-1.3-14c.63-5.48,5.55-40.25,27.85-42,20-1.6,27.9,7.55,34.14,22.84,3.87,9.48,4.16,20.84,4.17,21.32,0,1.61,0,3.23-.09,4.85a7.11,7.11,0,0,1,1.59.18,7.27,7.27,0,0,1,2.3,13.23,7.19,7.19,0,0,1-5.48.95,5.61,5.61,0,0,1-.8-.23c-5,16.73-16.44,27.63-29.48,27.9Zm-30.86-38.06.24,1.46c2,12.12,9.14,28.06,22.72,33.1a22.09,22.09,0,0,0,8.37,1.46C254,270,265,259.21,269.49,242.74l.35-1.25,1.13.63a5.24,5.24,0,1,0,3.7-9.68,5.29,5.29,0,0,0-2.06-.05l-1.29.23.1-1.31c.15-1.93.2-3.9.16-5.84,0-.11-.29-11.46-4-20.59-6.05-14.81-13.25-23.11-32.1-21.58-22,1.76-26,40.48-26.06,40.87l-.14,1.4-.79-.35a1.27,1.27,0,0,1-1,.16,5.25,5.25,0,0,0-4,.69,5.24,5.24,0,0,0,1.66,9.54,5.27,5.27,0,0,0,3.8-.6Z"/><path d="M242,252a5.22,5.22,0,0,1-3.44-1.16,6.85,6.85,0,0,1-2.14-4.63l.4-20.12a1,1,0,0,1,2,0l-.41,20.06h0a4.81,4.81,0,0,0,1.42,3.09,3.72,3.72,0,0,0,3,.62,1,1,0,1,1,.31,2A7.4,7.4,0,0,1,242,252Z"/><path d="M237.58,261.58a18.68,18.68,0,0,1-5.62-.89,1,1,0,0,1,.62-1.94,15.64,15.64,0,0,0,8.94.27,1,1,0,0,1,.54,2A17,17,0,0,1,237.58,261.58Z"/><path class="cls-4" d="M237.05,295.8c-6.88-3.29-7-12.7-9-23.46,0-.19-1.25-5.58-1.05-7.87s3.07-2.51,3.91-2.28c2.54.7,1.71,6.5,5.67,8,4.17,1.64,9.57-3.65,21.56-8.4,1.49-.59,4.42-1.7,5.48-.55.7.77.27,2.21.18,2.56-1.17,4.88-13.58,6.8-14.64,11.59-.48,2.18,8.11,12.18,5.44,15.85A14.54,14.54,0,0,1,237.05,295.8Z"/><path d="M242.88,298.1a14.55,14.55,0,0,1-6.27-1.39h0c-6.19-3-7.33-10.32-8.66-18.85-.27-1.73-.54-3.51-.87-5.34a35.55,35.55,0,0,1-1.06-8.14,3.23,3.23,0,0,1,1.41-2.46,5.07,5.07,0,0,1,3.78-.7c1.66.45,2.25,2.17,2.82,3.83s1.21,3.56,2.95,4.24c2.11.83,5-.7,9.38-3a114.81,114.81,0,0,1,11.43-5.41c1.64-.64,5-2,6.61-.28,1,1.11.58,2.83.44,3.4-.72,3-4.39,4.81-7.94,6.59-3.09,1.54-6.29,3.14-6.72,5.06,0,.55,1.21,2.72,2.11,4.3,2.45,4.27,5.21,9.11,3.16,11.93A15.67,15.67,0,0,1,242.88,298.1Zm-12.6-35a3.18,3.18,0,0,0-1.69.45,1.21,1.21,0,0,0-.55,1,32.7,32.7,0,0,0,1,7.43c.37,2,.65,3.83.92,5.57,1.29,8.29,2.3,14.83,7.53,17.33h0a13.52,13.52,0,0,0,16.32-4.19c1.28-1.76-1.46-6.56-3.28-9.73-1.71-3-2.58-4.6-2.33-5.75.63-2.86,4.11-4.6,7.8-6.44,3.13-1.57,6.37-3.18,6.85-5.17.3-1.21.14-1.54,0-1.63s-.88-.57-4.36.8a110.74,110.74,0,0,0-11.24,5.32c-4.87,2.56-8.08,4.26-11.06,3.09-2.62-1-3.46-3.49-4.14-5.47-.41-1.22-.8-2.36-1.43-2.54A1.85,1.85,0,0,0,230.28,263.14Z"/><path d="M232.61,228.91c-.26-1.19-1.2-2-2.11-1.78a2,2,0,0,0-1.15,2.51c.27,1.18,1.21,2,2.11,1.78A2,2,0,0,0,232.61,228.91Z"/><path d="M248.86,230.25c-.27-1.19-1.21-2-2.11-1.78a2,2,0,0,0-1.16,2.51c.27,1.18,1.21,2,2.11,1.78A2,2,0,0,0,248.86,230.25Z"/><path class="cls-8" d="M221,223.18a1,1,0,0,1-1-1,1,1,0,0,1,1-1L237,221h0a1,1,0,0,1,1,1,1,1,0,0,1-1,1l-16.06.14Z"/><path class="cls-8" d="M243.63,223a1,1,0,0,1,0-2l16.06-.14h0a1,1,0,0,1,0,2l-16.07.14Z"/><path class="cls-8" d="M220,192.32a1,1,0,0,1-.8-.39l-9.4-12.22a1,1,0,1,1,1.61-1.24l9.4,12.22a1,1,0,0,1-.19,1.42A1,1,0,0,1,220,192.32Z"/><path class="cls-8" d="M228.33,184.21a1,1,0,0,1-.93-.62L222,170.93a1,1,0,0,1,.53-1.33,1,1,0,0,1,1.34.53l5.37,12.67a1,1,0,0,1-.54,1.33A1.14,1.14,0,0,1,228.33,184.21Z"/><path class="cls-8" d="M240.21,183.13a1,1,0,0,1-1-1v-14a1,1,0,0,1,2,0v14A1,1,0,0,1,240.21,183.13Z"/><path class="cls-8" d="M261.23,192.32a1,1,0,0,1-.62-.21,1,1,0,0,1-.19-1.42L271,177a1,1,0,0,1,1.43-.18,1,1,0,0,1,.18,1.42L262,191.93A1,1,0,0,1,261.23,192.32Z"/><path class="cls-8" d="M252.86,185a.84.84,0,0,1-.31,0,1,1,0,0,1-.65-1.27l4.56-14.11a1,1,0,0,1,1.93.63l-4.56,14.1A1,1,0,0,1,252.86,185Z"/><path class="cls-8" d="M257.54,188.67a.91.91,0,0,1-.45-.11,1,1,0,0,1-.46-1.36l8-16.14a1,1,0,1,1,1.82.9l-8,16.14A1,1,0,0,1,257.54,188.67Z"/><path class="cls-8" d="M246.19,183.13h-.14a1,1,0,0,1-.87-1.15l2-14a1,1,0,0,1,1.15-.86,1,1,0,0,1,.86,1.14l-2,14A1,1,0,0,1,246.19,183.13Z"/><path class="cls-8" d="M233.92,183.12a1,1,0,0,1-1-.81L230,168.36a1,1,0,0,1,2-.42l2.93,14a1,1,0,0,1-.78,1.2Z"/><path class="cls-8" d="M223.38,187.36a1,1,0,0,1-.82-.42l-8.12-11.22a1,1,0,0,1,1.65-1.19l8.11,11.22a1,1,0,0,1-.23,1.42A1,1,0,0,1,223.38,187.36Z"/><path d="M366.86,452.87a7.43,7.43,0,0,1-5.23-1.73,6.05,6.05,0,0,1-1.82-4.6l3-27.26a1,1,0,0,1,1.12-.9,1,1,0,0,1,.9,1.12l-3,27.23h0a4.1,4.1,0,0,0,1.2,2.94c1.19,1.09,3.22,1.42,6,1a1,1,0,0,1,.32,2A16.33,16.33,0,0,1,366.86,452.87Z"/><path d="M373.08,426.64a2.28,2.28,0,1,1,2.72,1.72A2.28,2.28,0,0,1,373.08,426.64Z"/><path d="M375.3,429.43a3.2,3.2,0,1,1,.73-.07A3.61,3.61,0,0,1,375.3,429.43Zm0-4.55a1.25,1.25,0,0,0-1.22,1.54h0a1.26,1.26,0,0,0,2.29.4,1.26,1.26,0,0,0-1.07-1.94Z"/><path d="M349.11,427.35a2.28,2.28,0,1,1,2.72,1.72A2.28,2.28,0,0,1,349.11,427.35Z"/><path d="M351.33,430.14a3.29,3.29,0,0,1-2.78-5.05,3.23,3.23,0,0,1,2.06-1.45,3.29,3.29,0,0,1,1.44,6.43A3.51,3.51,0,0,1,351.33,430.14Zm0-4.55-.27,0a1.27,1.27,0,0,0-1,1.51,1.27,1.27,0,0,0,2.3.4,1.23,1.23,0,0,0,.16-.95A1.26,1.26,0,0,0,351.33,425.59Z"/><path class="cls-4" d="M395.72,425c3.38-.76,7.87,1,8.62,4.35a6.25,6.25,0,0,1-9.27,6.76c-2.36,14.32-10.45,29.1-23.37,33.89a23,23,0,0,1-8.74,1.53c-13.24-.28-24.35-11.93-28.84-28.29a6.79,6.79,0,0,1-1.68.64,6.26,6.26,0,0,1-2.74-12.21,6.33,6.33,0,0,1,2.45-.05c-.14-1.95-.2-3.93-.16-5.94a60.68,60.68,0,0,1,4.09-20.95"/><path d="M363.45,472.58h-.51c-13.05-.27-24.52-11.18-29.48-27.9a7.32,7.32,0,0,1-.8.23,7.27,7.27,0,1,1-3.18-14.19,7,7,0,0,1,1.59-.17c-.1-1.68-.12-3.28-.09-4.86a61.9,61.9,0,0,1,4.16-21.3l1.89.75a60,60,0,0,0-4,20.6c0,1.88,0,3.79.16,5.84l.09,1.3-1.28-.22a5.21,5.21,0,0,0-5.34,2.35,5.25,5.25,0,0,0,5.58,7.92,5.08,5.08,0,0,0,1.4-.54l1.13-.63.35,1.25c4.52,16.47,15.46,27.28,27.88,27.54a21.66,21.66,0,0,0,8.37-1.46c13.58-5,20.72-21,22.72-33.11l.24-1.46,1.28.75a5.22,5.22,0,0,0,7.76-5.65,4.7,4.7,0,0,0-2.76-3A7.53,7.53,0,0,0,396,426l-.45-2a9.59,9.59,0,0,1,5.94.7,6.6,6.6,0,0,1,3.9,4.42,7.26,7.26,0,0,1-9.5,8.45c-2.37,12.48-9.88,28.21-23.78,33.37A24,24,0,0,1,363.45,472.58Z"/><path d="M375.28,436.78a10.67,10.67,0,0,1-10.35-8.31h0a10.64,10.64,0,1,1,12.7,8A10.46,10.46,0,0,1,375.28,436.78Zm-7.38-9a7.59,7.59,0,1,0,5.75-9.06,7.59,7.59,0,0,0-5.75,9.06Z"/><path d="M351.16,437.48a10.63,10.63,0,1,1,2.35-.26A10.45,10.45,0,0,1,351.16,437.48Zm0-18.22a7.29,7.29,0,0,0-1.66.19,7.58,7.58,0,1,0,8.07,11.46,7.52,7.52,0,0,0,1-5.72A7.61,7.61,0,0,0,351.18,419.26Z"/><path d="M332,427.87a1,1,0,0,1-.1-2L342,424.78a1,1,0,0,1,1.11.91,1,1,0,0,1-.9,1.11l-10.09,1.06Z"/><path d="M360.86,426.34a1,1,0,0,1-1-1,1,1,0,0,1,1-1l4.83-.07h0a1,1,0,1,1,0,2l-4.82.07Z"/><path class="cls-4" d="M395.72,425c-.85.5-1.45-16.3-4.09-15.94a106.73,106.73,0,0,1-16.2.71c-17-.05-40.37-.44-43.49-9.75-2-6.1,14.15-21.21,17.11-22.26"/><path d="M395.68,426.05a1.08,1.08,0,0,1-.47-.11c-.73-.36-.86-1-1.45-5.57-.36-2.79-1.2-9.23-2.16-10.25a101.11,101.11,0,0,1-15.08.71l-1.09,0c-20.74-.06-41.26-.92-44.45-10.44-2.29-6.81,14.54-22.4,17.74-23.54a1,1,0,0,1,.67,1.92c-2.63.93-18.24,15.75-16.49,21,3,8.93,28.72,9,42.54,9l1.12,0a100.26,100.26,0,0,0,14.93-.71,1.68,1.68,0,0,1,1.26.35c1.56,1.18,2.23,5.58,3,11.67.21,1.57.45,3.49.64,4.17a.92.92,0,0,1,.19.24,1,1,0,0,1-.37,1.39A1.1,1.1,0,0,1,395.68,426.05Z"/><path d="M370.81,425.79a2.28,2.28,0,1,1,2.72,1.72A2.27,2.27,0,0,1,370.81,425.79Z"/><path d="M346.39,425.63a2.28,2.28,0,1,1,4.44-1,2.28,2.28,0,1,1-4.44,1Z"/><path d="M365.39,452.68A5.61,5.61,0,0,1,361,451a6.87,6.87,0,0,1-1.46-4.88l3.26-19.86a1,1,0,1,1,2,.33l-3.25,19.8h0a4.84,4.84,0,0,0,1,3.26,3.69,3.69,0,0,0,2.92,1h0a1,1,0,0,1,0,2Z"/><path d="M367,461.84a17,17,0,0,1-4.48-.6,1,1,0,1,1,.54-2A15.74,15.74,0,0,0,372,459a1,1,0,0,1,.62,1.93A18.34,18.34,0,0,1,367,461.84Z"/><path class="cls-4" d="M359.08,495c-6.87-3.29-7-12.7-9-23.46,0-.19-1.24-5.58-1.05-7.87s3.08-2.51,3.92-2.28c2.54.7,1.7,6.5,5.66,8,4.18,1.64,9.57-3.65,21.56-8.4,1.49-.59,4.43-1.7,5.49-.55.7.77.26,2.21.18,2.56-1.18,4.88-13.58,6.8-14.64,11.59-.49,2.18,8.11,12.19,5.43,15.85A14.54,14.54,0,0,1,359.08,495Z"/><path d="M364.92,497.3a14.49,14.49,0,0,1-6.27-1.39h0c-6.19-3-7.34-10.32-8.66-18.85-.27-1.72-.55-3.51-.88-5.34-.58-2.75-1.22-6.27-1.06-8.14a3.24,3.24,0,0,1,1.42-2.45,5.08,5.08,0,0,1,3.78-.71c1.66.45,2.24,2.17,2.81,3.83s1.21,3.56,2.95,4.24c2.13.83,5-.7,9.38-3a112.09,112.09,0,0,1,11.44-5.4c2.5-1,5.23-1.8,6.6-.3,1,1.12.59,2.85.45,3.41-.72,3-4.39,4.81-7.94,6.59-3.09,1.54-6.29,3.14-6.72,5.06,0,.56,1.21,2.72,2.11,4.3,2.44,4.27,5.21,9.11,3.16,11.93A15.67,15.67,0,0,1,364.92,497.3Zm-5.4-3.22a13.51,13.51,0,0,0,16.32-4.19c1.28-1.76-1.46-6.56-3.27-9.73-1.71-3-2.59-4.6-2.33-5.75.63-2.86,4.11-4.6,7.79-6.44,3.14-1.57,6.37-3.18,6.85-5.17.31-1.2.14-1.54.06-1.63s-.89-.57-4.36.8a110.82,110.82,0,0,0-11.24,5.32c-4.87,2.56-8.09,4.25-11.07,3.09-2.61-1-3.45-3.49-4.13-5.47-.41-1.21-.81-2.36-1.43-2.54a3.2,3.2,0,0,0-2.08.42,1.23,1.23,0,0,0-.56,1,33.24,33.24,0,0,0,1,7.42c.37,2,.65,3.83.93,5.57,1.28,8.29,2.3,14.83,7.52,17.33Z"/><path d="M410.29,487.34c-1.81,0-3.86-1.22-6.44-2.76a69.26,69.26,0,0,0-7.39-3.95c-10.22-4.57-16.79-5.87-25.13-5l-.21-2c8.73-.93,15.58.42,26.17,5.16a70.73,70.73,0,0,1,7.59,4.06c3,1.78,5,3,6.2,2.27,2.75-1.51.81-10.58-1.25-20.19-.85-4-1.83-8.55-2.62-13.17a162.61,162.61,0,0,1-1.86-43.05c.7-9.89,1.16-16.42-3.46-23.75-8.63-13.7-35.71-14.62-52.38-6.25l-.91-1.82c17.41-8.74,45.83-7.58,55,7,5,7.89,4.49,14.69,3.77,25a160.32,160.32,0,0,0,1.83,42.56c.79,4.59,1.76,9.11,2.61,13.1,2.5,11.7,4.31,20.15.24,22.39A3.64,3.64,0,0,1,410.29,487.34Z"/><path d="M384.89,426.44a1,1,0,0,1-.06-2l10.84-.6a1,1,0,0,1,1.07,1,1,1,0,0,1-1,1.07l-10.84.6Z"/><path d="M340.79,384.39a21.88,21.88,0,0,1,8.19-6.72c15.55-7.09,41,6.35,48.8,26.24,3,7.67,2.73,15.75,1.92,21.27a3.53,3.53,0,0,0-3-.3c-.67.28-.89,0-1.16,0-1.32,0-1.5-9.79-3.9-15.75-2.08-5.15-6.13-8.56-48.22-23.75Z"/></g><g id="CC_Laura_Henneke" data-name="CC Laura Henneke"><text class="cls-9" transform="translate(345.89 608.98)">Laura Henneke</text></g></svg>