<svg xmlns="http://www.w3.org/2000/svg" xmlns:xlink="http://www.w3.org/1999/xlink" viewBox="0 0 453.54 705.83"><defs><style>.cls-1{fill:none;}.cls-2{opacity:0.3;}.cls-3{fill:#b6b6b7;}.cls-4{fill:#0c0d0d;}.cls-5{fill:#a8ce3b;}.cls-6{fill:#fff;}.cls-7{clip-path:url(#clip-path);}.cls-8{clip-path:url(#clip-path-2);}.cls-9{clip-path:url(#clip-path-3);}.cls-10{fill:#010101;}.cls-11{fill:#1a1a1a;}.cls-12{fill:#171717;}.cls-13{fill:#0d0d0d;}.cls-14{fill:#1d1d1d;}.cls-15{fill:#121212;}.cls-16{fill:#161616;}.cls-17{fill:#202020;}.cls-18{fill:#1e1e1e;}.cls-19{fill:#252525;}.cls-20{fill:#2b2b2b;}.cls-21{fill:#383838;}.cls-22{fill:#131313;}.cls-23{fill:#4a4a4a;}.cls-24{fill:#151515;}.cls-25{font-size:16px;font-family:PatrickHand-Regular, Patrick Hand;}</style><clipPath id="clip-path"><circle class="cls-1" cx="333.81" cy="249.24" r="39.19"/></clipPath><clipPath id="clip-path-2"><circle class="cls-1" cx="224.13" cy="245.88" r="39.19"/></clipPath><clipPath id="clip-path-3"><circle class="cls-1" cx="110.03" cy="244.35" r="39.19"/></clipPath></defs><g id="Artwork"><g class="cls-2"><path class="cls-3" d="M291.64,510.14q-48-3-96-2l-.31-21.32c-.08-5.42-8.5-5.43-8.42,0q.2,12.8.38,25.61a4.25,4.25,0,0,0,4.21,4.2q50.1-1.21,100.16,1.92C297.05,518.9,297,510.48,291.64,510.14Z"/></g><g class="cls-2"><path class="cls-3" d="M177.13,497.68c-2.68,1.75-5.41,1.26-8.1-.24-.79-.44-2.51-1.29-2.84-2.24s.38-2.61.3-3.61c-.43-5.36-8.85-5.4-8.42,0,.22,2.76-.69,5.06.78,7.7a15.28,15.28,0,0,0,5.94,5.42c5.17,3,11.45,3.59,16.59.24C185.9,502,181.69,494.71,177.13,497.68Z"/></g><path class="cls-4" d="M223.75,431a4.51,4.51,0,0,1-2.91-1.33c-2.68-2.36-5.56-8.25-5.74-14-.1-3.15.77-5.87,2.35-10.81,1.76-5.49,4.09-11.77,5.53-14.92l1.53.7c-1.42,3.1-3.71,9.3-5.45,14.73-1.64,5.13-2.36,7.51-2.28,10.24.17,5.31,2.76,10.68,5.17,12.81a2.85,2.85,0,0,0,1.91.9c3.33-.31,5.18-13.83,6-19.6v-.09a97.09,97.09,0,0,0,.76-17.87l1.68-.08a97.82,97.82,0,0,1-.77,18.18l0,.09c-1.42,10.43-3.17,20.65-7.47,21Z"/><path class="cls-4" d="M258.24,445.43v-.37c-.05-13.6-4.82-21.58-8.82-25.88a26.71,26.71,0,0,0-4.26-3.66c-6.5-4.3-9.63-5-14.47-4.91l0-1.68c5.13-.06,8.59.67,15.42,5.19a27.91,27.91,0,0,1,4.57,3.91c4.19,4.53,9.21,12.88,9.27,27v.37Z"/><path class="cls-4" d="M244.13,446.41h0a.85.85,0,0,1-.8-.88l.74-16.22a.84.84,0,0,1,1.68.08L245,445.6A.84.84,0,0,1,244.13,446.41Z"/><path class="cls-4" d="M231.44,392.58c-14.44,0-26.45-13.88-28.36-32.51a6.62,6.62,0,0,1-2.92.67,6.74,6.74,0,1,1,3.15-12.69c2.5-17.58,14.41-30.66,28.13-30.66,15.65,0,28.4,16.57,28.62,37.05a6.58,6.58,0,0,1,2-.3,6.74,6.74,0,1,1-3.39,12.55C254.83,382,243.79,392.58,231.44,392.58ZM204.52,357l.12,1.58C206,377,217.53,390.9,231.44,390.9c11.88,0,22.51-10.62,25.85-25.82l.31-1.4,1.07,1a5,5,0,1,0,3.36-8.81,5.11,5.11,0,0,0-2.42.61l-1.26.7,0-1.75c0-.14,0-.27,0-.41,0-19.8-12.08-35.91-26.94-35.91-13.22,0-24.67,13.13-26.63,30.54l-.18,1.57-1.2-1a5,5,0,1,0-3.27,8.89,5,5,0,0,0,3.12-1.08Z"/><path class="cls-4" d="M210.49,348.74l-5.78-2c-.08,1,.07,3.43-.08,4.42,2.54,1.87,4.78,4.18,7.05,5.95"/><path d="M225,357.13a2.29,2.29,0,1,0-2.28,2.28A2.28,2.28,0,0,0,225,357.13Z"/><path d="M222.7,360.26a3.13,3.13,0,1,1,3.12-3.13A3.13,3.13,0,0,1,222.7,360.26Zm0-4.57a1.44,1.44,0,1,0,1.44,1.44A1.44,1.44,0,0,0,222.7,355.69Z"/><path d="M249.08,356.43a2.29,2.29,0,1,0-2.28,2.28A2.28,2.28,0,0,0,249.08,356.43Z"/><path d="M246.8,359.55a3.13,3.13,0,1,1,3.12-3.12A3.13,3.13,0,0,1,246.8,359.55Zm0-4.56a1.44,1.44,0,1,0,1.44,1.44A1.43,1.43,0,0,0,246.8,355Z"/><path d="M233,377.19l-.81,0a1.05,1.05,0,0,1,.17-2.1,3.86,3.86,0,0,0,3.14-.79,3.29,3.29,0,0,0,.79-2.29L233,350.87a1.05,1.05,0,0,1,2.08-.32l3.26,21.18a4.93,4.93,0,0,1-5.38,5.46Z"/><path d="M231.54,364.57H211.92l-1.78-15.84h24.07Zm-16.61-3.37H228.7l1.53-9.1H213.9Z"/><path d="M255.58,364.57H236.35l-2.67-15.8,28.8-.53Zm-16.39-3.37h14.16l4-9.5-19.71.36Z"/><path class="cls-4" d="M233,389.85a.83.83,0,0,1-.62-.27,12.34,12.34,0,0,0-4.66-3.16,12.59,12.59,0,0,0-4.4-.78h0a.85.85,0,1,1,0-1.69,14.32,14.32,0,0,1,5,.9,14.07,14.07,0,0,1,5.3,3.58.85.85,0,0,1-.61,1.42Z"/><path class="cls-4" d="M253.08,347.11a.86.86,0,0,1-.76-.48,12.36,12.36,0,0,0-3.52-4.39,12.19,12.19,0,0,0-4-2.05.84.84,0,0,1,.49-1.61,13.88,13.88,0,0,1,4.52,2.33,14.11,14.11,0,0,1,4,5,.85.85,0,0,1-.76,1.21Z"/><path class="cls-4" d="M213.45,346.28a.85.85,0,0,1-.68-1.35,13.88,13.88,0,0,1,9.77-5.55.84.84,0,0,1,.17,1.67,12.13,12.13,0,0,0-8.58,4.89A.86.86,0,0,1,213.45,346.28Z"/><path class="cls-5" d="M295.13,515.54c.07-27.22.65-47.58,0-74.7-31.9,2.07-71.5,1.82-102.87,3.45.75,14.83,1.2,26.5,1.41,38.21.13,7.22.24,30.1.24,30.1S268.07,514.71,295.13,515.54Z"/><path class="cls-4" d="M296,516.41l-.87,0c-26.74-.82-100.47-2.92-101.21-2.94l-.82,0v-.81c0-.23-.11-23-.24-30.1-.2-11.1-.62-22.52-1.41-38.18l0-.84.84,0c14.21-.74,29.76-1.09,46.22-1.45,19.27-.43,39.2-.87,56.63-2l.88-.06,0,.87c.45,18.84.31,34.59.16,51.27-.07,7.44-.14,15.13-.16,23.46Zm-101.22-4.63c8.07.23,73.68,2.1,99.54,2.89,0-8,.09-15.42.15-22.6.15-16.41.29-31.92-.13-50.34-17.27,1.1-36.87,1.53-55.84,1.95-16.12.36-31.36.7-45.32,1.41.75,15.24,1.16,26.47,1.36,37.39C194.63,488.85,194.73,507.64,194.75,511.78Z"/><path class="cls-4" d="M244.51,387.74a.85.85,0,0,1-.84-.84c0-3.76-6.56-7-15.59-7.75-5.94-.47-10.05.16-11.89,1.86a3.58,3.58,0,0,0-1.16,2.78.84.84,0,1,1-1.68,0,5.23,5.23,0,0,1,1.7-4c2.25-2.08,6.56-2.83,13.16-2.29,10.26.82,17.15,4.61,17.15,9.42A.85.85,0,0,1,244.51,387.74Z"/><rect class="cls-6" x="160.88" y="486.8" width="20.83" height="12.09" rx="6.04" transform="translate(237.44 -24.71) rotate(26.45)"/><path class="cls-4" d="M175.2,501.68a6.8,6.8,0,0,1-3-.72l-7.83-3.9a6.77,6.77,0,0,1-3.45-4,6.88,6.88,0,0,1,9.58-8.35l7.83,3.89a6.88,6.88,0,0,1-.87,12.69A7.05,7.05,0,0,1,175.2,501.68Zm-7.8-16a5.09,5.09,0,0,0-1.67.28,5.2,5.2,0,0,0-.66,9.58l7.83,3.89a5.2,5.2,0,0,0,4.63-9.31l-7.83-3.9A5.15,5.15,0,0,0,167.4,485.7Z"/><rect class="cls-4" x="163.72" y="491.24" width="12.09" height="1.68" transform="translate(-345.19 415.98) rotate(-62.56)"/><path class="cls-4" d="M188.14,484.07l-.4-38.64v-.38c.07-14.14,5.08-22.49,9.27-27a27.76,27.76,0,0,1,4.58-3.91c6.83-4.52,10.27-5.27,15.41-5.19l0,1.68c-4.86-.06-8,.61-14.47,4.91a26.71,26.71,0,0,0-4.26,3.66c-4,4.3-8.76,12.28-8.82,25.88v.37l.39,38.62Z"/><path class="cls-4" d="M203.16,444.65a.84.84,0,0,1-.84-.82L202,429.37a.85.85,0,0,1,.82-.86h0a.83.83,0,0,1,.84.82l.38,14.46a.84.84,0,0,1-.83.86Z"/><path class="cls-4" d="M193.67,484.06H130.9a.84.84,0,0,1,0-1.68h62.77a.84.84,0,0,1,0,1.68Z"/><path class="cls-4" d="M202.22,534.29a56.42,56.42,0,0,1-16-2.17c-5.79-1.78-9.3-4.29-9.87-7.07s1.74-4.92,4.16-7.34c2.79-2.8,6-6,5.51-10.2-.32-3-2.33-5.82-6-8.46l1-1.36c4,2.92,6.29,6.17,6.66,9.64.54,5-3.08,8.65-6,11.57-2.18,2.18-4.06,4.06-3.7,5.81.43,2.09,3.68,4.26,8.71,5.8C207,536.74,225,529,231.53,522.6c3.88-3.78,4.41-5.84,5-9.15l1.65.31c-.65,3.55-1.34,6-5.5,10C224.62,531.68,212.71,534.29,202.22,534.29Z"/><path class="cls-4" d="M244,513.7h-1.69a4.26,4.26,0,0,0-8.52,0h-1.69a6,6,0,0,1,11.9,0Z"/><path class="cls-5" d="M351.41,455.39h-.84a.84.84,0,1,1,0-1.68h.84a.84.84,0,1,1,0,1.68Zm-9.26,0h-.84a.84.84,0,1,1,0-1.68h.84a.84.84,0,0,1,0,1.68Zm-9.26,0h-.84a.84.84,0,1,1,0-1.68h.84a.84.84,0,0,1,0,1.68Zm-9.26,0h-.84a.84.84,0,1,1,0-1.68h.84a.84.84,0,1,1,0,1.68Zm-9.26,0h-.84a.84.84,0,1,1,0-1.68h.84a.84.84,0,1,1,0,1.68Zm-9.26,0h-.84a.84.84,0,1,1,0-1.68h.84a.84.84,0,1,1,0,1.68Zm-9.26,0H295a.84.84,0,1,1,0-1.68h.84a.84.84,0,1,1,0,1.68Zm-9.26,0h-.84a.84.84,0,1,1,0-1.68h.84a.84.84,0,1,1,0,1.68Zm73.13-1a.84.84,0,0,1-.26-1.64c.26-.09.52-.17.77-.27a.84.84,0,0,1,.57,1.59l-.83.28A.73.73,0,0,1,359.72,454.36Zm7.89-4.68a.86.86,0,0,1-.6-.25.84.84,0,0,1,0-1.19c.19-.19.38-.38.56-.58a.84.84,0,1,1,1.23,1.15l-.61.63A.86.86,0,0,1,367.61,449.68Zm4.52-7.93-.18,0a.84.84,0,0,1-.64-1c.06-.26.11-.52.16-.78a.84.84,0,0,1,1-.69.85.85,0,0,1,.7,1c-.05.29-.11.59-.18.88A.83.83,0,0,1,372.13,441.75Zm.37-9.23a.85.85,0,0,1-.85-.84v-.85a.85.85,0,0,1,1.69,0v.85A.85.85,0,0,1,372.5,432.52Zm0-9.26a.85.85,0,0,1-.85-.84v-.84a.85.85,0,1,1,1.69,0v.84A.85.85,0,0,1,372.5,423.26Zm0-9.26a.85.85,0,0,1-.85-.84v-.84a.85.85,0,1,1,1.69,0v.84A.85.85,0,0,1,372.5,414Zm0-9.26a.85.85,0,0,1-.85-.84v-.84a.85.85,0,0,1,1.69,0v.84A.85.85,0,0,1,372.5,404.74Zm0-9.26a.84.84,0,0,1-.85-.84v-.84a.85.85,0,0,1,1.69,0v.84A.84.84,0,0,1,372.5,395.48Zm0-9.26a.84.84,0,0,1-.85-.84v-.84a.85.85,0,0,1,1.69,0v.84A.84.84,0,0,1,372.5,386.22Zm0-9.26a.84.84,0,0,1-.85-.84v-.84a.85.85,0,0,1,1.69,0v.84A.84.84,0,0,1,372.5,377Zm0-9.26a.84.84,0,0,1-.85-.84V366a.85.85,0,0,1,1.69,0v.84A.84.84,0,0,1,372.5,367.7Zm0-9.26a.84.84,0,0,1-.85-.84v-.84a.85.85,0,0,1,1.69,0v.84A.84.84,0,0,1,372.5,358.44Zm0-9.25a.85.85,0,0,1-.85-.85v-.84a.85.85,0,0,1,1.69,0v.84A.85.85,0,0,1,372.5,349.19Zm0-9.26a.85.85,0,0,1-.85-.85v-.84a.85.85,0,0,1,1.69,0v.84A.85.85,0,0,1,372.5,339.93Zm0-9.26a.85.85,0,0,1-.85-.85V329a.85.85,0,0,1,1.69,0v.84A.85.85,0,0,1,372.5,330.67Zm0-9.26a.85.85,0,0,1-.85-.84v-.85a.85.85,0,0,1,1.69,0v.85A.85.85,0,0,1,372.5,321.41Zm0-9.26a.85.85,0,0,1-.85-.84v-.85a.85.85,0,0,1,1.69,0v.85A.85.85,0,0,1,372.5,312.15Z"/><path class="cls-5" d="M400.88,307.89H400a.85.85,0,0,1,0-1.69h.85a.85.85,0,0,1,0,1.69Zm-9.26,0h-.85a.85.85,0,0,1,0-1.69h.85a.85.85,0,0,1,0,1.69Zm-9.26,0h-.85a.85.85,0,0,1,0-1.69h.85a.85.85,0,0,1,0,1.69Zm-9.26,0h-.84a.85.85,0,1,1,0-1.69h.84a.85.85,0,0,1,0,1.69Zm-9.26,0H363a.85.85,0,1,1,0-1.69h.84a.85.85,0,0,1,0,1.69Zm-9.26,0h-.84a.85.85,0,0,1,0-1.69h.84a.85.85,0,0,1,0,1.69Zm-9.26,0h-.84a.85.85,0,0,1,0-1.69h.84a.85.85,0,0,1,0,1.69Zm-9.26,0h-.84a.85.85,0,0,1,0-1.69h.84a.85.85,0,0,1,0,1.69Zm-9.26,0H326a.85.85,0,0,1,0-1.69h.84a.85.85,0,0,1,0,1.69Zm-9.26,0h-.84a.85.85,0,0,1,0-1.69h.84a.85.85,0,0,1,0,1.69Zm-9.26,0h-.84a.85.85,0,0,1,0-1.69h.84a.85.85,0,0,1,0,1.69Zm-9.26,0h-.84a.85.85,0,0,1,0-1.69H299a.85.85,0,1,1,0,1.69Zm-9.26,0h-.84a.85.85,0,0,1,0-1.69h.84a.85.85,0,1,1,0,1.69Zm-9.25,0h-.85a.85.85,0,0,1,0-1.69h.85a.85.85,0,0,1,0,1.69Zm-9.26,0h-.85a.85.85,0,0,1,0-1.69h.85a.85.85,0,0,1,0,1.69Zm-9.26,0h-.84a.85.85,0,1,1,0-1.69H262a.85.85,0,0,1,0,1.69Zm-9.26,0h-.84a.85.85,0,1,1,0-1.69h.84a.85.85,0,0,1,0,1.69Zm-9.26,0h-.84a.85.85,0,0,1,0-1.69h.84a.85.85,0,0,1,0,1.69Zm-9.26,0h-.84a.85.85,0,0,1,0-1.69h.84a.85.85,0,0,1,0,1.69Zm-9.26,0h-.84a.85.85,0,0,1,0-1.69H225a.85.85,0,0,1,0,1.69Zm-9.26,0h-.84a.85.85,0,0,1,0-1.69h.84a.85.85,0,0,1,0,1.69Zm-9.26,0h-.84a.85.85,0,0,1,0-1.69h.84a.85.85,0,0,1,0,1.69Zm-9.26,0h-.84a.85.85,0,0,1,0-1.69h.84a.85.85,0,0,1,0,1.69Zm-9.26,0h-.84a.85.85,0,0,1,0-1.69h.84a.85.85,0,1,1,0,1.69Zm-9.26,0h-.84a.85.85,0,0,1,0-1.69h.84a.85.85,0,1,1,0,1.69Zm-9.25,0h-.85a.85.85,0,0,1,0-1.69h.85a.85.85,0,0,1,0,1.69Zm-9.26,0h-.85a.85.85,0,0,1,0-1.69h.85a.85.85,0,0,1,0,1.69Zm-9.26,0H150a.85.85,0,0,1,0-1.69h.85a.85.85,0,0,1,0,1.69Zm-9.26,0h-.84a.85.85,0,1,1,0-1.69h.84a.85.85,0,0,1,0,1.69Zm-9.26,0h-.84a.85.85,0,1,1,0-1.69h.84a.85.85,0,0,1,0,1.69Zm-9.26,0h-.84a.85.85,0,0,1,0-1.69h.84a.85.85,0,0,1,0,1.69Zm-9.26,0H113a.85.85,0,0,1,0-1.69h.84a.85.85,0,0,1,0,1.69Zm-9.26,0h-.84a.85.85,0,0,1,0-1.69h.84a.85.85,0,0,1,0,1.69Zm-9.26,0h-.84a.85.85,0,0,1,0-1.69h.84a.85.85,0,0,1,0,1.69Zm-9.26,0h-.84a.85.85,0,0,1,0-1.69h.84a.85.85,0,0,1,0,1.69Zm-9.26,0H76a.85.85,0,0,1,0-1.69h.84a.85.85,0,0,1,0,1.69Zm-9.26,0H66.7a.85.85,0,0,1,0-1.69h.84a.85.85,0,1,1,0,1.69Zm-9.26,0h-.84a.85.85,0,0,1,0-1.69h.84a.85.85,0,1,1,0,1.69Zm-9.25,0h-.85a.85.85,0,0,1,0-1.69H49a.85.85,0,0,1,0,1.69Zm360.26-.11a.84.84,0,0,1-.09-1.68c.27,0,.53-.06.8-.1a.84.84,0,0,1,.25,1.67l-.87.11ZM39.92,306.65a.79.79,0,0,1-.3,0c-.28-.11-.55-.22-.81-.34a.84.84,0,0,1-.44-1.1.85.85,0,0,1,1.11-.44l.74.31a.84.84,0,0,1-.3,1.62Zm378-2a.84.84,0,0,1-.47-1.54l.65-.47a.84.84,0,1,1,1,1.34c-.23.18-.47.35-.71.52A.85.85,0,0,1,417.88,304.61ZM32.43,301.38a.81.81,0,0,1-.63-.3c-.2-.22-.38-.45-.56-.68a.84.84,0,1,1,1.32-1l.51.62a.85.85,0,0,1-.09,1.19A.82.82,0,0,1,32.43,301.38Zm391.51-3.65a.92.92,0,0,1-.39-.09.85.85,0,0,1-.36-1.14c.12-.23.24-.47.35-.72a.84.84,0,0,1,1.53.7c-.12.27-.25.53-.38.79A.85.85,0,0,1,423.94,297.73Zm-395.6-4.55a.83.83,0,0,1-.82-.67c-.06-.28-.12-.57-.17-.86a.84.84,0,1,1,1.66-.28l.15.79a.84.84,0,0,1-.64,1ZM426,288.8a.84.84,0,0,1-.84-.84v-.84a.84.84,0,0,1,1.68,0V288A.83.83,0,0,1,426,288.8ZM27.92,284a.85.85,0,0,1-.85-.84v-.84a.85.85,0,1,1,1.69,0v.84A.85.85,0,0,1,27.92,284ZM426,279.55a.85.85,0,0,1-.84-.85v-.84a.84.84,0,0,1,1.68,0v.84A.84.84,0,0,1,426,279.55ZM27.92,274.69a.85.85,0,0,1-.85-.84V273a.85.85,0,1,1,1.69,0v.84A.85.85,0,0,1,27.92,274.69ZM426,270.29a.85.85,0,0,1-.84-.85v-.84a.84.84,0,0,1,1.68,0v.84A.84.84,0,0,1,426,270.29ZM27.92,265.43a.85.85,0,0,1-.85-.84v-.84a.85.85,0,0,1,1.69,0v.84A.85.85,0,0,1,27.92,265.43ZM426,261a.85.85,0,0,1-.84-.84v-.85a.84.84,0,1,1,1.68,0v.85A.84.84,0,0,1,426,261ZM27.92,256.17a.85.85,0,0,1-.85-.84v-.84a.85.85,0,0,1,1.69,0v.84A.85.85,0,0,1,27.92,256.17ZM426,251.77a.85.85,0,0,1-.84-.84v-.85a.84.84,0,1,1,1.68,0v.85A.84.84,0,0,1,426,251.77ZM27.92,246.91a.84.84,0,0,1-.85-.84v-.84a.85.85,0,0,1,1.69,0v.84A.84.84,0,0,1,27.92,246.91ZM426,242.51a.85.85,0,0,1-.84-.84v-.84a.84.84,0,1,1,1.68,0v.84A.84.84,0,0,1,426,242.51ZM27.92,237.65a.84.84,0,0,1-.85-.84V236a.85.85,0,0,1,1.69,0v.84A.84.84,0,0,1,27.92,237.65ZM426,233.25a.85.85,0,0,1-.84-.84v-.84a.84.84,0,1,1,1.68,0v.84A.84.84,0,0,1,426,233.25ZM27.92,228.39a.84.84,0,0,1-.85-.84v-.84a.85.85,0,0,1,1.69,0v.84A.84.84,0,0,1,27.92,228.39ZM426,224a.85.85,0,0,1-.84-.84v-.84a.84.84,0,1,1,1.68,0v.84A.84.84,0,0,1,426,224ZM27.92,219.14a.85.85,0,0,1-.85-.85v-.84a.85.85,0,0,1,1.69,0v.84A.85.85,0,0,1,27.92,219.14ZM426,214.73a.85.85,0,0,1-.84-.84v-.84a.84.84,0,1,1,1.68,0v.84A.84.84,0,0,1,426,214.73ZM27.92,209.88a.85.85,0,0,1-.85-.85v-.84a.85.85,0,0,1,1.69,0V209A.85.85,0,0,1,27.92,209.88ZM426,205.47a.84.84,0,0,1-.84-.84v-.84a.84.84,0,1,1,1.68,0v.84A.83.83,0,0,1,426,205.47ZM27.92,200.62h0a.85.85,0,0,1-.82-.86c0-.29,0-.59,0-.88a.85.85,0,0,1,.89-.79.84.84,0,0,1,.79.9l0,.8A.84.84,0,0,1,27.92,200.62Zm397.49-4.35a.85.85,0,0,1-.82-.64c-.07-.26-.14-.51-.22-.77a.84.84,0,0,1,1.61-.49q.13.42.24.84a.84.84,0,0,1-.6,1ZM30.32,191.78a.87.87,0,0,1-.41-.11.84.84,0,0,1-.32-1.15c.14-.26.29-.51.45-.76a.84.84,0,0,1,1.42.9l-.41.69A.84.84,0,0,1,30.32,191.78ZM421,188.23a.86.86,0,0,1-.62-.27c-.18-.19-.36-.39-.56-.57a.85.85,0,0,1,0-1.19.84.84,0,0,1,1.19,0c.21.21.42.42.62.64a.85.85,0,0,1-.05,1.19A.82.82,0,0,1,421,188.23ZM36.64,185.14a.84.84,0,0,1-.45-1.55l.75-.46a.84.84,0,0,1,.84,1.46l-.69.42A.84.84,0,0,1,36.64,185.14Zm376.67-1.9a.84.84,0,0,1-.27,0c-.25-.09-.5-.17-.76-.24a.84.84,0,0,1,.46-1.62c.29.08.57.17.85.27a.84.84,0,0,1,.52,1.06A.85.85,0,0,1,413.31,183.24Zm-368-.94a.84.84,0,0,1-.06-1.68c.29,0,.59,0,.88,0a.84.84,0,1,1,0,1.68l-.8,0Zm362,0h-.84a.85.85,0,0,1,0-1.69h.84a.85.85,0,0,1,0,1.69Zm-9.26,0h-.84a.85.85,0,0,1,0-1.69H398a.85.85,0,0,1,0,1.69Zm-9.26,0h-.84a.85.85,0,0,1,0-1.69h.84a.85.85,0,0,1,0,1.69Zm-9.26,0h-.84a.85.85,0,0,1,0-1.69h.84a.85.85,0,0,1,0,1.69Zm-9.26,0h-.84a.85.85,0,0,1,0-1.69h.84a.85.85,0,0,1,0,1.69Zm-9.26,0h-.84a.85.85,0,0,1,0-1.69H361a.85.85,0,0,1,0,1.69Zm-9.26,0h-.84a.85.85,0,0,1,0-1.69h.84a.85.85,0,1,1,0,1.69Zm-9.26,0h-.84a.85.85,0,0,1,0-1.69h.84a.85.85,0,1,1,0,1.69Zm-9.25,0h-.85a.85.85,0,0,1,0-1.69h.85a.85.85,0,0,1,0,1.69Zm-9.26,0h-.85a.85.85,0,0,1,0-1.69H324a.85.85,0,0,1,0,1.69Zm-9.26,0h-.84a.85.85,0,1,1,0-1.69h.84a.85.85,0,0,1,0,1.69Zm-9.26,0h-.84a.85.85,0,1,1,0-1.69h.84a.85.85,0,0,1,0,1.69Zm-9.26,0h-.84a.85.85,0,0,1,0-1.69h.84a.85.85,0,0,1,0,1.69Zm-9.26,0h-.84a.85.85,0,0,1,0-1.69h.84a.85.85,0,0,1,0,1.69Zm-9.26,0h-.84a.85.85,0,0,1,0-1.69h.84a.85.85,0,0,1,0,1.69Zm-9.26,0h-.84a.85.85,0,0,1,0-1.69h.84a.85.85,0,0,1,0,1.69Zm-9.26,0h-.84a.85.85,0,0,1,0-1.69h.84a.85.85,0,0,1,0,1.69Zm-9.26,0h-.84a.85.85,0,0,1,0-1.69h.84a.85.85,0,0,1,0,1.69Zm-9.26,0h-.84a.85.85,0,0,1,0-1.69h.84a.85.85,0,1,1,0,1.69Zm-9.26,0h-.84a.85.85,0,0,1,0-1.69h.84a.85.85,0,1,1,0,1.69Zm-9.25,0h-.85a.85.85,0,0,1,0-1.69h.85a.85.85,0,0,1,0,1.69Zm-9.26,0H212a.85.85,0,0,1,0-1.69h.85a.85.85,0,0,1,0,1.69Zm-9.26,0h-.85a.85.85,0,0,1,0-1.69h.85a.85.85,0,0,1,0,1.69Zm-9.26,0h-.84a.85.85,0,1,1,0-1.69h.84a.85.85,0,0,1,0,1.69Zm-9.26,0h-.84a.85.85,0,1,1,0-1.69h.84a.85.85,0,0,1,0,1.69Zm-9.26,0H175a.85.85,0,0,1,0-1.69h.84a.85.85,0,0,1,0,1.69Zm-9.26,0h-.84a.85.85,0,0,1,0-1.69h.84a.85.85,0,0,1,0,1.69Zm-9.26,0h-.84a.85.85,0,0,1,0-1.69h.84a.85.85,0,0,1,0,1.69Zm-9.26,0h-.84a.85.85,0,0,1,0-1.69H148a.85.85,0,0,1,0,1.69Zm-9.26,0h-.84a.85.85,0,0,1,0-1.69h.84a.85.85,0,0,1,0,1.69Zm-9.26,0h-.84a.85.85,0,0,1,0-1.69h.84a.85.85,0,0,1,0,1.69Zm-9.26,0h-.84a.85.85,0,0,1,0-1.69h.84a.85.85,0,1,1,0,1.69Zm-9.26,0h-.84a.85.85,0,0,1,0-1.69H111a.85.85,0,1,1,0,1.69Zm-9.25,0h-.85a.85.85,0,0,1,0-1.69h.85a.85.85,0,0,1,0,1.69Zm-9.26,0h-.85a.85.85,0,0,1,0-1.69h.85a.85.85,0,0,1,0,1.69Zm-9.26,0h-.84a.85.85,0,1,1,0-1.69h.84a.85.85,0,0,1,0,1.69Zm-9.26,0h-.84a.85.85,0,1,1,0-1.69H74a.85.85,0,0,1,0,1.69Zm-9.26,0h-.84a.85.85,0,0,1,0-1.69h.84a.85.85,0,0,1,0,1.69Zm-9.26,0h-.84a.85.85,0,0,1,0-1.69h.84a.85.85,0,0,1,0,1.69Z"/><path class="cls-5" d="M186.37,455.39h-.84a.84.84,0,0,1,0-1.68h.84a.84.84,0,0,1,0,1.68Zm-9.26,0h-.84a.84.84,0,0,1,0-1.68h.84a.84.84,0,1,1,0,1.68Zm-9.26,0H167a.84.84,0,0,1,0-1.68h.84a.84.84,0,0,1,0,1.68Zm-9.26,0h-.84a.84.84,0,0,1,0-1.68h.84a.84.84,0,1,1,0,1.68Zm-9.26,0h-.84a.84.84,0,0,1,0-1.68h.84a.84.84,0,1,1,0,1.68Zm-9.25,0h-.85a.84.84,0,0,1,0-1.68h.85a.84.84,0,1,1,0,1.68Zm-9.26,0H130a.84.84,0,0,1,0-1.68h.85a.84.84,0,0,1,0,1.68Zm-9.26,0h-.84a.84.84,0,1,1,0-1.68h.84a.84.84,0,0,1,0,1.68Zm-9.26,0h-.84a.84.84,0,1,1,0-1.68h.84a.84.84,0,0,1,0,1.68Zm-9.26,0h-.84a.84.84,0,0,1,0-1.68H103a.84.84,0,0,1,0,1.68Zm-9.26,0h-.84a.84.84,0,0,1,0-1.68h.84a.84.84,0,0,1,0,1.68Zm-9.19-.72a.59.59,0,0,1-.23,0l-.84-.25a.86.86,0,0,1-.54-1.07.85.85,0,0,1,1.07-.53l.77.23a.85.85,0,0,1-.23,1.66ZM76.71,450a.87.87,0,0,1-.61-.26l-.59-.66a.84.84,0,0,1,1.28-1.1c.17.2.35.4.53.59a.84.84,0,0,1,0,1.19A.82.82,0,0,1,76.71,450Zm-3.83-8.23A.85.85,0,0,1,72,441c0-.3,0-.6-.05-.9a.84.84,0,0,1,1.68,0c0,.27,0,.53,0,.79a.84.84,0,0,1-.76.91Zm0-9.26a.84.84,0,0,1-.84-.84v-.85a.84.84,0,0,1,1.68,0v.85A.85.85,0,0,1,72.83,432.52Zm0-9.26a.84.84,0,0,1-.84-.84v-.85a.84.84,0,1,1,1.68,0v.85A.85.85,0,0,1,72.83,423.26Zm0-9.26a.84.84,0,0,1-.84-.84v-.84a.84.84,0,1,1,1.68,0v.84A.85.85,0,0,1,72.83,414Zm0-9.26a.84.84,0,0,1-.84-.84v-.84a.84.84,0,1,1,1.68,0v.84A.85.85,0,0,1,72.83,404.74Zm0-9.26a.84.84,0,0,1-.84-.84v-.84a.84.84,0,1,1,1.68,0v.84A.85.85,0,0,1,72.83,395.48Zm0-9.26a.84.84,0,0,1-.84-.84v-.84a.84.84,0,0,1,1.68,0v.84A.85.85,0,0,1,72.83,386.22Zm0-9.26a.83.83,0,0,1-.84-.84v-.84a.84.84,0,0,1,1.68,0v.84A.84.84,0,0,1,72.83,377Zm0-9.26a.83.83,0,0,1-.84-.84V366a.84.84,0,0,1,1.68,0v.84A.84.84,0,0,1,72.83,367.7Zm0-9.26a.83.83,0,0,1-.84-.84v-.84a.84.84,0,0,1,1.68,0v.84A.84.84,0,0,1,72.83,358.44Zm0-9.25a.84.84,0,0,1-.84-.85v-.84a.84.84,0,0,1,1.68,0v.84A.85.85,0,0,1,72.83,349.19Zm0-9.26a.84.84,0,0,1-.84-.85v-.84a.84.84,0,0,1,1.68,0v.84A.85.85,0,0,1,72.83,339.93Zm0-9.26a.84.84,0,0,1-.84-.85V329a.84.84,0,1,1,1.68,0v.84A.85.85,0,0,1,72.83,330.67Zm0-9.26a.84.84,0,0,1-.84-.84v-.85a.84.84,0,0,1,1.68,0v.85A.85.85,0,0,1,72.83,321.41Zm0-9.26a.84.84,0,0,1-.84-.84v-.85a.84.84,0,1,1,1.68,0v.85A.85.85,0,0,1,72.83,312.15Z"/><path class="cls-5" d="M422.67,246.72h-.84a.84.84,0,1,1,0-1.68h.84a.84.84,0,0,1,0,1.68Zm-9.26,0h-.84a.84.84,0,1,1,0-1.68h.84a.84.84,0,0,1,0,1.68Zm-9.26,0h-.84a.84.84,0,1,1,0-1.68h.84a.84.84,0,1,1,0,1.68Zm-9.26,0h-.84a.84.84,0,0,1,0-1.68h.84a.84.84,0,1,1,0,1.68Zm-9.26,0h-.84a.84.84,0,0,1,0-1.68h.84a.84.84,0,1,1,0,1.68Zm-9.26,0h-.84a.84.84,0,1,1,0-1.68h.84a.84.84,0,1,1,0,1.68Zm-9.25,0h-.85a.84.84,0,1,1,0-1.68h.85a.84.84,0,0,1,0,1.68Zm-9.26,0H357a.84.84,0,1,1,0-1.68h.85a.84.84,0,0,1,0,1.68Zm-9.26,0h-.84a.84.84,0,1,1,0-1.68h.84a.84.84,0,0,1,0,1.68Zm-9.26,0h-.84a.84.84,0,1,1,0-1.68h.84a.84.84,0,1,1,0,1.68Zm-9.26,0h-.84a.84.84,0,0,1,0-1.68h.84a.84.84,0,1,1,0,1.68Zm-9.26,0H320a.84.84,0,0,1,0-1.68h.84a.84.84,0,1,1,0,1.68Zm-9.26,0h-.84a.84.84,0,0,1,0-1.68h.84a.84.84,0,0,1,0,1.68Zm-9.26,0h-.84a.84.84,0,1,1,0-1.68h.84a.84.84,0,0,1,0,1.68Zm-9.26,0h-.84a.84.84,0,1,1,0-1.68H293a.84.84,0,0,1,0,1.68Zm-9.26,0h-.84a.84.84,0,1,1,0-1.68h.84a.84.84,0,1,1,0,1.68Zm-9.26,0h-.84a.84.84,0,0,1,0-1.68h.84a.84.84,0,1,1,0,1.68Zm-9.26,0h-.84a.84.84,0,1,1,0-1.68h.84a.84.84,0,1,1,0,1.68Zm-9.25,0h-.85a.84.84,0,0,1,0-1.68H256a.84.84,0,0,1,0,1.68Zm-9.26,0h-.85a.84.84,0,0,1,0-1.68h.85a.84.84,0,0,1,0,1.68Zm-9.26,0h-.84a.84.84,0,1,1,0-1.68h.84a.84.84,0,0,1,0,1.68Zm-9.26,0h-.84a.84.84,0,1,1,0-1.68h.84a.84.84,0,0,1,0,1.68Zm-9.26,0h-.84a.84.84,0,1,1,0-1.68H219a.84.84,0,0,1,0,1.68Zm-9.26,0h-.84a.84.84,0,0,1,0-1.68h.84a.84.84,0,0,1,0,1.68Zm-9.26,0h-.84a.84.84,0,0,1,0-1.68h.84a.84.84,0,0,1,0,1.68Zm-9.26,0h-.84a.84.84,0,0,1,0-1.68h.84a.84.84,0,0,1,0,1.68Zm-9.26,0h-.84a.84.84,0,0,1,0-1.68h.84a.84.84,0,0,1,0,1.68Zm-9.26,0h-.84a.84.84,0,0,1,0-1.68h.84a.84.84,0,0,1,0,1.68Zm-9.26,0h-.84a.84.84,0,0,1,0-1.68h.84a.84.84,0,0,1,0,1.68Zm-9.26,0h-.84a.84.84,0,0,1,0-1.68h.84a.84.84,0,1,1,0,1.68Zm-9.26,0h-.84a.84.84,0,0,1,0-1.68h.84a.84.84,0,1,1,0,1.68Zm-9.25,0h-.85a.84.84,0,0,1,0-1.68h.85a.84.84,0,0,1,0,1.68Zm-9.26,0h-.85a.84.84,0,0,1,0-1.68h.85a.84.84,0,0,1,0,1.68Zm-9.26,0h-.84a.84.84,0,1,1,0-1.68h.84a.84.84,0,0,1,0,1.68Zm-9.26,0H107a.84.84,0,1,1,0-1.68h.84a.84.84,0,0,1,0,1.68Zm-9.26,0h-.84a.84.84,0,0,1,0-1.68h.84a.84.84,0,0,1,0,1.68Zm-9.26,0H88.5a.84.84,0,0,1,0-1.68h.84a.84.84,0,0,1,0,1.68Zm-9.26,0h-.84a.84.84,0,1,1,0-1.68h.84a.84.84,0,0,1,0,1.68Zm-9.26,0H70A.84.84,0,0,1,70,245h.84a.84.84,0,0,1,0,1.68Zm-9.26,0h-.84a.84.84,0,1,1,0-1.68h.84a.84.84,0,0,1,0,1.68Zm-9.26,0h-.84a.84.84,0,0,1,0-1.68h.84a.84.84,0,0,1,0,1.68Zm-9.26,0H42.2a.84.84,0,0,1,0-1.68H43a.84.84,0,1,1,0,1.68Zm-9.26,0h-.84a.84.84,0,1,1,0-1.68h.84a.84.84,0,1,1,0,1.68Z"/><circle class="cls-6" cx="333.81" cy="249.24" r="39.19"/><path class="cls-4" d="M333.81,289.28a40,40,0,1,1,40-40A40.08,40.08,0,0,1,333.81,289.28Zm0-78.39a38.35,38.35,0,1,0,38.35,38.35A38.4,38.4,0,0,0,333.81,210.89Z"/><g class="cls-7"><path d="M332.49,257.34a5.91,5.91,0,0,1-1.59-.3.42.42,0,0,1,.31-.79,4.28,4.28,0,0,0,1.28.24,1.57,1.57,0,0,0,1.06-.24.42.42,0,0,1,.5.67,2.28,2.28,0,0,1-1.56.42Z"/><path d="M332.1,243.8a.38.38,0,0,1-.28-.11,4.15,4.15,0,0,0-3.08-1.3,3.79,3.79,0,0,0-2.4,1.26.42.42,0,0,1-.65-.53,4.52,4.52,0,0,1,3-1.57,4.94,4.94,0,0,1,3.72,1.52.43.43,0,0,1,0,.6A.42.42,0,0,1,332.1,243.8Z"/><path d="M342.75,244a.44.44,0,0,1-.29-.11,4.09,4.09,0,0,0-3.08-1.3,3.75,3.75,0,0,0-2.39,1.25.42.42,0,1,1-.66-.53,4.64,4.64,0,0,1,3-1.56,4.91,4.91,0,0,1,3.72,1.52.42.42,0,0,1,0,.59A.44.44,0,0,1,342.75,244Z"/><path d="M334.21,252.73a5.77,5.77,0,0,1-.8-.07.42.42,0,0,1-.34-.49.42.42,0,0,1,.48-.34,2.14,2.14,0,0,0,1.83-.32.94.94,0,0,0,.06-.92c-.52-1.57-.71-10.51-.72-10.88a.41.41,0,0,1,.41-.43h0a.42.42,0,0,1,.42.41c.05,2.55.28,9.43.68,10.63a1.71,1.71,0,0,1-.22,1.74A2.33,2.33,0,0,1,334.21,252.73Z"/><path d="M328.22,243.62a.75.75,0,0,1,1.5,0,.75.75,0,0,1-1.5,0Z"/><path d="M338.75,243.62a.75.75,0,0,1,1.5,0,.75.75,0,0,1-1.5,0Z"/><path d="M344.8,281.05H323.1a.42.42,0,0,1-.41-.52L328,259.45a.42.42,0,0,1,.82.2l-5.21,20.56h20.62L339,259.44a.42.42,0,1,1,.81-.2l5.38,21.29a.42.42,0,0,1-.41.52Z"/><rect class="cls-5" x="311.75" y="271.63" width="47.92" height="16.8"/><path class="cls-4" d="M360.5,289.28H310.9V270.79h49.6Zm-47.91-1.69h46.23V272.47H312.59Z"/><path class="cls-6" d="M348.81,244.48a2.35,2.35,0,0,0-2.74-.41c-.78-7.33-5.91-13-12.12-13s-11.37,5.7-12.12,13.06a2.34,2.34,0,1,0,0,3.72c.75,7.36,5.89,13.06,12.12,13.06S345.17,255.4,346,248.2a2.34,2.34,0,0,0,2.77-3.72Z"/><path d="M334,261.34c-6.19,0-11.46-5.46-12.47-12.8a2.76,2.76,0,1,1,0-5.08c1-7.34,6.28-12.8,12.47-12.8s11.47,5.47,12.47,12.82a2.75,2.75,0,0,1,2.69.7h0a2.78,2.78,0,0,1,0,3.92,2.75,2.75,0,0,1-2.73.69C345.29,256,340,261.34,334,261.34Zm-12.12-13.9a.32.32,0,0,1,.16,0,.41.41,0,0,1,.25.34C323,255.05,328,260.5,334,260.5s10.82-5.31,11.67-12.35a.41.41,0,0,1,.23-.32.39.39,0,0,1,.39,0,1.89,1.89,0,0,0,2.27-.33,1.93,1.93,0,0,0,0-2.72h0a1.91,1.91,0,0,0-2.25-.34.45.45,0,0,1-.39,0,.4.4,0,0,1-.22-.33c-.76-7.19-5.79-12.61-11.7-12.61s-11,5.45-11.71,12.68a.41.41,0,0,1-.25.34.42.42,0,0,1-.42-.05,1.92,1.92,0,1,0,0,3.06A.43.43,0,0,1,321.83,247.44Z"/><path d="M333.38,257a6,6,0,0,1-1.6-.3.43.43,0,0,1,.32-.79,4.94,4.94,0,0,0,1.28.24h0a1.53,1.53,0,0,0,1.05-.24.42.42,0,0,1,.51.67,2.28,2.28,0,0,1-1.56.42Z"/><g class="cls-2"><path class="cls-3" d="M341.65,235.31c-3.63,1.24-9.77,1.19-13.23-.55-3.17-1.6-6,3.18-2.79,4.78a19.25,19.25,0,0,0,8.35,1.93c3,.08,6.29.16,9.14-.81C346.48,239.51,345,234.16,341.65,235.31Z"/></g><path d="M333,243.47a.43.43,0,0,1-.29-.1,4.15,4.15,0,0,0-3.08-1.31,3.79,3.79,0,0,0-2.39,1.26.42.42,0,0,1-.66-.53,4.59,4.59,0,0,1,3-1.57,5,5,0,0,1,3.72,1.52.42.42,0,0,1-.28.73Z"/><path d="M343.63,243.71a.43.43,0,0,1-.28-.11,4.14,4.14,0,0,0-3.08-1.3,3.79,3.79,0,0,0-2.4,1.25.42.42,0,1,1-.65-.53,4.61,4.61,0,0,1,3-1.56,4.89,4.89,0,0,1,3.71,1.52.41.41,0,0,1,0,.59A.41.41,0,0,1,343.63,243.71Z"/><path d="M335.1,252.4a5.65,5.65,0,0,1-.8-.07.44.44,0,0,1-.35-.49.42.42,0,0,1,.49-.34,2.15,2.15,0,0,0,1.83-.32.92.92,0,0,0,.05-.92c-.52-1.57-.71-10.5-.72-10.88A.42.42,0,0,1,336,239a.39.39,0,0,1,.43.41c.06,2.55.28,9.43.68,10.64a1.68,1.68,0,0,1-.21,1.73A2.36,2.36,0,0,1,335.1,252.4Z"/><path d="M329.1,243.29a.76.76,0,0,1,1.51,0,.76.76,0,0,1-1.51,0Z"/><path d="M339.63,243.29a.76.76,0,0,1,1.51,0,.76.76,0,0,1-1.51,0Z"/><ellipse class="cls-6" cx="336.23" cy="235.33" rx="4.55" ry="12.29" transform="translate(93.84 566.5) rotate(-88.79)"/><path d="M336.8,240.72h-.68c-6.36-.13-13.09-2.16-13-5.66s6.86-5.23,13.24-5.11,13.08,2.17,13,5.66h0C349.29,239,343,240.72,336.8,240.72Zm-1.22-9.11c-6.66,0-10.76,2-10.79,3.47s4.28,3.8,11.37,3.95,11.48-1.91,11.52-3.46h0c0-1.55-4.28-3.8-11.37-3.95Zm12.94,4h0Z"/><path class="cls-6" d="M340.78,230.63a9,9,0,0,0-10-7.72c-4.91.64-8.63,4.84-8,9.75s4.66,4.37,9.57,3.72S341.43,235.53,340.78,230.63Z"/><path d="M328,237.62c-3.05,0-5.52-.94-6-4.85-.68-5.18,3.23-10,8.71-10.7a9.81,9.81,0,0,1,11,8.45h0a5.12,5.12,0,0,1-.82,4c-1.44,1.86-4.24,2.21-7.48,2.63l-.89.11A35.46,35.46,0,0,1,328,237.62Zm4-14a7.59,7.59,0,0,0-1.07.07c-4.64.61-7.83,4.48-7.26,8.81.51,3.88,3.29,3.7,8.59,3l.92-.12c2.87-.36,5.35-.67,6.36-2a3.53,3.53,0,0,0,.49-2.72h0a8.11,8.11,0,0,0-8-7.06Z"/></g><path class="cls-4" d="M333.81,289.28a40,40,0,1,1,40-40A40.08,40.08,0,0,1,333.81,289.28Zm0-78.39a38.35,38.35,0,1,0,38.35,38.35A38.4,38.4,0,0,0,333.81,210.89Z"/><circle class="cls-6" cx="224.18" cy="246.26" r="39.19"/><path class="cls-4" d="M224.18,286.29a40,40,0,1,1,40-40A40.07,40.07,0,0,1,224.18,286.29Zm0-78.38a38.35,38.35,0,1,0,38.35,38.35A38.39,38.39,0,0,0,224.18,207.91Z"/><g class="cls-8"><path d="M222.81,254a5.62,5.62,0,0,1-1.6-.3.41.41,0,0,1-.23-.54.43.43,0,0,1,.55-.24,4.86,4.86,0,0,0,1.28.24h0a1.53,1.53,0,0,0,1.05-.24.43.43,0,0,1,.59.08.42.42,0,0,1-.09.59,2.27,2.27,0,0,1-1.55.41Z"/><path d="M222.41,240.44a.38.38,0,0,1-.28-.11,4.16,4.16,0,0,0-3.08-1.3,3.83,3.83,0,0,0-2.4,1.26.42.42,0,0,1-.65-.53,4.59,4.59,0,0,1,3-1.57,5,5,0,0,1,3.72,1.52.42.42,0,0,1-.29.73Z"/><path d="M233.06,240.68a.43.43,0,0,1-.28-.11,4.17,4.17,0,0,0-3.08-1.31,3.79,3.79,0,0,0-2.4,1.26.42.42,0,0,1-.65-.53,4.53,4.53,0,0,1,3-1.56,4.86,4.86,0,0,1,3.71,1.52.41.41,0,0,1,0,.59A.43.43,0,0,1,233.06,240.68Z"/><path class="cls-6" d="M233.62,252.23c7.31-1.17,9.1-4,9.1-10.26,0-7.89-8.79-21.43-19-21.43s-19.14,14-19.14,21.9c0,5.92,3.42,8.42,10.24,9.6"/><path d="M233.62,253.08a.85.85,0,0,1-.13-1.68c7.13-1.14,8.38-4,8.38-9.43,0-7.74-8.81-20.59-18.19-20.59-10,0-18.3,13.94-18.3,21.06,0,5.12,2.68,7.58,9.55,8.78a.84.84,0,0,1-.29,1.65c-7.67-1.33-10.94-4.45-10.94-10.43,0-8.57,9.33-22.74,20-22.74s19.88,13.88,19.88,22.27c0,7-2.57,9.94-9.8,11.1Z"/><path d="M224.53,249.36a4.48,4.48,0,0,1-.8-.07.41.41,0,0,1-.35-.48.43.43,0,0,1,.49-.35,2.08,2.08,0,0,0,1.82-.31.9.9,0,0,0,.06-.92c-.52-1.57-.71-10.51-.72-10.89a.43.43,0,0,1,.41-.43.4.4,0,0,1,.43.42c.06,2.55.28,9.43.68,10.63a1.67,1.67,0,0,1-.22,1.74A2.32,2.32,0,0,1,224.53,249.36Z"/><path d="M218.53,240.26a.75.75,0,1,1,.75.75A.75.75,0,0,1,218.53,240.26Z"/><path d="M229.06,240.26a.76.76,0,0,1,1.51,0,.76.76,0,0,1-1.51,0Z"/><path d="M235.11,277.69H213.42a.44.44,0,0,1-.34-.16.42.42,0,0,1-.07-.36l5.34-21.08a.42.42,0,1,1,.81.2L214,276.85h20.61l-5.24-20.77a.42.42,0,0,1,.31-.51.43.43,0,0,1,.51.31l5.37,21.29a.42.42,0,0,1-.08.36A.41.41,0,0,1,235.11,277.69Z"/><rect class="cls-5" x="202.06" y="266.63" width="47.92" height="18.45"/><path class="cls-4" d="M250.82,285.92h-49.6V265.78h49.6Zm-47.92-1.69h46.24V267.47H202.9Z"/><path class="cls-6" d="M239.12,241.12a2.31,2.31,0,0,0-2.74-.41c-.78-7.33-5.9-13-12.12-13s-11.37,5.69-12.12,13.06a2.34,2.34,0,1,0,0,3.72c.75,7.36,5.89,13.06,12.12,13.06s11.22-5.52,12.09-12.72a2.34,2.34,0,0,0,2.77-3.72Z"/><path d="M224.26,258c-6.19,0-11.45-5.46-12.46-12.8a2.76,2.76,0,1,1,0-5.08c1-7.35,6.27-12.8,12.46-12.8s11.47,5.47,12.47,12.82a2.72,2.72,0,0,1,2.69.7h0a2.76,2.76,0,0,1-2.72,4.61C235.61,252.62,230.34,258,224.26,258Zm-12.12-13.9a.47.47,0,0,1,.17,0,.43.43,0,0,1,.25.35c.74,7.23,5.77,12.68,11.7,12.68s10.82-5.31,11.68-12.35a.43.43,0,0,1,.22-.33.41.41,0,0,1,.39,0,1.93,1.93,0,1,0,0-3.39.47.47,0,0,1-.4,0,.45.45,0,0,1-.22-.33c-.76-7.19-5.79-12.61-11.7-12.61s-11,5.45-11.7,12.68a.41.41,0,0,1-.25.34.42.42,0,0,1-.42,0,1.92,1.92,0,1,0,0,3.06A.38.38,0,0,1,212.14,244.08Z"/><path d="M223.69,253.64a5.55,5.55,0,0,1-1.59-.3.42.42,0,0,1-.24-.54.43.43,0,0,1,.55-.24,4.94,4.94,0,0,0,1.28.24h0a1.57,1.57,0,0,0,1.06-.24.42.42,0,1,1,.5.67,2.28,2.28,0,0,1-1.56.41Z"/><path d="M223.3,240.11A.38.38,0,0,1,223,240a4.15,4.15,0,0,0-3.08-1.3,3.79,3.79,0,0,0-2.4,1.26.42.42,0,0,1-.65-.53,4.52,4.52,0,0,1,3-1.57,4.94,4.94,0,0,1,3.71,1.52.42.42,0,0,1-.28.73Z"/><path d="M234,240.35a.46.46,0,0,1-.29-.11,4.17,4.17,0,0,0-3.07-1.31,3.79,3.79,0,0,0-2.4,1.26.42.42,0,0,1-.66-.53,4.64,4.64,0,0,1,3-1.56,4.93,4.93,0,0,1,3.72,1.52.42.42,0,0,1,0,.59A.44.44,0,0,1,234,240.35Z"/><path d="M225.41,249a4.56,4.56,0,0,1-.8-.07.41.41,0,0,1-.34-.48.42.42,0,0,1,.48-.35,2.11,2.11,0,0,0,1.83-.31.9.9,0,0,0,.06-.92c-.52-1.57-.71-10.51-.72-10.89a.42.42,0,0,1,.41-.43h0a.43.43,0,0,1,.42.42c.05,2.55.28,9.43.68,10.63a1.71,1.71,0,0,1-.22,1.74A2.33,2.33,0,0,1,225.41,249Z"/><path d="M219.42,239.93a.75.75,0,0,1,1.5,0,.75.75,0,0,1-1.5,0Z"/><path d="M230,239.93a.75.75,0,0,1,1.5,0,.75.75,0,0,1-1.5,0Z"/></g><path class="cls-4" d="M224.13,285.92a40,40,0,1,1,40-40A40.08,40.08,0,0,1,224.13,285.92Zm0-78.39a38.35,38.35,0,1,0,38.35,38.35A38.4,38.4,0,0,0,224.13,207.53Z"/><circle class="cls-6" cx="110.03" cy="244.35" r="39.19"/><path class="cls-4" d="M110,284.38a40,40,0,1,1,40-40A40.08,40.08,0,0,1,110,284.38ZM110,206a38.35,38.35,0,1,0,38.35,38.35A38.39,38.39,0,0,0,110,206Z"/><g class="cls-9"><path class="cls-10" d="M112,256.14h.13s0,.1-.12.11c-.49,0-1,0-1.48,0-.23,0-.44,0-.66,0l-.67-.05-.92-.13-.13,0-.52-.1-.26-.06a15.56,15.56,0,0,1-1.64-.51c-.31-.18-1-.34-1.06-.53.31.17.64.28,1,.43a13.66,13.66,0,0,0,1.88.59,16.28,16.28,0,0,0,1.7.28A11.21,11.21,0,0,0,112,256.14Z"/><path class="cls-10" d="M113.81,255.88c.3,0,.59-.15.89-.22a11.4,11.4,0,0,0,1.72-.63c.3-.12.58-.29.87-.44a7.07,7.07,0,0,0,.82-.52,11.12,11.12,0,0,0,1.25-1l.55-.6a3.31,3.31,0,0,0,.5-.62c.2-.31.45-.59.62-.92l.52-1c.12-.28.23-.57.34-.85l.1,0c-.18.16-.29.72-.52,1.07l-.49.92-.6.85a2.12,2.12,0,0,1-.33.41l-.61.67-.39.35a8.7,8.7,0,0,1-1.23.94,2.39,2.39,0,0,1-.34.21,9.29,9.29,0,0,1-1,.54l-.48.21c-.24.11-.5.17-.74.26s-1.11.25-1.26.41C113.85,256,113.8,255.94,113.81,255.88Z"/><path class="cls-10" d="M122.26,248.37c-.11,0,.1-.46.12-.66l.21-.8.29-1.08.85.67a1.25,1.25,0,0,0,.9.29c-.1.15-.58,0-.8-.15l-.13-.1-.79-.61-.27,1-.21.81Z"/><path class="cls-10" d="M101.43,252.44c-.18-.19-.37-.48-.57-.74a1.67,1.67,0,0,1-.38-.67c.22.38.5.72.74,1.08a3.14,3.14,0,0,0,.34.4S101.5,252.53,101.43,252.44Z"/><path class="cls-10" d="M96.9,246.93c-.07,0-.19,0-.18-.09a1.36,1.36,0,0,0,1.2-.22l.71-.53.24.9,0,.12h0l0-.12-.21-.81-.66.47a.78.78,0,0,1-.18.11,1.31,1.31,0,0,1-.27.12A1.35,1.35,0,0,1,96.9,246.93Z"/><path class="cls-10" d="M99,247.76c0-.19-.14-.47-.09-.53l.07.26a5.71,5.71,0,0,1,.27,1.18.5.5,0,0,1,0-.13L99.1,248Z"/><path class="cls-10" d="M95.75,246.15a3,3,0,0,1-.17-.46c0-.17,0-.33,0-.36a1.57,1.57,0,0,0,.11.61c0,.15.18.33.15.39A1.08,1.08,0,0,1,95.75,246.15Z"/><path class="cls-10" d="M95.81,247.58l.15.09s.09.11.11.17l-.16-.08a2.69,2.69,0,0,1-1.38-1.93c0-.55.09.29.18.48a3.67,3.67,0,0,0,.49.83A1.23,1.23,0,0,0,95.81,247.58Z"/><path class="cls-10" d="M97.82,247.35l0-.14.79.3a2.69,2.69,0,0,1-.81.41,1.14,1.14,0,0,1-.67,0,2.43,2.43,0,0,0,1.15-.3,1.75,1.75,0,0,0,.29-.18h0l-.71-.27.4,1.51a3.86,3.86,0,0,0,.19.54c.1.3.26.67.41,1a6.85,6.85,0,0,1,.37.85,13,13,0,0,1-.88-2C98.12,248.55,98,247.94,97.82,247.35Z"/><path class="cls-11" d="M115.22,255.55c.24-.09.5-.15.74-.26l.07.19a1.66,1.66,0,0,0-.26.05s0,.09-.09.13.09-.12.07-.18c-.43.08,0,.19-.47.27C115.46,255.58,115.25,255.69,115.22,255.55Z"/><path class="cls-11" d="M116.44,255.08a9.29,9.29,0,0,0,1-.54c.23.05,0,.14.18.3l-.11.07c-.06-.11-.28,0-.27-.2-.2.09-.2.15-.18.21a.75.75,0,0,0-.17.27C116.6,255.32,116.44,255.27,116.44,255.08Z"/><path class="cls-12" d="M117.48,254.54a2.39,2.39,0,0,0,.34-.21c-.11.17,0,.51-.16.51C117.53,254.68,117.71,254.59,117.48,254.54Z"/><path class="cls-13" d="M99.67,249.38l.25.61.31.58-.09.05-.19-.35-.06-.12a9.19,9.19,0,0,1-.36-.86l-.15-.37,0-.13C99.44,248.69,99.56,249.48,99.67,249.38Z"/><path class="cls-12" d="M104.65,254.86c.06.19.75.35,1.06.53-.06.05-.32-.09-.5-.16l-.37-.16c.07.17.2.35.06.52-.35-.11.15.31-.26.22.68.28.56-.05.53-.16l.12.06s.11.1.09.15.22,0,.37.19a.49.49,0,0,1-.3,0c-.06-.18-.35,0-.44,0,.08.09.5.19.47.36-.27-.09-.53-.22-.79-.33.06-.19-.51-.38-.17-.63.35.25.52-.13.11-.23l.09-.18c-.18-.1-.45-.22-.43-.3.13.08.21.11.25.08Z"/><path class="cls-12" d="M114.94,256l-.26.07c-.1-.08.17-.34,0-.15l-.13,0,0-.14L114,256c.15-.16.89-.23,1.26-.41,0,.14.24,0,.06.2.43-.08,0-.19.47-.27,0,.06-.14.12-.07.18v.05A1.29,1.29,0,0,0,114.94,256Z"/><path class="cls-12" d="M117.1,254.92c0-.06,0-.12.18-.21,0,.18.21.09.27.2.29.08-.76.45-.1.11C117.46,254.83,117,255.19,117.1,254.92Z"/><path class="cls-11" d="M122.43,247.73c.09,0,0,.14.11.17.22-.36.41-.18.55-.29.06.07-.11.23,0,.29-.14.46-.13-.05-.21.22a.42.42,0,0,1,0-.29.43.43,0,0,0-.17.24c-.07.11-.43.65-.23.63-.12.28-.23.23-.34.17a4.24,4.24,0,0,0,.18-.5Z"/><path class="cls-14" d="M122.78,247c-.16.05,0,.22,0,.41.27-.47.08.22.33-.07,0,.05,0,.28,0,.29-.14.11-.33-.07-.55.29-.06,0,0-.19-.11-.17l.21-.81.27-1,.79.61.13.1c0,.06-.08.15-.23,0l-.54-.46-.27.75Z"/><path class="cls-12" d="M123.83,246.64c.22.13.7.3.8.15.2,0,.53-.22.61-.15-.15.16-.57.15-.6.25h-.1c-.39-.08-.45,0-.45.19l-.11,0c0-.08-.37-.2-.43-.32l-.23-.47-.45.71s-.05.05-.09,0v0l.27-.75.54.46C123.75,246.79,123.79,246.7,123.83,246.64Z"/><path class="cls-10" d="M124.64,246.89c0-.1.45-.09.6-.25a1.59,1.59,0,0,0,.74-1.29,1.51,1.51,0,0,0-.75-1.36.73.73,0,0,0-.53-.23,1.72,1.72,0,0,0-.7.1h-.08l-.87.21.11-.71c0-.12,0-.27.08-.3s0,.14,0,.31l-.07.71.72-.29.07,0a1.51,1.51,0,0,1,1.57.32,2.39,2.39,0,0,1,.22.23,1.56,1.56,0,0,1,.16.28l0,.09a2.65,2.65,0,0,0,.07.52,1.59,1.59,0,0,1-.06.63c0,.1-.07.19-.12.29s-.23.28-.42.43a1.77,1.77,0,0,1-.24.17A1.34,1.34,0,0,1,124.64,246.89Z"/><path class="cls-15" d="M101,252a3.26,3.26,0,0,1,.23.34c.09.1.18.19.21.14s.1.08.13.07l.09.09c0,.15.46.58.69.78,0,.25-.74-.3-.57,0-.08,0-.22-.12-.3-.1l-.09-.1c.16-.06,0-.3.17-.34-.07,0-.21-.25-.36-.45s-.27-.41-.41-.31c.29.18.45.67-.08.41-.13,0-.06-.15,0-.18.3.21,0-.12-.15-.39C100.63,251.72,100.9,252.19,101,252Z"/><path class="cls-15" d="M103.06,254.17c.21.16.25.56-.26.13.12,0,.19,0,.23-.09-.26,0-.33-.13-.08-.11.09,0-.41-.45-.34-.22-.12-.13,0-.17,0-.24.14.11.26.24.41.34C103,254,103.1,254.12,103.06,254.17Z"/><path class="cls-15" d="M104.9,255.59c.14-.17,0-.35-.06-.52l.37.16c-.06.12-.17.24,0,.38C105.05,255.56,105.06,255.66,104.9,255.59Z"/><path class="cls-15" d="M105.29,255.71c.24-.13.28-.12.4-.27.1.05.11.09.23.13-.24.09-.12.2-.13.38-.21-.08-.25,0-.41-.09C105.4,255.81,105.3,255.75,105.29,255.71Z"/><path class="cls-15" d="M107.61,256c-.23.21.27.3.17.49a2.39,2.39,0,0,0-.26-.1c0-.15-.36-.27-.17-.45Z"/><path class="cls-15" d="M112,256.44l-.27,0c0,.09.13.08.15.15s-.14,0-.14,0c-.13-.19-.4.31-.41,0-.21,0-.11.16-.55.11v-.06c-.31,0-.15.15-.41.16s-.26-.08-.27-.16v-.1c.12,0,.13,0,.13.05a.62.62,0,0,0,.28-.15c-.06-.09-.39.08-.27-.15.23,0,.35.09.41,0,.29,0,.26.07.27.15s.12-.09.14-.15c.27,0,.53,0,.8,0C112,256.39,112.26,256.31,112,256.44Z"/><path class="cls-13" d="M112,256.44c.26-.13,0-.05-.14-.14.11,0,.12,0,.13-.06s.09-.07.12-.11a13.79,13.79,0,0,0,1.57-.22c.16.12-.28.14-.51.2l0,.2c-.09.17-.19-.07-.16-.14-.29,0,0,.19-.1.27l-.13,0c-.13,0-.25,0-.27,0-.22,0-.24,0-.41,0S112,256.47,112,256.44Z"/><path class="cls-11" d="M124.09,247.08c0-.19.06-.27.45-.19,0,.05,0,.05.1.05-.13.07-.07.16.13.19-.08.1-.22,0-.35,0s.07.12.24.1.33-.06.26.07-.22,0-.38,0c.26.18.13.25.32.48-.06.12.25.07.5,0,0,.09-.4.17-.65.19a2.18,2.18,0,0,1-.51,0c-.19-.09-.15-.21-.11-.32.24,0,.25.08.45.09.11-.18-.14-.2-.4-.29C124.44,247.27,124,247.29,124.09,247.08Z"/><path class="cls-14" d="M125.19,246.73l.07.13c-.19.12-.32.12-.33,0-.28.11.1.14.07.24s-.18-.2-.36-.19-.12,0-.1-.05h.1A1.34,1.34,0,0,0,125.19,246.73Z"/><path class="cls-16" d="M99.1,248l.14.52c-.08.08-.16,0-.21-.21S99,248.06,99.1,248Z"/><path class="cls-16" d="M100.14,250.62c.06.14.2.35.3.54s.19.3.08.31c-.21-.24-.08-.29-.3-.6s-.28-.18-.39-.09a1.47,1.47,0,0,0-.15-.38c.07-.17.08-.17.27-.13Z"/><path class="cls-17" d="M100.14,251.55c.25,0,.56.34.77.3l.08.11c-.09.23-.36-.24-.44,0,.13.27.45.6.15.39A3.65,3.65,0,0,1,100.14,251.55Z"/><path class="cls-14" d="M102.8,254.3c.12,0,.19,0,.23-.09-.26,0-.33-.13-.08-.11.09,0-.41-.45-.34-.22-.12-.13,0-.17,0-.24l-.3-.26c0,.25-.74-.3-.57,0a.43.43,0,0,0,.1.09c.07-.1.31.11.44.12l-.17.19-.31-.27c-.23-.13-.18.3-.56-.22l.11-.11c.16-.06,0-.3.17-.34-.07,0-.21-.25-.36-.45s-.27-.41-.41-.31c.29.18.45.67-.08.41-.13,0-.06-.15,0-.18a3.65,3.65,0,0,1-.56-.79,1.4,1.4,0,0,1-.2-.67c.17,0,.47.47.45.68l.13-.09c-.21-.24-.08-.29-.3-.6s-.28-.18-.39-.09a1.47,1.47,0,0,0-.15-.38c-.26.09.29.51,0,.6.11.2-.09.14,0,.32.07,0,.14-.13.24,0-.31,0,0,.25.05.46-.26,0-.37-.37-.51-.35a2.26,2.26,0,0,0,.22.37l.41.59c.05,0,.12.07.21.21s.11-.3.28,0c0,.1.17.22.14.25-.6-.46.17.59.72,1.08l.44.37c.19.06.27,0,0-.17,0-.15-.18-.34-.14-.46.17.17.56.42.35.44.21.36.15,0,.38.2,0,.18-.22.12-.33.18a6.92,6.92,0,0,0,.69.52c.24.15.47.34.72.47,0-.05-.07-.11-.07-.16l.37.21c.08-.1.14-.21,0-.34a3.35,3.35,0,0,1-.53-.19c0-.06,0-.09-.06-.17s-.06.08-.17,0c.08-.17.39,0,.62.05.13.23.7.18.33.24.45.24.39.11.2-.07l.35.2,0-.05.09-.18c-.18-.1-.45-.22-.43-.3-.21-.13-.29-.08-.49-.21,0,.08.28.2.15.26-.29-.27-.52-.41-.72-.6,0,0-.06.08-.17,0C103.27,254.33,103.31,254.73,102.8,254.3Zm-.46-.52c.19,0,.08.19,0,.21.1.09.12,0,.17,0,.3.31.08.27-.13.16S102.25,253.87,102.34,253.78Z"/><path class="cls-15" d="M106.05,255.62c.21-.1.36.18.09.14-.06.07.29.36-.09.28C106,255.9,105.94,255.76,106.05,255.62Z"/><path class="cls-17" d="M106.14,255.76c.27,0,.12-.24-.09-.14l-.13-.05c-.12,0-.13-.08-.23-.13-.12.15-.16.14-.4.27l-.12-.06,0,0c-.15-.14,0-.26,0-.38.18.07.44.21.5.16a15.56,15.56,0,0,0,1.64.51c-.19.18.16.3.17.45s-.18.06,0,.1a1.61,1.61,0,0,1-.83-.1c.06-.07-.1-.12-.09-.18.27.05.41.11.38.2.71,0-.33-.35-.48-.34A.71.71,0,0,0,106.14,255.76Z"/><path class="cls-14" d="M108.87,256.63c-.42,0,.26-.18-.09-.42.19,0,.38.06.4,0l.67.05v.05c-.38-.1-.4.2,0,.15,0,.07,0,.37.12.21h.14c0,.08,0,.17.27.16,0,.08.13.08.13.15h-.13a1.68,1.68,0,0,1-.42,0c.07,0,.14-.07.14-.14-.17.05-.29,0-.27-.06a1.72,1.72,0,0,1-.56,0c0,.05.14.07.13.12l-.28,0c-.26,0-.1.16-.3.17l-.28,0c0-.05-.17-.06-.27-.08s0-.19.17-.24a.52.52,0,0,1,.29-.06c.25.18.79-.12.82.14.49-.18-.13-.42-.51-.4l0,.25Z"/><path class="cls-14" d="M120.94,252.05c.06,0,.1.1.2,0-.06-.07-.08-.17,0-.34l.21.14c.17-.28-.13-.18.13-.57-.3,0-.09-.38-.26-.46-.14.22-.07.26-.1.4s-.09-.05-.16.06.42-.15.18.27c-.28-.17-.13,0-.16.22-.07-.17-.25.1-.32-.07-.1.12-.21.31-.27.29a2.12,2.12,0,0,1-.33.41c0,.2-.23.53-.5.78s.24.11-.06.32-.49.18-.44-.08a8.7,8.7,0,0,1-1.23.94c-.11.17,0,.51-.16.51l-.11.07c.29.08-.76.45-.1.11,0-.19-.43.17-.35-.1a.75.75,0,0,0-.17.27c-.33.13-.49.08-.49-.11l-.48.21.07.19a1.66,1.66,0,0,0-.26.05s0,.09-.09.13v.05a1.29,1.29,0,0,0-.75.31c.3.09-.42.33-.5.23.29-.06,0-.19.07-.28l0-.14L114,256c-.11,0-.16,0-.15-.08l-.13,0c.16.12-.28.14-.51.2l0,.2c-.09.17-.19-.07-.16-.14-.29,0,0,.19-.1.27l-.13,0c0,.13.23.13.31.21-.11,0-.27,0-.27.09.24,0,.34-.12.41-.06s.16-.07.26-.1a2.48,2.48,0,0,0,.48.27s0-.06.13-.08l0,.15c.14,0,.28-.07.42-.1-.57,0-.15-.48-.76-.14l0-.2a2.61,2.61,0,0,1,.28,0c0-.06-.06-.13.1-.18,0,.15.81,0,.34.23,0,0,0-.1-.16-.07s.27,0,.19.21l.14,0c0-.21.09,0,.27-.07a.35.35,0,0,1,.16-.47c.58-.15.4.21.68-.12,0,.06.24,0,.3,0-.23.08-.33.15-.37.23.22,0,.33,0,.36.15a3.42,3.42,0,0,0,.4-.17c-.65,0-.34-.1-.2-.46.5-.19.51.21.68-.19,0,.08.15.12.33.06,0-.23-.49,0-.55-.18.3-.11.35,0,.58-.07.42-.29.23.12.49,0s.18,0,.2.06l.13-.07c.19-.15-.13-.19.1-.37,0,0,.13,0,.12-.08a3,3,0,0,0-.55.17c0,.05,0,.09-.07.16,0-.19.31-.35.23-.43.07.11.51-.29.47,0l.12-.08c-.06-.07,0-.15.2-.2.07-.27.33.41.57-.18-.09.06-.22.18-.25.14l-.22-.28c.08,0,.48-.25.42-.36-.16.17-.12-.15,0-.24s.14.13.33,0c-.06-.06,0-.16.1-.29.06.08.15,0,.22-.16l.14.14c.4-.6.78-.66.6-.21l.19-.21c.06-.07.11-.13.06-.14s-.27-.15-.2-.33c.08,0,.12.16.24,0s-.08-.06,0-.17S120.86,252.16,120.94,252.05ZM114.1,256c.28-.08.1.16.19.21-.16,0-.24.07-.26.11C113.51,256.29,114.34,256.1,114.1,256Z"/><path class="cls-12" d="M124.64,246.94c.18,0,.22.37.36.19s-.35-.13-.07-.24c0,.09.14.09.33,0l-.07-.13a1.77,1.77,0,0,0,.24-.17l.16.2c-.23.33-.73.49-.63.75.18-.08.22-.18.21-.28.28-.1.16.18.08.24s-.25,0-.43.06.29.06.2.22l-.16,0c-.19-.23-.06-.3-.32-.48.16,0,.18.06.38,0s-.09-.08-.26-.07-.34,0-.24-.1.27.09.35,0C124.57,247.1,124.51,247,124.64,246.94Z"/><path class="cls-12" d="M126,245.84s0,.11.06.13.06-.1,0-.1c.08-.24.29,0,.29.09-.16.18-.34,0-.5.17C125.9,246,125.93,245.94,126,245.84Z"/><path class="cls-18" d="M95.48,245.9c0-.4.12.28.27.25a1.08,1.08,0,0,0,.11.18l.13.17c0,.07-.17,0-.22.05,0-.09,0-.13-.1-.23S95.59,246.19,95.48,245.9Z"/><path class="cls-16" d="M95.67,246.32c.06.1,0,.14.1.23,0-.08.17,0,.22-.05a1.21,1.21,0,0,0,.24.21,2.4,2.4,0,0,0,.27.16l-.1.23c-.19-.09-.3-.13-.38-.1s-.34-.33-.18-.36c-.09-.17-.32,0-.14.13C95.46,246.88,95.6,246.39,95.67,246.32Z"/><path class="cls-15" d="M99.89,250.15a.2.2,0,0,0-.25,0c0-.47-.15.07-.15-.38-.07-.14-.13-.07-.19-.07.11.32.18.25.31.61a1.33,1.33,0,0,1-.41-.71,5.11,5.11,0,0,0-.35-.61c0-.11,0-.14,0-.28.08-.41.07.26.19.23,0,.25.07.31.19.22.09.23.17.24.25.49l.14-.06c-.11-.14-.14-.24,0-.27A9.19,9.19,0,0,0,99.89,250.15Z"/><path class="cls-15" d="M100.52,251.47c.15.11.14.16.23.33,0-.05.09,0,.16,0-.21,0-.52-.26-.77-.3a1.4,1.4,0,0,1-.2-.67c.17,0,.47.47.45.68Z"/><path class="cls-17" d="M108.78,256.21c.35.24-.33.38.09.42,0,.05-.06,0-.15,0a.52.52,0,0,0-.29.06c-.19,0,0-.15-.24-.19l0-.15c.59.1,0-.12.17-.22s.23.09.27,0Z"/><path class="cls-12" d="M110.65,256.33c-.06.09-.18,0-.41,0-.12.23.21.06.27.15a.62.62,0,0,1-.28.15s0-.06-.13-.05v.1H110c-.21-.17.48-.34-.12-.36v-.05c.22,0,.43,0,.66,0C110.49,256.32,110.56,256.33,110.65,256.33Z"/><path class="cls-11" d="M125.85,246.13c.16-.17.34,0,.5-.17,0-.12-.21-.33-.29-.09,0,0,0,.1,0,.1s0-.1-.06-.13a1.59,1.59,0,0,0,.06-.63,2.65,2.65,0,0,1-.07-.52c.1-.09.17.16.27,0,0,.59.17.56-.1.83.1.19.3.23.45.34a3.4,3.4,0,0,0-.33.46l-.09-.05c0-.09,0-.15,0-.15s-.24.53-.4.28c-.21.41.06.47-.13.77.16.09,0,.26,0,.38-.22.1-.11-.09-.35,0-.26-.11,0,.15-.27.18.09-.16-.24-.09-.2-.22s.21,0,.43-.06.2-.34-.08-.24c0,.1,0,.2-.21.28-.1-.26.4-.42.63-.75l-.16-.2C125.62,246.41,125.74,246.21,125.85,246.13Z"/><path class="cls-11" d="M125.53,244.09a1.51,1.51,0,0,0-1.57-.32c.23-.14.44-.23.38-.41.2,0,.27.16.26-.06.13,0,.11-.05.14-.09s.1.11.12.17.11,0,.15-.07.14,0,.27,0,.1.13.06.19c.17.08.31.2.36.16.12.11,0,.14,0,.2s.14,0,.2,0c.2.21-.1.16-.11.26C125.64,243.94,125.59,244,125.53,244.09Z"/><path class="cls-16" d="M95.74,244.36c0,.06-.11.26-.15.42.06,0,.11-.17.18-.28,0,.11-.22.55-.17.83-.06,0-.06.19,0,.36a3,3,0,0,0,.17.46c-.15,0-.22-.65-.27-.25-.1-.13-.07-.18-.07-.34.11,0,.13-.57,0-.7-.11,0,0,.34-.19.21.13-.23,0-.16.13-.49,0,.17.07.17.18.08.17-.27-.26,0-.07-.31l.13.08S95.7,244.41,95.74,244.36Z"/><path class="cls-19" d="M95.51,244.35c-.19.29.24,0,.07.31-.11.09-.16.09-.18-.08-.12.33,0,.26-.13.49-.07,0,0-.17,0-.32s.11-.28,0-.23a3.43,3.43,0,0,0,.23-.33S95.46,244.33,95.51,244.35Z"/><path class="cls-15" d="M97.5,246.89v.05c0,.05.11,0,.1,0,.31-.07-.09.18.09.24a.23.23,0,0,0,.07-.37.78.78,0,0,0,.18-.11l.66-.47.21.81,0,.12c-.18,0-.11.27-.31.21.06.11.12.22.07.26h-.1c0-.29-.09-.25-.19-.51l0-.08,0,0h0l-.11.07c-.11-.17-.35,0-.36.18l-.13,0c-.08-.08,0-.15.06-.23-.25.15-.2.19-.6.16H97s.12,0,.12-.09-.31-.12-.2-.27A1.35,1.35,0,0,0,97.5,246.89Z"/><path class="cls-17" d="M98.57,247.6h.05s0-.15-.07-.26c.2.06.13-.24.31-.21h0l0,.12c0,.06,0,.34.09.53-.13,0-.26.13-.38,0C98.58,248.05,98.57,248,98.57,247.6Z"/><path class="cls-17" d="M99.38,248.92c-.12.11-.26-.17-.38,0s-.11-.64-.19-.23c0,.18-.06.08-.15,0s0-.09,0,0,0-.27,0-.29l.19-.06c0-.12-.05-.12-.08-.12-.08-.39.13.18.18.09,0,.23.13.29.21.21a.5.5,0,0,0,0,.13l0,.12Z"/><path class="cls-14" d="M97,247.29c-.14,0-.06,0,0,0s-.16,0-.36-.06c0-.09.19-.21,0-.28l-.1,0a2.4,2.4,0,0,1-.27-.16l.06-.08.16.1a1.53,1.53,0,0,0,.27.11s.11.07.18.09c-.11.15.07.21.2.27S97,247.25,97,247.29Z"/><path class="cls-16" d="M101.87,253.5c.07-.1.31.11.44.12l-.17.19-.31-.27Z"/><path class="cls-11" d="M103.87,255.17a3.35,3.35,0,0,1-.53-.19c0-.06,0-.09-.06-.17s-.06.08-.17,0c.08-.17.39,0,.62.05.13.23.7.18.33.24,0,0,.1.11.08.15S104,255.27,103.87,255.17Z"/><path class="cls-15" d="M112.14,256.48c.17,0,.19,0,.41,0s.11,0,.15.08c-.14,0-.1.07-.13.12s-.12-.08-.15-.14-.11.1-.12.16h-.14C112.13,256.61,111.89,256.6,112.14,256.48Z"/><path class="cls-15" d="M114.94,256c.3.09-.42.33-.5.23.29-.06,0-.19.07-.28l.13,0c.21-.19-.06.07,0,.15Z"/><path class="cls-20" d="M95.57,244.08c0,.11.32,0,.07.35l-.13-.08c-.05,0,0-.12,0-.16l0,0C95.51,244.06,95.54,244.07,95.57,244.08Z"/><path class="cls-17" d="M95.16,245.59l.25,0c0,.16,0,.21.07.34.11.29,0,.26.19.42-.07.07-.21.56,0,.45l0,0c.17.14.15.2.12.25.19.1.54.28.55.11l.1-.23.1,0-.18.48c-.1,0-.11-.1-.23-.16s-.42,0-.72-.24-.23-.19-.31-.15c-.08-.21,0-.26-.06-.5l.09-.05c.12.21.07.25.18.4.07,0,0-.16,0-.31s0-.27-.07-.27c0-.28-.1-.24-.17-.51Z"/><path class="cls-16" d="M96.6,246.9c.21.07,0,.19,0,.28.2.08.32,0,.36.06s-.14,0,0,0h.12c0,.08.07.2-.14.19.06-.1,0-.15-.24-.18s0,.45-.3.07Z"/><path class="cls-17" d="M98.24,247.08h0l0,0,0,.08c.1.26.22.22.19.51s-.32-.25-.09.46h0c0-.15-.12-.09-.19-.09.07-.22-.19-.5-.1-.56-.07-.16-.15-.22-.24-.23l.67.26v0a1.75,1.75,0,0,1-.29.18s-.2.07-.33.1c.61-.41-.08-.13-.24-.24.12-.05.14,0,.16,0C98.19,247.38,98.31,247.18,98.24,247.08Z"/><path class="cls-14" d="M104.9,255.59c.16.07.15,0,.29,0l0,0c0,.11.15.44-.53.16C105.05,255.9,104.55,255.48,104.9,255.59Z"/><path class="cls-15" d="M106.48,256c.15,0,1.19.31.48.34,0-.09-.11-.15-.38-.2S106.3,256,106.48,256Z"/><path class="cls-17" d="M122,250.43c0,.2-.22.62-.1.73s-.24-.17-.46-.1c.33-.3,0-.29-.14-.39.1-.16.15,0,.26-.16l.13.07c0-.1.24-.46.17-.52.08-.1.2-.13.15-.22C122.18,249.52,122.25,250.05,122,250.43Z"/><path class="cls-12" d="M122.65,248.07c.13,0,0,.11,0,.28l.19.05c.05-.15.06-.24,0-.28.08-.27.07.24.21-.22-.08-.06.09-.22,0-.29s0-.24,0-.29.09-.09.13-.11a1.11,1.11,0,0,0,0-.17v-.11l.13.06a1.73,1.73,0,0,0,.34.14l.11.06c0,.1-.26.17,0,.28s-.13-.18.09-.23.1.17.07.23c.13,0,.12,0,.16-.06.26.09.51.11.4.29-.2,0-.21-.06-.45-.09,0,.11-.08.23.11.32a2.75,2.75,0,0,1-1.2-.51l.74-.27a1.35,1.35,0,0,1-.18.44c.09-.3-.16-.11-.21-.2-.11.29,0,.47-.15.4,0,.42.21,0,.26-.23,0,0,0,.15.07.16a13,13,0,0,1-.5,1.64c-.21.18-.38,1-.67,1.42-.08-.09-.16-.24.06-.44-.07-.16-.21.12-.29,0l0,0c.14-.26.21-.38.31-.31.08-.23,0-.33-.08-.34.1-.31.19-.24.3-.62.12,0,.09.13.13.2.06-.37,0-1.3-.32-.56C122.22,248.72,122.58,248.18,122.65,248.07Z"/><path class="cls-14" d="M123.68,247.13c0-.09.15,0,.13,0,.14.05.13,0,.17-.09l.11,0c-.13.21.35.19,0,.33,0,0,0,.1-.16.06,0-.06.12-.34-.07-.23s.22.33-.09.23,0-.18,0-.28Z"/><path class="cls-11" d="M126.23,246.65c-.28.35-.56.19-.47-.05.31-.31,0,.38.27.07C126.07,246.75,126.18,246.62,126.23,246.65Z"/><path class="cls-15" d="M123.4,242.93c.12,0,.24,0,.3.15s-.19-.07-.25.3l0,.34.4-.11.09,0a.29.29,0,0,1-.06.11l-.3.28-.16-.59C123.34,243.29,123.39,243.18,123.4,242.93Z"/><path class="cls-14" d="M124.46,243c-.52,0-.27-.17-.19-.29a2,2,0,0,0-.35.06.74.74,0,0,0-.43.23l.69.45,0,0a3.61,3.61,0,0,1-.15-.57c-.1-.08-.33.17-.35-.14h-.25c0,.32-.15.15-.16.41.08.05,0,.14,0,.31l-.07.71.72-.29.07,0c.23-.14.44-.23.38-.41.2,0,.27.16.26-.06-.09-.05-.63,0-.28-.19,0,0,0-.06-.16,0-.32.14.15.37-.14.51,0-.16-.19-.14-.31-.17l-.06,0h0l0,0v0h0c.43-.13,0-.27.45-.36C124.27,243,124.45,243,124.46,243Zm-1.06,0c.12,0,.24,0,.3.15s-.19-.07-.25.3l0,.34.4-.11.09,0a.29.29,0,0,1-.06.11l-.3.28-.16-.59C123.34,243.29,123.39,243.18,123.4,242.93Z"/><path class="cls-14" d="M112.16,256.73h.14c0-.06,0-.14.12-.16s0,.15.15.14,0-.1.13-.12c-.1.18-.39.27-.09.42v.15c-.39.05-.42-.09-.44-.21.33-.12,0-.2-.29-.08C111.84,256.78,112,256.75,112.16,256.73Z"/><path class="cls-17" d="M119.29,253.85c-.16.17-.12-.15,0-.24s.14.13.33,0c-.06-.06,0-.16.1-.29.06.08.15,0,.22-.16l.14.14A1.18,1.18,0,0,1,119.29,253.85Z"/><path class="cls-10" d="M97.4,242.67c.06,0,.09,0,.1-.14.08.35.23.5.46.42a.58.58,0,0,0,.1.4l.07.13-.35.05h-.15l-.11,0c0-.05.11,0,.15-.06l.15,0H98l0-.12c-.06-.18-.15-.26-.27-.26C97.62,242.89,97.47,242.91,97.4,242.67Z"/><path class="cls-20" d="M95.87,243.63a5.56,5.56,0,0,0,.62.05.81.81,0,0,0-.21.1c-.13-.05-.44.36-.47.17S95.74,243.77,95.87,243.63Z"/><path class="cls-15" d="M95.7,246.77c-.18-.14,0-.3.14-.13-.16,0,.11.25.18.36s.19,0,.38.1c0,.17-.36,0-.55-.11,0-.05.05-.11-.12-.25Z"/><path class="cls-17" d="M99.68,250.4c-.26.09.29.51,0,.6s-.17-.05-.09-.27-.08-.1-.11-.09c-.14-.29-.26-.46-.35-.46,0-.18.08-.16.14-.21-.13-.19-.25-.06-.38-.14a.9.9,0,0,0-.25-.21.76.76,0,0,1,0-.32c.16.06.33.31.48.27a1.33,1.33,0,0,0,.41.71c-.13-.36-.2-.29-.31-.61.06,0,.12-.07.19.07,0,.45.13-.09.15.38a.2.2,0,0,1,.25,0l.06.12C99.76,250.23,99.75,250.23,99.68,250.4Z"/><path class="cls-15" d="M102.34,253.78c.19,0,.08.19,0,.21.1.09.12,0,.17,0,.3.31.08.27-.13.16S102.25,253.87,102.34,253.78Z"/><path class="cls-11" d="M110.78,256.74c.44.05.34-.08.55-.11,0,.29.28-.21.41,0,0,0,.11.06.14,0s-.18-.06-.15-.15l.27,0s0,.06.14,0c-.25.12,0,.13,0,.25-.17,0-.32,0-.27.13.34-.12.62,0,.29.08s-.18,0-.56,0v.1c.07.08.18,0,.43,0,0,.09-.17.12-.13.21-.28,0-.57,0-.85,0s0-.06,0-.2C111.35,256.83,110.29,256.92,110.78,256.74Z"/><path class="cls-11" d="M112.82,256.46c0,.13.23.13.31.21-.11,0-.27,0-.27.09.24,0,.34-.12.41-.06s-.09.18-.39.21l0,.2c-.2,0-.06-.14-.29-.11-.3-.15,0-.24.09-.42s0-.1-.15-.08C112.57,256.43,112.69,256.45,112.82,256.46Z"/><path class="cls-11" d="M126.44,244c.24.19.17.52.36.36.24.23-.26,0,0,.65-.35,0-.25-.22-.44.19,0-.14.05-.21,0-.25.11-.13.19-.75-.12-.5-.1-.19.09-.13,0-.31Z"/><path class="cls-21" d="M96.59,243.16c0,.1.41.19.44.09.32,0-.07.21.38.18,0,0-.34,0-.37,0-.2.07-.24.18-.55.28a5.56,5.56,0,0,1-.62-.05c-.11,0,0-.17,0-.25a2,2,0,0,1,.55-.27S96.45,243.2,96.59,243.16Z"/><path class="cls-19" d="M95.87,243.63c-.13.14-.11.25-.06.32-.11.13-.15,0-.24.13s-.06,0-.12.08,0-.07,0-.14.14-.09.17,0c.2-.24-.11-.23-.25,0-.08-.22.34-.39.47-.58C95.87,243.46,95.76,243.58,95.87,243.63Z"/><path class="cls-14" d="M96.93,248l0-.41c.36,0,.44-.09.68-.17l.13,0c0-.14.25-.35.36-.18l.11-.07c.07.1,0,.3-.4.44,0,0,0-.05-.16,0,.16.11.85-.17.24.24.13,0,.31-.13.33-.1a2.43,2.43,0,0,1-1.15.3Z"/><path class="cls-11" d="M105.38,255.86c.16.07.2,0,.41.09,0-.18-.11-.29.13-.38l.13.05c-.11.14,0,.28,0,.42-.51-.09.28.18.06.24l-.07.24c-.25-.12-.05-.18-.39-.19a2.83,2.83,0,0,1-.2-.28.49.49,0,0,0,.3,0C105.6,255.88,105.41,256,105.38,255.86Z"/><path class="cls-12" d="M108.18,256.58v-.05c.22,0,0,.15.24.19-.12,0-.2.11-.17.24s.27,0,.27.08v.1a14.05,14.05,0,0,1-2.23-.48c.21,0,.2-.17.24-.3.2.12.15.27.32.4.44.14.45,0,.69.16-.12-.18,0-.11.07-.29.18.11.26.21.28,0,.13,0,.09.08.12.13C108.2,256.78,108.14,256.65,108.18,256.58Z"/><path class="cls-15" d="M108.72,256.66c.09,0,.16,0,.15,0l.13,0,0-.25c.38,0,1,.22.51.4C109.51,256.54,109,256.84,108.72,256.66Z"/><path class="cls-12" d="M115,256.59a.35.35,0,0,1,.16-.47c.58-.15.4.21.68-.12,0,.06.24,0,.3,0-.23.08-.33.15-.37.23.22,0,.33,0,.36.15-.5.17-1,.34-1.5.46s-.15-.48-.76-.14l0-.2a2.61,2.61,0,0,1,.28,0c0-.06-.06-.13.1-.18,0,.15.81,0,.34.23,0,0,0-.1-.16-.07s.27,0,.19.21a2.36,2.36,0,0,0,1.1-.27A1.17,1.17,0,0,0,115,256.59Z"/><path class="cls-12" d="M118.37,254.93a3,3,0,0,0-.55.17c0,.05,0,.09-.07.16,0-.19.31-.35.23-.43.07.11.51-.29.47,0C118.35,254.87,118.36,254.9,118.37,254.93Z"/><path class="cls-16" d="M95.26,244.52l-.05.13c-.12,0-.1-.13-.14-.2-.21.46.08.26.15.34a.62.62,0,0,0-.07.53c.12.05.12-.23.26-.11.07.49-.28,0-.25.38h0a.93.93,0,0,1-.06-.41c-.23.28-.31.23-.34.78a1.82,1.82,0,0,1-.08-1.32c.12.29.3-.07.5-.33.06,0,.22-.15.19-.23s.13-.11.16-.06-.09.14,0,.14l0,0A3.43,3.43,0,0,1,95.26,244.52Z"/><path class="cls-14" d="M98.74,248.42c-.07,0,0,.24,0,.29s-.08-.14,0,0,.13.13.15,0c0,.14,0,.17,0,.28l-.09,0c0,.12.07.12.1.11,0,.19-.08.16-.14.2a.76.76,0,0,0,0,.32l0,0c-.08-.19-.15-.38-.21-.38a3.86,3.86,0,0,1-.19-.54c.1-.14,0-.54.15-.64h0c-.23-.71.1-.16.09-.46h0c0,.44,0,.45.08.12C98.8,248.12,98.53,247.93,98.74,248.42Z"/><path class="cls-12" d="M118.77,254.53c.07-.27.33.41.57-.18-.09.06-.22.18-.25.14l-.22-.28c.08,0,.48-.25.42-.36a1.18,1.18,0,0,0,.76-.58c.4-.6.78-.66.6-.21l.19-.21c.06-.07.11-.13.06-.14s-.27-.15-.2-.33c.08,0,.12.16.24,0s-.08-.06,0-.17c.3-.21.12.21.32.24.09-.2.08-.32,0-.38.1-.13.14-.21.12-.26.17-.28-.13-.18.13-.57-.3,0-.09-.38-.26-.46-.14.22-.07.26-.1.4s-.09-.05-.16.06.42-.15.18.27c-.28-.17-.13,0-.16.22-.07-.17-.25.1-.32-.07-.1.12-.21.31-.27.29l.6-.85.49-.92c0,.08-.15.38.06.32-.11.19-.16,0-.26.16.1.1.47.09.14.39.22-.07.45.28.46.1s.12-.53.1-.73l.09,0c0,.08-.13.57.12.21,0,.09-.11.15-.2.37.07.16.22-.19.31-.15l-.14.25c-.07,0-.27.18-.4.36s-.24.35,0,.38c-.24.33-.46.67-.71,1l-.82.91c-.12,0-.2-.1-.39,0s-.18.22-.07.13c0,.13-.19.17-.32.27.11.28.43-.41.56-.22a11,11,0,0,1-1,.82Z"/><path class="cls-16" d="M121.14,252c-.06-.07-.08-.17,0-.34l.21.14c0,.05,0,.13-.12.26Z"/><path class="cls-11" d="M121.72,251.9c-.21,0-.11-.2,0-.38s.33-.36.4-.36c-.24.37-.18.5-.39.77Z"/><path class="cls-14" d="M126.38,245.57c-.15-.16.14-.14.21-.12s0-.13,0-.14c.07-.49.17.34,0,.42C126.53,245.61,126.47,245.57,126.38,245.57Z"/><path class="cls-14" d="M125.75,244.32l.36-.27c.07-.08-.43-.38-.29-.51-.2-.09-.38.19-.26-.12-.11,0-.15,0-.28-.07s-.17,0-.27,0c.08,0,.37-.1-.11-.18l0-.1c.37.08.07-.16-.14-.17,0-.1.54.12.93.3l-.13.22a2.67,2.67,0,0,1,.56,0c.19.11.07.09,0,.13s0,.09.29.45l-.21.14c-.19.1-.36.21-.32.47A1.56,1.56,0,0,0,125.75,244.32Z"/><path class="cls-16" d="M96.5,242.82c.43-.21.15,0,.68,0-.33.1-.07.23,0,.35.39.08.38,0,.71.1-.33-.21-.14-.42-.33-.62a2.93,2.93,0,0,0,.51.24l-.72.49v-.12l0,.12.66-.45c-.19,0-.14,0-.06.14l-.44.31a.89.89,0,0,1,.17-.27c.12,0,.21.08.27.26l0,.12h-.19l-.15,0c-.13,0-.16,0-.26,0-.45,0-.06-.19-.38-.18,0,.1-.47,0-.44-.09S96.52,243,96.5,242.82Z"/><path class="cls-14" d="M95.35,246.37c-.18-.38-.36-.17-.44-.76.14-.05.21.53.37.49S95.37,246.29,95.35,246.37Z"/><path class="cls-12" d="M104.14,255.26l.24.14a.47.47,0,0,0-.08.47l-.76-.41c0-.05-.07-.11-.07-.16l.37.21c.08-.1.14-.21,0-.34C104,255.27,104.08,255.38,104.14,255.26Z"/><path class="cls-11" d="M109.39,256.94c0-.05-.11-.07-.13-.12a1.72,1.72,0,0,0,.56,0c0,.09.1.11.27.06,0,.07-.07.11-.14.14a1.68,1.68,0,0,0,.42,0c0,.14.23.1,0,.2s-.22-.1-.42-.12-.22,0-.42,0C109.72,257,110,257,109.39,256.94Z"/><path class="cls-17" d="M110.78,256.74c-.49.18.57.09.28.35-.13,0-.11-.06-.14-.1-.3.15-.12.15-.42,0,0-.07-.17-.07-.13-.15.26,0,.1-.17.41-.16Z"/><path class="cls-12" d="M113.27,256.7c.14,0,.16-.07.26-.1a2.48,2.48,0,0,0,.48.27s0-.06.13-.08l0,.15a15.43,15.43,0,0,1-2.25.32c0-.09.15-.12.13-.21-.25,0-.36.1-.43,0V257c.38,0,.29.07.56,0,0,.12,0,.26.44.21V257c.23,0,.09.13.29.11l0-.2Q113.33,256.87,113.27,256.7Z"/><path class="cls-12" d="M126.16,246.29c0-.09,0-.15,0-.15s-.24.53-.4.28c-.21.41.06.47-.13.77.39-.09.41.2,0,.55l0,0a2.64,2.64,0,0,0,1-.88c0,.05-.06.17,0,.2a1.71,1.71,0,0,0,.11-.14,2.68,2.68,0,0,1,.24-.55,2.2,2.2,0,0,0,.2-.77s-.06,0-.07.16c-.06.39-.2.62-.29.61l.2-.45c0-.1-.29.11-.21-.21.06,0,.14.06.17-.13-.06,0-.14,0-.14-.17h.2c0-.51.08-.52-.09-.81l.15,0a2.18,2.18,0,0,0-.65-1.24c-.06.11-.37-.18-.52-.17.22-.13-.31-.15-.25-.26-.53-.13-.72-.29-1.18-.2v-.16c-.21,0-.51.06-.52.13a2,2,0,0,1,.35-.06c-.08.12-.33.31.19.29a1,1,0,0,1,.46.08c.37.08.07-.16-.14-.17,0-.1.54.12.93.3l-.13.22a2.67,2.67,0,0,1,.56,0c.19.11.07.09,0,.13s0,.09.29.45c.24.19.17.52.36.36.24.23-.26,0,0,.65-.35,0-.25-.22-.44.19,0-.14.05-.21,0-.25.11-.13.19-.75-.12-.5-.1-.19.09-.13,0-.31-.19.1-.36.21-.32.47l0,.09c.1-.09.17.16.27,0,0,.59.17.56-.1.83.1.19.3.23.45.34a3.4,3.4,0,0,0-.33.46c-.18.21.28.21,0,.31-.28.35-.56.19-.47-.05.31-.31,0,.38.27.07C126.17,246.43,125.87,246.52,126.16,246.29Zm.22-.72c-.15-.16.14-.14.21-.12s0-.13,0-.14c.07-.49.17.34,0,.42C126.53,245.61,126.47,245.57,126.38,245.57Z"/><path class="cls-12" d="M125.53,244.09c.06-.05.11-.15.26,0,0-.1.31,0,.11-.26-.06,0-.09.11-.2,0s.12-.09,0-.2c0,0-.19-.08-.36-.16,0-.06,0-.13-.06-.19.13.05.17,0,.28.07-.12.31.06,0,.26.12-.14.13.36.43.29.51l-.36.27A2.39,2.39,0,0,0,125.53,244.09Z"/><path class="cls-12" d="M125,243.31s0,.09-.15.07,0-.14-.12-.17,0,.1-.14.09-.63,0-.28-.19a1.88,1.88,0,0,1,.58,0C125.38,243.21,125.09,243.29,125,243.31Z"/><path class="cls-14" d="M95.47,247c.3.25.47.18.72.24s.13.11.23.16c.27.38,0-.1.3-.07s.3.08.24.18-.2.11-.17.24c-.11-.06-.73-.2-.54-.31-.28-.15-.14.13-.25.16-.34-.19-.26-.25-.6-.53Z"/><path class="cls-11" d="M122.06,250.48l.07-.12c.08.1.22-.18.29,0-.22.2-.14.35-.06.44l-.07.13c-.09,0-.24.31-.31.15.09-.22.23-.28.2-.37C121.93,251.05,122.06,250.56,122.06,250.48Z"/><path class="cls-14" d="M98.93,249.83c.13.08.25-.05.38.14-.06.05-.19,0-.14.21.09,0,.21.17.35.46a1,1,0,0,1-.41-.34A.93.93,0,0,1,98.93,249.83Z"/><path class="cls-15" d="M101.87,254.11c0-.15-.18-.34-.14-.46.17.17.56.42.35.44S101.93,254.08,101.87,254.11Z"/><path class="cls-12" d="M109.11,256.91l.28,0c.59.09.33.1.13.11s-.13,0-.14,0C109.08,257.09,109.12,257,109.11,256.91Z"/><path class="cls-14" d="M105.45,256.05a2.83,2.83,0,0,0,.2.28c0,.05.12.1.1.14l-.27-.09c0-.17-.39-.27-.47-.36C105.1,256,105.39,255.87,105.45,256.05Z"/><path class="cls-11" d="M108.53,257l.28,0c.2,0,0-.18.3-.17,0,.08,0,.18.27.18,0,.07.24.1.27.17-.38,0-.76-.06-1.13-.12Z"/><path class="cls-11" d="M118.77,254.53l.21.28c-.28.19-.55.39-.83.57.19-.15-.13-.19.1-.37,0,0,.13,0,.12-.08s0-.06.08-.12l.12-.08C118.51,254.66,118.6,254.58,118.77,254.53Z"/><path class="cls-13" d="M123.65,242.66c.25-.34.47.06.55.57,0,0-.06,0,0,.14a3.61,3.61,0,0,1-.15-.57C123.9,242.72,123.67,243,123.65,242.66Z"/><path class="cls-11" d="M99.72,251c.11.2-.09.14,0,.32.07,0,.14-.13.24,0-.31,0,0,.25.05.46-.26,0-.37-.37-.51-.35l-.48-.88c-.16-.3-.25-.62-.38-.93l0,0a.9.9,0,0,1,.25.21.93.93,0,0,0,.18.47,1,1,0,0,0,.41.34s.06,0,.11.09S99.36,251.21,99.72,251Z"/><path class="cls-14" d="M106.15,256.61c-.05-.11.25-.23,0-.33.22-.06-.57-.33-.06-.24s0-.21.09-.28a.71.71,0,0,1,.34.27c-.18-.06-.17.08.1.14,0,.06.15.11.09.18a1.61,1.61,0,0,0,.83.1c-.16,0-.07-.07,0-.1a2.39,2.39,0,0,1,.26.1c.1-.19-.4-.28-.17-.49l.52.1c-.24.07-.09.37.05.52,0,.07,0,.2-.17.18,0-.05,0-.1-.12-.13,0,.21-.1.11-.28,0,0,.18-.19.11-.07.29-.24-.14-.25,0-.69-.16-.17-.13-.12-.28-.32-.4,0,.13,0,.29-.24.3Z"/><path class="cls-14" d="M120,254c-.13-.19-.45.5-.56.22.13-.1.3-.14.32-.27-.11.09-.13,0,.07-.13s.27,0,.39,0Z"/><path class="cls-16" d="M124.9,243.13a1.88,1.88,0,0,0-.58,0s0-.06-.16,0V243c.12,0,.3,0,.31-.08a1,1,0,0,1,.46.08Z"/><path class="cls-19" d="M94.94,243.83c.26-.46.41.06.47-.27.2-.13.12,0,0,.13a1.67,1.67,0,0,0-.25.47c-.08,0-.07-.17,0-.35C95.14,243.74,95,243.91,94.94,243.83Z"/><path class="cls-12" d="M100.13,252.41c.05,0,.12.07.21.21s.11-.3.28,0c0,.1.17.22.14.25-.6-.46.17.59.72,1.08A6.79,6.79,0,0,1,100.13,252.41Z"/><path class="cls-11" d="M102.08,254.09c.21.36.15,0,.38.2,0,.18-.22.12-.33.18l-.21-.19c.19.06.27,0,0-.17C101.93,254.08,102,254,102.08,254.09Z"/><path class="cls-11" d="M115,256.59a1.17,1.17,0,0,1,.69-.17,2.36,2.36,0,0,1-1.1.27l.14,0C114.65,256.45,114.78,256.62,115,256.59Z"/><path class="cls-11" d="M123.53,247.72s0-.12-.07-.16c0,.21-.31.65-.26.23.18.07,0-.11.15-.4.05.09.3-.1.21.2Z"/><path class="cls-14" d="M125.29,247.57c.24-.09.13.1.35,0,0-.12.11-.29,0-.38.39-.09.41.2,0,.55C125.55,247.61,125.21,247.75,125.29,247.57Z"/><path class="cls-16" d="M95.1,246.33c.08.24,0,.29.06.5.08,0,.12-.11.31.15l-.07.07c-.15-.13-.26-.22-.32-.16a2.16,2.16,0,0,1-.25-.44c0-.24.08,0,.17-.24C95,246.17,95.06,246.25,95.1,246.33Z"/><path class="cls-12" d="M98.54,247.48v0l-.67-.26c.09,0,.17.07.24.23-.09.06.17.34.1.56.07,0,.14-.06.19.09-.13.1,0,.5-.15.64l-.4-1.51.71.27Z"/><path class="cls-15" d="M104.52,255.42c-.34.25.23.44.17.63-.13-.06-.27-.11-.39-.18a.47.47,0,0,1,.08-.47C104.38,255.35,104.45,255.38,104.52,255.42Z"/><path class="cls-14" d="M97.71,243.09a.89.89,0,0,0-.17.27l.44-.31c-.08-.1-.13-.17.06-.14l-.66.45,0-.12v.12l.72-.49a2.93,2.93,0,0,1-.51-.24c.19.2,0,.41.33.62-.33-.13-.32,0-.71-.1-.06-.12-.32-.25,0-.35-.53,0-.25-.19-.68,0,0-.17.31-.31-.25-.24a3,3,0,0,1,1.89.09l-1,.7,0-.41c.08,0,.09-.11.1-.29h.2C97.47,242.91,97.62,242.89,97.71,243.09Z"/><path class="cls-15" d="M94.94,243.83c.06.08.2-.09.26,0-.11.18-.12.31,0,.35s-.08.16,0,.15c-.2.26-.38.62-.5.33a1.82,1.82,0,0,0,.08,1.32c0-.55.11-.5.34-.78a.93.93,0,0,0,.06.41c.07.27.18.23.17.51-.16,0-.23-.54-.37-.49.08.59.26.38.44.76.06.15.09.27,0,.31-.11-.15-.06-.19-.18-.4l-.09.05c0-.08-.07-.16-.1-.12-.19-.4-.19.1-.29.1-.09-.19-.21-1-.18-.48h0a2.82,2.82,0,0,1,0-.71A2.15,2.15,0,0,1,94.94,243.83Z"/><path class="cls-12" d="M105.65,256.33c.34,0,.14.07.39.19l.07-.24c.29.1,0,.22,0,.33l-.4-.14S105.66,256.38,105.65,256.33Z"/><path class="cls-17" d="M95.08,246.89c.06-.06.17,0,.32.16.34.28.26.34.6.53.11,0,0-.31.25-.16-.19.11.43.25.54.31,0-.13,0-.18.17-.24s.13-.11.14-.19c.4,0,.35,0,.6-.16,0,.08-.14.15-.06.23-.24.08-.32.2-.68.17l0,.41a2.52,2.52,0,0,1-1-.28l-.15-.09A2.53,2.53,0,0,1,95.08,246.89Z"/><path class="cls-11" d="M126.93,245.63c-.06,0-.14,0-.14-.17h.2c0-.51.08-.52-.09-.81l.15,0a2.75,2.75,0,0,1,.08,1s-.06,0-.07.16C127,245.72,127,245.63,126.93,245.63Z"/><path class="cls-14" d="M126.4,243.38c-.06.11-.37-.18-.52-.17.22-.13-.31-.15-.25-.26s.08-.07.21,0A3.39,3.39,0,0,1,126.4,243.38Z"/><path class="cls-14" d="M127.06,245.81c-.06.39-.2.62-.29.61l.2-.45c0-.1-.29.11-.21-.21.06,0,.14.06.17-.13C127,245.63,127,245.72,127.06,245.81Z"/><path class="cls-11" d="M125.63,243c-.53-.13-.72-.29-1.18-.2v-.16a2.67,2.67,0,0,1,.77,0,1.18,1.18,0,0,1,.63.31C125.71,242.88,125.63,242.88,125.63,243Z"/><path class="cls-10" d="M123.92,242.72a.74.74,0,0,0-.43.23l.69.45,0,0c0-.12,0-.14,0-.14l0,.17-.79-.51a2.32,2.32,0,0,1,.79-.38A2.63,2.63,0,0,1,126,243a2.17,2.17,0,0,1,.67.69,4.14,4.14,0,0,1,.44.94c0,.19.06.55,0,1a2.58,2.58,0,0,1-.31,1.12,3,3,0,0,1-.19.3,2.68,2.68,0,0,1,.24-.55,2.2,2.2,0,0,0,.2-.77,2.75,2.75,0,0,0-.08-1,2.18,2.18,0,0,0-.65-1.24,3.39,3.39,0,0,0-.56-.44,1.18,1.18,0,0,0-.63-.31,2.67,2.67,0,0,0-.77,0C124.23,242.6,123.93,242.65,123.92,242.72Z"/><path class="cls-15" d="M95.94,242.82c0,.16.12.25-.28.53-.19-.06.16-.33-.16-.2C95.68,243,95.66,242.94,95.94,242.82Z"/><path class="cls-18" d="M96.25,242.58c.56-.07.22.07.25.24s.25.14.09.34c-.14,0-.13,0-.17,0a2,2,0,0,0-.55.27c-.13.19-.55.36-.47.58.14-.21.45-.22.25,0,0,0-.09,0-.17,0s-.09,0-.16.06-.13.22-.19.23,0-.07,0-.15a1.67,1.67,0,0,1,.25-.47c.12-.16.2-.26,0-.13-.06.33-.21-.19-.47.27a2.15,2.15,0,0,0-.49,1.3h0a2.84,2.84,0,0,1,.36-1.2c.08,0,.44-.62.74-.78s0,.14.16.2c.4-.28.26-.37.28-.53s-.09,0-.19,0S96,242.66,96.25,242.58Z"/><path class="cls-13" d="M95.94,242.82c-.28.12-.26.19-.44.33s-.66.81-.74.78c.18-.28.3-.44.42-.6a1.59,1.59,0,0,1,.57-.47C95.85,242.8,96,242.76,95.94,242.82Z"/><path class="cls-13" d="M122.13,248.47l.2-.77h0c0,.2-.23.65-.12.66a4.24,4.24,0,0,1-.18.5l-.09.25-.1,0Z"/><path class="cls-19" d="M101.26,252.08c.26.34.58.64.86,1-.06.09-.33-.33-.47-.45l-.09-.09a3.14,3.14,0,0,1-.34-.4Z"/><path class="cls-13" d="M102.31,253.22a10.21,10.21,0,0,0,2,1.45l.23.12s-.12,0-.25-.08-.29-.08-.49-.21l-.75-.52c-.15-.1-.27-.23-.41-.34l-.3-.26c-.23-.2-.71-.63-.69-.78.14.12.41.54.47.45Z"/><path class="cls-12" d="M119.44,253l.61-.67c0,.2-.23.53-.5.78Z"/><path class="cls-15" d="M99.06,247.48l.26,1c.09.32.24.61.35.93-.11.1-.23-.69-.34-.59l0-.12a5.71,5.71,0,0,0-.27-1.18Z"/><path class="cls-11" d="M108.26,256.08l.92.13c0,.06-.21,0-.4,0l-.13,0c0,.06-.15,0-.27,0s.42.32-.17.22C108.23,256.2,108.09,256.21,108.26,256.08Z"/><path class="cls-22" d="M110.51,256.28c.5,0,1,0,1.48,0,0,0,0,.06-.13.06-.27,0-.53,0-.8,0,0,.06,0,.14-.14.15s0-.17-.27-.15C110.56,256.33,110.49,256.32,110.51,256.28Z"/><path class="cls-11" d="M119.55,253.15c-.29.21.24.11-.06.32s-.49.18-.44-.08l.39-.35Z"/><path class="cls-14" d="M122.08,248.87c.11.06.22.11.34-.17.3-.74.38.19.32.56,0-.07,0-.22-.13-.2-.11.38-.2.31-.3.62.12,0,.16.11.08.34-.1-.07-.17,0-.31.31l0,0-.07.12-.09,0c.28-.38.21-.91,0-.59,0,.09-.07.12-.15.22.07.06-.19.42-.17.52l-.13-.07c-.21.06,0-.24-.06-.32.23-.35.34-.91.52-1.07Z"/><path class="cls-13" d="M95.75,245.92a1.59,1.59,0,0,0,.54.71l-.06.08a1.21,1.21,0,0,1-.24-.21l-.13-.17c0-.06-.11-.24-.15-.39Z"/><path class="cls-22" d="M100.48,251a1.67,1.67,0,0,0,.38.67c.2.26.39.55.57.74,0,.05-.12,0-.21-.14A3.26,3.26,0,0,0,101,252l-.08-.11c-.07-.08-.12-.1-.16,0-.09-.17-.08-.22-.23-.33.11,0,0-.14-.08-.31s-.24-.4-.3-.54l.09-.05Z"/><path class="cls-16" d="M103.05,254l.75.52c0,.08.28.2.15.26-.29-.27-.52-.41-.72-.6,0,0-.06.08-.17,0S103,254,103.05,254Z"/><path class="cls-15" d="M108.26,256.08c-.17.13,0,.12-.05.3l0,.15v.05c-.14-.15-.29-.45-.05-.52Z"/><path class="cls-13" d="M95.74,244.36c.11-.16.42-.53.5-.44-.29.19-.24.3-.47.58-.07.11-.12.28-.18.28C95.63,244.62,95.78,244.42,95.74,244.36Z"/><path class="cls-15" d="M98.65,247.72c.12.17.25.08.38,0l.07.26c-.07,0-.17,0-.07.31,0,.09-.26-.48-.18-.09,0,0,.06,0,.08.12l-.19.06C98.53,247.93,98.8,248.12,98.65,247.72Z"/><path class="cls-15" d="M110,256.67c-.17.16-.15-.14-.12-.21-.4.05-.38-.25,0-.15C110.44,256.33,109.75,256.5,110,256.67Z"/><path class="cls-12" d="M114.1,256c.28-.08.1.16.19.21-.16,0-.24.07-.26.11C113.51,256.29,114.34,256.1,114.1,256Z"/><path class="cls-15" d="M96.61,243.68c-.13,0-.28.14-.33.1a.81.81,0,0,1,.21-.1c.31-.1.35-.21.55-.28,0,0,.35.08.37,0s.13,0,.26,0c0,0-.14,0-.15.06C97.34,243.56,96.87,243.52,96.61,243.68Z"/><path class="cls-18" d="M96.28,243.78s.2-.06.33-.1-.24.13-.37.24c-.08-.09-.39.28-.5.44s-.07.11-.1.07c.25-.3,0-.24-.07-.35s.13,0,.24-.13C95.84,244.14,96.15,243.73,96.28,243.78Z"/><path class="cls-18" d="M95.27,245.07c.21.13.08-.18.19-.21.08.13.06.74,0,.7l-.25,0c0-.37.32.11.25-.38-.14-.12-.14.16-.26.11a.62.62,0,0,1,.07-.53c-.07-.08-.36.12-.15-.34,0,.07,0,.23.14.2l.05-.13c.13-.05.07.08,0,.23S95.2,245.08,95.27,245.07Z"/><path class="cls-14" d="M97.77,246.77a.23.23,0,0,1-.07.37c-.18-.06.22-.31-.09-.24,0,0-.06.09-.1,0v-.05A1.31,1.31,0,0,0,97.77,246.77Z"/><path class="cls-14" d="M99.53,249.29c-.09,0-.06.13,0,.27l-.14.06c-.08-.25-.16-.26-.25-.49-.12.09-.17,0-.19-.22s.26.12.38,0Z"/><path class="cls-17" d="M104.63,255.19c.41.1.24.48-.11.23-.07,0-.14-.07-.14,0l-.24-.14s-.07-.1-.08-.15c.45.24.39.11.2-.07l.35.2Z"/><path class="cls-11" d="M122.78,247s.07,0,.09,0l.45-.71.23.47c.06.12.4.24.43.32s0,.14-.17.09c0,0-.12-.1-.13,0a1.73,1.73,0,0,1-.34-.14l-.13-.06V247a1.11,1.11,0,0,1,0,.17s-.1,0-.13.11c-.25.29-.06-.4-.33.07C122.8,247.2,122.62,247,122.78,247Z"/><path class="cls-14" d="M122.65,248.07a.43.43,0,0,1,.17-.24.42.42,0,0,0,0,.29s0,.13,0,.28l-.19-.05C122.68,248.18,122.78,248.1,122.65,248.07Z"/><path class="cls-11" d="M124.16,243.08c-.32.14.15.37-.14.51,0-.16-.19-.14-.31-.17l-.06,0h0l0,0v0h0c.43-.13,0-.27.45-.36Z"/><path class="cls-11" d="M99.2,249.57c-.15,0-.32-.21-.48-.27.06,0,.19,0,.14-.2,0,0-.07,0-.1-.11l.09,0A5.11,5.11,0,0,1,99.2,249.57Z"/><path class="cls-14" d="M126.25,246.34c-.18.21.28.21,0,.31,0,0-.16.1-.2,0,.14-.24-.16-.15.13-.38Z"/><path class="cls-11" d="M117.33,255.37c.42-.29.23.12.49,0C117.89,255.61,117.28,255.57,117.33,255.37Z"/><path class="cls-23" d="M101.83,253.54c-.23-.13-.18.3-.56-.22l.11-.11.09.1c.08,0,.22.11.3.1a.43.43,0,0,0,.1.09Z"/><path class="cls-12" d="M110.5,257c.3.15.12.15.42,0,0,0,0,.1.14.1s-.23.1,0,.2c-.43,0-.85,0-1.28,0,0-.09.18-.1.15-.2.2,0,.24.1.42.12s0-.06,0-.2Z"/><path class="cls-12" d="M116.49,256.21c-.65,0-.34-.1-.2-.46.5-.19.51.21.68-.19,0,.08.15.12.33.06,0-.23-.49,0-.55-.18.3-.11.35,0,.58-.07,0,.2.56.24.49,0,.15-.07.18,0,.2.06l-.75.42Z"/><path class="cls-14" d="M109.65,257.26c0-.07-.23-.1-.27-.17s0-.06.14,0,.24.08.42,0c0,.1-.16.11-.15.2Z"/><path class="cls-11" d="M121.22,252.08c.12.06.13.18,0,.38-.2,0,0-.45-.32-.24,0-.05-.08-.06,0-.17s.1.1.2,0Z"/><path class="cls-24" d="M124.71,248c.25,0,.63-.1.65-.19-.25.09-.56.14-.5,0l.16,0c.3,0,0-.29.27-.18-.08.18.26,0,.25.17l0,0C125.33,247.89,124.69,248.08,124.71,248Z"/><path class="cls-13" d="M122.36,250.78c.29-.39.46-1.24.67-1.42-.13.29-.26.67-.39,1a3.43,3.43,0,0,1-.49.78l.14-.25Z"/><path class="cls-13" d="M102,254.45c.21.07.8.61,1.19.82l0,0-.83-.58Z"/><path class="cls-13" d="M119.25,254.69c.24-.19.54-.47.82-.73a6.68,6.68,0,0,1,.68-.63,12.13,12.13,0,0,1-1.47,1.4Z"/><path class="cls-10" d="M121.72,252.08a9.93,9.93,0,0,1-1,1.25,6.68,6.68,0,0,0-.68.63c-.28.26-.58.54-.82.73a12.91,12.91,0,0,1-3.41,1.83,14.46,14.46,0,0,1-4.91.82,14,14,0,0,1-1.71-.06,15.29,15.29,0,0,1-3.08-.62,12.32,12.32,0,0,1-3-1.39c-.39-.21-1-.75-1.19-.82l-.6-.52-.54-.59a9.15,9.15,0,0,1-1-1.25q-.15-.19-.12-.27l.41.59a6.79,6.79,0,0,0,1.35,1.5l.44.37.21.19a6.92,6.92,0,0,0,.69.52c.24.15.47.34.72.47l.76.41c.12.07.26.12.39.18s.52.24.79.33l.27.09.4.14.14.05a14.05,14.05,0,0,0,2.23.48c.37.06.75.09,1.13.12h.14c.43,0,.85,0,1.28,0s.57,0,.85,0a15.43,15.43,0,0,0,2.25-.32c.14,0,.28-.07.42-.1.51-.12,1-.29,1.5-.46a3.42,3.42,0,0,0,.4-.17l.78-.34.75-.42.13-.07c.28-.18.55-.38.83-.57a11,11,0,0,0,1-.82l.22-.19.82-.91c.25-.32.47-.66.71-1l0,0c.21-.27.15-.4.39-.77a3.43,3.43,0,0,0,.49-.78c.13-.35.26-.73.39-1a13,13,0,0,0,.5-1.64l0-.13a1.35,1.35,0,0,0,.18-.44l-.74.27a2.75,2.75,0,0,0,1.2.51,2.18,2.18,0,0,0,.51,0c0,.13.62-.06.85-.16a2.64,2.64,0,0,0,1-.88c0,.05-.06.17,0,.2a3,3,0,0,1-.51.5,4.76,4.76,0,0,0-.64.28,2.33,2.33,0,0,1-.89.17,3.4,3.4,0,0,1-1.57-.61l.81-.29c-.09.35-.17.71-.27,1A16.15,16.15,0,0,1,121.72,252.08Z"/><path class="cls-24" d="M95,246.21c-.09.22-.15,0-.17.24a2.16,2.16,0,0,0,.25.44,2.53,2.53,0,0,0,.73.69,1.23,1.23,0,0,1-.61-.44,3.67,3.67,0,0,1-.49-.83C94.81,246.31,94.81,245.81,95,246.21Z"/><path class="cls-13" d="M99.8,252.12a5.88,5.88,0,0,1-.52-.87l-.07-.13a6.85,6.85,0,0,0-.37-.85c-.15-.34-.31-.71-.41-1,.06,0,.13.19.21.38s.22.63.38.93l.48.88a2.26,2.26,0,0,0,.22.37q0,.08.12.27Z"/><path class="cls-13" d="M97.1,248a1.14,1.14,0,0,0,.67,0,2.69,2.69,0,0,0,.81-.41l-.79-.3,0,.14h0l0-.13.87.33a2.55,2.55,0,0,1-2.54.28c0-.06-.14-.13-.11-.17a2.52,2.52,0,0,0,1,.28Z"/><path class="cls-16" d="M126.88,246.67a2.58,2.58,0,0,0,.31-1.12c0-.41,0-.77,0-1a3.48,3.48,0,0,1,.07,1.18A1.79,1.79,0,0,1,126.88,246.67Z"/><path d="M97.89,243.94h0a.83.83,0,0,1-.81-.87c0-.11,0-.21,0-.32v-.51a53.24,53.24,0,0,0-.71-7.37,55.7,55.7,0,0,1-.73-7.72c0-.09.15-9.15,3.55-9.15a9.39,9.39,0,0,1,2.62.71,22.86,22.86,0,0,0,7.67,1.7A51.92,51.92,0,0,0,117,219c5.51-1.28,6.43-1.4,7-.94a1,1,0,0,1,.35.74,2.5,2.5,0,0,1-.64,1.63c1,.11,2.35.5,2.35,2.07a2.75,2.75,0,0,1-1.22,2,3.72,3.72,0,0,0-.49.47,57.66,57.66,0,0,1,1.3,11.13,26,26,0,0,1-.82,5.56c-.1.47-.2.93-.29,1.39a.84.84,0,0,1-1.67-.15c-.3-10.92-.93-14.21-6.31-17.07a.5.5,0,0,1,0,.21.79.79,0,0,1-.23.67,3.09,3.09,0,0,1-2.29,1h0a7.13,7.13,0,0,1-3.3-1.2,5.94,5.94,0,0,0-2.47-1c-7.37,0-9.46,10.68-9.56,16.73v0c0,.16,0,.31,0,.46v0c0,.11,0,.22,0,.33A.84.84,0,0,1,97.89,243.94Zm1.28-24.26c-.82,0-1.86,4.19-1.86,7.47a54.81,54.81,0,0,0,.71,7.49v0c1.52-6,4.86-10.8,10.28-10.8a7.13,7.13,0,0,1,3.3,1.2,11.49,11.49,0,0,0,1.65.82.84.84,0,0,1,0-.32c.07-.65.58-.79,1.25-.82a1.16,1.16,0,0,1,.1-.82.83.83,0,0,1,1.1-.39c5.21,2.37,7.28,4.77,8.17,10a61.54,61.54,0,0,0-1.21-8.42,1.23,1.23,0,0,1,0-.19,2.39,2.39,0,0,1,1.09-1.75c.28-.25.64-.56.64-.76s-.1-.38-1.5-.43A7.68,7.68,0,0,1,122,222a.81.81,0,0,1-.6-.4.87.87,0,0,1-.07-.72,3.87,3.87,0,0,1,.84-1.22l.06-.06c-1.22.2-3.24.67-4.83,1a50.41,50.41,0,0,1-7.9,1.47,24.9,24.9,0,0,1-8.24-1.79A11.19,11.19,0,0,0,99.17,219.68Z"/><path d="M108.71,252.44a5.62,5.62,0,0,1-1.6-.3.42.42,0,0,1,.32-.78,4.94,4.94,0,0,0,1.28.24h0a1.46,1.46,0,0,0,1.05-.25.42.42,0,0,1,.59.09.43.43,0,0,1-.08.59,2.34,2.34,0,0,1-1.56.41Z"/><path d="M108.32,238.91a.44.44,0,0,1-.29-.11,4.15,4.15,0,0,0-3.08-1.31,3.79,3.79,0,0,0-2.39,1.26.42.42,0,0,1-.59.06.43.43,0,0,1-.07-.59,4.64,4.64,0,0,1,3-1.56,4.88,4.88,0,0,1,3.72,1.52.42.42,0,0,1,0,.59A.44.44,0,0,1,108.32,238.91Z"/><path d="M119,239.14a.38.38,0,0,1-.28-.11,4.18,4.18,0,0,0-3.08-1.3,3.83,3.83,0,0,0-2.4,1.26.42.42,0,1,1-.65-.53,4.56,4.56,0,0,1,3-1.57,5,5,0,0,1,3.72,1.52.43.43,0,0,1,0,.6A.4.4,0,0,1,119,239.14Z"/><path d="M110.43,247.83a4.56,4.56,0,0,1-.8-.07.42.42,0,0,1-.35-.48.43.43,0,0,1,.49-.35,2.11,2.11,0,0,0,1.83-.32.92.92,0,0,0,.05-.92c-.52-1.57-.71-10.5-.72-10.88a.42.42,0,0,1,.42-.43h0a.41.41,0,0,1,.42.41c.06,2.55.28,9.43.68,10.64a1.67,1.67,0,0,1-.21,1.73A2.32,2.32,0,0,1,110.43,247.83Z"/><path d="M104.43,238.72a.76.76,0,1,1,.75.75A.76.76,0,0,1,104.43,238.72Z"/><path d="M115,238.72a.76.76,0,0,1,1.51,0,.76.76,0,0,1-1.51,0Z"/><path d="M121,276.16H99.32A.42.42,0,0,1,99,276a.45.45,0,0,1-.08-.37L104,255.44a.43.43,0,0,1,.52-.3.41.41,0,0,1,.3.51l-5,19.67h20.62L115.6,256a.42.42,0,0,1,.82-.21l5,19.82a.41.41,0,0,1-.07.37A.42.42,0,0,1,121,276.16Z"/><rect class="cls-5" x="87.96" y="264.7" width="47.92" height="18.84"/><path class="cls-4" d="M136.72,284.38H87.12V263.86h49.6ZM88.8,282.7H135V265.54H88.8Z"/></g><path class="cls-4" d="M110,284.38a40,40,0,1,1,40-40A40.08,40.08,0,0,1,110,284.38ZM110,206a38.35,38.35,0,1,0,38.35,38.35A38.39,38.39,0,0,0,110,206Z"/></g><g id="CC_Laura_Henneke" data-name="CC Laura Henneke"><text class="cls-25" transform="translate(345.89 608.98)">Laura Henneke</text></g></svg>