<svg xmlns="http://www.w3.org/2000/svg" viewBox="0 0 453.54 705.83"><defs><style>.cls-1{opacity:0.3;}.cls-2{fill:#b6b6b7;}.cls-3{fill:#fff;}.cls-4{fill:#24beee;}.cls-5{fill:#181819;}.cls-6{fill:#0d0c0c;}.cls-7{fill:#b7b7b7;}.cls-8{font-size:16px;font-family:PatrickHand-Regular, Patrick Hand;}</style></defs><g id="Artwork"><g class="cls-1"><path class="cls-2" d="M359,548.41l-17.29-2.64q8.47.57,16.94,1.21c4.25.32,5-6.08.72-6.61a370.71,370.71,0,0,0-39.68-2.74h-1.08q-14.5-.89-29-1.62a3.34,3.34,0,0,0-3.05,1.47c-2-.2-4.08-.46-6.1-.83-4.21-.76-4.92,5.85-.73,6.61,1.21.22,2.42.39,3.63.55-1.91,1.77-1.58,5.63,1.69,5.73s6.35.22,9.53.36a3.74,3.74,0,0,0,2.72,2.74,302.77,302.77,0,0,0,41.28,6.19c3.33.27,4.51-3.72,2.82-5.63q8.46.82,16.9,1.82C362.56,555.52,363.24,549.06,359,548.41Z"/></g><rect class="cls-3" x="89.92" y="287.57" width="300.22" height="225.64"/><path d="M391.23,514.31H88.82V286.48H391.23ZM91,512.12H389V288.67H91Z"/><path d="M161.75,367.84H140.58a.55.55,0,0,1-.55-.54.55.55,0,0,1,.55-.55h20.08V337.41H140.58a.55.55,0,0,1-.55-.54.55.55,0,0,1,.55-.55h21.17Z"/><rect class="cls-3" x="176.08" y="338.53" width="39.38" height="22.99"/><path class="cls-4" d="M216.56,362.61H175V337.44h41.57Zm-39.39-2.19h37.2v-20.8h-37.2Z"/><rect class="cls-3" x="114.3" y="324.63" width="39.38" height="22.99"/><path class="cls-4" d="M154.78,348.71H113.21V323.54h41.57Zm-39.39-2.18h37.2V325.72h-37.2Z"/><rect class="cls-3" x="114.3" y="355.8" width="39.38" height="22.99"/><path class="cls-4" d="M154.78,379.88H113.21V354.71h41.57Zm-39.39-2.18h37.2V356.9h-37.2Z"/><path d="M171.83,352.63H161.21a.55.55,0,0,1-.55-.55.55.55,0,0,1,.55-.54h10.62a.54.54,0,0,1,.55.54A.55.55,0,0,1,171.83,352.63Z"/><polygon points="169.99 352.08 169.99 355.8 173.71 352.08 169.99 348.37 169.99 352.08"/><path d="M251.4,367.69h0l-21.72-.27.4-32.61,21.72.27a1.09,1.09,0,0,1,0,2.18h0L232.23,337l-.35,28.24,19.53.25a1.09,1.09,0,0,1,0,2.18Z"/><rect class="cls-3" x="238.67" y="324.76" width="39.38" height="22.99" transform="matrix(-1, -0.01, 0.01, -1, 512.55, 675.68)"/><path class="cls-4" d="M279,349.1l-41.56-.52.31-25.17,41.56.51Zm-39.35-2.68,37.19.46.26-20.8-37.19-.46Z"/><path d="M231,351.68h0l-10.63-.14a.54.54,0,0,1-.54-.55c0-.3.27-.61.55-.54l10.63.13a.55.55,0,0,1,0,1.1Z"/><polygon points="221.3 350.98 221.3 347.26 217.59 350.98 221.3 354.69 221.3 350.98"/><path d="M242.9,398.75a.55.55,0,0,1-.55-.55V389H167.92v9.2a.55.55,0,0,1-1.1,0V387.91h76.63V398.2A.55.55,0,0,1,242.9,398.75Z"/><path d="M195.29,389a.55.55,0,0,1-.55-.55V367a.55.55,0,1,1,1.1,0v21.49A.55.55,0,0,1,195.29,389Z"/><path d="M197.4,367.5h-5.54l3.43-3.43,3.43,3.43Zm-2.91-1.09h1.59l-.79-.8Z"/><polygon class="cls-5" points="132.96 448.55 131.87 448.55 131.87 434.71 208.49 434.71 208.49 445 207.4 445 207.4 435.8 132.96 435.8 132.96 448.55"/><rect x="168.9" y="427.85" width="1.09" height="17.7"/><polygon points="169.45 428.39 173.17 428.39 169.45 424.68 165.74 428.39 169.45 428.39"/><rect class="cls-3" x="147.52" y="398.2" width="39.38" height="22.99"/><path class="cls-4" d="M188,422.28H146.43V397.11H188Zm-39.38-2.18h37.19V399.29H148.62Z"/><rect class="cls-3" x="223.2" y="398.2" width="39.38" height="22.99"/><path class="cls-4" d="M263.68,422.28H222.11V397.11h41.57Zm-39.39-2.18h37.2V399.29h-37.2Z"/><rect class="cls-3" x="194.13" y="445" width="27.62" height="16.12"/><path class="cls-4" d="M222.84,462.22H193V443.91h29.8ZM195.23,460h25.43V446.1H195.23Z"/><g class="cls-1"><rect class="cls-2" x="221.74" y="359.04" width="43.61" height="34.63" transform="translate(-27.71 19.45) rotate(-4.33)"/></g><rect class="cls-4" x="225.2" y="356.7" width="43.61" height="32.68" transform="translate(-27.45 19.7) rotate(-4.33)"/><path class="cls-6" d="M140.17,288.58H89.91a1.09,1.09,0,0,1-1.09-1.09v-16a1.09,1.09,0,0,1,1.09-1.09h50.26a1.09,1.09,0,0,1,1.09,1.09v16A1.09,1.09,0,0,1,140.17,288.58ZM91,286.4h48.06V272.62H91Z"/><path d="M101.34,284.57a3.85,3.85,0,1,1,3.85-3.85A3.85,3.85,0,0,1,101.34,284.57Zm0-5.51a1.67,1.67,0,1,0,1.66,1.66A1.67,1.67,0,0,0,101.34,279.06Z"/><path d="M114.63,284.57a3.85,3.85,0,1,1,3.85-3.85A3.85,3.85,0,0,1,114.63,284.57Zm0-5.51a1.67,1.67,0,1,0,1.67,1.66A1.66,1.66,0,0,0,114.63,279.06Z"/><path d="M127.26,283.91a3.85,3.85,0,1,1,3.85-3.85A3.86,3.86,0,0,1,127.26,283.91Zm0-5.52a1.67,1.67,0,1,0,1.67,1.67A1.67,1.67,0,0,0,127.26,278.39Z"/><polygon points="195.32 367.81 199.34 367.81 195.32 363.8 191.31 367.81 195.32 367.81"/><g class="cls-1"><path class="cls-2" d="M119,541.28l-17.47-.75c5.65-.22,11.31-.44,17-.63,4.27-.15,4.3-6.59,0-6.65a368.77,368.77,0,0,0-39.74,1.6l-1.08.11q-14.51.7-29,1.55a3.33,3.33,0,0,0-2.87,1.79c-2,0-4.1,0-6.16-.15-4.26-.3-4.25,6.35,0,6.64,1.22.09,2.44.13,3.66.15-1.7,2-.95,5.77,2.31,5.52s6.34-.47,9.51-.68a3.72,3.72,0,0,0,3,2.42,302.68,302.68,0,0,0,41.71,1.67c3.34-.1,4.08-4.19,2.19-5.91,5.67-.06,11.33-.08,17,0C123.31,548,123.28,541.46,119,541.28Z"/></g><g class="cls-1"><rect class="cls-2" x="100.85" y="455.49" width="45.86" height="36.42" transform="translate(-81.29 29.11) rotate(-10.12)"/></g><rect class="cls-4" x="104.12" y="452.68" width="45.86" height="34.36" transform="translate(-80.56 29.62) rotate(-10.12)"/><path d="M79.88,530.55a1.64,1.64,0,0,1-.92-3l65.93-44.66a1.64,1.64,0,1,1,1.84,2.71L80.8,530.27A1.63,1.63,0,0,1,79.88,530.55Z"/><path class="cls-3" d="M79.51,504.29c-4-8.67-15.7-10-19.16-10.39-15-1.72-35.49,6.28-36.37,18.64-.69,9.77,6.29,26.06,18.48,25.3,13.1-.82,28.67-5.05,42.72-7.68C86.8,529.85,83,511.74,79.51,504.29Z"/><path d="M41.65,539a15.06,15.06,0,0,1-10.77-4.83c-5.83-5.89-8.43-15.35-8-21.66.28-4,2.51-7.86,6.44-11.12,7.41-6.16,20.49-9.75,31.15-8.54,10.44,1.19,17.18,4.9,20,11h0c3.11,6.71,7.2,24,5.86,26.64a1.33,1.33,0,0,1-1,.76C81.1,532,76.58,533,72.21,534c-10.08,2.16-20.51,4.41-29.68,5C42.24,538.94,42,539,41.65,539Zm14.52-44.2C47,494.76,36.8,498,30.72,503c-3.45,2.87-5.41,6.19-5.65,9.59-.4,5.68,2.05,14.6,7.36,20a12.66,12.66,0,0,0,10,4.16c9-.56,19.36-2.79,29.36-4.94,4.21-.91,8.56-1.84,12.72-2.63.27-2.82-2.69-17.41-6-24.43h0c-2.5-5.38-8.65-8.67-18.29-9.77A36,36,0,0,0,56.17,494.76Z"/><path d="M85.84,530l-.35,0a1.64,1.64,0,0,1-1.25-2l15.21-68.69a1.65,1.65,0,0,1,2-1.25,1.63,1.63,0,0,1,1.24,1.95l-15.21,68.7A1.64,1.64,0,0,1,85.84,530Z"/><path d="M53.12,522.65a49.73,49.73,0,0,1-29.42-9.72A1.09,1.09,0,1,1,25,511.16a47.43,47.43,0,0,0,29.39,9.29,52.83,52.83,0,0,0,19.11-4.22,1.09,1.09,0,1,1,.84,2,54.94,54.94,0,0,1-19.9,4.39Z"/><path class="cls-7" d="M86.29,505.62a2.18,2.18,0,0,1-2.09-1.56,31.3,31.3,0,0,1-1.33-9.82c.26-10.24,5.4-18.16,9.66-23a2.19,2.19,0,1,1,3.28,2.89c-3.79,4.29-8.34,11.29-8.57,20.22a27.12,27.12,0,0,0,1.14,8.46,2.19,2.19,0,0,1-1.46,2.72A2.28,2.28,0,0,1,86.29,505.62Z"/><path class="cls-7" d="M85.41,505.39a2.16,2.16,0,0,1-1.88-1.07,31.53,31.53,0,0,1-3.69-9.22c-2.35-10.51,1.45-19.72,3.92-24.27a2.19,2.19,0,1,1,3.84,2.09c-2.66,4.9-5.43,12.56-3.49,21.22a27.47,27.47,0,0,0,3.18,8,2.19,2.19,0,0,1-.77,3A2.13,2.13,0,0,1,85.41,505.39Z"/><path class="cls-3" d="M98.48,507.39h0A23.4,23.4,0,0,0,87,503.5c-1.92-.11-12.36-.66-16.46,6-3.58,5.8.17,16.62,3.43,19,5.84,4.28,21.53.33,25.28-3.4s3.11-11.46-.78-17.73"/><path d="M81.57,531.46c-3.27,0-6.24-.59-8.23-2.05-3.61-2.65-7.69-14-3.72-20.47s13.55-6.74,17.45-6.53a24.54,24.54,0,0,1,12,4.07l.32.34c4.31,6.94,4.57,15.14.62,19.08C97.3,528.62,88.73,531.46,81.57,531.46Zm3.59-26.91c-4.06,0-10.75.77-13.68,5.53-3.16,5.13.2,15.41,3.15,17.56,5.39,4,20.46.09,23.86-3.29,3.16-3.15,2.8-10.22-.81-16.17a22.2,22.2,0,0,0-10.74-3.59C86.44,504.57,85.84,504.55,85.16,504.55Z"/><circle class="cls-3" cx="101.05" cy="508.27" r="9.47"/><path d="M101.05,518.28a10,10,0,0,1-9.92-8.68h0a10,10,0,1,1,11.26,8.59A10.17,10.17,0,0,1,101.05,518.28Zm-8.84-8.82a8.92,8.92,0,1,0,7.65-10,8.87,8.87,0,0,0-7.65,10Z"/><path d="M84.31,525.64a.54.54,0,0,1-.54-.46.53.53,0,0,1,.45-.62l3.66-.58a.55.55,0,0,1,.63.45.56.56,0,0,1-.46.63l-3.66.58Z"/><path d="M95.29,507.68a4.51,4.51,0,1,1,4.49,4.13A4.32,4.32,0,0,1,95.29,507.68Z"/><circle class="cls-3" cx="69.87" cy="514.3" r="9.47"/><path d="M69.87,524.32a10,10,0,1,1,1.34-.09A10.17,10.17,0,0,1,69.87,524.32Zm0-18.93a8.06,8.06,0,0,0-1.2.08,8.91,8.91,0,1,0,2.38,17.67,8.91,8.91,0,0,0-1.18-17.75Z"/><path d="M65.46,515.16a4.51,4.51,0,1,1,5.19,3.2A4.32,4.32,0,0,1,65.46,515.16Z"/><path d="M77.19,540.46a1.09,1.09,0,0,1-1.07-.88l-1.31-6.74a1.09,1.09,0,0,1,2.15-.41l1.3,6.73a1.08,1.08,0,0,1-.86,1.28A.75.75,0,0,1,77.19,540.46Z"/><path d="M72,541.47a1.09,1.09,0,0,1-1.07-.89l-1.3-6.73a1.09,1.09,0,1,1,2.14-.42l1.31,6.74a1.1,1.1,0,0,1-.87,1.28Z"/><path class="cls-2" d="M288,545.72h0a1.11,1.11,0,0,1-1.09-1.1c.28-38.19.35-76.95.23-115.2-.23-70.15-1.14-141.3-2.71-211.47a1.09,1.09,0,0,1,1.07-1.12,1.14,1.14,0,0,1,1.12,1.07c1.56,70.18,2.47,141.34,2.7,211.51.13,38.26,0,77-.22,115.22A1.09,1.09,0,0,1,288,545.72Z"/><path class="cls-2" d="M295.7,546h0a1.11,1.11,0,0,1-1.09-1.11c.28-38.23.35-77,.23-115.19-.23-70.12-1.14-141.27-2.71-211.47a1.11,1.11,0,0,1,1.07-1.12,1.14,1.14,0,0,1,1.12,1.07c1.57,70.22,2.48,141.38,2.71,211.51.12,38.22.05,77-.23,115.22A1.09,1.09,0,0,1,295.7,546Z"/><path class="cls-2" d="M368.2,551.87h0a1.09,1.09,0,0,1-1.09-1.1c.28-38.23.35-77,.23-115.2-.23-70.11-1.14-141.26-2.71-211.46a1.1,1.1,0,0,1,1.07-1.12,1.14,1.14,0,0,1,1.12,1.07c1.57,70.22,2.48,141.38,2.71,211.51.12,38.21.05,77-.23,115.22A1.08,1.08,0,0,1,368.2,551.87Z"/><path class="cls-2" d="M375.86,552.11h0a1.09,1.09,0,0,1-1.08-1.1c.27-38.18.34-76.94.22-115.2-.23-70.15-1.14-141.3-2.71-211.46a1.1,1.1,0,0,1,1.07-1.12h0a1.09,1.09,0,0,1,1.09,1.07c1.57,70.18,2.48,141.34,2.71,211.51.12,38.26.05,77-.22,115.22A1.1,1.1,0,0,1,375.86,552.11Z"/><path class="cls-2" d="M365.78,242.3h-.06l-70.78-3.58a1.09,1.09,0,0,1,.12-2.18l70.77,3.58a1.09,1.09,0,0,1-.05,2.18Z"/><path class="cls-2" d="M364.73,249.47h0l-70-.81a1.1,1.1,0,0,1-1.09-1.11,1.08,1.08,0,0,1,1.11-1.08l70,.81a1.1,1.1,0,1,1,0,2.19Z"/><path class="cls-2" d="M365.75,286.88h-.06l-70.77-3.58a1.09,1.09,0,1,1,.11-2.18l70.78,3.57a1.1,1.1,0,0,1-.06,2.19Z"/><path class="cls-2" d="M366,276.94h0l-70-.81a1.09,1.09,0,1,1,0-2.18l70,.81a1.09,1.09,0,0,1,0,2.18Z"/><path class="cls-2" d="M365.75,286.88h-.06l-70.77-3.58a1.09,1.09,0,1,1,.11-2.18l70.78,3.57a1.1,1.1,0,0,1-.06,2.19Z"/><path class="cls-2" d="M366,276.94h0l-70-.81a1.09,1.09,0,1,1,0-2.18l70,.81a1.09,1.09,0,0,1,0,2.18Z"/><path class="cls-2" d="M366.33,314.33h-.06l-70.78-3.58a1.1,1.1,0,0,1-1-1.15,1.11,1.11,0,0,1,1.15-1l70.78,3.57a1.1,1.1,0,0,1-.05,2.19Z"/><path class="cls-2" d="M365.28,321.5h0l-70-.81a1.1,1.1,0,0,1,0-2.19h0l70,.81a1.1,1.1,0,0,1,0,2.19Z"/><path class="cls-2" d="M366.3,358.91h-.06l-70.78-3.58a1.1,1.1,0,0,1,.12-2.19l70.77,3.58a1.1,1.1,0,0,1-.05,2.19Z"/><path class="cls-2" d="M366.59,349h0l-70-.81a1.1,1.1,0,0,1,0-2.19h0l70,.81a1.1,1.1,0,0,1,1.08,1.11A1.08,1.08,0,0,1,366.59,349Z"/><rect class="cls-2" x="331.02" y="320.01" width="2.19" height="73.06" transform="translate(-40.73 670.23) rotate(-87.11)"/><path class="cls-2" d="M366.59,349h0l-70-.81a1.1,1.1,0,0,1,0-2.19h0l70,.81a1.1,1.1,0,0,1,1.08,1.11A1.08,1.08,0,0,1,366.59,349Z"/><path class="cls-2" d="M368.13,384.91h-.05c-2.81-.14-19.68-.61-36-1.06s-33.22-.92-36-1.06a1.1,1.1,0,0,1-1-1.15,1.12,1.12,0,0,1,1.15-1c2.81.15,19.68.61,36,1.06s33.2.93,36,1.07a1.1,1.1,0,0,1-.06,2.19Z"/><path class="cls-2" d="M367.54,393.09h0c-7.62-.09-15.81-.07-23.73,0s-16.14,0-23.79,0l-24.22-.28a1.1,1.1,0,0,1,0-2.19h0l24.21.28c7.63.09,15.84.06,23.77,0s16.12,0,23.76,0a1.1,1.1,0,0,1,0,2.19Z"/><path class="cls-2" d="M366.85,430.93h-.06L296,427.36a1.11,1.11,0,0,1-1-1.15,1.09,1.09,0,0,1,1.15-1l70.78,3.58a1.09,1.09,0,0,1,0,2.18Z"/><path class="cls-2" d="M367.14,421h0l-70-.81a1.1,1.1,0,1,1,0-2.19l70,.81a1.1,1.1,0,0,1,0,2.19Z"/><path class="cls-2" d="M366.85,430.93h-.06L296,427.36a1.11,1.11,0,0,1-1-1.15,1.09,1.09,0,0,1,1.15-1l70.78,3.58a1.09,1.09,0,0,1,0,2.18Z"/><path class="cls-2" d="M367.12,421l0-1.1Zm0,0-70-.81a1.1,1.1,0,1,1,0-2.19l70,.81,0,1.09Z"/><path class="cls-2" d="M367.42,458.38h-.05l-70.78-3.57a1.1,1.1,0,0,1-1-1.15,1.08,1.08,0,0,1,1.15-1l70.78,3.58a1.09,1.09,0,0,1-.06,2.18Z"/><path class="cls-2" d="M366.37,465.55h0l-70-.81a1.09,1.09,0,0,1-1.08-1.1,1.1,1.1,0,0,1,1.09-1.09h0l70,.81a1.1,1.1,0,0,1,0,2.19Z"/><path class="cls-2" d="M367.39,503h-.05l-70.78-3.58a1.1,1.1,0,0,1-1-1.15,1.08,1.08,0,0,1,1.15-1l70.78,3.57a1.1,1.1,0,0,1-.06,2.19Z"/><path class="cls-2" d="M367.68,493h0l-70-.81a1.1,1.1,0,0,1,0-2.19h0l70,.81a1.09,1.09,0,0,1,1.08,1.1A1.11,1.11,0,0,1,367.68,493Z"/><path class="cls-2" d="M367.39,503h-.05l-70.78-3.58a1.1,1.1,0,0,1-1-1.15,1.08,1.08,0,0,1,1.15-1l70.78,3.57a1.1,1.1,0,0,1-.06,2.19Z"/><path class="cls-2" d="M367.68,493h0l-70-.81a1.1,1.1,0,0,1,0-2.19h0l70,.81a1.09,1.09,0,0,1,1.08,1.1A1.11,1.11,0,0,1,367.68,493Z"/><path class="cls-2" d="M368,530.41h-.06l-70.77-3.58a1.09,1.09,0,0,1-1-1.15,1.08,1.08,0,0,1,1.15-1L368,528.22a1.1,1.1,0,0,1,1,1.15A1.09,1.09,0,0,1,368,530.41Z"/><path class="cls-2" d="M366.92,537.58h0l-70-.81a1.1,1.1,0,0,1,0-2.19h0l70,.81a1.1,1.1,0,0,1,0,2.19Z"/><rect class="cls-3" x="156.21" y="445" width="27.62" height="16.12"/><path class="cls-4" d="M184.92,462.22h-29.8V443.91h29.8ZM157.3,460h25.43V446.1H157.3Z"/><path class="cls-3" d="M362.14,296.21a15.58,15.58,0,0,0-15.59,15.58,15.76,15.76,0,0,0,.26,2.77c-4.47-5.27-9.77-8.77-15.45-8.77s-10.79,3.37-15.22,8.49a15.57,15.57,0,1,0-15.37,13.1,15.48,15.48,0,0,0,8.43-2.49c-4.27,8.47-6.84,18.23-6.84,25.95a32.46,32.46,0,0,0,10.16,23.88,5.27,5.27,0,0,0-4.15,4.86c0,2.82,2.7,5.11,6,5.11s5.79-2.1,6-4.76a26.93,26.93,0,0,0,22.07-.07c.17,2.69,2.79,4.83,6,4.83s6-2.29,6-5.11a5.32,5.32,0,0,0-4.28-4.9,32.45,32.45,0,0,0,10.13-23.84c0-7.77-2.62-17.61-6.93-26.12a15.58,15.58,0,1,0,8.7-28.51Z"/><path class="cls-6" d="M348.49,385.79a7.08,7.08,0,0,1-6.81-4.41,28.09,28.09,0,0,1-20.49.06,7.13,7.13,0,0,1-6.79,4.35c-3.93,0-7.12-2.79-7.12-6.21a6,6,0,0,1,3.29-5.24,33.77,33.77,0,0,1-9.3-23.5c0-7,2.05-15.62,5.57-23.52a16.53,16.53,0,0,1-6.07,1.15,16.68,16.68,0,1,1,16.67-17.17c4.44-4.33,9.2-6.6,13.92-6.6s9.62,2.33,14.1,6.79a16.68,16.68,0,1,1,10.39,15.75c3.54,7.92,5.61,16.54,5.61,23.6a33.74,33.74,0,0,1-9.26,23.44,6.13,6.13,0,0,1,3.41,5.3C355.61,383,352.42,385.79,348.49,385.79Zm-5-7.57.1,1.57c.14,2.14,2.3,3.81,4.92,3.81s4.94-1.8,4.94-4a4.25,4.25,0,0,0-3.46-3.84l-1.94-.49,1.46-1.36a31.44,31.44,0,0,0,9.78-23.05c0-7.64-2.54-17.22-6.81-25.62l-1.9-3.75,3.49,2.35a14.5,14.5,0,1,0-6.4-12,14.75,14.75,0,0,0,.24,2.58l.72,4-2.63-3.1c-3.24-3.83-8.41-8.39-14.62-8.39-4.83,0-9.81,2.81-14.4,8.11l-2.52,2.93.62-3.82a14,14,0,0,0,.21-2.31A14.54,14.54,0,1,0,308.61,324L312,321.8l-1.81,3.58c-4.21,8.36-6.72,17.88-6.72,25.46a31.43,31.43,0,0,0,9.82,23.08l1.43,1.33-1.88.52a4.19,4.19,0,0,0-3.36,3.81c0,2.22,2.22,4,4.94,4s4.75-1.65,4.92-3.75l.12-1.54,1.41.62a26,26,0,0,0,21.18-.06Z"/><path class="cls-2" d="M320.06,338l-1-.1c-16.95-1.78-24-1.26-26.84-.5l-.28-1.06c4.32-1.13,13.49-1,27.23.48l.95.09Z"/><path class="cls-2" d="M294,341.28l-.43-1c4.14-1.73,13.24-2.85,27.07-3.34l.92,0,.07,1.1-.95,0C303.61,338.63,296.74,340.13,294,341.28Z"/><path d="M331.8,339.49c-.65,0-1.81-.52-4.34-3.21a.87.87,0,0,1-.12-1.06c.66-1.19,4.5-2.36,7.23-1.82a1.48,1.48,0,0,1,1.35,1.05c.37,1.51-2.3,3.8-3.29,4.59a.94.94,0,0,1-.54.41A1.27,1.27,0,0,1,331.8,339.49Zm-.14-.92Zm-3.29-2.92c2.25,2.38,3.13,2.7,3.37,2.74a.49.49,0,0,1,.12-.13c1.53-1.2,3.14-3,3-3.55,0-.1-.22-.19-.5-.24A8.92,8.92,0,0,0,328.37,335.65Z"/><path d="M323.73,331a2.86,2.86,0,1,1,3.06-2.86A3,3,0,0,1,323.73,331Zm0-4.62a1.77,1.77,0,1,0,2,1.76A1.88,1.88,0,0,0,323.73,326.41Z"/><path d="M333.48,331a2.86,2.86,0,1,1,3.06-2.86A3,3,0,0,1,333.48,331Zm0-4.62a1.77,1.77,0,1,0,2,1.76A1.88,1.88,0,0,0,333.48,326.41Z"/><path d="M331.58,343.51A.54.54,0,0,1,331,343v-3.7a.55.55,0,1,1,1.09,0V343A.54.54,0,0,1,331.58,343.51Z"/><path class="cls-2" d="M342.33,338l-.09-1.09.95-.09c13.75-1.45,22.91-1.61,27.24-.48l-.28,1.06c-2.88-.76-9.88-1.28-26.85.5Z"/><path class="cls-2" d="M368.4,341.28c-2.76-1.15-9.62-2.65-26.68-3.26l-1,0,.07-1.1.92,0c13.83.49,22.93,1.61,27.06,3.34Z"/><g class="cls-1"><path class="cls-2" d="M301.9,302.9c-10.86,0-10.86,16.83,0,16.83S312.75,302.9,301.9,302.9Z"/></g><g class="cls-1"><path class="cls-2" d="M369,304.24a8.51,8.51,0,0,0-11.9,0l-.56.56a8.42,8.42,0,0,0,11.9,11.91l.56-.56A8.5,8.5,0,0,0,369,304.24Z"/></g><path class="cls-6" d="M297.07,365.59h-28a1.09,1.09,0,1,1,0-2.18h27.17L302,340.77a1.09,1.09,0,0,1,2.12.54l-6,23.46A1.09,1.09,0,0,1,297.07,365.59Z"/><path class="cls-6" d="M359.37,360.05a1.09,1.09,0,0,1-.54-2l15-8.54-15-8.06a1.09,1.09,0,0,1,1-1.92l16.76,9a1.08,1.08,0,0,1,.57.95,1.06,1.06,0,0,1-.55,1l-16.76,9.52A1.06,1.06,0,0,1,359.37,360.05Z"/></g><g id="CC_Laura_Henneke" data-name="CC Laura Henneke"><text class="cls-8" transform="translate(345.89 608.98)">Laura Henneke</text></g></svg>