<svg xmlns="http://www.w3.org/2000/svg" viewBox="0 0 453.54 705.83"><defs><style>.cls-1{fill:#181819;}.cls-2{fill:#fff;}.cls-3{fill:#59c3c1;}.cls-4{opacity:0.3;}.cls-5{fill:#b6b6b7;}.cls-6{fill:#020202;}.cls-7{fill:#2b2c2a;}.cls-8{opacity:0.1;}.cls-9{fill:#0c0d0d;}.cls-10{font-size:16px;font-family:PatrickHand-Regular, Patrick Hand;}</style></defs><g id="Artwork"><rect x="131.6" y="421.87" width="104.84" height="2.11" transform="translate(-275.46 382.9) rotate(-61.51)"/><polygon points="208.52 378.02 211.85 380.86 211.37 374.69 205.2 375.18 208.52 378.02"/><rect x="309.74" y="355.11" width="2.11" height="128.41" transform="translate(-164.21 203) rotate(-28.97)"/><polygon points="280.21 364.66 283.84 362.21 277.76 361.03 276.58 367.1 280.21 364.66"/><path class="cls-1" d="M317.15,507.69a1.15,1.15,0,0,1-.26,0L159.27,469.09a1.06,1.06,0,1,1,.5-2L317.4,505.61a1.06,1.06,0,0,1-.25,2.08Z"/><polyline class="cls-2" points="138.03 438.66 159.52 438.66 159.52 493.54 65.5 493.54 65.5 438.66 92.37 438.66"/><polygon class="cls-3" points="161.63 495.65 63.39 495.65 63.39 436.56 92.38 436.56 92.38 440.77 67.61 440.77 67.61 491.43 157.41 491.43 157.41 440.77 138.03 440.77 138.03 436.56 161.63 436.56 161.63 495.65"/><rect class="cls-3" x="108.32" y="437.08" width="13.71" height="3.16"/><polyline class="cls-2" points="242.54 316.3 272.19 316.3 272.19 371.17 178.18 371.17 178.18 316.3 226.25 316.3"/><polygon class="cls-3" points="274.3 373.28 176.07 373.28 176.07 314.19 226.25 314.19 226.25 318.41 180.28 318.41 180.28 369.06 270.08 369.06 270.08 318.41 242.54 318.41 242.54 314.19 274.3 314.19 274.3 373.28"/><polyline class="cls-2" points="367.93 474.85 411.16 474.85 411.16 529.72 317.15 529.72 317.15 474.85 355.29 474.85"/><polygon class="cls-3" points="413.27 531.83 315.04 531.83 315.04 472.74 355.29 472.74 355.29 476.95 319.26 476.95 319.26 527.61 409.05 527.61 409.05 476.95 367.93 476.95 367.93 472.74 413.27 472.74 413.27 531.83"/><g class="cls-4"><path class="cls-5" d="M136.76,330.17c-.53-4.72-.85-9.32-2-13.94s-.86-8.87-1.43-13.43-2.17-9-3.33-13.43A108.78,108.78,0,0,1,127.13,274a4,4,0,0,0-6-2.92l-15.56-2.4c-4.56-.7-6.53,6.25-1.93,7l16.75,2.59c.49,3.49,1.1,7,1.89,10.39,1,4.46,2.66,8.8,3.54,13.3.83,4.28.25,8.66,1.09,13,.48,2.46,1.3,4.83,1.73,7.29.47,2.65.56,5.36.85,8,2,18.75,9.43,36.57,10.35,55.48.23,4.62,7.47,4.65,7.24,0C146.19,366.69,138.86,348.93,136.76,330.17Z"/></g><path class="cls-2" d="M130.79,296s25.14,22.85,25.71,32.81c.4,6.9-16.1,24.59-16.1,24.59l3.15,15.71s29.17-28.31,28.36-40.37c-1.18-17.56-45.27-55.84-45.54-57"/><path d="M143.06,370.71l-3.52-17.53.28-.3c4.52-4.85,16.2-18.63,15.89-24-.55-9.52-25.2-32-25.45-32.26l1.07-1.17c1,.94,25.38,23.17,26,33.34.39,6.73-13.79,22.43-16,24.88L144,367.54c5.17-5.17,27.78-28.43,27.09-38.73-.93-13.89-30-41.69-41-52.16-4.32-4.13-4.48-4.31-4.57-4.72l1.54-.36-.77.18.69-.37c.23.33,2.08,2.09,4.21,4.13,11.06,10.58,40.46,38.69,41.43,53.2.82,12.28-27.4,39.82-28.6,41Z"/><path d="M109.7,257c-1,0-1.94-.05-3-.14-15.66-.61-21.54-11.33-23.68-20.62a5.54,5.54,0,0,1-5.89-1.51,5.31,5.31,0,0,1-1.4-3.92,5.5,5.5,0,0,1,5.79-5.11l.35,0c0-1.64.09-2.63.09-2.68.75-17.07,5.23-29,13.33-35.31a21.87,21.87,0,0,1,16.73-4.59c.18,0,7,.46,13.12,7.27C132,198,135,210.26,134,226.74c0,0,0,1.38-.16,3.54a5.42,5.42,0,0,1,4.17,5.56,5.54,5.54,0,0,1-5.8,5.11,4.52,4.52,0,0,1-.63-.08C128.88,248.52,122.87,257,109.7,257ZM84.18,233.87l.22,1.07c1.84,8.94,7.22,19.73,22.44,20.32,14.7,1.3,20.89-7.75,23.52-15.58l.24-.74.75.24a3.91,3.91,0,0,0,5.12-3.43,3.87,3.87,0,0,0-3.53-4l-.79-.08.08-.79a37.19,37.19,0,0,0,.23-4.14c.92-16.1-1.93-27.94-8.46-35.25-5.65-6.34-12.08-6.76-12.14-6.77A20.73,20.73,0,0,0,96.28,189c-7.7,6-12,17.54-12.7,34.14,0,.05-.12,1.42-.08,3.55l0,1.11-1-.34a4,4,0,0,0-1-.19,3.89,3.89,0,0,0-4.12,3.62,3.76,3.76,0,0,0,1,2.77,3.93,3.93,0,0,0,2.7,1.28,4,4,0,0,0,2.19-.52Z"/><path class="cls-2" d="M127.12,194.26c.53-5.64-1.15-9-2.36-18.08,2.79.66,8.43-1.52,7.1-7.92-5.49-16.57-71.29-3.76-67.2,9.52,2.28,7.41,6.81-.19,12.67,2,3.7,1.38,7.91,6.13,9.39,21.61C97.32,198.83,116.53,196.82,127.12,194.26Z"/><path d="M85.79,202.7l-.12-1.21c-1.15-12-4.08-19-8.7-20.72-2.1-.78-4-.09-5.89.59s-3.35,1.21-4.88.45c-1.13-.57-1.94-1.75-2.55-3.72-1.53-5,4.64-10.06,16.92-14,19.26-6.15,48.48-7.68,52.29,3.83.8,3.81-.54,6-1.8,7.29a7.69,7.69,0,0,1-5.07,2.12c.4,2.79.84,5,1.24,6.95.74,3.72,1.28,6.41.94,10.07l-.07.75-.73.18c-5.34,1.29-12.94,2.45-20.29,3.58S92.22,201.15,87,202.42ZM75,178.31a7.41,7.41,0,0,1,2.66.49c5.36,2,8.61,9,10,21.29,5.25-1.18,12.29-2.26,19.11-3.3s14.16-2.17,19.37-3.38a31.81,31.81,0,0,0-1-8.71c-.46-2.29-1-4.89-1.44-8.38l-.2-1.51,1.48.34a5.37,5.37,0,0,0,4.58-1.44,5.44,5.44,0,0,0,1.25-5.24c-3-9.07-29.62-8.75-49.62-2.36-10.69,3.42-16.65,7.77-15.54,11.36a4,4,0,0,0,1.47,2.45c.72.36,1.88-.06,3.22-.55A13.63,13.63,0,0,1,75,178.31Z"/><path d="M88.32,392.88l0-.77c-2.72-37.15-3-60.6-2.57-98.6-13.1,2.86-23.07,6.58-23.78,22.39-.4,8.9,6,17.23,20.83,27l.63.42-5,8.38-.59-.17c-20.93-6.05-30.32-22.19-30.18-34.63.17-16.18,6.62-33.23,52.1-48.38.31-1.79.75-4.05,1.19-6.32.47-2.42.93-4.83,1.25-6.66l1.56.27c-.32,1.83-.79,4.26-1.26,6.69s-1,4.91-1.27,6.76l-.08.47-.45.15c-51.13,16.91-51.34,36.51-51.46,47-.13,11.74,8.73,27,28.46,32.92l3.63-6c-10.17-6.77-21.45-16-20.91-28,.78-17.29,12.24-21.13,26-24.06l1-.21v1c-.45,38.27-.2,61.72,2.49,98.68,10.28-.58,19.35-.92,28.13-1.25s17.75-.67,28-1.23c-3.51-18.3-6.84-38.46-10.06-58s-6.6-39.95-10.13-58.34l-9.38-1.68-.11-.52c-.88-4.13-.69-10-.43-14.71l1.58.09c-.22,4-.43,9.79.29,13.78l9.39,1.68.11.53c3.57,18.55,7,39.07,10.24,58.91s6.65,40.31,10.22,58.81l.17.89-.9.05c-10.6.6-19.91.95-28.91,1.29s-18.28.69-28.87,1.29Z"/><path class="cls-2" d="M78.72,350.56c3,1.5,5.37,4.74,9.84,6.47,7.15,2.75,13.87,2.61,15-.31s-3.75-7.53-10.9-10.28c-4-1.55-7.54-.19-10.41-1.75"/><path d="M98,359.82a27.82,27.82,0,0,1-9.69-2.06,23.17,23.17,0,0,1-6.48-4.08,19.75,19.75,0,0,0-3.43-2.41l.71-1.42a21.14,21.14,0,0,1,3.71,2.6,21.93,21.93,0,0,0,6,3.84c7.2,2.77,13.14,2.3,14,.14a2.29,2.29,0,0,0-.17-1.76c-1.13-2.55-5.26-5.56-10.28-7.49a15.33,15.33,0,0,0-5.33-.82,10.94,10.94,0,0,1-5.17-1l.76-1.39a9.65,9.65,0,0,0,4.45.79,16.71,16.71,0,0,1,5.86.92c5.47,2.11,9.85,5.38,11.16,8.33a3.82,3.82,0,0,1,.19,3C103.57,358.87,101.22,359.82,98,359.82Z"/><path d="M101.87,463.45l-15-.53.21-.93c1.07-4.76,2-9.6,2.88-14.37s1.6-8.84,2.26-12.39c3.42-18.54,4.24-23,2.74-43.49l1.57-.12c1.52,20.75.7,25.2-2.76,43.9-.65,3.54-1.4,7.6-2.25,12.37-.79,4.49-1.7,9-2.69,13.52l12,.42c6-15.6,12.26-44.82,12.74-71.12l1.59,0c-.52,28-7.13,57.07-13.06,72.19Z"/><path d="M131,464.63l-15-.53.21-.93c1.06-4.77,2-9.6,2.88-14.38.56-3.17,1.08-6.06,1.56-8.71,4-22,5-27.94,3.43-49.82l1.58-.11c1.61,22.07.54,28-3.46,50.21-.47,2.65-1,5.53-1.56,8.71-.79,4.48-1.69,9-2.68,13.51l12,.43c5.85-15.12,15.11-47.09,13.68-73.8l1.58-.09c1.46,27.3-8.11,60-14,75Z"/><g class="cls-4"><path class="cls-5" d="M121.3,169.85a167,167,0,0,1-17.14,3,2.57,2.57,0,0,0-2.23.25,172,172,0,0,1-18.73,1c-3.1,0-2.89,4.8.21,4.8,1.53,0,3.07,0,4.61-.06a2.72,2.72,0,0,0,.11.38,58.13,58.13,0,0,1,4,17.77c.19,3.08,5,2.89,4.81-.2a62.78,62.78,0,0,0-3.89-18.15q4.14-.23,8.26-.65,1.95,8.24,3.63,16.53c.61,3,5.19,1.54,4.59-1.47q-1.59-7.83-3.42-15.62c2.55-.33,5.1-.73,7.64-1.17a33.86,33.86,0,0,0,2.45,6.83,38.3,38.3,0,0,1,2.6,9.58c.41,3,5.23,2.87,4.81-.2a44.08,44.08,0,0,0-2.21-9.27c-1-2.6-2.49-5.09-2.92-7.84q2.14-.43,4.29-.93C125.79,173.73,124.3,169.16,121.3,169.85Z"/></g><path d="M94.65,200.59a.8.8,0,0,1-.78-.65L90,179.21a.79.79,0,0,1,1.56-.29l3.91,20.73a.79.79,0,0,1-.63.92Z"/><path d="M107.47,198.18a.78.78,0,0,1-.77-.64l-3.91-20.74a.79.79,0,0,1,1.55-.29l3.91,20.73a.8.8,0,0,1-.63.93Z"/><path d="M119.83,195.86a.79.79,0,0,1-.78-.64l-3.91-20.73a.79.79,0,0,1,1.56-.3l3.91,20.74a.79.79,0,0,1-.63.92Z"/><polygon points="138.93 389.98 121.02 275.89 100.15 269.87 100.59 268.35 122.42 274.65 140.49 389.73 138.93 389.98"/><rect x="107.89" y="261.27" width="1.58" height="16.64" transform="translate(-166.74 362.51) rotate(-86.69)"/><path d="M116.82,289a2.37,2.37,0,0,1-1.71-.71,2.42,2.42,0,0,1,3.43-3.42h0a2.43,2.43,0,0,1,0,3.43A2.45,2.45,0,0,1,116.82,289Zm0-3.25a.83.83,0,0,0-.59,1.43.86.86,0,0,0,1.19,0,.83.83,0,0,0,0-1.19h0A.85.85,0,0,0,116.82,285.71Z"/><path d="M118.64,302.79a2.42,2.42,0,0,1-1.71-.71,2.37,2.37,0,0,1-.71-1.71,2.42,2.42,0,0,1,4.13-1.71h0a2.41,2.41,0,0,1,.71,1.71,2.37,2.37,0,0,1-.71,1.71A2.42,2.42,0,0,1,118.64,302.79Zm0-3.25a.82.82,0,0,0-.84.83.84.84,0,0,0,1.43.59.8.8,0,0,0,.25-.59.83.83,0,0,0-.25-.59A.82.82,0,0,0,118.64,299.54Z"/><path d="M121,318.18a2.46,2.46,0,0,1-1.72-.71,2.41,2.41,0,0,1-.71-1.71,2.43,2.43,0,0,1,4.14-1.71,2.41,2.41,0,0,1,.71,1.71,2.37,2.37,0,0,1-.71,1.71A2.42,2.42,0,0,1,121,318.18Zm0-3.25a.86.86,0,0,0-.6.24.83.83,0,0,0-.25.59.82.82,0,0,0,.25.59.84.84,0,0,0,1.19,0,.8.8,0,0,0,.25-.59.84.84,0,0,0-.84-.83Z"/><path d="M122.81,332a2.42,2.42,0,0,1-1.71-.71,2.41,2.41,0,0,1,0-3.42,2.43,2.43,0,0,1,3.42,0h0a2.41,2.41,0,0,1,0,3.42A2.42,2.42,0,0,1,122.81,332Zm0-3.26a.84.84,0,1,0,.6,1.43.87.87,0,0,0,.24-.59.82.82,0,0,0-.24-.59A.87.87,0,0,0,122.81,328.75Z"/><path d="M125.46,342a2.42,2.42,0,0,1-2.42-2.42,2.43,2.43,0,0,1,4.14-1.71h0a2.41,2.41,0,0,1,0,3.42A2.46,2.46,0,0,1,125.46,342Zm0-3.26a.85.85,0,0,0-.59.25.85.85,0,1,0,1.19,0h0A.87.87,0,0,0,125.46,338.75Z"/><path d="M127.28,355.84a2.42,2.42,0,1,1,1.71-4.13,2.41,2.41,0,0,1,0,3.42A2.42,2.42,0,0,1,127.28,355.84Zm0-3.26a.84.84,0,0,0-.6,1.43.84.84,0,1,0,.6-1.43Z"/><path d="M129.89,366.06a2.42,2.42,0,0,1-2.43-2.42,2.43,2.43,0,0,1,4.14-1.71h0a2.37,2.37,0,0,1,.71,1.71,2.42,2.42,0,0,1-2.42,2.42Zm0-3.26a.82.82,0,0,0-.6.25.8.8,0,0,0-.25.59.83.83,0,0,0,.25.59.86.86,0,0,0,1.19,0,.83.83,0,0,0,.25-.59.82.82,0,0,0-.25-.59h0A.81.81,0,0,0,129.89,362.8Z"/><path d="M131.7,379.88a2.41,2.41,0,1,1,1.71-.7A2.41,2.41,0,0,1,131.7,379.88Zm0-3.25a.82.82,0,0,0-.84.83.84.84,0,1,0,1.44-.59A.86.86,0,0,0,131.7,376.63Z"/><path class="cls-6" d="M101.06,213.36a.8.8,0,0,1-.18-1.57c8-1.88,22.83-.88,23.62-.15a.8.8,0,0,1,0,1.12.78.78,0,0,1-.88.19c-1.18-.26-14.37-1.51-22.42.38Z"/><path class="cls-6" d="M111.38,237.33a5.82,5.82,0,0,1-3-.89.79.79,0,1,1,.83-1.34,3.35,3.35,0,0,0,3.53.27,1.37,1.37,0,0,0,.36-1.61c-.84-2.9-1.09-26.89-1.11-29.61a.78.78,0,0,1,.78-.8h0a.79.79,0,0,1,.79.78c.07,7.35.39,26.92,1,29.19a2.91,2.91,0,0,1-.92,3.3A3.75,3.75,0,0,1,111.38,237.33Z"/><path d="M117.63,213.25a1.42,1.42,0,0,1,2.8.48,1.42,1.42,0,0,1-2.8-.48Z"/><path d="M112.74,237.64s9.61-3.82,13.29,10.49c.47.25,0,5,6.42,5.76,0,0-13,5.8-19.36-8.57C113.09,245.32,109.93,239.51,112.74,237.64Z"/><path d="M126.43,255.84a14.42,14.42,0,0,1-5.17-.93c-3.82-1.46-6.81-4.57-8.89-9.26-.12-.21-3.44-6.42-.07-8.66l.15-.08a9.54,9.54,0,0,1,7.37.48c3.22,1.64,5.55,5.12,6.93,10.37a2.53,2.53,0,0,1,.28.83c.3,1.28.91,3.94,5.51,4.51l2.81.35-2.58,1.16A16.88,16.88,0,0,1,126.43,255.84Zm-13.32-17.49c-1.68,1.26,0,5.27.68,6.6,4.37,9.82,11.8,9.82,15.74,9a6.54,6.54,0,0,1-4-5c0-.09,0-.17,0-.24l-.09-.05-.09-.33c-1.25-4.88-3.32-8.09-6.15-9.53A8,8,0,0,0,113.11,238.35Z"/><path d="M110.85,236.93s-9.92-2.94-12.29,11.64c-.44.3.5,4.93-5.86,6.32,0,0,13.43,4.61,18.5-10.28C111.2,244.61,113.81,238.54,110.85,236.93Z"/><path d="M97.37,256.36a16.25,16.25,0,0,1-4.93-.73l-2.68-.92,2.77-.6c4.52-1,4.9-3.69,5.08-5a2.31,2.31,0,0,1,.21-.86c.89-5.35,2.9-9,6-11a9.51,9.51,0,0,1,7.3-1.14l.16.06c3.56,1.93.81,8.41.69,8.69-1.63,4.8-4.32,8.17-8,10A14.9,14.9,0,0,1,97.37,256.36Zm-1.73-1.69a15.34,15.34,0,0,0,4.33-.13c5-.9,8.49-4.33,10.48-10.18.61-1.44,1.88-5.59.1-6.69a8.1,8.1,0,0,0-6,1c-2.67,1.69-4.44,5.06-5.24,10l-.14.4c0,.07,0,.15,0,.24A6.51,6.51,0,0,1,95.64,254.67Z"/><path d="M104.29,213.63a1.42,1.42,0,1,1,1.16,1.64A1.42,1.42,0,0,1,104.29,213.63Z"/><g class="cls-4"><path class="cls-5" d="M381.32,341.46c-8.16-3.92-19-4.2-27.74-2.46-4.56.9-2.63,7.88,1.93,7,6.7-1.33,15.87-1.28,22.15,1.73C381.84,349.72,385.52,343.48,381.32,341.46Z"/></g><g class="cls-4"><path class="cls-5" d="M381,396.77a111.11,111.11,0,0,1-25.12-.83c-4.56-.69-6.52,6.29-1.92,7A119.35,119.35,0,0,0,381,404C385.63,403.65,385.67,396.41,381,396.77Z"/></g><path d="M414.38,394.61a8.74,8.74,0,0,1-3.19-.75,28.36,28.36,0,0,1-7.19-4.49,31.58,31.58,0,0,1-4.69-4.72,1.05,1.05,0,1,1,1.66-1.3,30.15,30.15,0,0,0,4.37,4.4,26.91,26.91,0,0,0,6.64,4.16,5.3,5.3,0,0,0,2.81.55c-.46-1-2.78-3.55-4.52-5.43-2.76-3-5.62-6.09-6.68-8.48a1.05,1.05,0,1,1,1.92-.86c.92,2.07,3.79,5.17,6.31,7.91,4.21,4.56,6,6.63,4.81,8.1A2.78,2.78,0,0,1,414.38,394.61Z"/><path class="cls-2" d="M372.61,487.16c5.16,5.15,10,13.82,8.07,15.74S370,500,364.82,494.81a38.4,38.4,0,0,1-3.57-4.13v8.8h-4.07V481.6h0"/><path d="M379.4,504.08c-3.8,0-11-4.62-15.14-8.71-.76-.76-1.51-1.58-2.22-2.42v6.53a.8.8,0,0,1-.79.79h-4.07a.79.79,0,0,1-.79-.79V481.6a.79.79,0,0,1,.79-.79l0,.79H358v17.09h2.49v-8a.77.77,0,0,1,.54-.75.78.78,0,0,1,.88.27,38.13,38.13,0,0,0,3.5,4.05c5.66,5.66,13.54,9.28,14.74,8.09s-2.44-9-8.07-14.63l1.12-1.11c5,5,10.62,14.31,8.07,16.86A2.52,2.52,0,0,1,379.4,504.08Z"/><path class="cls-2" d="M363,480.18c.38,2.81,5.85,2.76,9.13,6,5.16,5.16,7.75,11.33,6.43,12.41-1.61,1.32-7.64-.72-12.8-5.88-3.77-3.77-7.95-9.37-8.71-11.72"/><path d="M377,499.81c-3,0-8-2.59-11.9-6.51s-8.1-9.57-8.89-12l1.51-.48c.7,2.19,4.83,7.73,8.5,11.4,5.28,5.28,10.75,6.64,11.75,5.83.56-.79-1.4-6.15-6.49-11.24a14.65,14.65,0,0,0-5-2.84c-2.12-.86-4.13-1.68-4.4-3.65l1.57-.21c.14,1,1.39,1.57,3.43,2.4a15.79,15.79,0,0,1,5.48,3.18c4.53,4.54,7.12,9.74,7,12.15a1.91,1.91,0,0,1-.63,1.43A3,3,0,0,1,377,499.81Z"/><path d="M356.48,481.89c-4.67-11.93-1.42-46.18-.58-50.8.52-2.92-.3-6.88-1.55-12.87-1-5-2.34-11.19-3.39-19.31l1.57-.2c1.05,8.06,2.33,14.23,3.37,19.18,1.28,6.18,2.14,10.26,1.55,13.48-1,5.62-3.83,38.89.51,49.94Z"/><path d="M381.36,499.63l-1.43-.67c.47-1-.57-7.41-3.52-11.11a20.71,20.71,0,0,0-10.49-6.61.77.77,0,0,1-.58-.39.8.8,0,0,1,0-.69l.29-.72c4.59-11.64,5.06-19.83,5.56-28.51a118.21,118.21,0,0,1,2.49-20.46A49.39,49.39,0,0,1,376,423.4a165.63,165.63,0,0,0,7.87-25.71l1.54.36A168.9,168.9,0,0,1,377.49,424a48.52,48.52,0,0,0-2.32,6.84A117.7,117.7,0,0,0,372.71,451c-.5,8.78-1,17.08-5.61,28.89a22.49,22.49,0,0,1,10.54,6.95C380.92,491,382.15,497.94,381.36,499.63Z"/><polygon points="363.73 480.36 362.15 480.29 365.71 399.96 366.07 398.26 367.62 398.6 367.27 400.17 363.73 480.36"/><path d="M399.28,385.27h0a.81.81,0,0,1-.62-.32,81.67,81.67,0,0,1-11.53-21.72,76.43,76.43,0,0,1-3.74-16.13.79.79,0,1,1,1.57-.19,75.16,75.16,0,0,0,3.66,15.8,79.67,79.67,0,0,0,10.7,20.46l4.68-5.92a75.65,75.65,0,0,1-6.61-16.47c-.87-3.25-2.23-9.11-3.81-15.9-2.7-11.64-6.06-26.12-8.36-33.27a.79.79,0,1,1,1.51-.49c2.32,7.22,5.68,21.74,8.39,33.4,1.57,6.78,2.93,12.63,3.8,15.85A73.77,73.77,0,0,0,405.63,377a.77.77,0,0,1-.07.87L399.9,385A.79.79,0,0,1,399.28,385.27Z"/><path d="M276.46,310.83c-6.66,0-13.41-1.83-13.41-5.33,0-7,26.83-7,26.83,0C289.88,309,283.13,310.83,276.46,310.83Zm0-8.55c-7.31,0-11.3,2.13-11.3,3.22s4,3.23,11.3,3.23,11.31-2.13,11.31-3.23S283.78,302.28,276.46,302.28Z"/><path class="cls-2" d="M393.45,234.77c0-15.39-9.14-26-28.71-26s-31.08,10.62-31.08,26-23,53.48-3.39,53.48S393.45,250.16,393.45,234.77Z"/><path d="M330.27,289.3c-3.33,0-5.77-1.05-7.25-3.12-4.14-5.75.12-18.36,4.25-30.56,2.74-8.12,5.33-15.79,5.33-20.85,0-16.44,12.62-27.06,32.14-27.06,18.91,0,29.76,9.86,29.76,27.06C394.5,251.08,349.48,289.3,330.27,289.3Zm34.47-79.48c-18.52,0-30,9.56-30,25,0,5.41-2.64,13.24-5.44,21.53-3.77,11.14-8,23.78-4.54,28.65,1.08,1.51,2.89,2.24,5.54,2.24,8.56,0,23.57-8.13,38.24-20.71,14.29-12.25,23.88-25,23.88-31.71C392.39,218.68,382.57,209.82,364.74,209.82Z"/><path d="M355.2,399.63l-3.46,0h-.57l-.17-.53c-6.23-19.15-9.08-27.88-6.07-36,5.69-15.46,5.11-19.88,3.85-29.55-.45-3.38-.95-7.21-1.33-12.35L349,321c.37,5.09.87,8.89,1.31,12.25,1.31,9.94,1.9,14.48-3.93,30.31-2.65,7.19-.56,14.53,5.91,34.45,7.27.09,11.62-.19,15.83-.48s8.6-.58,15.92-.48c5.77-18.54,4.5-27.07,3.27-35.32l-.07-.47A92.77,92.77,0,0,0,384.66,350a106.22,106.22,0,0,1-3.83-18.79c-.3-3,1.26-4.68,2.77-6.3s2.9-3.09,3-6c.23-5.44-3.37-12.2-7.94-20.76-1.42-2.65-2.93-5.48-4.47-8.53l1.41-.72c1.53,3,3,5.87,4.45,8.51,4.69,8.77,8.39,15.7,8.13,21.57-.16,3.51-1.91,5.38-3.45,7s-2.58,2.76-2.35,5a103.06,103.06,0,0,0,3.78,18.53,95.6,95.6,0,0,1,2.65,11.43l.07.47c1.27,8.51,2.57,17.31-3.5,36.59l-.18.56h-.59c-7.62-.13-12.08.18-16.39.47C364.61,399.38,360.86,399.63,355.2,399.63Z"/><path d="M320.53,347.93c-9.9,0-23-4-32.58-18.24-7-10.36-7.63-12.41-10.13-20l1.49-.54v0c2.45,7.45,3.11,9.45,9.95,19.63,12.32,18.37,30.67,19,39.58,16.46,10.21-2.9,18.43-20.22,18.6-24.23l1.58.07c-.2,4.76-8.92,22.6-19.75,25.68A32.61,32.61,0,0,1,320.53,347.93Z"/><path d="M320.59,336a24.79,24.79,0,0,1-4.84-.5c-10.46-2.08-24-11-27.79-29.28l1.55-.31c3.62,17.51,16.56,26.05,26.55,28,5.77,1.15,10.68.14,12.52-2.57,3.38-5,7.29-20.22,9.26-32.05,1.39-8.31,6.41-11.29,11.74-14.45.75-.45,1.52-.91,2.29-1.39l.84,1.35c-.78.48-1.56.94-2.33,1.4-5.21,3.09-9.71,5.77-11,13.35-2,12.3-6,27.47-9.51,32.68C328.24,334.66,324.86,336,320.59,336Z"/><path class="cls-7" d="M312.72,305.5a25.43,25.43,0,0,0-50.85,0"/><path d="M313.51,305.5h-1.59a24.63,24.63,0,0,0-49.26,0h-1.58a26.22,26.22,0,0,1,52.43,0Z"/><path d="M315.07,306.29h-62.8a.79.79,0,1,1,0-1.58h62.8a.79.79,0,1,1,0,1.58Z"/><path d="M287.29,281.13c-1.64,0-2.37-2.19-2.37-4.36s.73-4.36,2.37-4.36,2.37,2.19,2.37,4.36S288.93,281.13,287.29,281.13Zm0-6.18a6.5,6.5,0,0,0,0,3.64,6.5,6.5,0,0,0,0-3.64Z"/><path class="cls-2" d="M383.76,345.43c-1.6-4.59-31.68-4.11-33.37-1.37-5.16,8.4-10.5,48.43-3.78,53.81,5.07,4.06,37.54,4,42.58,0C396,392.5,387.17,355.18,383.76,345.43Z"/><path d="M367.88,401.64c-9.57,0-19.14-1.05-21.77-3.15-7.29-5.84-1.33-46.8,3.61-54.84,1.6-2.6,17.31-2.85,25.21-2,8.67.93,9.35,2.88,9.58,3.52,2.66,7.63,12.85,47.26,5.17,53.32C387,400.59,377.44,401.64,367.88,401.64Zm-2.05-58.86c-7.26,0-14,.76-14.77,1.71-2.43,3.95-5.05,15.6-6.23,27.68-1.29,13.32-.42,22.93,2.27,25.08,4.83,3.86,36.71,3.86,41.6,0,6.13-4.84-2-41-5.69-51.56h0c-.07-.2-.65-1.25-5.23-2.05A72.73,72.73,0,0,0,365.83,342.78Z"/><circle class="cls-2" cx="365.73" cy="296.22" r="2.96"/><path d="M365.73,299.71a3.5,3.5,0,1,1,3.5-3.49A3.5,3.5,0,0,1,365.73,299.71Zm0-5.93a2.44,2.44,0,1,0,2.44,2.44A2.43,2.43,0,0,0,365.73,293.78Z"/><path class="cls-2" d="M376.75,296.22c0-4,1.36-7.19-2-7.19s-6.06,3.22-6.06,7.19,2.71,7.18,6.06,7.18S376.75,300.19,376.75,296.22Z"/><path d="M374.76,303.93c-3.63,0-6.59-3.46-6.59-7.71s3-7.72,6.59-7.72a2.75,2.75,0,0,1,2.13.75c.84.91.71,2.4.54,4.28-.07.82-.15,1.74-.15,2.69s.08,1.87.15,2.68c.17,1.88.3,3.37-.54,4.28A2.71,2.71,0,0,1,374.76,303.93Zm0-14.38c-3.05,0-5.53,3-5.53,6.67s2.48,6.66,5.53,6.66a1.78,1.78,0,0,0,1.35-.41c.53-.57.41-1.92.27-3.48-.07-.83-.15-1.78-.15-2.77s.08-2,.15-2.78c.14-1.56.26-2.91-.27-3.48A1.78,1.78,0,0,0,374.76,289.55Z"/><path class="cls-2" d="M354.29,296.22c0,4-1.36,7.18,2,7.18s6.06-3.21,6.06-7.18-2.71-7.19-6.06-7.19S354.29,292.25,354.29,296.22Z"/><path d="M356.28,303.93a2.71,2.71,0,0,1-2.13-.75c-.84-.91-.71-2.4-.54-4.28.07-.81.15-1.74.15-2.68s-.08-1.87-.15-2.69c-.17-1.88-.3-3.37.54-4.28a2.75,2.75,0,0,1,2.13-.75c3.63,0,6.59,3.46,6.59,7.72S359.91,303.93,356.28,303.93Zm0-14.38a1.78,1.78,0,0,0-1.35.41c-.53.57-.41,1.92-.27,3.48.07.83.16,1.78.16,2.78s-.09,1.94-.16,2.77c-.14,1.56-.26,2.91.27,3.48a1.78,1.78,0,0,0,1.35.41c3.05,0,5.54-3,5.54-6.66S359.33,289.55,356.28,289.55Z"/><path class="cls-2" d="M389.2,265.65a36.68,36.68,0,0,0,.23-4.25c1.1-19.21-3.37-29.82-8.5-35.69-3.73,3.32-9.89,5.49-16.88,5.49-6.33,0-12-1.78-15.77-4.59-4.72,5.71-8.61,15.27-9.31,31.18,0,0-.12,1.4-.08,3.61a4.72,4.72,0,0,0-1.19-.22,4.64,4.64,0,1,0-.52,9.27,4.77,4.77,0,0,0,2.63-.62c1.88,9.19,7.42,20.39,23.18,21,15,1.33,21.49-7.75,24.3-16.17a5.22,5.22,0,0,0,1.19.23,4.64,4.64,0,0,0,.72-9.25Z"/><path d="M365.88,291.76c-.95,0-1.93-.05-3-.14-15.66-.61-21.54-11.36-23.68-20.67a5.72,5.72,0,0,1-2.1.29,5.47,5.47,0,0,1-5.19-5.73,5.36,5.36,0,0,1,1.83-3.76,5.46,5.46,0,0,1,4-1.36,2.07,2.07,0,0,1,.35,0c0-1.65.09-2.65.1-2.7.61-14.09,3.8-24.74,9.48-31.62l.48-.58.6.45c3.8,2.82,9.37,4.44,15.3,4.44,6.52,0,12.63-2,16.35-5.29l.6-.53.52.6c6.71,7.67,9.64,19.87,8.7,36.25,0,0,0,1.39-.16,3.55a5.44,5.44,0,0,1,4.17,5.58,5.36,5.36,0,0,1-1.83,3.75,5.51,5.51,0,0,1-4,1.37c-.21,0-.43,0-.64-.08C385.06,283.28,379.05,291.76,365.88,291.76ZM340.36,268.6l.22,1.07c1.84,9,7.23,19.78,22.44,20.38,14.68,1.29,20.9-7.78,23.52-15.63l.25-.74.74.24a4.54,4.54,0,0,0,1,.19,3.92,3.92,0,0,0,2.84-1,3.83,3.83,0,0,0,1.29-2.65,3.88,3.88,0,0,0-3.53-4.05l-.79-.07.08-.8a34.48,34.48,0,0,0,.23-4.14c.89-15.6-1.74-27.21-7.81-34.59-4,3.24-10.22,5.17-16.78,5.17-5.95,0-11.59-1.57-15.62-4.32-5.17,6.63-8.08,16.76-8.67,30.15,0,.05-.12,1.42-.08,3.56l0,1.1-1.05-.34a3.9,3.9,0,0,0-1-.18,4,4,0,0,0-2.84,1,3.85,3.85,0,0,0-1.29,2.65,3.89,3.89,0,0,0,3.7,4.07,3.94,3.94,0,0,0,2.18-.52Z"/><path d="M363.55,284.54a10.82,10.82,0,0,1-8.66-4.7.79.79,0,1,1,1.28-.92,8.92,8.92,0,0,0,9.09,3.84,8.33,8.33,0,0,0,4.9-3.5.79.79,0,1,1,1.31.89,9.92,9.92,0,0,1-5.85,4.15A9.14,9.14,0,0,1,363.55,284.54Z"/><path d="M354,256.29a.84.84,0,0,1-.34-.08.8.8,0,0,1-.37-1.06,5.21,5.21,0,0,1,5-3.14A3.34,3.34,0,0,1,361,253.3a.87.87,0,0,1,.32,1.14.75.75,0,0,1-1,.33,1.89,1.89,0,0,1-.5-.47c-.25-.31-.51-.63-1.59-.71a3.58,3.58,0,0,0-3.42,2.25A.81.81,0,0,1,354,256.29Z"/><path d="M375.36,253.83a.79.79,0,0,1-.63-.32,3.63,3.63,0,0,0-3.79-1.54c-1,.3-1.24.66-1.43,1a1.67,1.67,0,0,1-.4.56.78.78,0,0,1-1.11,0,.79.79,0,0,1,.05-1.12,3.45,3.45,0,0,1,2.46-1.92,5.18,5.18,0,0,1,5.49,2.11.8.8,0,0,1-.16,1.11A.77.77,0,0,1,375.36,253.83Z"/><path d="M363.72,270.44h-.19a.79.79,0,0,1-.77-.81.83.83,0,0,1,.81-.77,2.94,2.94,0,0,0,2.41-.75,1.16,1.16,0,0,0-.11-1.16c-1.07-2.15-3.08-14.22-3.3-15.59a.79.79,0,0,1,.65-.91.78.78,0,0,1,.91.65c.87,5.29,2.43,13.68,3.16,15.14a2.63,2.63,0,0,1,0,2.72A4.12,4.12,0,0,1,363.72,270.44Z"/><path d="M233,201.48l-4.19-4.1,1-13.1-1-13.58h7.52l-1.56,12.24,1.5,14.39Zm-3.1-4.51,3,2.93,2.26-2.88-1.46-14.09,1.41-11.18h-5.18l.92,12.53Z"/><polygon points="235.36 174.14 229.49 174.13 229.49 173.07 235.36 173.08 235.36 174.14"/><rect x="231.81" y="174.3" width="1.06" height="5.21" transform="translate(50.1 405.08) rotate(-88.67)"/><rect x="231.9" y="177.62" width="1.06" height="4.29" transform="translate(43.71 404.98) rotate(-87.76)"/><polygon points="234.15 183.4 230.25 183.16 230.31 182.11 234.22 182.35 234.15 183.4"/><rect x="231.71" y="183.69" width="1.05" height="3.91" transform="translate(32.63 405.99) rotate(-86.47)"/><rect x="231.94" y="186.24" width="1.05" height="4.42" transform="matrix(0.09, -1, 1, 0.09, 23.69, 402.85)"/><rect x="231.95" y="188.7" width="1.05" height="4.72" transform="matrix(0.09, -1, 1, 0.09, 21.1, 405.23)"/><polygon points="235.2 194.2 229.97 194.07 230 193.01 235.22 193.15 235.2 194.2"/><polygon points="235.58 196.93 229.71 196.78 229.73 195.73 235.6 195.88 235.58 196.93"/><g class="cls-4"><path class="cls-5" d="M244.94,242.87q-15.54,1.37-31.1,2.68c-4.61.39-4.65,7.64,0,7.24q15.56-1.32,31.1-2.68C249.55,249.7,249.59,242.46,244.94,242.87Z"/></g><path class="cls-2" d="M204.51,117c-.8-9.26.06-12.12,2.41-14.73,13.05-14.48,54.13-9.85,65.73,7.35,13.61,20.2-15.45,54.76-2.65,63.3,5,3.37,13.43.58,13.72,2.16.32,1.74-9.49,6.58-18.54,4.11a39.2,39.2,0,0,1-11.82-6.52"/><path d="M270.53,180.69A20.91,20.91,0,0,1,265,180a39.56,39.56,0,0,1-12.16-6.71.79.79,0,0,1,1.1-1.13,39,39,0,0,0,11.48,6.32c8,2.18,16.1-1.61,17.39-3a19.54,19.54,0,0,0-2.52,0c-3,.14-7.46.35-10.7-1.82-6.48-4.33-3.23-14.29.55-25.82,4.18-12.78,8.91-27.26,1.88-37.7-5.6-8.31-19.15-14.38-34.52-15.46-13.26-.94-24.49,2.13-30,8.2-2.17,2.41-3,5-2.21,14.13a.79.79,0,1,1-1.58.14c-.83-9.64.18-12.62,2.61-15.33,5.8-6.43,17.47-9.69,31.25-8.72,15.84,1.11,29.86,7.46,35.72,16.16,7.47,11.07,2.6,26-1.69,39.07-3.57,10.92-6.66,20.36-1.17,24,2.81,1.87,6.82,1.69,9.74,1.55,2.45-.11,4.08-.19,4.32,1.12a2,2,0,0,1-.85,1.78C281.73,178.5,276.4,180.69,270.53,180.69Z"/><path d="M232.27,276.67A50.4,50.4,0,0,1,218.51,275a.82.82,0,0,1-.42-.29c-.44-.59-10.73-15-11.57-53.19A.8.8,0,0,1,208,221c.7.93,17.61,22.62,44.24,8a.79.79,0,0,1,1.16.84L245,275.09a.8.8,0,0,1-.64.64A78,78,0,0,1,232.27,276.67Zm-13.05-3.13c9.55,2.68,21.63,1.12,24.32.72l8-43.13c-22.55,11.45-38.56-2.44-43.33-7.48C209.26,257.25,218,271.66,219.22,273.54Z"/><path d="M232.92,130a1.45,1.45,0,1,1,1.45,1.44A1.45,1.45,0,0,1,232.92,130Z"/><polygon class="cls-2" points="246.38 196.92 208.15 198.82 207.58 246.19 248.73 244.14 246.38 196.92"/><path d="M207.58,247.24a1,1,0,0,1-.73-.3,1.07,1.07,0,0,1-.33-.77l.58-47.37a1.05,1.05,0,0,1,1-1l38.23-1.89a1,1,0,0,1,1.11,1l2.34,47.22a1.06,1.06,0,0,1-1,1.11l-41.15,2Zm1.61-47.42-.54,45.26,39-1.94L245.38,198Z"/><path d="M216.67,129.4a1.45,1.45,0,1,1,1.45,1.45A1.44,1.44,0,0,1,216.67,129.4Z"/><path d="M230.16,148.66a5.39,5.39,0,0,1-4.22-1.56,4,4,0,0,1-.52-4.07c.92-2.76,1.43-18.58,1.56-24.44a1.05,1.05,0,0,1,1.05-1h0a1.05,1.05,0,0,1,1,1.08c0,2.19-.47,21.5-1.66,25.06a2.06,2.06,0,0,0,.12,2c.63.73,2.25,1,4.13.69a1.05,1.05,0,0,1,.34,2.08A10.93,10.93,0,0,1,230.16,148.66Z"/><path class="cls-2" d="M204.43,116.92l44.29,1q1-5.05,1.93-10.11l2.89,11.32,4.81-.72"/><path d="M253.54,119.88a.79.79,0,0,1-.77-.6l-2-7.87L249.5,118a.79.79,0,0,1-.78.65h0l-44.3-1a.79.79,0,0,1-.77-.81.82.82,0,0,1,.8-.77l43.63,1,1.8-9.45a.79.79,0,0,1,.75-.65.81.81,0,0,1,.8.6l2.71,10.62,4.11-.62a.79.79,0,0,1,.9.67.8.8,0,0,1-.67.9l-4.81.72Z"/><rect x="241.15" y="128.32" width="14.73" height="2.11" transform="translate(-4.4 8.82) rotate(-2.02)"/><rect x="208.11" y="124.77" width="2.11" height="7.2" transform="translate(44.35 310.21) rotate(-79.35)"/><path d="M231.21,161.17a11.38,11.38,0,0,1-6.67-2.26.79.79,0,1,1,.93-1.28,8.93,8.93,0,0,0,9.83.85,8.3,8.3,0,0,0,3.58-4.85.79.79,0,0,1,1.52.44,10,10,0,0,1-4.28,5.76A9.39,9.39,0,0,1,231.21,161.17Z"/><path d="M232.32,197.71c-6,0-9.65-22.14-9.65-27.92a.8.8,0,0,1,1.59,0c0,7.85,4.22,26.33,8.06,26.33s8.41-18.69,8.41-26.33a.79.79,0,0,1,1.58,0C242.31,175.38,238.44,197.71,232.32,197.71Z"/><ellipse class="cls-2" cx="260.21" cy="262.52" rx="10.47" ry="3.92" transform="translate(-76.89 414.13) rotate(-69.47)"/><path d="M257.09,273.22a2.39,2.39,0,0,1-.83-.15c-1.31-.49-2-2.12-2-4.59a22.73,22.73,0,0,1,1.57-7.61c1.92-5.12,5.5-10,8.36-8.9,1.31.49,2,2.12,2,4.59a22.56,22.56,0,0,1-1.58,7.61C262.89,268.8,259.79,273.22,257.09,273.22Zm6.24-19.82c-1.36,0-4.09,2.8-6,8a21.12,21.12,0,0,0-1.48,7.06c0,1.68.39,2.87,1,3.11,1.19.44,4.22-2.36,6.32-8a21.08,21.08,0,0,0,1.47-7.06c0-1.69-.38-2.87-1-3.11A.87.87,0,0,0,263.33,253.4Z"/><path class="cls-2" d="M241.52,169.79c4.62.18,11.43,7.33,13.3,10,11.72,16.56,16.53,36.07,11.72,78.46l-9-1.77c1.91-9.84,1.54-16.85-.16-35A102.85,102.85,0,0,0,252,196.92"/><path d="M267.23,259.17l-10.61-2.09.15-.77c1.91-9.84,1.5-16.95-.17-34.76a102.17,102.17,0,0,0-5.37-24.36l1.49-.55a104,104,0,0,1,5.46,24.77c1.64,17.51,2.07,24.78.29,34.43l7.38,1.44c4.84-43.54-.88-61.8-11.67-77.06-1.84-2.59-8.51-9.48-12.69-9.64l.06-1.58c5.13.19,12.1,7.73,13.92,10.31,11.08,15.66,16.93,34.34,11.86,79Z"/><path d="M252.57,230.72a1.05,1.05,0,0,1-1-1l-.6-32.76a1.06,1.06,0,0,1,2.11,0l.6,32.75a1.06,1.06,0,0,1-1,1.07Z"/><g class="cls-8"><path class="cls-9" d="M208.87,220.69h33.6a0,0,0,0,1,0,0v8.2a3.93,3.93,0,0,1-3.93,3.93H208.87a0,0,0,0,1,0,0V220.69A0,0,0,0,1,208.87,220.69Z"/></g><path d="M231.78,171.39c-.95,0-1.94,0-3-.13-15.66-.62-21.55-11.36-23.68-20.68a5.83,5.83,0,0,1-2.11.29,5.48,5.48,0,0,1-3.78-1.8,5.3,5.3,0,0,1-1.4-3.93,5.47,5.47,0,0,1,5.79-5.12l.35,0c0-1.64.09-2.64.09-2.69a73.05,73.05,0,0,1,3.52-20.61l1.5.52a71.39,71.39,0,0,0-3.44,20.19s-.12,1.42-.08,3.56l0,1.1-1.06-.33a3.9,3.9,0,0,0-5.12,3.44,3.83,3.83,0,0,0,1,2.78,4,4,0,0,0,4.89.76l.95-.54.22,1.07c1.84,9,7.22,19.78,22.44,20.38,14.67,1.29,20.89-7.77,23.52-15.62l.24-.74.74.23a4.09,4.09,0,0,0,1,.19,3.9,3.9,0,0,0,2.83-1,3.78,3.78,0,0,0,1.3-2.65,3.88,3.88,0,0,0-3.53-4l-.79-.08.08-.79a37.4,37.4,0,0,0,.23-4.15c.72-12.61.86-17.39-.29-21.76l1.53-.4c1.21,4.58,1.07,9.45.34,22.19,0,0,0,1.38-.16,3.55A5.4,5.4,0,0,1,258.3,154a5.49,5.49,0,0,1-4,1.37c-.21,0-.42,0-.63-.07C251,162.92,245,171.39,231.78,171.39Z"/><path class="cls-2" d="M224.52,339.88c-5.16,5.16-10,13.83-8.06,15.74s10.69-2.93,15.85-8.09a38.5,38.5,0,0,0,3.58-4.13v8.8H240V334.32h-.05"/><path d="M217.74,356.8a2.5,2.5,0,0,1-1.84-.62c-2.56-2.55,3-11.84,8.06-16.86l1.12,1.11c-5.63,5.63-9.24,13.45-8.06,14.63s9.08-2.43,14.73-8.08a37,37,0,0,0,3.5-4.06.8.8,0,0,1,1.43.48v8h2.48V334.32h.77l0-.79a.84.84,0,0,1,.84.79V352.2a.8.8,0,0,1-.79.79h-4.08a.8.8,0,0,1-.79-.79v-6.53c-.71.84-1.45,1.66-2.22,2.42C228.78,352.18,221.53,356.8,217.74,356.8Z"/><path class="cls-2" d="M234.19,332.9c-.39,2.81-5.86,2.76-9.13,6-5.16,5.16-7.75,11.33-6.44,12.41,1.62,1.32,7.65-.72,12.81-5.88,3.77-3.77,7.95-9.36,8.7-11.72"/><path d="M220.09,352.53a3,3,0,0,1-2-.58,1.86,1.86,0,0,1-.62-1.43c-.12-2.41,2.47-7.61,7-12.15a15.61,15.61,0,0,1,5.48-3.18c2-.83,3.29-1.39,3.42-2.4L235,333c-.27,2-2.27,2.79-4.4,3.65a14.51,14.51,0,0,0-4.95,2.84c-5.1,5.1-7.06,10.45-6.48,11.25,1,.8,6.44-.56,11.73-5.84,3.67-3.67,7.8-9.21,8.5-11.4l1.51.48c-.79,2.47-4.94,8.09-8.89,12S223.12,352.53,220.09,352.53Z"/><path d="M240.65,334.61l-1.47-.58c2.65-6.77,2.94-24.39,3.18-38.55.15-9.48.29-17.67,1.09-20.73l1.53.4c-.76,2.88-.89,11-1,20.35C243.7,309.79,243.41,327.57,240.65,334.61Z"/><path d="M215.78,353.12c-1.81-1.69.27-10.47,4.39-15.54a16.49,16.49,0,0,1,8.54-5.62l-.17-.85a520.91,520.91,0,0,1-7.67-55.17l1.58-.14a520.11,520.11,0,0,0,7.64,55l.31,1.56a.79.79,0,0,1-.58.93,15,15,0,0,0-8.42,5.28c-4.06,5-5.26,12.48-4.53,13.39Z"/><rect x="232.13" y="275.84" width="1.58" height="57.23" transform="translate(-13.26 10.62) rotate(-2.54)"/><path d="M218.12,136.57a7.17,7.17,0,1,1,7.16-7.17A7.18,7.18,0,0,1,218.12,136.57Zm0-12.22a5.06,5.06,0,1,0,5,5.05A5.06,5.06,0,0,0,218.12,124.35Z"/><path d="M234.76,137.15a7.17,7.17,0,1,1,7.16-7.16A7.17,7.17,0,0,1,234.76,137.15Zm0-12.22a5.06,5.06,0,1,0,5.06,5.06A5.07,5.07,0,0,0,234.76,124.93Z"/><rect x="224.23" y="128.35" width="4.76" height="2.11"/><ellipse class="cls-2" cx="239.92" cy="220.95" rx="8.53" ry="5.1"/><path d="M239.92,226.84c-5.23,0-9.32-2.59-9.32-5.89s4.09-5.9,9.32-5.9,9.31,2.59,9.31,5.9S245.14,226.84,239.92,226.84Zm0-10.2c-4.2,0-7.74,2-7.74,4.31s3.54,4.3,7.74,4.3,7.73-2,7.73-4.3S244.11,216.64,239.92,216.64Z"/><path class="cls-2" d="M223.32,169.79c-3.66.63-11.17,6.3-16,12.2-6,7.34-19.87,33.91-15.28,40.08,4.28,5.77,25.66,10.21,42.73,7.59q-.4-6.51-.82-13c-11.23,1.12-29.24,2.4-29.31-.24-.2-7.83,1.22-9.92,3.71-18.73"/><path d="M224.22,231.2c-14.19,0-29.07-3.6-32.83-8.65-5.1-6.87,9.5-34,15.31-41.06,4.91-6,12.62-11.82,16.49-12.48l.27,1.56c-3.51.6-10.91,6.28-15.53,11.92-6.34,7.72-19.37,33.59-15.27,39.11,3.94,5.31,24.47,9.75,41.27,7.38l-.72-11.45c-12,1.17-26.45,2.08-28.85,0a1.46,1.46,0,0,1-.52-1.06c-.16-6.18.69-8.91,2.22-13.86.45-1.45,1-3.11,1.52-5.11l1.52.43c-.57,2-1.08,3.69-1.53,5.15-1.53,4.95-2.3,7.43-2.15,13.35.8,1,10.06,1.31,28.45-.53l.81-.08.91,14.54-.71.11A70.58,70.58,0,0,1,224.22,231.2Z"/><ellipse class="cls-2" cx="97.97" cy="466.1" rx="12.76" ry="6.5"/><path d="M98,473.66c-7.75,0-13.81-3.32-13.81-7.56s6.06-7.55,13.81-7.55,13.81,3.32,13.81,7.55S105.71,473.66,98,473.66Zm0-13c-6.9,0-11.71,2.87-11.71,5.44s4.81,5.45,11.71,5.45,11.7-2.87,11.7-5.45S104.86,460.66,98,460.66Z"/><ellipse class="cls-2" cx="127.28" cy="468.06" rx="12.76" ry="6.5"/><path d="M127.28,475.62c-7.75,0-13.81-3.32-13.81-7.56s6.06-7.55,13.81-7.55,13.81,3.32,13.81,7.55S135,475.62,127.28,475.62Zm0-13c-6.9,0-11.7,2.87-11.7,5.44s4.8,5.45,11.7,5.45,11.7-2.87,11.7-5.45S134.17,462.62,127.28,462.62Z"/></g><g id="CC_Laura_Henneke" data-name="CC Laura Henneke"><text class="cls-10" transform="translate(345.89 608.98)">Laura Henneke</text></g></svg>