<svg xmlns="http://www.w3.org/2000/svg" viewBox="0 0 453.54 705.83"><defs><style>.cls-1{font-size:20px;}.cls-1,.cls-17{fill:#1d1d1b;font-family:HappyFox-Condensed, Happy Fox;}.cls-2,.cls-3,.cls-4{fill:#c0bebe;}.cls-2{opacity:0.32;}.cls-4{opacity:0.3;}.cls-10,.cls-11,.cls-14,.cls-16,.cls-18,.cls-19,.cls-20,.cls-22,.cls-23,.cls-24,.cls-25,.cls-5,.cls-6,.cls-7{fill:none;}.cls-16,.cls-22,.cls-23,.cls-24,.cls-5,.cls-6,.cls-7,.cls-8,.cls-9{stroke:#12110b;}.cls-10,.cls-11,.cls-12,.cls-13,.cls-14,.cls-16,.cls-18,.cls-19,.cls-20,.cls-21,.cls-22,.cls-24,.cls-25,.cls-5,.cls-6,.cls-7,.cls-8,.cls-9{stroke-miterlimit:10;}.cls-10,.cls-11,.cls-12,.cls-16,.cls-5,.cls-8,.cls-9{stroke-width:2px;}.cls-6,.cls-7{stroke-width:4px;}.cls-10,.cls-11,.cls-12,.cls-13,.cls-14,.cls-16,.cls-18,.cls-19,.cls-22,.cls-23,.cls-24,.cls-7{stroke-linecap:round;}.cls-12,.cls-13,.cls-8{fill:#fff;}.cls-9{fill:#22b4e3;}.cls-10,.cls-12,.cls-13,.cls-14{stroke:#000;}.cls-11{stroke:#b7b7b7;}.cls-15{fill:#12110b;}.cls-17{font-size:24.8px;}.cls-18,.cls-19,.cls-25{stroke:#22b4e3;}.cls-18,.cls-19{stroke-width:3px;}.cls-19{stroke-dasharray:1.96 7.84;}.cls-20,.cls-21{stroke:#161616;}.cls-21{fill:#1e1e1e;}.cls-23{stroke-linejoin:round;}.cls-24{stroke-width:0.5px;}.cls-26{font-size:16px;font-family:PatrickHand-Regular, Patrick Hand;}</style></defs><g id="Artwork"><text class="cls-1" transform="translate(164.18 256.64) rotate(0.74) scale(0.86 1)">A</text><path class="cls-2" d="M176.45,499.57c-6.27-29-21.35-54.88-30.81-82.8-2-6.06-11.71-3.46-9.64,2.66,9.46,27.92,24.53,53.81,30.81,82.8a4.91,4.91,0,0,0,.59,1.55c-21-1.83-42.24-.4-63.23,0l-67.71,1.31c-6.43.12-6.45,10.12,0,10l67.71-1.31c21.88-.42,44.07-2,65.88.24,5.08.52,6.09-5.68,3.12-8.58A5,5,0,0,0,176.45,499.57Z"/><path class="cls-3" d="M48.09,492l19.26-58.25H95.21V492Z"/><rect class="cls-4" x="215.45" y="179.12" width="155.01" height="342.94"/><circle class="cls-5" cx="166.76" cy="249.53" r="11.03"/><polygon class="cls-5" points="140.71 415.77 71.96 415.77 41.96 506.52 170.71 506.52 140.71 415.77"/><path class="cls-5" d="M116.84,328.83c4.54-6.72,43.68-70.58,43.51-70.34"/><line class="cls-5" x1="135" y1="336.27" x2="166.76" y2="260.56"/><line class="cls-6" x1="157.64" y1="243.34" x2="122.47" y2="219.89"/><polyline class="cls-7" points="89.4 217.13 115.24 232.36 129.37 208.38 103.53 193.15"/><polyline class="cls-5" points="46.09 494.02 93.21 494.02 93.21 435.77 65.35 435.77"/><rect class="cls-5" x="30.93" y="506.52" width="148.02" height="12.17"/><rect class="cls-8" x="224.94" y="167.63" width="194.95" height="350.64"/><line class="cls-6" x1="98.07" y1="391.35" x2="89.73" y2="415.77"/><circle class="cls-9" cx="99.4" cy="386.69" r="5.5"/><line class="cls-6" x1="73.82" y1="391.35" x2="82.15" y2="415.77"/><circle class="cls-9" cx="72.48" cy="386.69" r="5.5"/><path class="cls-10" d="M357.82,500.37c2.47-6.05,10.39-7.33,12.74-7.71C380.76,491,395,495.81,396,504.22c.79,6.64-3.45,18-11.79,17.85-9-.14-19.72-2.53-29.4-3.87C353.67,518,355.71,505.56,357.82,500.37Z"/><path class="cls-10" d="M362.07,509a37,37,0,0,0,13.44,2.31,33.53,33.53,0,0,0,20.21-7.44"/><path class="cls-11" d="M345.11,471.43a33.19,33.19,0,0,1,8.42,19.83,30.49,30.49,0,0,1-.8,8.68"/><path class="cls-11" d="M352.37,470.19a33.13,33.13,0,0,1,3.81,21.21,30.47,30.47,0,0,1-2.7,8.28"/><path class="cls-12" d="M345,503.1h0a16,16,0,0,1,7.7-3c1.3-.13,8.41-.85,11.43,3.57,2.62,3.85.41,11.35-1.74,13.09-3.84,3.1-14.68.91-17.35-1.51s-2.49-7.73,0-12.12"/><circle class="cls-13" cx="343.25" cy="503.78" r="6.47"/><line class="cls-14" x1="352.7" y1="514.44" x2="355.22" y2="514.72"/><path class="cls-15" d="M346.29,504.22a3.08,3.08,0,1,0-3.44,2.35A2.95,2.95,0,0,0,346.29,504.22Z"/><circle class="cls-13" cx="364.72" cy="506.89" r="6.47"/><path class="cls-15" d="M367.76,507.33a3.08,3.08,0,1,0-3.44,2.35A3,3,0,0,0,367.76,507.33Z"/><line class="cls-10" x1="367.49" y1="520.27" x2="366.81" y2="524.91"/><line class="cls-10" x1="370.92" y1="521.8" x2="370.39" y2="525.43"/><line class="cls-16" x1="346.04" y1="515.93" x2="323.64" y2="498.54"/><rect class="cls-4" x="244.91" y="202.17" width="155.01" height="27.55"/><text class="cls-17" transform="translate(292.76 225.28) rotate(0.32) scale(0.86 1)">Subsystem A</text><line class="cls-18" x1="181.43" y1="251.02" x2="182.43" y2="251.02"/><line class="cls-19" x1="190.27" y1="251.02" x2="205.95" y2="251.02"/><line class="cls-18" x1="209.87" y1="251.02" x2="210.87" y2="251.02"/><polyline class="cls-20" points="371.4 291.87 371.4 279.3 272.93 279.3 272.93 291.87"/><line class="cls-21" x1="322.04" y1="266.3" x2="322.04" y2="278.87"/><rect class="cls-22" x="315.91" y="481.95" width="4.5" height="22.39" transform="translate(903.27 447.64) rotate(118.38)"/><line class="cls-23" x1="304.44" y1="485.74" x2="305.98" y2="486.57"/><polygon class="cls-23" points="306.89 489.62 309.01 485.69 305.98 486.57 305.98 486.57 306.89 489.62"/><line class="cls-24" x1="327.82" y1="498.37" x2="310.5" y2="489.01"/><rect class="cls-24" x="326.57" y="497.77" width="4.5" height="2.28" transform="translate(924.07 446.75) rotate(118.38)"/><rect class="cls-25" x="259.42" y="291.87" width="29.77" height="24.69"/><rect class="cls-25" x="307.16" y="291.87" width="29.77" height="24.69"/><rect class="cls-25" x="355.64" y="291.87" width="29.77" height="24.69"/><circle class="cls-5" cx="123.76" cy="337.53" r="11.03"/><line class="cls-5" x1="112.84" y1="337.83" x2="99.84" y2="415.83"/><line class="cls-5" x1="129.84" y1="346.83" x2="129.84" y2="416.83"/><line class="cls-20" x1="263.34" y1="317.83" x2="263.34" y2="463.83"/><rect class="cls-25" x="324.42" y="331.87" width="29.77" height="24.69"/><rect class="cls-25" x="324.42" y="371.87" width="29.77" height="24.69"/><rect class="cls-25" x="324.42" y="411.87" width="29.77" height="24.69"/><line class="cls-20" x1="313.34" y1="317.83" x2="313.34" y2="423.83"/><line class="cls-20" x1="263.34" y1="343.33" x2="274.34" y2="343.33"/><line class="cls-20" x1="263.34" y1="383.33" x2="274.34" y2="383.33"/><line class="cls-20" x1="263.34" y1="423.33" x2="274.34" y2="423.33"/><line class="cls-20" x1="263.34" y1="463.33" x2="274.34" y2="463.33"/><line class="cls-20" x1="313.34" y1="343.33" x2="324.34" y2="343.33"/><line class="cls-20" x1="313.34" y1="383.33" x2="324.34" y2="383.33"/><line class="cls-20" x1="313.34" y1="423.33" x2="324.34" y2="423.33"/><rect class="cls-25" x="274.42" y="331.87" width="29.77" height="24.69"/><rect class="cls-25" x="274.42" y="371.87" width="29.77" height="24.69"/><rect class="cls-25" x="274.42" y="411.87" width="29.77" height="24.69"/><rect class="cls-25" x="274.42" y="451.87" width="29.77" height="24.69"/><rect class="cls-25" x="307.16" y="241.87" width="29.77" height="24.69"/></g><g id="CC_Laura_Henneke" data-name="CC Laura Henneke"><text class="cls-26" transform="translate(345.89 608.98)">Laura Henneke</text></g></svg>