<svg xmlns="http://www.w3.org/2000/svg" viewBox="0 0 453.54 705.83"><defs><style>.cls-1{opacity:0.3;}.cls-2{fill:#b6b6b7;}.cls-3{fill:#24beee;}.cls-4{fill:#b7b7b7;}.cls-5{fill:#fff;}.cls-6{font-size:16px;font-family:PatrickHand-Regular, Patrick Hand;}</style></defs><g id="Artwork"><g class="cls-1"><path class="cls-2" d="M57.84,342.77c-.47,61.3,2.54,118,2.07,179.26C73.07,504.47,82.78,491.2,96,472.9q50.9-70.56,96-139.72l-126.18,9"/></g><polygon class="cls-2" points="171.77 320.77 216.01 305.54 94.64 521.1 59.91 522.03 192 333.18 171.77 320.77"/><path d="M57.83,343.76a1,1,0,0,1-.07-2l131.09-9.37-17.6-10.8a1,1,0,0,1,.19-1.78l42.48-14.62-18.47-13.9L60.69,295.25a1,1,0,0,1-.06-2l135.11-3.95a1.09,1.09,0,0,1,.62.2l20.25,15.23a1,1,0,0,1-.28,1.73L174.08,321l18.44,11.31a1,1,0,0,1,.44,1.08,1,1,0,0,1-.89.76L57.91,343.76Z"/><path d="M92,526.83a1,1,0,0,1-.86-1.48c19.5-34.35,41.06-72.79,61.91-110s42.56-75.87,62.13-110.33a1,1,0,1,1,1.72,1c-19.56,34.46-41.2,73-62.11,110.33s-42.42,75.61-61.92,110A1,1,0,0,1,92,526.83Z"/><path d="M59.91,523a1,1,0,0,1-.57-.18,1,1,0,0,1-.24-1.39L191.19,332.61a1,1,0,0,1,1.38-.25,1,1,0,0,1,.25,1.39L60.73,522.6A1,1,0,0,1,59.91,523Z"/><path class="cls-3" d="M214.89,263.56a3,3,0,0,1-2.7-1.73l-11.28-24.41a3,3,0,1,1,5.4-2.5l11.28,24.41a3,3,0,0,1-1.45,3.95A2.92,2.92,0,0,1,214.89,263.56Z"/><path class="cls-3" d="M247.76,264a3,3,0,0,1-2.79-4l9.28-25.23a3,3,0,0,1,5.59,2.05L250.56,262A3,3,0,0,1,247.76,264Z"/><path class="cls-3" d="M231.68,264a3,3,0,0,1-3-2.9L228,232.84a3,3,0,0,1,6-.15l.71,28.21a3,3,0,0,1-2.9,3.05Z"/><path d="M124.9,286.1a142.88,142.88,0,0,1-17.21-.85,14.42,14.42,0,0,1-10.31-6.73c-4.26-6.39-4.93-15.35-3.39-20.9,1-3.51,3.66-6.56,7.77-8.83,8.14-4.47,21.32-5.5,31.35-2.47,9.65,2.93,15.34,7.51,16.91,13.59h0c1.71,6.63,2.41,23.15.69,25.35a1.33,1.33,0,0,1-1,.53c-4.22,0-8.67.07-13,.15C132.79,286,128.82,286.1,124.9,286.1Zm-4.33-39.54c-6.57,0-13.12,1.37-17.85,4-3.63,2-6,4.63-6.82,7.62-1.38,5-.76,13.44,3.13,19.27a12.39,12.39,0,0,0,8.91,5.86c8.65,1.08,18.86.88,28.73.68,4.18-.08,8.47-.19,12.58-.16.78-2.44.65-16.37-1.15-23.39h0c-1.38-5.37-6.62-9.47-15.57-12.19A41.75,41.75,0,0,0,120.57,246.56Z"/><path d="M130.25,273.12a51.92,51.92,0,0,1-8.3-.66,48.28,48.28,0,0,1-27.28-14.28,1,1,0,0,1,1.41-1.39,46.41,46.41,0,0,0,26.19,13.71,53,53,0,0,0,18.91-.48,1,1,0,0,1,.39,2A58,58,0,0,1,130.25,273.12Z"/><path class="cls-4" d="M156.27,261.57a1,1,0,0,1-1-.9,41.15,41.15,0,0,1,.66-12.15c2.55-12.34,10.18-20.76,16.14-25.65a1,1,0,0,1,1.39.13,1,1,0,0,1-.13,1.4c-5.71,4.69-13,12.75-15.46,24.53a38.85,38.85,0,0,0-.62,11.56,1,1,0,0,1-.9,1.08Z"/><path class="cls-4" d="M155.27,261.07a1,1,0,0,1-.94-.68,41,41,0,0,1-2.15-12c-.35-12.58,5.16-22.44,9.84-28.48a1,1,0,0,1,1.4-.18,1,1,0,0,1,.17,1.39c-4.48,5.79-9.76,15.22-9.43,27.21a39.46,39.46,0,0,0,2.05,11.41,1,1,0,0,1-.62,1.26A1.19,1.19,0,0,1,155.27,261.07Z"/><path class="cls-5" d="M166.46,266.35h0a22.6,22.6,0,0,0-10.16-5.58c-1.79-.44-11.57-2.79-16.69,2.58-4.45,4.67-2.88,15.21-.23,18,4.75,4.93,20.33,4.1,24.57,1.36s5.05-9.93,2.51-16.34"/><path d="M152.36,285.87c-5.42,0-11-1.08-13.69-3.86-2.94-3.05-4.72-14.16.22-19.35s14-3.75,17.65-2.86a23.69,23.69,0,0,1,10.6,5.83l.25.36c2.8,7.1,1.56,14.63-2.9,17.53C162.32,284.92,157.43,285.87,152.36,285.87Zm-3-25c-3.22,0-6.7.71-9,3.16-3.93,4.13-2.63,14.12-.23,16.61,4.4,4.58,19.46,3.72,23.3,1.21,3.59-2.32,4.54-8.85,2.22-14.93a21.76,21.76,0,0,0-9.55-5.19A29,29,0,0,0,149.37,260.87Z"/><ellipse class="cls-5" cx="168.74" cy="267.61" rx="9.13" ry="8.81"/><path d="M168.74,276.91h-.55a9.7,9.7,0,0,1-6.75-3.22,9.09,9.09,0,0,1-2.32-6.61l.5,0-.5,0a9.52,9.52,0,0,1,10.17-8.75,9.63,9.63,0,0,1,6.74,3.21,9.09,9.09,0,0,1,2.32,6.61A9.51,9.51,0,0,1,168.74,276.91Zm0-17.62a8.51,8.51,0,0,0-8.61,7.84,8.07,8.07,0,0,0,2.06,5.89,8.72,8.72,0,0,0,6.06,2.89,8.5,8.5,0,0,0,9.12-7.83,8.08,8.08,0,0,0-2.07-5.89,8.67,8.67,0,0,0-6.06-2.88Z"/><path d="M165.84,270a4.37,4.37,0,1,1,4.34,3.84A4.11,4.11,0,0,1,165.84,270Z"/><ellipse class="cls-5" cx="138.09" cy="267.61" rx="9.13" ry="8.81"/><path d="M138.1,276.91h-.56a9.68,9.68,0,0,1-6.74-3.22,9.09,9.09,0,0,1-2.32-6.61h0a9.51,9.51,0,0,1,10.17-8.75,9.63,9.63,0,0,1,6.74,3.21,9.09,9.09,0,0,1,2.32,6.61A9.51,9.51,0,0,1,138.1,276.91Zm-8.63-9.78a8.08,8.08,0,0,0,2.07,5.89,8.68,8.68,0,0,0,6.06,2.89,8.49,8.49,0,0,0,9.11-7.83,8.07,8.07,0,0,0-2.06-5.89,8.69,8.69,0,0,0-6.06-2.88,8.56,8.56,0,0,0-9.12,7.82Z"/><path d="M136.09,269.18a4.37,4.37,0,1,1,4.34,3.85A4.12,4.12,0,0,1,136.09,269.18Z"/><path d="M145.54,292.18a1,1,0,0,1-1-1V284.8a1,1,0,0,1,2,0v6.39A1,1,0,0,1,145.54,292.18Z"/><path d="M150.71,292.49a1,1,0,0,1-1-1v-6.39a1,1,0,0,1,2,0v6.39A1,1,0,0,1,150.71,292.49Z"/><path d="M140.43,292.18a1,1,0,0,1-1-1V284.8a1,1,0,0,1,2,0v6.39A1,1,0,0,1,140.43,292.18Z"/><path d="M135.32,292.18a1,1,0,0,1-1-1v-5a1,1,0,0,1,2,0v5A1,1,0,0,1,135.32,292.18Z"/><path d="M150.22,280.67a.5.5,0,0,1,0-1l4.24-.15a.55.55,0,0,1,.51.48.49.49,0,0,1-.48.51l-4.23.15Z"/><g class="cls-1"><path class="cls-2" d="M394.63,342.77c.47,61.3-2.55,118-2.08,179.26-13.16-17.56-22.86-30.83-36.06-49.13q-50.91-70.56-96-139.72l126.19,9"/></g><polygon class="cls-2" points="280.7 320.77 236.45 305.54 357.82 521.1 392.55 522.03 260.46 333.18 280.7 320.77"/><path d="M394.63,343.76h-.07l-134.17-9.59a1,1,0,0,1-.89-.76,1,1,0,0,1,.44-1.08L278.38,321l-42.25-14.55a1,1,0,0,1-.27-1.73l20.24-15.23a1.12,1.12,0,0,1,.63-.2l135.1,3.95a1,1,0,0,1,1,1,1,1,0,0,1-1,1L257,291.31l-18.47,13.9L281,319.83a1,1,0,0,1,.2,1.78l-17.6,10.8,131.08,9.37a1,1,0,0,1,.92,1.06A1,1,0,0,1,394.63,343.76Z"/><path d="M360.49,526.83a1,1,0,0,1-.86-.5c-19.53-34.39-41.11-72.88-62-110.09s-42.5-75.79-62-110.21a1,1,0,1,1,1.73-1c19.55,34.43,41.16,73,62.05,110.22s42.46,75.69,62,110.08a1,1,0,0,1-.37,1.35A1,1,0,0,1,360.49,526.83Z"/><path d="M392.55,523a1,1,0,0,1-.81-.43L259.65,333.75a1,1,0,0,1,.24-1.39,1,1,0,0,1,1.39.25L393.36,521.46a1,1,0,0,1-.81,1.57Z"/></g><g id="CC_Laura_Henneke" data-name="CC Laura Henneke"><text class="cls-6" transform="translate(345.89 608.98)">Laura Henneke</text></g></svg>