<svg xmlns="http://www.w3.org/2000/svg" viewBox="0 0 453.54 705.83"><defs><style>.cls-1{fill:#ffd01e;}.cls-2{fill:#fff;}.cls-3{fill:#b7b7b8;}.cls-4{opacity:0.3;}.cls-5{fill:#b6b6b7;}.cls-6{font-size:16px;font-family:PatrickHand-Regular, Patrick Hand;}</style></defs><g id="Artwork"><path class="cls-1" d="M246.8,148.1c-2,17.17-3.74,37.15-4.73,59.46-.47,10.58-1.28,33.37-.46,62.63.65,23.51,2.39,52.45,6.49,85.53q-2.58,5.46-5.17,10.91,4.17,6.18,8.33,12.35l16.2,18.79L312,416l76.2,32a16.33,16.33,0,0,0,8.52-.77,16.87,16.87,0,0,0,8.28-7,20.81,20.81,0,0,0,3-10.54,29,29,0,0,0-1.62-11.7l-12.09-85.16c-.92-6.88-2.09-17.1-2.77-29.53-1.11-20.29-.27-34.66.83-55.22.75-14.17,1.9-36.64,3.24-66.32l2.46-7q2.69-4,5.36-8a14.82,14.82,0,0,0,2.44-7.93,14.67,14.67,0,0,0-2.81-8.79c-4.07-5.37-12-5.69-16.9-5.81-18.89-.49-37.89.68-47.4,1.37l-87,2-4.59-.42"/><path class="cls-2" d="M231.9,365c1.38-1.08,2.42-.84,5.89-2.89,3-1.76,5.36-3.17,7.13-5.82s1.11-4,3.76-8.11c1.08-1.69,1.95-2.66,3.29-3.14a4.81,4.81,0,0,1,4.17.37,4.13,4.13,0,0,1,1.85,2.7c.2,2.09-2.18,3.05-5.1,6.39a21.84,21.84,0,0,0-4.92,8.76,12.73,12.73,0,0,0-.15,7.51c1,3.06,3,3.5,6.83,7.06.84.78,3.75,4.87,9.54,13,2.44,3.44,4.33,6.16,3.34,8.17a3,3,0,0,1-1.34,1.31c-2.42,1.15-5.78-1.81-9.09-4.11-3.83-2.66-2.13-.64-14.43-7-3.29-1.71-7.57-4-12.53-6.91C227.78,371,229.63,366.75,231.9,365Z"/><path class="cls-2" d="M238.1,208.37c5.32-5.18,9.63-9.41,12.52-12.26,5.59-5.51,8.88-8.79,17.58-17.36l7.47-7.36,3.68,1.56c1.11-1.52,2.82-3.91,4.81-6.92,2.76-4.17,4-6.39,8.77-14.19,4.31-7,5.36-8.6,7.2-10.67a25.29,25.29,0,0,1,7.43-6.33,22.67,22.67,0,0,1,10-2.53c.85,0,11.78-.2,19.32,8a23.63,23.63,0,0,1,2.8,3.75,62.13,62.13,0,0,1-22.61,8.82c3.27.06,5.88,0,7.66,0,3.35-.11,5.33-.29,7.26,1a7.13,7.13,0,0,1,1.93,1.93L332.8,158c-1.38.5-3.47,1.24-6,2.08-4.44,1.46-7.55,2.32-8.43,2.58-3.51,1.05-8.59,3.56-15.35,10l-8.85,7.62,5.28,4.14-21,21.57q-13.5,13.8-27.78,27.74-7.33,7.14-14.62,14.09"/><path d="M166.17,582a31.56,31.56,0,0,1-10-2.15,29.32,29.32,0,0,1-12.07-9l-1.35,4.18-6.14-1.84.17-1.12c.92-6.18,2.05-12.41,3.13-18.43,3-16.45,6.05-33.46,5.09-50.41-.8-14.09-1.58-16.74-3.92-24.58-.84-2.81-1.87-6.27-3.17-11.13l2.53-.68c1.29,4.83,2.31,8.27,3.14,11.06,2.41,8.07,3.22,10.78,4,25.18,1,17.26-2.12,34.43-5.12,51-1,5.64-2.07,11.47-2.95,17.23l1.51.46,2.14-6.66,1.51,2.17a27.2,27.2,0,0,0,12.41,10.06c4,1.54,10.95,3.12,12.64.83S167.86,570,166.67,568c-3.62-5.94-9.44-10.79-16.83-14l-1.09-.48.37-1.12c1.76-5.36,3.89-10.71,6-15.88,4.08-10.22,8.3-20.8,9.68-31.74,2.13-16.89,1.58-20.66-.74-36.52l-.48-3.32,2.59-.37.48,3.31c2.3,15.75,2.92,20,.75,37.23-1.42,11.27-5.71,22-9.85,32.38-1.91,4.77-3.87,9.7-5.53,14.61a38.64,38.64,0,0,1,16.92,14.57c1.86,3,5.73,9.41,3,13.13C170.68,581.43,168.51,582,166.17,582Z"/><path d="M213.62,579.34a31.16,31.16,0,0,1-10-2.17,29.45,29.45,0,0,1-12.07-8.95l-1.34,4.18-6.14-1.84.17-1.12c.92-6.17,2-12.39,3.13-18.41,3-16.46,6-33.47,5.09-50.43-1.09-19.17-1.09-19.17-4.53-38l2.58-.47c3.46,19,3.46,19,4.56,38.35,1,17.27-2.13,34.44-5.13,51-1,5.64-2.07,11.45-3,17.21l1.52.46,2.13-6.66,1.52,2.17a27.13,27.13,0,0,0,12.41,10.06c3.36,1.3,10.88,3.23,12.64.83s-1.93-8.26-3.12-10.21c-3.62-6-9.44-10.8-16.84-14.05l-1.08-.47.37-1.13c1.75-5.36,3.89-10.7,5.95-15.87,4.09-10.23,8.31-20.8,9.69-31.74,1.92-15.26,1-21.15-1-34-.36-2.31-.75-4.84-1.16-7.68l2.59-.37c.41,2.83.8,5.35,1.15,7.66,2,12.74,2.94,19.15,1,34.77-1.42,11.27-5.7,22-9.85,32.38-1.9,4.77-3.87,9.69-5.53,14.6A38.57,38.57,0,0,1,216.37,564c1.86,3.06,5.73,9.41,3,13.13C218.14,578.78,216,579.34,213.62,579.34Z"/><path d="M157,303.45l-.46,0c-1.48-.13-1.92-1.76-3.07-6.11-.57-2.15-1.28-4.82-2.21-7.53-4.15-12.18-7.8-19.1-18.48-27.9l1.67-2c11.16,9.2,15,16.41,19.29,29.07,1,2.81,1.68,5.52,2.26,7.71.28,1.08.6,2.25.87,3.13,2-6.06,5.45-31.63,6.65-40.58l2.59.35C160.59,300.82,159.16,303.45,157,303.45Z"/><path d="M141.33,208a22.34,22.34,0,0,1-3.42-.29,1.31,1.31,0,1,1,.41-2.58c3.86.6,6.64.14,8.3-1.37a5.63,5.63,0,0,0,1.66-4.14l-4.05-37.19a1.31,1.31,0,0,1,1.16-1.45,1.35,1.35,0,0,1,1.44,1.16l4,37.25a8.19,8.19,0,0,1-2.46,6.27A10.06,10.06,0,0,1,141.33,208Z"/><path d="M132.81,172.17a3.12,3.12,0,1,0-3.72,2.36A3.11,3.11,0,0,0,132.81,172.17Z"/><path d="M129.78,175.91a4.09,4.09,0,0,1-1-.11,4.42,4.42,0,1,1,5.29-3.34,4.44,4.44,0,0,1-4.31,3.45Zm0-6.23a1.81,1.81,0,0,0-.39,3.57,1.86,1.86,0,0,0,1.36-.23,1.76,1.76,0,0,0,.79-1.14,1.79,1.79,0,0,0-1.36-2.15A1.9,1.9,0,0,0,129.77,169.68Z"/><path d="M80.11,236a23.09,23.09,0,0,1-13.63-4.13C57.63,225.5,55.37,213.5,56,207c.21-2.15.83-4.88,2.61-5.69,2.22-1,4.21,1.3,7,4.46,3.28,3.77,7.84,8.95,13.2,8.67,3.72-.17,7.43-2.79,11-7.8C58,172,45.64,131.08,61.09,111.12c8.27-10.67,27.51-18.76,43-13.78,8.92,2.88,18.53,10.43,18.75,18.75h0c.12,4.56-2.48,7.1-5.48,10a38.27,38.27,0,0,0-5.64,6.51c-5.45,8.31-4.15,16.52-2.34,27.87,1.48,9.32,3.33,20.92,2.11,36.45-1,12.93-1.82,23.15-9.72,30.54A32.82,32.82,0,0,1,80.11,236ZM59.66,203.69c-.24.15-.93,1.45-1.1,4.28-.4,6.93,2.38,16.69,9.44,21.75,9.65,6.91,24.1,3.24,32-4.12,6.82-6.4,7.79-14.71,8.9-28.85,1.2-15.22-.62-26.65-2.08-35.83-1.9-11.93-3.28-20.55,2.73-29.71a40.19,40.19,0,0,1,6-7c2.77-2.72,4.78-4.68,4.69-8.1h0c-.18-6.86-8.75-13.69-16.94-16.33-14.4-4.65-32.37,2.92-40.1,12.9-14.8,19.1-2.19,59,29.32,92.88l.71.77-.59.86c-4.29,6.28-8.89,9.58-13.68,9.8-6.7.27-11.67-5.4-15.3-9.57C62.32,206,60.35,203.71,59.66,203.69Z"/><path d="M165.6,173.14a3.11,3.11,0,1,0-3.72,2.36A3.11,3.11,0,0,0,165.6,173.14Z"/><path d="M162.57,176.88a4.57,4.57,0,0,1-1-.1,4.43,4.43,0,1,1,5.28-3.35h0a4.41,4.41,0,0,1-4.31,3.45Zm0-6.23a1.81,1.81,0,0,0-1.52,2.78,1.8,1.8,0,0,0,1.13.79,1.75,1.75,0,0,0,1.36-.23,1.81,1.81,0,0,0,.8-1.13h0a1.81,1.81,0,0,0-.24-1.36,1.87,1.87,0,0,0-1.53-.84Z"/><path class="cls-2" d="M106,148.58c-2.36,7.08-4.46,13.49-4.83,20.44-.5-.22-.37.55-.92.43a8.56,8.56,0,1,0,2.46,15.72c3.23,19.58,14.3,39.8,32,46.36a31.73,31.73,0,0,0,12,2.08c18.11-.37,33.31-16.31,39.46-38.69a8.77,8.77,0,0,0,2.29.88A8.56,8.56,0,1,0,188.8,179c.19-2.66.28-5.37.22-8.13a82.94,82.94,0,0,0-5.6-28.65"/><path d="M146,234.93a32.79,32.79,0,0,1-11.75-2.18c-19-7.06-29.27-28.62-32.5-45.68a9.71,9.71,0,0,1-5.5.35,9.87,9.87,0,0,1,3.7-19.37c.51-6.86,2.61-13.2,4.84-19.89l2.48.83c-2.26,6.81-4.4,13.24-4.77,20.1l-.1,1.88-1.1-.48a1.61,1.61,0,0,1-1.3.24A7.25,7.25,0,1,0,102.07,184l1.64-1L104,185c2.74,16.61,12.53,38.45,31.13,45.35a30,30,0,0,0,11.49,2c17-.35,32-15.16,38.21-37.73l.45-1.61,1.45.81a7,7,0,0,0,1.95.75,7.25,7.25,0,0,0,3.17-14.15,7.15,7.15,0,0,0-2.84-.06l-1.65.29.12-1.67c.19-2.74.27-5.44.21-8a82.16,82.16,0,0,0-5.5-28.2l2.43-1a84.71,84.71,0,0,1,5.69,29.11c0,2.17,0,4.42-.13,6.71a7.44,7.44,0,0,1,2.24.24,9.86,9.86,0,1,1-4.32,19.25,9.6,9.6,0,0,1-1.16-.34c-6.76,22.89-22.44,37.82-40.27,38.19Z"/><path d="M129.8,185.91a14.28,14.28,0,0,1-3.18-.35,14.42,14.42,0,1,1,17.22-10.92h0a14.41,14.41,0,0,1-14,11.27Zm0-24.92a10.5,10.5,0,0,0-2.29,20.74A10.48,10.48,0,0,0,140,173.79h0a10.48,10.48,0,0,0-7.94-12.54A10.08,10.08,0,0,0,129.77,161Z"/><path d="M162.8,186.89a14.29,14.29,0,0,1-3.18-.36,14.42,14.42,0,1,1,17.22-10.91h0a14.45,14.45,0,0,1-14,11.27Zm0-24.93a10.5,10.5,0,0,0-2.29,20.74A10.48,10.48,0,0,0,173,174.76h0a10.48,10.48,0,0,0-7.94-12.54A10.67,10.67,0,0,0,162.77,162Z"/><rect x="179.49" y="168.02" width="5.23" height="13.19" transform="translate(-17.33 329.12) rotate(-81.56)"/><rect x="107.6" y="159.43" width="5.23" height="14.85" transform="translate(-62.44 267.73) rotate(-86.85)"/><path d="M149.53,173h0l-6.6-.09a2.61,2.61,0,0,1-2.58-2.65,2.53,2.53,0,0,1,2.65-2.58l6.61.09a2.62,2.62,0,0,1,0,5.23Z"/><path class="cls-2" d="M101.33,171.82c1.17.68,2.51-24.15,6.12-23.65a145.09,145.09,0,0,0,22.15,1c23.25-.07,55.22-.59,59.49-13.33,2.8-8.34-7.76-18.66-10.83-21.66C164.85,101.06,139.92,94,120.84,106,99.74,119.22,97.49,169.58,101.33,171.82Z"/><path d="M101.39,173.13a1.45,1.45,0,0,1-.72-.18h0c-.56-.33-2-1.19-2.18-9.38-.28-17.26,5.35-48.47,21.66-58.71,14.88-9.35,40.62-9.6,59,8.34,9.44,9.21,13.19,17,11.16,23-4.35,13-32.38,14.15-60.72,14.23l-1.51,0a137.74,137.74,0,0,1-20.62-1c-1.41,1.39-2.74,10.79-3.38,15.37-.95,6.78-1.13,7.67-2.11,8.14A1.35,1.35,0,0,1,101.39,173.13Zm41.36-71.93a39.48,39.48,0,0,0-21.21,5.88c-13,8.18-17.75,30.72-19.17,40a91.2,91.2,0,0,0-1.13,19.31l.27-1.93c1.73-12.31,2.86-18.08,6.12-17.62a135,135,0,0,0,20.43,1l1.54,0c18.92,0,54.13-.16,58.25-12.44,1.69-5-1.85-11.86-10.51-20.3A51.16,51.16,0,0,0,142.75,101.2Z"/><path d="M135.11,174.47a3.12,3.12,0,1,0-3.72,2.36A3.12,3.12,0,0,0,135.11,174.47Z"/><path d="M132.08,178.21a4.67,4.67,0,0,1-1-.11,4.41,4.41,0,0,1-3.34-5.28,4.35,4.35,0,0,1,1.94-2.77,4.41,4.41,0,0,1,6.1,1.37,4.35,4.35,0,0,1,.58,3.33h0a4.41,4.41,0,0,1-4.3,3.46Zm0-6.23a1.79,1.79,0,0,0-1.76,1.41,1.76,1.76,0,0,0,.23,1.36,1.8,1.8,0,0,0,3.29-.57h0a1.8,1.8,0,0,0-1.37-2.16A1.72,1.72,0,0,0,132.07,172Z"/><path d="M168.86,176.16a3.11,3.11,0,1,0-3.72,2.35A3.12,3.12,0,0,0,168.86,176.16Z"/><path d="M165.83,179.9a4.58,4.58,0,0,1-1-.11,4.42,4.42,0,0,1-1.4-8,4.42,4.42,0,0,1,6.68,4.7h0a4.43,4.43,0,0,1-4.31,3.46Zm0-6.23a1.76,1.76,0,0,0-1,.28,1.8,1.8,0,1,0,2.73,1.92h0a1.84,1.84,0,0,0-.24-1.37,1.8,1.8,0,0,0-1.13-.79A1.75,1.75,0,0,0,165.82,173.67Z"/><path d="M143.33,207.71h-.1a1.31,1.31,0,0,1,0-2.62h.09a5.09,5.09,0,0,0,4-1.45,6.67,6.67,0,0,0,1.33-4.6l-4.44-27a1.31,1.31,0,0,1,2.58-.42l4.45,27.09c0,.23.41,4.07-2,6.69A7.59,7.59,0,0,1,143.33,207.71Z"/><path d="M169.67,264.22h-.15a5,5,0,0,1-3.7-1.53c-5.18-5.61-7.39-15.88-9.34-24.93-.42-2-.83-3.88-1.25-5.64a1.31,1.31,0,0,1,2.54-.61c.43,1.78.84,3.7,1.27,5.7,1.88,8.73,4,18.62,8.7,23.7a2.46,2.46,0,0,0,1.84.7h.12c12.83,0,58.05-44.71,91.1-77.39,4.95-4.9,9.75-9.65,14.3-14.12a1.31,1.31,0,1,1,1.84,1.87c-4.55,4.47-9.36,9.21-14.3,14.11C225.59,222.71,183.61,264.22,169.67,264.22Z"/><path d="M206.6,294.12A1.38,1.38,0,0,1,206,294a1.31,1.31,0,0,1-.58-1.75c16.5-33,34.53-50.18,55.42-70.08,11.17-10.64,23.84-22.71,37.59-38.55a1.31,1.31,0,0,1,2,1.72c-13.84,15.93-26.55,28-37.77,38.73-20.71,19.72-38.59,36.76-54.88,69.35A1.32,1.32,0,0,1,206.6,294.12Z"/><path d="M123.33,423.33a1.31,1.31,0,0,1-1.3-1.2c-.66-7.79-1.32-14.84-2-21.9s-1.32-14.12-2-21.91a1.31,1.31,0,0,1,1.19-1.42,1.35,1.35,0,0,1,1.42,1.19c.66,7.79,1.32,14.85,2,21.9.62,6.67,1.25,13.34,1.87,20.62l99.2-7.93a1.32,1.32,0,0,1,1.41,1.2,1.29,1.29,0,0,1-1.2,1.4l-100.49,8Z"/><path d="M87.73,385.43a1.31,1.31,0,0,1-.77-.25,1.29,1.29,0,0,1-.53-.93c-7.62-73-2.47-111.93,15.75-119.07,3.68-1.45,8.68-1.65,14-1.86,7.38-.3,15-.61,17.56-4.53,2.86-4.41,4.21-12.81,4-25l1.31-.21,1.31,0-1.31,0,1.31.17c.08,4.72.32,19.11-4.43,26.43-3.28,5-11.6,5.39-19.65,5.71-4.84.2-9.85.4-13.13,1.68-16.62,6.52-21.41,45.19-14.25,114.93,47.61-10,73.07-11.85,127.35-3.79,4.08.61,8.32,1.27,12.75,2,.53-5.38.6-7.06.71-9.32.05-1.29.12-2.75.28-5.18l-19.46-4c-37.54-7.7-60.55-11.68-97.24-3.8a1.36,1.36,0,0,1-1.1-.26,1.34,1.34,0,0,1-.48-1V300.28a1.31,1.31,0,0,1,1.25-1.31,1.23,1.23,0,0,1,1.36,1.2l4.62,54.44c33.68-6.27,56.39-2.29,92.12,5l20.58,4.26a1.3,1.3,0,0,1,1,1.38c-.22,3.1-.29,4.79-.36,6.25-.11,2.48-.2,4.28-.86,10.85a1.23,1.23,0,0,1-.5.9,1.27,1.27,0,0,1-1,.26q-7.37-1.21-14.08-2.21c-54.42-8.08-79.66-6.08-127.86,4.06A1.09,1.09,0,0,1,87.73,385.43Zm26.57-54.3v24.39l2-.42Z"/><rect x="242.23" y="244.92" width="2.62" height="107.55" transform="translate(-19.65 17.16) rotate(-3.88)"/><rect x="217.36" y="174.21" width="54.97" height="2.62" transform="matrix(0.07, -1, 1, 0.07, 52.33, 407.23)"/><path d="M406,424.58c-.13-.88-13.34-88.62-14.59-117.86-1.32-30.9,2.83-124.09,2.87-125l2.61.12c0,.93-4.18,94-2.86,124.8,1.24,29.1,14.43,116.7,14.56,117.58Z"/><polygon class="cls-3" points="223.83 458.96 126.66 468.43 128.3 421.62 216.2 414.59 223.83 458.96"/><path d="M124.62,470.6l1.78-50.79,91.43-7.32,8.29,48.22Zm5.58-47.16-1.5,42.82,92.84-9-7-40.53Z"/><path d="M141.12,220.24a25.3,25.3,0,0,1-7.66-1.22,1.31,1.31,0,1,1,.8-2.49,21.58,21.58,0,0,0,12.27.37,1.31,1.31,0,1,1,.69,2.52A22.91,22.91,0,0,1,141.12,220.24Z"/><path d="M207.41,361.55a1.31,1.31,0,0,1-1.31-1.29l-.81-67.43a1.31,1.31,0,0,1,1.29-1.33,1.23,1.23,0,0,1,1.33,1.3l.81,67.43a1.3,1.3,0,0,1-1.29,1.32Z"/><path d="M223.83,415.29a1.3,1.3,0,0,1-1.18-.75l-16.82-35.21a1.31,1.31,0,1,1,2.36-1.13L225,413.42a1.31,1.31,0,0,1-.62,1.74A1.24,1.24,0,0,1,223.83,415.29Z"/><path d="M266.18,401.66c-3.57,0-12.08-4.65-36.67-18.26l1.27-2.29c20.89,11.57,33.49,18.55,35.51,17.89.94-1.3-4.08-8.9-6.22-12.15a62.57,62.57,0,0,0-9.13-11c-2.64-2.61-4.55-4.49-4.87-8-.53-5.79,3.58-10.62,6.88-14.5,2.25-2.67,4.39-5.18,3.63-6.5a3.1,3.1,0,0,0-3.13-1.11c-1.88.51-3.33,3.5-4.86,6.67-.42.86-.84,1.74-1.3,2.62-2.15,4.15-7.93,8.4-15.45,11.36l-1-2.43c8.19-3.23,12.65-7.35,14.09-10.13.44-.86.86-1.72,1.26-2.56,1.88-3.89,3.51-7.24,6.54-8.06a5.65,5.65,0,0,1,6.07,2.33c1.68,2.92-.9,6-3.9,9.5-3.14,3.69-6.69,7.88-6.27,12.57.24,2.58,1.53,3.86,4.1,6.4a64.38,64.38,0,0,1,9.48,11.38c4.95,7.49,8,12.6,6,15.3A2.36,2.36,0,0,1,266.18,401.66Z"/><g class="cls-4"><path class="cls-5" d="M215.37,403.35c-14.71,1.58-29.42,3.42-44.18,4.62q-10.78.87-21.62,1c-5.11.05-10.33-.36-15.47,0-.53-8.85-1.59-17.64-2.75-26.45-1-7.22-12.46-7.32-11.49,0a316.82,316.82,0,0,1,3.06,33,5.82,5.82,0,0,0,7.27,5.53c6.79-1.66,14.58-.43,21.55-.55q10.81-.18,21.61-1.14c14-1.23,28-2.93,42-4.43C222.65,414.06,222.73,402.56,215.37,403.35Z"/></g><path d="M299.43,185.77a1.3,1.3,0,0,1-.65-.18l-23.41-13.42a1.31,1.31,0,0,1,1.3-2.27l23.41,13.42a1.31,1.31,0,0,1-.65,2.45Z"/><path d="M293.5,182.36a1.3,1.3,0,0,1-1-2.15c5.62-6.67,21.25-16.83,25.62-18.74a52.62,52.62,0,0,1,8.39-2.64c3.86-1,6.22-1.63,6.14-3,0,0,0-.14-.2-.31-1.12-1-5.53-1.81-14.51-1.16a1.47,1.47,0,0,1-1.59-.65,1.28,1.28,0,0,1-.05-1.16c.25-.57.35-.6,2-1.09,11-3.21,17.69-5.62,20-7.16.15-.19.05-.73-.85-1.71-3.8-4.15-16-10-22.71-8.9-10.54,1.77-16.14,10.52-22.9,22.7-.89,1.59-2.94,4.73-5.11,8.06-2.28,3.49-4.86,7.45-5.34,8.51a1.31,1.31,0,0,1-2.39-1.06c.56-1.26,3-5,5.54-8.88,2-3.15,4.17-6.4,5-7.9,7.12-12.82,13.07-22.05,24.76-24,8.44-1.4,24.33,6.43,26.47,11.8a2.78,2.78,0,0,1-1,3.56c-2.3,1.55-7.89,3.53-12.87,5.12,3.61.23,6.05.88,7.29,2a3,3,0,0,1,1.08,2.12c.2,3.57-3.65,4.54-8.11,5.66a49.73,49.73,0,0,0-8,2.5c-4.09,1.79-19.36,11.74-24.66,18A1.29,1.29,0,0,1,293.5,182.36Z"/><path d="M391.13,449.55c-10,0-18.15-8.91-18.15-19.87s8.14-19.88,18.15-19.88,18.15,8.92,18.15,19.88S401.14,449.55,391.13,449.55Zm0-37.13c-8.57,0-15.54,7.74-15.54,17.26s7,17.26,15.54,17.26,15.54-7.75,15.54-17.26S399.7,412.42,391.13,412.42Z"/><path d="M372.73,187.47a12.3,12.3,0,0,1-5.11-1.05c-3.2-1.45-5.65-4.41-7.06-8.56a28.94,28.94,0,0,1,1.85-21.57c5.89-11.11,19.23-14.91,29.36-12.92,10.3,2,14.44,5.85,15.26,14.13.32,3.26.27,6.89-4.19,12.12-2.1,2.46-4.13,6.68-6,12.53a1.31,1.31,0,1,1-2.49-.81c.75-2.3,3-9.31,6.53-13.42,4.1-4.81,3.81-7.78,3.58-10.16-.61-6.11-2.89-9.81-13.17-11.82-9-1.76-21.3,1.7-26.54,11.57A26.26,26.26,0,0,0,363,177c.82,2.4,2.47,5.57,5.67,7,4.32,2,10.72.24,14.58-3.91,4.2-4.51,6-12.42,1.89-17a9.1,9.1,0,0,0-6.51-3.43h0a6,6,0,0,0-4.55,2.19A9.7,9.7,0,0,0,374,174a1.3,1.3,0,1,1-2.06,1.6,12.2,12.2,0,0,1,.2-15.45,8.56,8.56,0,0,1,6.5-3.07h0a11.72,11.72,0,0,1,8.46,4.32c5.17,5.82,3,15.18-1.93,20.51A17.52,17.52,0,0,1,372.73,187.47Z"/><rect x="245.71" y="145.81" width="49.63" height="2.62" transform="translate(-3.65 6.91) rotate(-1.45)"/><rect x="339.02" y="143.5" width="48.76" height="2.62" transform="translate(-3.56 9.27) rotate(-1.45)"/><rect x="266.62" y="133.45" width="2.62" height="41.4" transform="translate(42.13 365.26) rotate(-72.99)"/><rect x="337.95" y="146.17" width="2.62" height="60.44" transform="translate(71.32 449.19) rotate(-72.99)"/><path d="M396,413.2a1.19,1.19,0,0,1-.45-.08c-36.61-13.51-71.31-23-107-29.08a2.6,2.6,0,0,1-.69,0,1.27,1.27,0,0,1-.52-.16c-2.78-.45-12.81-1.84-20.37-2.89-5.19-.71-8.33-1.15-10.21-1.49l-1.15-.13-.33,0v-.15c-1.38-.37-1.34-.69-1.26-1.32.1-.85.75-1.22,1.87-1.09,48,5.42,92.67,16.19,140.6,33.89a1.3,1.3,0,0,1-.45,2.53Z"/><path d="M388.2,449.27a1.27,1.27,0,0,1-.47-.09c-25.51-9.79-43.27-17.58-60.43-25.12S292.44,408.76,267,399a1.31,1.31,0,1,1,.94-2.44c25.51,9.79,43.26,17.58,60.42,25.11s34.86,15.31,60.31,25.08a1.31,1.31,0,0,1-.46,2.53Z"/><path d="M422.16,441.22a2.73,2.73,0,0,1-.83-.14l-34-11.41a2.62,2.62,0,0,1,1.67-5l34,11.41a2.62,2.62,0,0,1-.84,5.1Z"/><path d="M368.16,243h-.22l-97.63-10.91a2,2,0,1,1,.44-3.9l97.63,10.91a2,2,0,0,1-.22,3.91Z"/><path d="M368.05,265.43h-.22L270.2,254.5a2,2,0,1,1,.43-3.89l97.63,10.91a2,2,0,0,1-.21,3.91Z"/><path d="M368.05,289.12l-.22,0L270.2,278.19a2,2,0,0,1-1.74-2.16,2,2,0,0,1,2.17-1.74l97.63,10.92a2,2,0,0,1-.21,3.91Z"/><path d="M366.25,305.17H366L268.4,294.25a2,2,0,0,1,.44-3.9l97.62,10.91a2,2,0,0,1-.21,3.91Z"/><path d="M366.25,326.65H366L268.4,315.72a2,2,0,0,1-1.73-2.16,2,2,0,0,1,2.17-1.74l97.62,10.92a2,2,0,0,1-.21,3.91Z"/><path d="M368.05,344.32h-.22L270.2,333.4a2,2,0,0,1-1.74-2.17,2,2,0,0,1,2.17-1.73l97.63,10.91a2,2,0,0,1-.21,3.91Z"/><path d="M368.05,362.06h-.22L270.2,351.14a2,2,0,1,1,.43-3.9l97.63,10.91a2,2,0,0,1-.21,3.91Z"/></g><g id="CC_Laura_Henneke" data-name="CC Laura Henneke"><text class="cls-6" transform="translate(345.89 608.98)">Laura Henneke</text></g></svg>