<svg xmlns="http://www.w3.org/2000/svg" viewBox="0 0 453.54 705.83"><defs><style>.cls-1{fill:#0e0d0d;}.cls-2{fill:#262525;}.cls-3{fill:#232222;}.cls-4{fill:#191818;}.cls-5{fill:#292828;}.cls-6{fill:#1e1d1d;}.cls-7{fill:#222121;}.cls-8{fill:#2b2a2a;}.cls-9{fill:#292929;}.cls-10{fill:#302f2f;}.cls-11{fill:#363535;}.cls-12{fill:#424141;}.cls-13{fill:#1f1e1e;}.cls-14{fill:#535353;}.cls-15{fill:#212020;}.cls-16{fill:#fff;}.cls-17{fill:#b7b7b8;}.cls-18{opacity:0.3;}.cls-19{fill:#b6b6b7;}.cls-20{opacity:0.32;}.cls-21{fill:#050505;}.cls-22{fill:#0c0d0d;}.cls-23{fill:#22beef;}.cls-24{fill:#181819;}.cls-25{font-size:16px;font-family:PatrickHand-Regular, Patrick Hand;}</style></defs><g id="Artwork"><path class="cls-1" d="M263.11,502.79h.62c-.14.09,0,.23-.62.23H233.69c-1.67-.07-4.87.15-5.52-.12h22.07C254.33,502.83,260,503.06,263.11,502.79Z"/><path class="cls-1" d="M271.7,502.79h52.11V503c-1-.19-3.6-.09-5.52-.12H278.44c-1.86.08-5.28-.14-6.13.12C271.83,503,271.6,502.92,271.7,502.79Z"/><path class="cls-1" d="M327.49,503c-.1-.25,2.17,0,3.06-.12H341c-.66.27-3.86.05-5.52.12h-8Z"/><path class="cls-1" d="M209.16,503.14c-2.46-.08-6.52.15-8-.12h8.59C209.74,503.09,209.68,503.16,209.16,503.14Z"/><path class="cls-1" d="M174.22,503.25c-.48,0-1.21,0-1.23-.11h8.59v.11h-7.36Z"/><path class="cls-1" d="M184.64,503.25a11.76,11.76,0,0,1-2.45-.11h1.22c1.67.07,4.87-.15,5.52.11h-4.29Z"/><path class="cls-1" d="M165.63,503.37c-1.46-.07-4.44.14-4.9-.12h3.68a10.9,10.9,0,0,1,2.45.12Z"/><path class="cls-1" d="M170.54,505.57h.61c0,.12.5.14.62.23h-9.2c-1.95-.09,1.09-.15,1.84-.11C166.27,505.61,169.69,505.84,170.54,505.57Z"/><path class="cls-1" d="M181.58,505.69c-1.87-.08-5.29.15-6.14-.12h14.72c2.67.08,6.93-.15,8.58.12H181.58Z"/><path class="cls-2" d="M278.44,502.9h3.68v.47a12.21,12.21,0,0,0-1.23-.12c.1.14-.13.21-.61.23-.17-.18.58-.2.61-.34-2-.15-.47.37-2.45.23C279.46,503.14,278.39,503.22,278.44,502.9Z"/><path class="cls-2" d="M284.57,502.9h5.52c.8.36-.17.33,0,.81h-.61c0-.27-1.06-.34-.62-.69-1,0-1.15.09-1.22.23a4.4,4.4,0,0,0-1.23.35C284.79,503.56,284.21,503.32,284.57,502.9Z"/><path class="cls-3" d="M290.09,502.9h1.84c-.86.16-1.22,1-1.84.81C289.92,503.23,290.89,503.26,290.09,502.9Z"/><path class="cls-4" d="M192.61,503h6.13v.23h-9.19C189.27,502.93,192.89,503.34,192.61,503Z"/><path class="cls-3" d="M228.17,502.9c.65.27,3.85.05,5.52.12a11,11,0,0,1-2.46.12h-1.84c.66.3,1.49.56,1.23,1-1.59.1,1.18.51-.61.69,3.17,0,2.18-.6,1.84-.81h.61c.12.1.61.12.61.24.35.26,1-.15,1.84.11a3.17,3.17,0,0,1-1.22.23c-.56-.31-1.48.25-1.84.35.45.12,2.33-.08,2.45.35h-3.68c-.08-.47-2.69-.3-1.84-1.16,1.88.18,1.88-.76,0-.58v-.46a9.31,9.31,0,0,1-2.45-.12,2.78,2.78,0,0,0,1.23-.12Z"/><path class="cls-3" d="M276.6,503.71h-1.22c-.37-.23,1.15-.63,0-.34h-.62V503h-2.45c.85-.26,4.27,0,6.13-.12-.05.32,1,.24,0,.47,2,.14.47-.38,2.45-.23,0,.14-.78.16-.61.34v.12A10.41,10.41,0,0,0,276.6,503.71Z"/><path class="cls-3" d="M287.64,503.25c.07-.14.18-.27,1.22-.23-.44.35.63.42.62.69,1,.49-4,.09-.62.12C289.32,503.47,286.75,503.69,287.64,503.25Z"/><path class="cls-2" d="M330.55,503c.18.19-.57.2-.61.35,1.84.26,1.24.81,1.84,1-.22.18-1.08-.1-1.23.12-2.13,0,.05-.32-1.22-.35a3.17,3.17,0,0,1,1.22-.23,3.12,3.12,0,0,0-1.22-.24c-.55-.09-3.43-.57-3.07-.11-1.34,0-1.31-.29-1.22-.58h5.51Z"/><path class="cls-5" d="M334.23,503.37c-.34-.34-1,.18-1.84.11,2.34.33-.91.32.61.7-.15.13-1.21.08-1.22.23-.6-.23,0-.78-1.84-1,0-.15.79-.16.61-.35h4.91C335.4,503.2,335.54,503.42,334.23,503.37Z"/><path class="cls-3" d="M335.46,503c1.66-.07,4.86.15,5.52-.12,1.26.07,4-.14,4.29.12-1.28.07-4-.14-4.29.12h-.62c-2.56-.14-2.74.17-2.45.57h-.61c-.42-.22-3.66.08-3.07-.34C335.54,503.42,335.4,503.2,335.46,503Z"/><path class="cls-1" d="M341,503.14c.26-.26,3-.05,4.29-.12,6.7,0,12.46.19,19.61.12,1.46.26,5.51,0,8,.11a11.09,11.09,0,0,1,1.84.23c-.25.2-.78,0-1.84,0-2.55-.13-6.09,0-9.8-.11h-4.3c-1-.27-4.68,0-6.74-.12h-1.84a25.4,25.4,0,0,0-3.68-.11H341Z"/><path class="cls-6" d="M206.1,503.25c.89-.06,3.17.14,3.06-.11.52,0,.58-.05.62-.12h.61c.46.26,3.44,0,4.9.12.59.46-3.43.65-1.83.92-.22.16-1.08.19-1.23.35h-.61c.3-.36-1.11-.41-.62-.81-.52.19-4.87-.51-4.9.23,1.47-.33,3.62.12,1.22.7-.47.21-.65-.07-.61-.23,1.54-.29-.49-.12-1.84-.24C204.27,503.6,206.71,503.71,206.1,503.25Z"/><path class="cls-6" d="M220.2,503.48c1.22,0,2.38.74-.61.58.47-.1.66-.26.61-.46-1.07.29-1.58.19-.61-.12.24-.22-2.8-.17-1.84.12-.84,0-.51-.29-.62-.46h2.46C219.41,503.32,220.17,503.34,220.2,503.48Z"/><path class="cls-6" d="M230.62,504.18c.26-.48-.57-.74-1.23-1h1.84c0,.3-.23.66.62.81C231.18,504,231.43,504.18,230.62,504.18Z"/><path class="cls-6" d="M232.46,504.06c.78-.48.95-.48,1.23-.92.49,0,.61.11,1.22.11-.94.37-.21.51,0,.93-1,0-1,.11-1.84.12C233.07,504.18,232.58,504.16,232.46,504.06Z"/><path class="cls-6" d="M242.88,503c-.79.57,1.48.57,1.23,1-.5,0-.61-.11-1.23-.11-.19-.35-1.89-.42-1.22-.93Z"/><path class="cls-6" d="M263.11,503.48h-1.22c-.18.19.58.2.61.35s-.61.07-.61,0c-.55-.45-1.87.67-1.84,0-1,.05-.53.37-2.45.23V504c-1.42,0-.68.33-1.84.35s-1.17-.17-1.23-.35v-.24c.52,0,.58.05.61.12a4.08,4.08,0,0,0,1.23-.35c-.26-.22-1.75.19-1.23-.34,1.05,0,1.59.19,1.84,0,1.31-.06,1.17.16,1.23.34.72,0,.52-.21.61-.34h3.68C263,503.35,264.33,503.22,263.11,503.48Z"/><path class="cls-4" d="M263.11,503.48c1.22-.26-.15-.13-.61-.34.52,0,.58-.05.61-.12.6,0,.48-.14.62-.23h7.35c.62.35-1.36.2-2.45.23v.46c-.51.37-.81-.2-.61-.34-1.33,0-.28.41-.61.57h-.62c-.54-.07-1.09-.13-1.22,0a18,18,0,0,1-1.84-.11C263.2,503.62,263.15,503.55,263.11,503.48Z"/><path class="cls-2" d="M337.91,503.71c-.29-.4-.11-.71,2.45-.57-.11.09.24.1.62.11-.8.16-.38.35.61.46a4.89,4.89,0,0,1-1.84,0c-.95.49,3.4,0,2.45.47-1,0-1.05-.11-1.84-.12,1.22.45.58.57,1.23,1.16-.29.25.87.22,1.84.24a11.81,11.81,0,0,1-2.45.11h-1.84c-.71-.14-.7-.41-.62-.7,1,0,1.06.11,1.84.12.48-.4-.57-.51-1.84-.58C339.8,504,337.61,504.22,337.91,503.71Z"/><path class="cls-5" d="M344.65,503.14v.34c-1.23,0-1.91,0-1.83-.23-1.8.1.36.37,0,.58-.93.32-.66-.56-1.84-.58-.38,0-.73,0-.62-.11h4.29Z"/><path class="cls-7" d="M185.87,503.25h2.45c.21.23-.13.36-1.23.35C185.79,503.65,185.93,503.43,185.87,503.25Z"/><path class="cls-7" d="M198.74,503.25c1.4.09,4.78-.21,4.29.23-1.47,0-1.33-.21-3.06-.11-1.07.1-1.36.36-1.23.69a12.16,12.16,0,0,0-1.84-.11c-.55-.34-.55-.36,0-.7Z"/><path class="cls-8" d="M202.42,504.3c.71-.41,2.64-.59,3.06-1.05h.62c.61.46-1.83.35-1.23.81,1.35.12,3.38-.05,1.84.24A34.12,34.12,0,0,1,202.42,504.3Z"/><path class="cls-5" d="M219.59,504.06c.47-.1.66-.26.61-.46-1.07.29-1.58.19-.61-.12.24-.22-2.8-.17-1.84.12-.84,0-.51-.29-.62-.46h-1.84c.59.46-3.43.65-1.83.92h.61c-.11-.29,1.37-.28,1.84-.46v.58h-1.84c-1.13.13.32.76-2.45.58v-.35c.3-.36-1.11-.41-.62-.81-.52.19-4.87-.51-4.9.23,1.47-.33,3.62.12,1.22.7-.47.21-.65-.07-.61-.23a34.12,34.12,0,0,1-4.29,0,13.3,13.3,0,0,1-3.07-.35,6.37,6.37,0,0,1,3.68-.12v-.35c-1.47,0-1.33-.21-3.06-.11-1.07.1-1.36.36-1.23.69a12.16,12.16,0,0,0-1.84-.11c-.17.62,2.62,0,2.45.58,1,0,.35.32,1.23.34.1-.17-.22-.42.61-.46-.63.65,1,.23,1.84.46-.66.44-2.21.27-2.45.59h4.9a2.62,2.62,0,0,1,1.23-.12c.34-.17-.71-.6.61-.58.48,0,1.21,0,1.23.11-3.16.39,2.4.56,5.52.47h2.45c.8-.19.81-.47-.61-.23-.53-.21-1.58-.32-1.84-.58,1.08,0,3.07-.12,2.45.23,1.69.32.58-.17,1.84-.23.36.37-.42.54-.61.81h7.35c0-.12-.49-.14-.61-.23h1.84c.08-.29.09-.56-.61-.7-.91.06-1.55.17-2.45.23-.14-.09,0-.23-.62-.23-.14.09,0,.23-.61.23-.11-.4,1.45-.5,2.45-.69,1,.31,3.13-.41,1.84.11,2.26,0,1.78-.21.61-.35h1.84v-.57a9.31,9.31,0,0,1-2.45-.12c-1.16,0-1.35.13-2.45.12.05.18,1.56.09,1.22.34-1.78-.22-3-.1-4.29-.23-.13.09,0,.23-.61.23C221.42,503.52,222.58,504.22,219.59,504.06Zm-3.07-.23c.51-.37.81.21.61.35.6,0,.48-.14.62-.23,1.91.08,1,.35,0,.46C216.84,504.31,216.43,504.12,216.52,503.83Z"/><path class="cls-6" d="M235.53,503.25c.77-.36,1.84.13.61.23-.17.21,1.72.58,0,.7C235.77,503.9,235.26,503.65,235.53,503.25Z"/><path class="cls-8" d="M236.14,503.48c1.23-.1.16-.59-.61-.23h-.62c-.61,0-.73-.09-1.22-.11-.28.44-.45.44-1.23.92h-.61V504c-.85-.15-.61-.51-.62-.81a11,11,0,0,0,2.46-.12h8c-.67.51,1,.58,1.22.93-.38.1-.74.2,0,.23a14.47,14.47,0,0,1-3.67.23c.17-.19-.59-.2-.62-.35,1.23,0,1.92,0,1.84.24,3.1-.48-1.82-.59-2.45-.47A5.73,5.73,0,0,0,236.14,503.48Z"/><path class="cls-5" d="M249,504.06c-1.88,0,1.08-.49-.61-.92a5.44,5.44,0,0,0,1.84-.12h3.07v.12c-1.79-.17-1.79.51,0,.34-.08.16-.1.84.61.47h.61c.06.18-.08.4,1.23.35-.17.18.58.19.61.34h-.61a13.58,13.58,0,0,1-1.84.12c.32-.09.64-.19.61-.35-.75.13-1.26.1-1.22-.11a16,16,0,0,1-2.46.11c.12.09.62.12.61.23h-1.22c-1.14,0-.38.4-1.23.47h-1.22c0-.12-.75-.09-1.23-.12-.19-.27.1-.44.61-.58a3.24,3.24,0,0,1,1.23-.23c1.19.3,3.44-.46,3.68.12,2.13-.51-.7-.95-2.45-.82v.58Z"/><path class="cls-5" d="M309.71,504.06c.09.14-.11.33.61.35.09-.21.4-.39,1.23-.46v.58c1.44,0,.36-.55,2.45-.47-.84-.58,1.26-.61,1.23-1a6,6,0,0,0-1.84.23c-.14-.09,0-.23-.62-.23-.54.41,1.58.6-.61.69-.05-.74-.32-.25-1.22,0,.44-.35-1.06-.34-.62-.69a6.68,6.68,0,0,1-1.84-.12H306c-.6.39-2.57.42-4.29.35s.44.55-1.23.46c-1.41-.2-2.24-.43-1.22-.81h-7.36c-.86.16-1.22,1-1.84.81h-.61c1,.49-4,.09-.62.12.46-.36-2.11-.14-1.22-.58a4.4,4.4,0,0,0-1.23.35c-1.62,0-2.2-.28-1.84-.7h-2.45v.47a12.21,12.21,0,0,0-1.23-.12c.1.14-.13.21-.61.23v.12a10.41,10.41,0,0,0-3.68.11c1.14.39-2.2.49-2.45.24,1.33,0,.28-.41.61-.58V503h-2.45c-.48,0-.71-.1-.61-.23h-.62c.62.35-1.36.2-2.45.23v.46c-.51.37-.81-.2-.61-.34-1.33,0-.28.41-.61.57h-.62c-.09.29,1,.36,1.23.59-.48,0-1.21,0-1.23.11,1.06,0,1.57-.17,1.84,0,.62,0,.73-.09,1.23-.11a17.08,17.08,0,0,0,1.84.81c0-.07.09-.14.61-.12v.35h1.84c-2.4-.27-.13-1.2-3.07-.7v-.46a11.92,11.92,0,0,1,1.23.12c.1-.14-.11-.33.61-.35-.32.3,3.56.39,1.23.69-.14-.09,0-.23-.61-.23-.25.28,1.12.25.61.58h.61c.09-.48.41,0,1.23,0-.1-.4.16-.74,1.22-.93,2.72.11,1.4.75,3.07.24,0,.15,1.08.1,1.23.23a4.22,4.22,0,0,0-1.84.23c.91.1,1.32.29,1.22.58h1.84c-2.6-.57-1.22-.54,0-1.16,2.39.06,1.64.91,3.07.23.08.22.4.39,1.22.46.38-.49-2-.47-1.83-.92,1.43,0,1.37.36,2.45.46,2.22-.11.62.5,1.84.58.71,0,.66.18.61.35h.61c1.06-.07-.05-.55,1.23-.58,0,.06.5.13.61,0a14.38,14.38,0,0,0-2.45-.35c-.14.09,0,.23-.61.23.27-.4,2-.36,1.84-.58.05.3,2.62.13,1.83.58h.62c0-.21.47-.24,1.23-.11,1-.4.08,1.12,2.45.46-.48,0-1.21,0-1.23-.12v-.81c.38,0,2.36.29,2.45,0-1,.05.06-.43.62-.46.84.07.09.45,1.22.46,0-.2.47-.29,1.23-.35,0,.22.47.25,1.22.12v.47c3.18-.25,4.45.29,2.46.69h1.22c.38,0,.73,0,.61-.12-.49.05-.2-.72.62-.81.1.18-.22.43.61.47.14-.09,0-.23.62-.23C309.23,504.21,309.11,504.07,309.71,504.06Zm-36.79-.92c1.33,0,.28.41.62.57a2.89,2.89,0,0,0-1.23.12C270,503.57,273.87,503.52,272.92,503.14Z"/><path class="cls-3" d="M341,503.25c1.18,0,.91.9,1.84.58.36-.21-1.8-.48,0-.58-.08.21.6.27,1.83.23v-.34h1.84v.57c-2,.2-4.56.3-4.29.93.82-.07,1.14-.25,1.23-.46,1.43,0,.35.51,0,.58-1,0-1.06-.11-1.84-.12-.25.28,1.12.26.61.58h-.61c-.65-.59,0-.71-1.23-1.16.79,0,.85.15,1.84.12.95-.49-3.4,0-2.45-.47a4.89,4.89,0,0,0,1.84,0C340.6,503.6,340.18,503.41,341,503.25Z"/><path class="cls-3" d="M352,503.25c-.12.09-.62.12-.61.23s.61.07.61,0c1.36,0,.48.62,0,.7-1.09-.22-.57-.74-1.84-.93Z"/><path class="cls-9" d="M163.8,503.71c-2-.36,1.59-.08,1.83-.34h2.46c.07.21-.75.24-.62.46-.49,0-.61-.12-1.22-.12A10.37,10.37,0,0,1,163.8,503.71Z"/><path class="cls-7" d="M166.25,503.71c.61,0,.73.1,1.22.12-.13-.22.69-.25.62-.46h3.68V504a4.07,4.07,0,0,0-1.84.23c-.57-.12-2.26,0-1.84-.35-1-.08-1,.55,0,.47C167.76,504.85,166.45,503.92,166.25,503.71Z"/><path class="cls-6" d="M196.29,503.25c-.48.1-.66.26-.61.46-2-.36,0,.4-1.84,0-.72,0-.52.22-.61.35,1.47.05,1.33-.21,3.06-.11a13.58,13.58,0,0,1-3.68.23c-1.76.06-1.06.08-3.06.23-.5,0-.62-.12-1.23-.11-1.63-.44,1.18,0,1.23-.24,1.07.17,1.39.11,1.22-.23,1.1,0,1.29-.14,2.46-.12v-.34c-.76.13-1.27.1-1.23-.12Z"/><path class="cls-6" d="M203,503.48a6.3,6.3,0,0,1,1.84,0c-.1-.13.14-.2.61-.23-.42.46-2.35.64-3.06,1.05a13.3,13.3,0,0,1-3.07-.35,6.37,6.37,0,0,1,3.68-.12Z"/><path class="cls-8" d="M248.4,503.14c1.69.43-1.27.95.61.92.11.1-.23.11-.61.12a3.24,3.24,0,0,0-1.23.23c-.88,0-.21-.34-1.22-.35v-.35c2.71,0-.06-.28.61-.57.55.07,1.1.14,1.23,0Z"/><path class="cls-3" d="M257,503.14c-.25.19-.79,0-1.84,0-.52.53,1,.12,1.23.34a4.08,4.08,0,0,1-1.23.35c0-.07-.09-.14-.61-.12V504h-.61c-1-.38,2.13-.82-.61-.81V503h3.06C256.26,503.12,256.61,503.13,257,503.14Z"/><path class="cls-2" d="M350.17,503.25c1.27.19.75.71,1.84.93.48-.08,1.36-.65,0-.7,0,.07-.5.13-.61,0s.49-.14.61-.23c2.06.08,5.7-.15,6.74.12.25.28-1.11.25-.61.58-3-.28-2.73.16-4.29-.47-1,.29-.91.76-1.23,1.16a10.28,10.28,0,0,0-2.45-.34v-.24c.48,0,.71-.09.62-.23-.8-.23-3,.18-2.46-.46-2.53.31-1.55.84-3.06,1.16.35.37-.42.54-.62.81-.88,0-.21-.35-1.22-.35-.85-.43-.09.34-1.23.23.51-.32-.86-.3-.61-.58.78,0,.85.15,1.84.12.35-.07,1.43-.55,0-.58-.09.21-.41.39-1.23.46-.27-.63,2.27-.73,4.29-.93v-.57A25.4,25.4,0,0,1,350.17,503.25Z"/><path class="cls-2" d="M363.05,503.37c3.71.14,7.25,0,9.8.11-1.5.1-2.65.27-2.45.7-.91-.16-1.31-.37-1.22.12-.6,0-.48.14-.62.23-.72,0-.51-.21-.61-.35-.6,0-.48.14-.62.23-.49,0-.61.12-1.22.12-.32-.1-.64-.19-.61-.35a5.18,5.18,0,0,0-1.84.12c-.72,0-.52-.22-.61-.35-.72,0-.52.21-.62.35-1.33,0-.28-.42-.61-.59C363.13,503.77,363,503.55,363.05,503.37Z"/><path class="cls-7" d="M155.21,503.6a11,11,0,0,1,2.46-.12,7.27,7.27,0,0,0-1.84-.11c.45-.26,3.43-.05,4.9-.12.46.26,3.44.05,4.9.12-.24.26-3.82,0-1.83.34a6,6,0,0,1-1.84,0c.37-.29-3.18-.32-3.68,0,.26.23,1.75-.18,1.22.35a10.93,10.93,0,0,0-2.45,0c.71-.17.71-.29,0-.46-1.66-.08.44.55-1.22.46v-.35C155.94,503.62,155.59,503.61,155.21,503.6Z"/><path class="cls-10" d="M155.83,504.06c1.66.09-.44-.54,1.22-.46.71.17.71.29,0,.46a10.93,10.93,0,0,1,2.45,0c.2.31-3.43-.11-2.45.35a12.16,12.16,0,0,0-1.84-.11C155.33,504.2,155.83,504.18,155.83,504.06Z"/><path class="cls-6" d="M177.9,503.25v.12c.11.13.61.06.61,0,1.8.1-.8.29,0,.58,1.07-.11,1.35-.37,1.22-.7h1.85c-.3.37,1.1.41.61.81.54-.07,1.09-.14,1.22,0v.24c-1.25-.24-1.2.05-2.45.11h-.61c0-.48-1.59-.31-1.84,0h-.61c-.26-.24.42-.31.61-.46a9.84,9.84,0,0,1-3.07.11h-.61c.12-.09.62-.11.61-.23-.69-.14-1.74-.21-1.22-.58Z"/><path class="cls-8" d="M183.41,504.18v-.12c-.13-.14-.68-.07-1.22,0,.49-.4-.91-.44-.61-.81v-.11h.61a11.76,11.76,0,0,0,2.45.11c0,.31.23.66-.61.81C185.37,504.42,185.29,504.43,183.41,504.18Z"/><path class="cls-8" d="M190.16,503.25c.3.37-1.11.41-.61.81-.05.23-2.86-.2-1.23.24.73.15.24.18,0,.34-.7,0-.34-.11,0-.11-.15-.13-1.22-.08-1.23-.23v-.47c-.52,0-.58.05-.61.12-1.78-.07.94-.18.61-.35,1.1,0,1.44-.12,1.23-.35h1.84Z"/><path class="cls-5" d="M174.83,504.06c-.69,0-.34-.11,0-.11-.26-.18-.78,0-1.84,0-.33-.17.72-.6-.61-.58h-2.45v-.23H173c0,.11.75.09,1.23.11-.52.37.53.44,1.22.58C175.45,504,175,504,174.83,504.06Z"/><path class="cls-7" d="M214.07,504.06c-.11-.29,1.37-.28,1.84-.46v.58h-1.84Z"/><path class="cls-2" d="M225.72,504.41c-.91.06-1.55.17-2.45.23-.14-.09,0-.23-.62-.23-.14.09,0,.23-.61.23-.11-.4,1.45-.5,2.45-.69,1,.31,3.13-.41,1.84.11.11.1.62.12.61.24C227,504.59,226.49,504.44,225.72,504.41Z"/><path class="cls-6" d="M263.73,503.6a18,18,0,0,0,1.84.11c.59,0,.47.15.61.24-.6,0-.48.14-.61.23-.72,0-.52-.21-.61-.35-.72,0-.52.21-.62.35h-.61C263.66,503.89,262.58,503.82,263.73,503.6Z"/><path class="cls-6" d="M276.6,503.71c1.14.39-2.2.49-2.45.24,1.33,0,.28-.41.61-.58h.62c1.15-.29-.37.11,0,.34Z"/><path class="cls-11" d="M154.6,504.3c.27-.22-.83-.7,1.23-.59v.35c0,.12-.5.14-.62.24v.11C154.69,504.43,154.63,504.37,154.6,504.3Z"/><path class="cls-8" d="M162,504.3v-.59a6,6,0,0,0,1.84,0,10.37,10.37,0,0,0,2.45,0c.2.21,1.51,1.14,1.84.59v-.12c1,0,1.15.09,1.22.23.92-.14,2.74-.1,2.46-.46v-.58h.61v1.16a12.21,12.21,0,0,0-1.23-.12,19.26,19.26,0,0,1-3.06.58c-1.31-.05-1.17.17-1.23.35-.83-.11-.79-.39-1.84-.47v-.23c1,0,1.06.11,1.84.12,0-.2-.45-.3-1.23-.35-.21-.13-1.07-.29-1.22-.11-1.25-.24-1.2.05-2.45.11Z"/><path class="cls-7" d="M172.38,503.37c1.33,0,.28.41.61.58,1.06,0,1.58-.18,1.84,0-.34,0-.69.09,0,.11h.61c-.05.19.3.45-.61.47.21-.24-.12-.37-1.22-.35-1.35.12.39,1-1.23.35Z"/><path class="cls-8" d="M181,504.41c1.25-.06,1.2-.35,2.45-.11s-1.4.55,1.84.46v.11c-.72,0-.51.22-.61.35-.81-.28-2.28.13-2.45-.11-.82.07-1.14.25-1.23.46h-1.23c0-.11-.74-.09-1.22-.11,2.69-.29-.06-.4-.61-.7.52,0,.57,0,.61.11C180.07,504.86,180.89,504.71,181,504.41Z"/><path class="cls-5" d="M230.62,504.18c.81,0,.56-.2,1.23-.23v.11c.34.21,1.33.79-1.84.81C231.8,504.69,229,504.28,230.62,504.18Z"/><path class="cls-6" d="M238,503.83c.63-.12,5.55,0,2.45.47.08-.21-.61-.28-1.84-.24S237.13,503.84,238,503.83Z"/><path class="cls-8" d="M318.29,504.18c-.73.25-2.89.23-3.06.58-.69.18.16-.66-.62-1.05,1.91.37,1-.39,1.23-.69.88,0,.21.35,1.23.35v.34c.37-.16,2.36,0,2.45-.23.57.07.93.33,1.22.12C322.39,503.81,320.35,504.29,318.29,504.18Z"/><path class="cls-3" d="M329.33,503.71c0,.3-.46.15-1.23.12v.47a3,3,0,0,0,1.23-.12c1.27,0-.91.31,1.22.35.15-.22,1,.06,1.23-.12,0-.15,1.07-.1,1.22-.23.6,0,.48.14.62.23.91-.06,1.54-.17,2.45-.23h.61c.34.17-.71.6.62.58s-.8-.29,0-.58.69.31.61.46c.6,0,.48-.14.61-.23,1.27.07,2.32.18,1.84.58-.78,0-.85-.15-1.84-.12-.08.29-.09.56.62.7-2.07-.07-5.7.15-6.75-.11,1.33,0,.28-.42.61-.59-1.33-.07-1.95.33-1.83-.11-1.86.14.32.46,1.22.46-.11.1-.61.12-.61.24h-7.36c-1.05-.27-4.68,0-6.74-.12.2-.27.63-.59,1.84-.35.5-.33-.87-.3-.62-.58v-.11c1.34,0,2,.09,1.84.34,1.08,0,1.4-.2,1.23-.46,1.48-.05,1.33.21,3.07.12.26.24-.42.3-.62.46,1.57-.24,5.45-1,1.84-1.16C325.9,503.14,328.78,503.62,329.33,503.71Z"/><path class="cls-5" d="M336.07,504.18c-.17-.21.58-.24.61-.12.72,0,.52-.21.62-.35h.61c-.3.51,1.89.25.61.7-.13.09,0,.23-.61.23.08-.15.09-.84-.61-.46s1.37.56,0,.58-.28-.41-.62-.58Z"/><path class="cls-2" d="M348.94,504.64c-1.86,0-2.48-.65-1.22-.93,2.23.08-1.43.55.61.59C348.16,504.48,348.91,504.49,348.94,504.64Z"/><path class="cls-6" d="M375.31,503.83c.08.29.09.56-.62.7-1.07-.18.55-.49-1.84-.58C373.39,503.61,373.77,503.82,375.31,503.83Z"/><path class="cls-5" d="M369.79,505.11c2,.06.88.43.61.69h1.23a4.07,4.07,0,0,0,1.84-.23c.6-.16,1.63-.23,2.45-.35.37-.24-.76-.76.61-.81v-.58c-1.41,0-.68-.33-1.84-.35-.25.2-.78,0-1.84,0-1.5.1-2.65.27-2.45.7-.91-.16-1.31-.37-1.22.12.44.05,2.87.08,1.22.46,0,.07.09.14.62.11,1.47-.14-.34-.91,1.22-1-.29.37.88.45,1.23.7-2.23-.11-.52.52-2.45.46C370.54,505,369.8,505,369.79,505.11Zm5.52-1.28c.08.29.09.56-.62.7-1.07-.18.55-.49-1.84-.58C373.39,503.61,373.77,503.82,375.31,503.83Z"/><path class="cls-5" d="M263.73,504.18h.61c.1-.14-.1-.33.62-.35.09.14-.11.33.61.35.13-.09,0-.23.61-.23-.55.36-1.85.51-.61.92v.35c-1.73,0-1.77-.28-1.84-.58,1.49-.2.32-.42-1.23-.23C262.28,504.21,263,504.19,263.73,504.18Z"/><path class="cls-8" d="M298.67,504.06c-1,.05.06-.43.62-.46.84.07.09.45,1.22.46,0-.2.47-.29,1.23-.35,0,.22.47.25,1.22.12v.47A12.36,12.36,0,0,1,298.67,504.06Z"/><path class="cls-1" d="M139.89,505.57c.1-.13-.14-.21-.62-.23,1.53-.18,2.18-.52,1.84-1a10.62,10.62,0,0,0,2.46-.35h.61c0,.11-.5.13-.61.23-1.29.1-1.87.34-1.84.69C140.84,505.06,140.91,505.42,139.89,505.57Z"/><path class="cls-11" d="M152.15,504.53a8,8,0,0,0-2.46-.82h1.23c.46.19,3,0,2.45.35C153.29,504.28,153,504.45,152.15,504.53Z"/><path class="cls-6" d="M168.09,504.3c-1,.08-1-.55,0-.47-.42.31,1.27.23,1.84.35a4.07,4.07,0,0,1,1.84-.23c.28.36-1.54.32-2.46.46-.07-.14-.18-.27-1.22-.23Z"/><path class="cls-8" d="M196.9,504c-.17.62,2.62,0,2.45.58,0,1-.53.27-1.22-.12-.52,0-.58,0-.61.12-1.4,0-2.31,0-2.46.23-.83,0-.5-.29-.61-.46-1,.11-.67.49-1.22.69a4.2,4.2,0,0,0-1.23.35,4.3,4.3,0,0,1-1.23-.35c.49-.29,1.76-.44,1.84-.81a13.58,13.58,0,0,0,3.68-.23c-1.73-.1-1.59.16-3.06.11.09-.13-.11-.33.61-.35,1.86.4-.16-.36,1.84,0-.05-.2.13-.36.61-.46h.61C196.35,503.59,196.35,503.61,196.9,504Z"/><path class="cls-6" d="M216.52,503.83c.51-.37.81.21.61.35.6,0,.48-.14.62-.23,1.91.08,1,.35,0,.46C216.84,504.31,216.43,504.12,216.52,503.83Z"/><path class="cls-2" d="M257.6,504.06c1.92.14,1.49-.18,2.45-.23,0,.67,1.29-.45,1.84,0,0,.07.5.13.61,0s-.79-.16-.61-.35h1.22c0,.07.09.14.62.12-1.15.22-.07.29,0,.58-.75,0-1.45,0-1.23.23,1.55-.19,2.72,0,1.23.23a10.45,10.45,0,0,1-2.46,0v.23c.27.18.79,0,1.84,0,.08.21-.75.25-.61.47h-3.68c-1-.23.06-.15,0-.47C260.1,504.27,255.39,504.49,257.6,504.06Z"/><path class="cls-2" d="M266.79,503.71c-.09.29,1,.36,1.23.59-.48,0-1.21,0-1.23.11,1.06,0,1.57-.17,1.84,0,.11.25-.5.37-1.84.35v.46c-.88,0-.21-.34-1.22-.35-1.24-.41.06-.56.61-.92-.14-.09,0-.23-.61-.24C265.7,503.58,266.25,503.64,266.79,503.71Z"/><path class="cls-2" d="M360.59,505.11c-1.07.22-2.13-.21-1.84.35-1.12.38.33-.67-2.45-.35.3-.79,1.22-.5-.61-1.05.69,0,.95.17,1.23,0,.61.25,2.85,1,2.45.12,1,0,.34.32,1.22.35Z"/><path class="cls-12" d="M148.47,504.76c.29-.23-1.65-.59-1.84-.35-1.47,0,.34-.53-1.84-.35a3.94,3.94,0,0,1,1.84,0,12.54,12.54,0,0,1,3.06-.35,8,8,0,0,1,2.46.82c.26.24-.42.3-.61.46h-2.46C149,504.9,149.06,504.76,148.47,504.76Z"/><path class="cls-10" d="M152.15,504.53c.82-.08,1.14-.25,1.22-.47.81,0,.57.21,1.23.24,0,.07.09.13.61.11.12.1-.24.11-.61.12s-.71-.1-.61-.23c-1.45,0-.38.51.61.46-.49.43-2.14,0-3.06.23C151.73,504.83,152.41,504.77,152.15,504.53Z"/><path class="cls-5" d="M174.83,505.57v-.93c1.53,0,1.9-.18,3.07-.23h.61c.25-.31,1.83-.48,1.84,0H181c-.07.3-.89.45-2.45.46,0-.07-.09-.13-.61-.11.55.3,3.3.41.61.7.48,0,1.21,0,1.22.11h-4.9Z"/><path class="cls-2" d="M233.07,504.3c.79,0,.85-.15,1.84-.12-.21-.42-.94-.56,0-.93h.62c-.27.4.24.65.61.93-2.24.18,1.42.17.61.46v.58c-1.16-.08-.42-.34-1.84-.11-.32-.17-.9-.3-1.22-.47a3.17,3.17,0,0,0,1.22-.23C234,504.15,233.42,504.56,233.07,504.3Z"/><path class="cls-3" d="M246,504.18v-.12c1,0,.34.33,1.22.35-.51.14-.8.31-.61.58.48,0,1.21,0,1.23.12v.23H238c.84-.15.6-.5.61-.81,1,.15,1,.51,1.84.69,2,.07,1.9-.21,3.07,0-.69-.36-.06-.26,0-.69.9.16,1.31.37,1.22-.12.6,0,.48.14.62.23C246.17,504.61,245.84,504.35,246,504.18Z"/><path class="cls-6" d="M248.4,504.18c.38,0,.72,0,.61-.12h.62v-.58c1.75-.13,4.58.31,2.45.82C251.84,503.72,249.59,504.48,248.4,504.18Z"/><path class="cls-3" d="M276,505c-.1-.4.16-.74,1.22-.93,2.72.11,1.4.75,3.07.24,0,.15,1.08.1,1.23.23a4.22,4.22,0,0,0-1.84.23c.91.1,1.32.29,1.22.58h-6.74c-2.4-.27-.13-1.2-3.07-.7v-.46a11.92,11.92,0,0,1,1.23.12c.1-.14-.11-.33.61-.35-.32.3,3.56.39,1.23.69-.14-.09,0-.23-.61-.23-.25.28,1.12.25.61.58a24.58,24.58,0,0,0,4.9.12A8,8,0,0,0,276,505Z"/><path class="cls-3" d="M292.54,504.76a14.38,14.38,0,0,0-2.45-.35c-.14.09,0,.23-.61.23.27-.4,2-.36,1.84-.58.05.3,2.62.13,1.83.58C292.63,504.62,292.58,504.69,292.54,504.76Z"/><path class="cls-7" d="M157.05,504.41h.62c.26.24-.42.31-.62.46,2.06.12,1-.36,1.23-.57a7.74,7.74,0,0,0,2.45,0c.25-.28-1.12-.26-.61-.59,2.58-.17.1.61,1.84.59v.11a13.58,13.58,0,0,1-1.84.12,7.63,7.63,0,0,0,3.06.93,28.41,28.41,0,0,1-4.9.23c.95-.41-.49-.68-1.84-.82a1.84,1.84,0,0,0-1.23-.11c-.48,0-.71-.1-.61-.23.37,0,.73,0,.61-.12v-.11A12.16,12.16,0,0,1,157.05,504.41Z"/><path class="cls-5" d="M187.09,504.3c0,.15,1.08.1,1.23.23-.34,0-.7.09,0,.11.24-.16.73-.19,0-.34.61,0,.73.09,1.23.11v.23c.52,0,.57,0,.61-.11.83,0,.51.29.61.46a4.3,4.3,0,0,0,1.23.35v.12a5.28,5.28,0,0,0-1.84.11h-2.45c-.44-.3-2.21-.35-2.46-.7v-.11c-3.24.09-.58-.3-1.84-.46v-.12c1.88.25,2,.24.62-.12C185.92,504,184.77,504.46,187.09,504.3Z"/><path class="cls-3" d="M295,504.53c1-.4.08,1.12,2.45.46-.48,0-1.21,0-1.23-.12v-.81c.38,0,2.36.29,2.45,0a12.36,12.36,0,0,0,4.29.24c3.18-.25,4.45.29,2.46.69h1.22c.38,0,.73,0,.61-.12-.49.05-.2-.72.62-.81.1.18-.22.43.61.47.14-.09,0-.23.62-.23,1.5.28-.46.5,0,.92.9-.1,1.31-.29,1.22-.58a2.84,2.84,0,0,0,1.23-.11c1.44,0,.36-.55,2.45-.47-.84-.58,1.26-.61,1.23-1a6,6,0,0,0-1.84.23c-.14-.09,0-.23-.62-.23-.54.41,1.58.6-.61.69-.05-.74-.32-.25-1.22,0,.44-.35-1.06-.34-.62-.69a6.68,6.68,0,0,1-1.84-.12h9.81c-.26.19-1.93.1-1.22.47-1,0-.35-.32-1.23-.35-.19.3.68,1.06-1.23.69.78.39-.07,1.23.62,1.05.17-.35,2.33-.33,3.06-.58v.23c-.34.07-2.49.35-.61.46-.27.18-.79,0-1.84,0-.45.32,1.22.24,1.23.47h-1.23c-.28-.31-4.43-.84-3.68,0H301.74c-.34-.21-.32-.48-1.23-.58-1.09,0-1.26.11-.61.11a4.89,4.89,0,0,1-1.84,0c-.43.65,2.58-.07,2.45.47H295Z"/><path class="cls-7" d="M310.32,504.41c.09-.21.4-.39,1.23-.46v.58a2.84,2.84,0,0,1-1.23.11Z"/><path class="cls-2" d="M312.16,505.34c-.75-.84,3.4-.31,3.68,0-1.88-.08-2.23.12-3.68.12Z"/><path class="cls-5" d="M353.85,504.06c.71-.37.69.31.61.47.53,0,.58,0,.62-.12,2.15.2-1.43.34-1.84.12C353.71,504.42,353.9,504.26,353.85,504.06Z"/><path class="cls-5" d="M361.21,503.37v1c.07.19,2.61-.13,2.45.35.91-.11,1-.84,1.22-.12.5,0,.62-.11,1.23-.11s.73-.1,1.22-.12c-.37.11-1.42.43.62.35V505c-1.5,0-.13.38.61.35-.07.22-2.05-.14-3.68,0v-.58c-.64.23-1.23.46-1.83.7-1.59.24,1.43-.65-2.46-.35v-.58c.1-.49.22-1-1.22-1.16Z"/><path class="cls-7" d="M148.47,505.57c-1.61.3-.48-.19-2.45-.11,1.21-.22.29-.55,0-.82-1.74-.09-1.59.17-3.07.12,1.58.2,1,.81,1.84,1.16a11.57,11.57,0,0,0-2.45-.23c2.3-.19-.17-.49-.61-.82,0-.35.55-.59,1.84-.69.61,0,.73-.1,1.22-.12,2.18-.18.37.4,1.84.35.19-.24,2.13.12,1.84.35C147.66,505.12,148.64,505.09,148.47,505.57Z"/><path class="cls-5" d="M165.63,504.41c-1.88,0-1.23.54-3.67.46-.17-.37,2.38-.24,2.45-.57S165.42,504.28,165.63,504.41Z"/><path class="cls-3" d="M226.94,504.3h1.23c-.19.42.09.75.61,1H225.1c0-.12-.49-.14-.61-.23h1.84c.08-.29.09-.56-.61-.7C226.49,504.44,227,504.59,226.94,504.3Z"/><path class="cls-2" d="M251.46,504.64c0-.11-.49-.14-.61-.23a16,16,0,0,0,2.46-.11c0,.21.47.24,1.22.11,0,.16-.29.26-.61.35a13.58,13.58,0,0,0,1.84-.12c-.06.32,1,.24,0,.47-.81,0-1-.21-1.84-.24a6,6,0,0,1-1.84,0C252.92,504.82,254.06,504.75,251.46,504.64Z"/><path class="cls-8" d="M257.6,504.06c-2.21.43,2.5.21,1.22.81-.59,0-.47-.14-.61-.23-1.32.35-.52.35-1.84,0,0-.15-.78-.16-.61-.34,1.16,0,.42-.39,1.84-.35Z"/><path class="cls-3" d="M268.63,504.41c.62,0,.73-.09,1.23-.11a17.08,17.08,0,0,0,1.84.81c0-.07.09-.14.61-.12v.35H262.5c-.14-.22.69-.26.61-.47-1.05,0-1.57.18-1.84,0v-.23a10.45,10.45,0,0,0,2.46,0c.07.3.11.6,1.84.58v-.35c1,0,.34.33,1.22.35v-.46C268.13,504.78,268.74,504.66,268.63,504.41Z"/><path class="cls-3" d="M350.17,504.06c.48,0,.71-.09.62-.23-.8-.23-3,.18-2.46-.46-2.53.31-1.55.84-3.06,1.16,1.61.36.76.82-1.23,1v.12h4.9c-.11.09-.61.11-.61.23h.61c.46-.26,3.44-.05,4.91-.12,0-.07-.09-.13-.61-.11-1.4,0-2.31,0-2.45-.23a12.1,12.1,0,0,1,1.83.11c.34-.17-.71-.6.62-.58.09.14-.11.33.61.35.1-.14-.11-.33.61-.35v.47c2-.07,1.9.21,3.07,0v.34c1.47.07,2.79.17,4.9.12-.1-.29,1.38-.28,1.84-.46-.44.5,1.22-.1,1.23.23,2-.24,2.68.1,4.29-.12v.35a6.68,6.68,0,0,0,1.84-.12H370.4c.27-.26,1.41-.63-.61-.69A13.46,13.46,0,0,1,368,505c-1.5,0-.13.38.61.35-.07.22-2.05-.14-3.68,0v-.58c-.64.23-1.23.46-1.83.7-1.59.24,1.43-.65-2.46-.35-1.07.22-2.13-.21-1.84.35-1.12.38.33-.67-2.45-.35.3-.79,1.22-.5-.61-1.05.69,0,.95.17,1.23,0,.61.25,2.85,1,2.45.12,1,0,.34.32,1.22.35.1-.49.22-1-1.22-1.16h-.62c.25.28-1.11.25-.61.58-3-.28-2.73.16-4.29-.47-1,.29-.91.76-1.23,1.16a10.28,10.28,0,0,0-2.45-.34c-1.27-.11-.17.79-1.23.34-1.86,0-2.48-.65-1.22-.93,2.23.08-1.43.55.61.59C349.6,504.23,348.48,503.75,350.17,504.06Zm3.68,0c.71-.37.69.31.61.47.53,0,.58,0,.62-.12,2.15.2-1.43.34-1.84.12C353.71,504.42,353.9,504.26,353.85,504.06Z"/><path class="cls-3" d="M363.05,503.37c-.06.18.08.4-1.23.34.33.17-.72.61.61.59.1-.14-.1-.33.62-.35.09.13-.11.33.61.35a5.18,5.18,0,0,1,1.84-.12c0,.16.29.25.61.35-.61,0-.73.09-1.23.11-.23-.72-.31,0-1.22.12.16-.48-2.38-.16-2.45-.35v-1Z"/><path class="cls-3" d="M367.33,504.41c.14-.09,0-.23.62-.23.1.14-.11.33.61.35.14-.09,0-.23.62-.23.44.05,2.87.08,1.22.46H368C365.91,504.84,367,504.52,367.33,504.41Z"/><path class="cls-5" d="M168.09,505a19.26,19.26,0,0,0,3.06-.58,12.21,12.21,0,0,1,1.23.12c1.62.66-.12-.23,1.23-.35,1.1,0,1.43.11,1.22.35-.51.13-.81.31-.61.58-.45-.19-3,0-2.45-.35-1.33,0-.28.41-.62.58-1.47.05-1.33-.21-3.06-.12Z"/><path class="cls-2" d="M318.29,504.41h.61c-.25.28,1.12.25.62.58-1.21-.24-1.64.08-1.84.35h-.61c0-.23-1.68-.15-1.23-.47,1.05,0,1.57.18,1.84,0C315.8,504.76,318,504.48,318.29,504.41Z"/><path class="cls-5" d="M193.23,505c.55-.2.2-.58,1.22-.69.11.17-.22.42.61.46.15-.21,1.06-.27,2.46-.23A9.78,9.78,0,0,1,193.23,505Z"/><path class="cls-6" d="M215.91,505.11c-.53-.21-1.58-.32-1.84-.58,1.08,0,3.07-.12,2.45.23C215.8,504.78,216,505,215.91,505.11Z"/><path class="cls-3" d="M250.24,504.64h1.22c2.6.11,1.46.18.62.23-.52,0-.58.05-.62.12C250.16,505.05,250.3,504.83,250.24,504.64Z"/><path class="cls-5" d="M233.69,504.64c.32.17.9.3,1.22.47.12.09.62.11.62.23H234.3c-.12-.43-2-.23-2.45-.35C232.21,504.89,233.13,504.33,233.69,504.64Z"/><path class="cls-2" d="M247.79,505.11H249c.85-.07.09-.45,1.23-.47.06.19-.08.41,1.22.35.22.15,1.09.18,1.23.35h-4.9Z"/><path class="cls-2" d="M295,504.53v.81h-4.3c1.06-.07-.05-.55,1.23-.58,0,.06.5.13.61,0s.09-.14.61-.12h.62C293.74,504.43,294.24,504.4,295,504.53Z"/><path class="cls-4" d="M376.53,504.41c1.49.55-.27,1.08-2.45,1.28,0-.07-.09-.14-.61-.12.6-.16,1.63-.23,2.45-.35C376.29,505,375.16,504.46,376.53,504.41Z"/><path class="cls-2" d="M199.35,504.53c1,0,.35.32,1.23.34.1-.17-.22-.42.61-.46-.63.65,1,.23,1.84.46-.66.44-2.21.27-2.45.59H192v-.12a4.2,4.2,0,0,1,1.23-.35,9.78,9.78,0,0,0,4.29-.46c0-.07.09-.14.61-.12C198.82,504.8,199.37,505.48,199.35,504.53Z"/><path class="cls-5" d="M237.37,505.34c-.36-.2.74-.68-.62-.7.81-.29-2.85-.28-.61-.46,1.72-.12-.17-.49,0-.7a5.73,5.73,0,0,1,1.84.35c-.85,0-.64.3.61.23,0,.15.79.16.62.35a14.47,14.47,0,0,0,3.67-.23c-.74,0-.38-.13,0-.23.62,0,.73.09,1.23.11.25-.47-2-.47-1.23-1h2.46c-1,.25-.09.87.61,1.16-.11.17.22.43-.61.46-.14-.09,0-.23-.62-.23.09.49-.32.28-1.22.12-.06.43-.69.33,0,.69-1.17-.21-1.11.07-3.07,0-.88-.18-.82-.54-1.84-.69,0,.31.23.66-.61.81Z"/><path class="cls-5" d="M300.51,505.34c.13-.54-2.88.18-2.45-.47a4.89,4.89,0,0,0,1.84,0c-.65,0-.48-.14.61-.11.91.1.89.37,1.23.58Z"/><path class="cls-7" d="M368,504.76h2.45c0,.07.09.14.62.11V505c-.48,0-1.22,0-1.23.12A13.46,13.46,0,0,1,368,505Z"/><path class="cls-10" d="M155.21,505.8c-1.82.14-.78-.84-1.84-.46-1.81-.17,1.91-.24,2.46-.35,0,.2-.46.3-1.23.35C154.52,505.55,155.35,505.58,155.21,505.8Z"/><path class="cls-3" d="M205.48,505.46a2.62,2.62,0,0,1,1.23-.12c.34-.17-.71-.6.61-.58.48,0,1.21,0,1.23.11-3.16.39,2.4.56,5.52.47C212.41,505.61,208.16,505.38,205.48,505.46Z"/><path class="cls-2" d="M216.52,504.76c1.69.32.58-.17,1.84-.23.36.37-.42.54-.61.81h-1.23c.8-.19.81-.47-.61-.23C216,505,215.8,504.78,216.52,504.76Z"/><path class="cls-2" d="M276,505a8,8,0,0,1,3.06.12,24.58,24.58,0,0,1-4.9-.12h.61C274.85,504.51,275.17,505,276,505Z"/><path class="cls-2" d="M331.78,505.46c0-.12.5-.14.61-.24-.9,0-3.08-.32-1.22-.46-.12.44.5,0,1.83.11-.33.17.72.6-.61.59Z"/><path class="cls-5" d="M343.43,505c1,0,.34.32,1.22.35.2-.27,1-.44.62-.81,1.61.36.76.82-1.23,1C344.29,505.29,342.92,505.32,343.43,505Z"/><path class="cls-7" d="M165,504.87c1,.08,1,.36,1.84.47.06-.18-.08-.4,1.23-.35v.23c-.76,0-1.26.15-1.23.35H165c-.79-.27.08-.21-.61-.58C164.3,504.89,164.65,504.88,165,504.87Z"/><path class="cls-3" d="M181,505.57c.09-.21.41-.39,1.23-.46.17.24,1.64-.17,2.45.11.1-.13-.11-.33.61-.35.25.35,2,.4,2.46.7Z"/><path class="cls-6" d="M228.78,504.18c-.85.86,1.76.69,1.84,1.16h-1.84c-.52-.29-.8-.62-.61-1C228.06,504.2,228.41,504.19,228.78,504.18Z"/><path class="cls-5" d="M141.73,504.87c.44.33,2.91.63.61.82a11.57,11.57,0,0,1,2.45.23c-.8-.35-.26-1-1.84-1.16,1.48.05,1.33-.21,3.07-.12.29.27,1.21.6,0,.82,2-.08.84.41,2.45.11-.06.41-1.18.51.61.7-3.12-.11-4.84-.11-8,0,.23-.2-.48-.22-1.22-.24v-.46C140.91,505.42,140.84,505.06,141.73,504.87Z"/><path class="cls-6" d="M155.21,505.8c.14-.22-.69-.25-.61-.46.77,0,1.25-.15,1.23-.35.37,0,.72,0,.61-.12,1.35.14,2.79.41,1.84.82a28.41,28.41,0,0,0,4.9-.23,7.63,7.63,0,0,1-3.06-.93,13.58,13.58,0,0,0,1.84-.12c1.25-.06,1.2-.35,2.45-.11-.07.33-2.62.2-2.45.57,2.44.08,1.79-.43,3.67-.46.78,0,1.26.15,1.23.35-.78,0-.85-.15-1.84-.12v.23c-.37,0-.72,0-.61.12-1.73.12.17.49,0,.7-.75,0-3.79,0-1.84.11v.12h-2.45C158,506,156.68,505.87,155.21,505.8Z"/><path class="cls-3" d="M234.91,505.11c1.42-.23.68,0,1.84.11v-.58c1.36,0,.26.5.62.7h-1.84C235.53,505.22,235,505.2,234.91,505.11Z"/><path class="cls-8" d="M166.86,505.57c0-.2.47-.3,1.23-.35,1.73-.09,1.59.17,3.06.12.34-.17-.71-.6.62-.58-.55.37,2,.16,2.45.35-.2-.27.1-.45.61-.58.91,0,.56-.28.61-.47a9.84,9.84,0,0,0,3.07-.11c-.19.15-.87.22-.61.46-1.17,0-1.54.25-3.07.23v.93h-8Z"/><path class="cls-2" d="M353.85,505.34c.1-.14-.11-.33.61-.35v.47c2-.07,1.9.21,3.07,0v.34h-3.68c0-.07-.09-.13-.61-.11C353.56,505.59,353.88,505.5,353.85,505.34Z"/><path class="cls-5" d="M362.43,505.92c-.1-.29,1.38-.28,1.84-.46-.44.5,1.22-.1,1.23.23.1.13-.14.2-.62.23Z"/><path class="cls-5" d="M353.24,505.69c-1.4,0-2.31,0-2.45-.23a12.1,12.1,0,0,1,1.83.11c.34-.17-.71-.6.62-.58.09.14-.11.33.61.35C353.88,505.5,353.56,505.59,353.24,505.69Z"/><path class="cls-2" d="M365.5,505.69c2-.24,2.68.1,4.29-.12v.35c-1.15,0-4.06.3-4.91,0C365.36,505.89,365.6,505.82,365.5,505.69Z"/><path class="cls-1" d="M371.63,505.8a4.07,4.07,0,0,0,1.84-.23c.52,0,.57.05.61.12-1.09.18-2.4.32-3.68.46h-6.13c-2.53,0-3.84-.2-6.74-.12-1.25-.26-5.09,0-7.36-.11h-1.23c.46-.26,3.44-.05,4.91-.12h3.68c1.47.07,2.79.17,4.9.12h2.45c.85.3,3.76,0,4.91,0A6.68,6.68,0,0,0,371.63,505.8Z"/><path class="cls-6" d="M150.31,506c.31-.28,0-.69,1.84-.69.36.37-1.15.36,0,.58A18,18,0,0,1,150.31,506Z"/><path class="cls-9" d="M149.08,506.27c-1.79-.19-.67-.29-.61-.7s-.81-.45,0-.81c.59,0,.48.14.61.23h2.46c.92-.22,2.57.2,3.06-.23-1,.05-2.06-.43-.61-.46-.1.13.13.2.61.23-.1.13.13.2.61.23a1.84,1.84,0,0,1,1.23.11c.11.1-.24.11-.61.12-.55.11-4.27.18-2.46.35,1.06-.38,0,.6,1.84.46,1.47.07,2.8.17,4.91.12V506h-4.29c-.08-.25-2.6,0-3.68-.11-1.15-.22.36-.21,0-.58-1.86,0-1.53.41-1.84.69-.11.1.24.11.61.12A6.68,6.68,0,0,1,149.08,506.27Z"/><path class="cls-4" d="M150.31,506a18,18,0,0,0,1.84-.11c1.08.07,3.6-.14,3.68.11-2.28-.08-2.63.2-4.91.12C150.55,506.14,150.2,506.13,150.31,506Z"/><path class="cls-4" d="M326.87,502.79h3.68v.11c-.89.07-3.16-.13-3.06.12h-3.68v-.23Z"/><path class="cls-10" d="M207.32,502.9h6.14c.1.25-2.18.06-3.07.12h-3.07Z"/><path class="cls-4" d="M214.68,502.9h12.88a2.78,2.78,0,0,1-1.23.12c-1.16,0-1.35.13-2.45.12h-8.59c-1.46-.08-4.44.14-4.9-.12.89-.06,3.17.13,3.07-.12Z"/><path class="cls-3" d="M301.74,502.9H306c-.6.39-2.57.42-4.29.35Z"/><path class="cls-6" d="M183.41,503h9.2c.28.32-3.34-.09-3.06.23h-.62c-.65-.26-3.85,0-5.52-.11Z"/><path class="cls-2" d="M246,503h4.29a5.44,5.44,0,0,1-1.84.12h-.61c-.13.14-.68.07-1.23,0-.67.29,2.1.59-.61.57C245.89,503.28,245.26,503.38,246,503Z"/><path class="cls-13" d="M256.37,503h6.74c0,.07-.09.14-.61.12h-3.68c-.09.13.11.32-.61.34-.06-.18.08-.4-1.23-.34C256.61,503.13,256.26,503.12,256.37,503Z"/><path class="cls-2" d="M301.74,503.25c-1.67-.08.44.55-1.23.46-1.41-.2-2.24-.43-1.22-.81h2.45Z"/><path class="cls-5" d="M325,503c-.09.29-.12.56,1.22.58,3.61.18-.27.92-1.84,1.16.2-.16.88-.22.62-.46-1.74.09-1.59-.17-3.07-.12.17.26-.15.44-1.23.46.11-.25-.5-.37-1.84-.34v.11h-.61v-.23c2.06.11,4.1-.37,2.45-.58-.29.21-.65-.05-1.22-.12-.09.22-2.08.07-2.45.23v-.34c-.71-.37,1-.28,1.22-.47,1.92,0,4.5-.07,5.52.12Z"/><path class="cls-4" d="M164.41,503.14h5.52v.23h-3.07a10.9,10.9,0,0,0-2.45-.12Z"/><path class="cls-13" d="M201.19,503c1.45.27,5.51,0,8,.12.11.25-2.17.05-3.06.11h-.62c-.47,0-.71.1-.61.23a6.3,6.3,0,0,0-1.84,0c.49-.44-2.89-.14-4.29-.23V503Z"/><path class="cls-7" d="M219.59,503.14h4.29c.05.18,1.56.09,1.22.34-1.78-.22-3-.1-4.29-.23-.13.09,0,.23-.61.23C220.17,503.34,219.41,503.32,219.59,503.14Z"/><path class="cls-6" d="M246,503c-.69.36-.06.26,0,.69v.47c-.7-.29-1.64-.91-.61-1.16Z"/><path class="cls-4" d="M155.21,503.6c-1.08-.07-3.6.14-3.67-.12,1.93.06,2.16-.21,4.29-.11a7.27,7.27,0,0,1,1.84.11A11,11,0,0,0,155.21,503.6Z"/><path class="cls-6" d="M184,504.06c.84-.15.6-.5.61-.81h1.23c.06.18-.08.4,1.22.35.33.17-2.39.28-.61.35,0-.07.09-.14.61-.12v.47C184.77,504.46,185.92,504,184,504.06Z"/><path class="cls-6" d="M253.92,504c-.71.37-.69-.31-.61-.47-1.79.17-1.79-.51,0-.34C256.05,503.13,252.93,503.57,253.92,504Z"/><path class="cls-3" d="M272.92,503.14c1.33,0,.28.41.62.57a2.89,2.89,0,0,0-1.23.12C270,503.57,273.87,503.52,272.92,503.14Z"/><path class="cls-6" d="M149.08,503.6a7.27,7.27,0,0,1,1.84.11h-1.23a12.54,12.54,0,0,0-3.06.35,3.94,3.94,0,0,0-1.84,0c-.49,0-.61.12-1.22.12.11-.1.61-.12.61-.23A36.65,36.65,0,0,1,149.08,503.6Z"/><path class="cls-9" d="M150.92,503.71a7.27,7.27,0,0,0-1.84-.11,11,11,0,0,1,2.46-.12c.07.26,2.59,0,3.67.12.38,0,.73,0,.62.11-2.06-.11-1,.37-1.23.59-.66,0-.42-.24-1.23-.24C153.92,503.69,151.38,503.9,150.92,503.71Z"/><path class="cls-9" d="M159.5,504.06c.53-.53-1-.12-1.22-.35.5-.32,4.05-.29,3.68,0v.59c-1.74,0,.74-.76-1.84-.59-.51.33.86.31.61.59a7.74,7.74,0,0,1-2.45,0c-.27.21.83.69-1.23.57.2-.15.88-.22.62-.46h-.62C156.07,504,159.7,504.37,159.5,504.06Z"/><path class="cls-5" d="M179.73,503.25c.13.33-.15.59-1.22.7-.8-.29,1.8-.48,0-.58,0,.06-.5.13-.61,0v-.12Z"/><path class="cls-5" d="M192,503.25c0,.22.47.25,1.23.12v.34c-1.17,0-1.36.14-2.46.12.17.34-.15.4-1.22.23-.5-.4.91-.44.61-.81Z"/><path class="cls-8" d="M228.78,503.6c1.88-.18,1.88.76,0,.58-.37,0-.72,0-.61.12h-1.23c0-.12-.5-.14-.61-.24,2.26,0,1.78-.21.61-.35h1.84Z"/><path class="cls-2" d="M334.23,503.37c-.59.42,2.65.12,3.07.34-.1.14.1.33-.62.35,0-.12-.78-.09-.61.12-.91.06-1.54.17-2.45.23-.14-.09,0-.23-.62-.23-1.52-.38,1.73-.37-.61-.7C333.28,503.55,333.89,503,334.23,503.37Z"/><path class="cls-5" d="M329.33,503.71a3.12,3.12,0,0,1,1.22.24,3.17,3.17,0,0,0-1.22.23,3,3,0,0,1-1.23.12v-.47C328.87,503.86,329.35,504,329.33,503.71Z"/><path class="cls-2" d="M371,504.87c1.47-.14-.34-.91,1.22-1-.29.37.88.45,1.23.7-2.23-.11-.52.52-2.45.46Z"/><path class="cls-2" d="M192.61,504.18c-.08.37-1.35.52-1.84.81-.1-.17.22-.43-.61-.46,0,.07-.09.13-.61.11v-.23C191.55,504.26,190.85,504.24,192.61,504.18Z"/><path class="cls-5" d="M350.17,504.3c-1.27-.11-.17.79-1.23.34,0-.15-.78-.16-.61-.34,1.27-.07.15-.55,1.84-.24Z"/><path class="cls-2" d="M287.64,504.41c2.22-.11.62.5,1.84.58C289.27,505.53,287.05,504.76,287.64,504.41Z"/><path class="cls-14" d="M214.07,504.18c-1.13.13.32.76-2.45.58v-.35h.61c.15-.16,1-.19,1.23-.35h.61Z"/><path class="cls-3" d="M256.37,504.64c1.32.35.52.35,1.84,0,.14.09,0,.23.61.23.06.32-1,.24,0,.47h-5.51c-.08-.21.74-.25.61-.47.87,0,1,.2,1.84.24,1-.23-.06-.15,0-.47Z"/><path class="cls-3" d="M282.73,505.34c-2.6-.57-1.22-.54,0-1.16,2.39.06,1.64.91,3.07.23.08.22.4.39,1.22.46.38-.49-2-.47-1.83-.92,1.43,0,1.37.36,2.45.46-.59.35,1.63,1.12,1.84.58.71,0,.66.18.61.35Z"/><path class="cls-5" d="M252.69,505.34c-.14-.17-1-.2-1.23-.35,0-.07.1-.14.62-.12a6,6,0,0,0,1.84,0c.13.22-.69.26-.61.47Z"/><path class="cls-2" d="M310.32,504.64c.09.29-.32.48-1.22.58-.46-.42,1.5-.64,0-.92.13-.09,0-.23.61-.24.09.14-.11.33.61.35Z"/><path class="cls-15" d="M341,505.57a11.81,11.81,0,0,0,2.45-.11c-1,0-2.13,0-1.84-.24h.61c1.14.11.38-.66,1.23-.23-.51.33.86.3.61.58v.12C343.15,505.62,340.87,505.82,341,505.57Z"/><path class="cls-4" d="M317.68,505.34c2.06.07,5.69-.15,6.74.12-2.67-.08-6.93.15-8.58-.12h1.84Z"/><path class="cls-4" d="M217.13,505.57c.85-.26,4.27,0,6.14-.11v.11h-6.14Z"/><path class="cls-4" d="M296.22,505.46c2.67.07,6.93-.16,8.58.11h-8.58Z"/><path class="cls-1" d="M311.55,505.57H304.8c-1.65-.27-5.91,0-8.58-.11h-73c-1.87.07-5.29-.15-6.14.11H203.65a2.82,2.82,0,0,1-1.23-.11h3.06c2.68-.08,6.93.15,8.59-.12h98.09v.12c1.45,0,1.8-.2,3.68-.12,1.65.27,5.91,0,8.58.12h8c1.05.26,4.68,0,6.75.11H341c-.11.25,2.17.05,3.06.12h4.9c-.11.09-.61.11-.61.23h-2.45c-.65-.26-3.86-.05-5.52-.12-2.26-.27-7.14,0-10.42-.11C325,505.42,317.48,505.65,311.55,505.57Z"/><path class="cls-15" d="M164.41,505c.69.37-.18.31.61.58h5.52c-.85.27-4.27,0-6.13.12C164.58,505.48,162.68,505.11,164.41,505Z"/><path class="cls-4" d="M203.65,505.69h-4.91c-1.65-.27-5.91,0-8.58-.12a5.28,5.28,0,0,1,1.84-.11h10.42a2.82,2.82,0,0,0,1.23.11Z"/><path class="cls-4" d="M175.44,505.57c.85.27,4.27,0,6.14.12v.11h-9.81c-.12-.09-.62-.11-.62-.23h4.29Z"/><path class="cls-7" d="M350.17,505.92c2.27.07,6.11-.15,7.36.11C355.26,506,351.42,506.18,350.17,505.92Z"/><polyline class="cls-16" points="122.5 356.57 122.5 404.54 350.03 404.54"/><path d="M350,405.51H121.54V356.57a1,1,0,0,1,1.93,0v47H350a1,1,0,1,1,0,1.93Z"/><polyline class="cls-16" points="397.01 355.26 397.01 235.32 121.14 235.32 121.14 326.8"/><path d="M397,356.23a1,1,0,0,1-1-1v-119H122.11V326.8a1,1,0,0,1-1.93,0V234.36H398v120.9A1,1,0,0,1,397,356.23Z"/><polyline class="cls-16" points="383.32 404.54 398.37 404.54 396.02 372.23"/><path d="M399.4,405.51H383.32a1,1,0,1,1,0-1.93h14l-2.27-31.28a1,1,0,0,1,.89-1,1,1,0,0,1,1,.9Z"/><path d="M231.22,316.85a1,1,0,0,1-1-1V293.32a1,1,0,1,1,1.93,0v22.57A1,1,0,0,1,231.22,316.85Z"/><polygon points="235.78 294.29 226.67 294.29 231.22 289.73 235.78 294.29"/><path d="M100,519.42a17.74,17.74,0,0,1-5.67-1.23,16.67,16.67,0,0,1-6.62-4.77L87,515.58l-3.87-1.16.13-.83c.52-3.46,1.15-7,1.76-10.35,1.67-9.24,3.39-18.8,2.86-28.31-.45-7.9-.89-9.38-2.2-13.76-.47-1.59-1-3.54-1.78-6.28l1.87-.49c.72,2.71,1.3,4.65,1.76,6.21,1.36,4.55,1.82,6.09,2.28,14.21.55,9.74-1.2,19.41-2.89,28.76-.56,3.1-1.14,6.3-1.63,9.47l.45.13,1.27-4,1.12,1.61A15.09,15.09,0,0,0,95,516.39c2.28.88,6,1.66,6.84.54.57-.78,0-2.63-1.77-5.49a20.26,20.26,0,0,0-9.36-7.8l-.8-.35.28-.84c1-3,2.19-6,3.35-8.93,2.29-5.74,4.66-11.67,5.43-17.79,1.19-9.47.89-11.58-.41-20.47l-.28-1.88,1.92-.28.27,1.88c1.3,8.87,1.65,11.26.42,21-.81,6.36-3.22,12.41-5.56,18.26-1,2.62-2.12,5.32-3,8a21.82,21.82,0,0,1,9.42,8.19c1.08,1.76,3.31,5.43,1.68,7.65A4.06,4.06,0,0,1,100,519.42Z"/><path d="M126.68,517.92a17.47,17.47,0,0,1-5.67-1.23,16.55,16.55,0,0,1-6.62-4.77l-.69,2.16-3.86-1.15.12-.83c.52-3.47,1.15-7,1.76-10.37,1.67-9.23,3.4-18.79,2.86-28.29-.61-10.77-.61-10.77-2.54-21.36l1.9-.35c2,10.71,2,10.71,2.57,21.6.55,9.73-1.2,19.4-2.89,28.75-.56,3.1-1.13,6.3-1.62,9.48l.44.13,1.28-4,1.11,1.6a15,15,0,0,0,6.88,5.57c2.27.89,6,1.67,6.83.55.58-.78,0-2.63-1.77-5.5a20.22,20.22,0,0,0-9.35-7.79l-.81-.36.28-.83c1-3,2.19-6,3.35-8.93,2.29-5.74,4.66-11.68,5.43-17.8,1.08-8.55.57-11.85-.54-19.08-.2-1.3-.42-2.72-.65-4.32l1.92-.28c.23,1.59.44,3,.64,4.3,1.11,7.2,1.66,10.81.55,19.62-.8,6.37-3.22,12.42-5.55,18.27-1.05,2.62-2.13,5.31-3,8a21.85,21.85,0,0,1,9.42,8.2c1.08,1.76,3.31,5.42,1.68,7.64A4,4,0,0,1,126.68,517.92Z"/><path d="M94.9,362.79h-.32c-1-.09-1.25-1-1.93-3.61-.32-1.2-.72-2.7-1.24-4.22-2.32-6.81-4.36-10.67-10.32-15.59l1.23-1.49c6.32,5.21,8.48,9.29,10.92,16.46.54,1.58,1,3.11,1.28,4.35.08.32.17.67.26,1,.76-2.93,1.94-10.3,3.51-22l1.92.26C97.08,361.19,96.29,362.79,94.9,362.79Z"/><path d="M86,310.55a13.12,13.12,0,0,1-2.18-.19,2.41,2.41,0,0,1,.75-4.77c2.2.34,3-.12,3.26-.33a1.49,1.49,0,0,0,.4-1L86,283.42a2.41,2.41,0,1,1,4.8-.52l2.28,20.94a6.28,6.28,0,0,1-1.91,4.94A7.24,7.24,0,0,1,86,310.55Z"/><path d="M81.24,288.74a1.75,1.75,0,1,0-2.09,1.32A1.76,1.76,0,0,0,81.24,288.74Z"/><path d="M79.53,292a3.69,3.69,0,0,1-3.11-1.72,3.6,3.6,0,0,1-.48-2.77A3.68,3.68,0,1,1,79.53,292Zm0-3.87a.18.18,0,0,0-.17.14.18.18,0,0,0,.13.22.2.2,0,0,0,.22-.14.19.19,0,0,0-.14-.21Z"/><path d="M51.6,324.84a13.22,13.22,0,0,1-7.79-2.36c-5.06-3.62-6.35-10.47-6-14.2.12-1.26.5-2.88,1.6-3.38,1.41-.62,2.64.78,4.19,2.57,1.91,2.19,4.26,4.9,7.24,4.8,2-.1,4-1.49,5.92-4.15-18.17-19.82-24.93-42.38-16.05-53.85,4.67-6,15.34-10.76,24.42-7.84,4.22,1.37,10.56,5.35,10.7,10.76h0c.07,2.67-1.49,4.2-3.15,5.82a21.67,21.67,0,0,0-3.14,3.62c-3,4.6-2.32,8.94-1.28,15.51a80.69,80.69,0,0,1,1.19,20.55c-.58,7.33-1,13.11-5.54,17.33A18.7,18.7,0,0,1,51.6,324.84ZM40.19,306.73a6.82,6.82,0,0,0-.48,3.39c.14,3.51,1.59,8.19,5.22,10.79,5.34,3.81,13.33,1.78,17.68-2.3,3.78-3.54,4.31-8.18,4.93-16.07a79.4,79.4,0,0,0-1.17-20.1c-1.07-6.76-1.85-11.64,1.58-16.87a22.52,22.52,0,0,1,3.4-3.94c1.58-1.54,2.62-2.56,2.57-4.39h0c-.1-3.75-4.84-7.51-9.36-9-8-2.59-18,1.62-22.3,7.17-8.25,10.65-1.17,33,16.47,51.93l.53.57-.44.64c-2.45,3.59-5.1,5.48-7.87,5.6-3.84.22-6.72-3.07-8.79-5.45A12.56,12.56,0,0,0,40.19,306.73Z"/><path d="M99.68,289.28a1.75,1.75,0,1,0-2.09,1.33A1.75,1.75,0,0,0,99.68,289.28Z"/><path d="M98,292.58a3.72,3.72,0,0,1-.81-.09,3.67,3.67,0,0,1-2.79-4.4,3.61,3.61,0,0,1,1.62-2.3A3.68,3.68,0,1,1,99.94,292,3.61,3.61,0,0,1,98,292.58Zm0-3.86-.21.14a.18.18,0,0,0,.14.21.2.2,0,0,0,.21-.13A.2.2,0,0,0,98,288.72Z"/><path class="cls-16" d="M66.18,275.47c-1.33,4-2.51,7.58-2.72,11.49-.28-.12-.21.31-.51.24A4.81,4.81,0,1,0,64.33,296c1.81,11,8,22.38,18,26.07A17.82,17.82,0,0,0,89,323.29c10.18-.22,18.73-9.18,22.19-21.76a4.54,4.54,0,0,0,1.29.49,4.81,4.81,0,1,0,.22-9.43c.1-1.5.15-3,.12-4.57a46.52,46.52,0,0,0-3.15-16.12"/><path d="M88.65,324.25A18.68,18.68,0,0,1,82,323c-10.69-4-16.5-16-18.38-25.6a5.82,5.82,0,0,1-3,.12A5.74,5.74,0,0,1,57,295a5.76,5.76,0,0,1,1.79-8,5.71,5.71,0,0,1,3.74-.86,48,48,0,0,1,2.72-11l1.83.61c-1.26,3.82-2.46,7.42-2.67,11.24l-.07,1.39-.81-.35a1.15,1.15,0,0,1-.8.1,3.82,3.82,0,0,0-2.91.5,3.84,3.84,0,0,0,1.22,7,3.8,3.8,0,0,0,2.79-.44l1.21-.72.23,1.4c1.53,9.27,7,21.47,17.36,25.32A17.23,17.23,0,0,0,89,322.32c9.47-.2,17.82-8.46,21.27-21.05l.33-1.19,1.08.6a3.8,3.8,0,0,0,1,.4,3.85,3.85,0,0,0,4.59-2.91,3.79,3.79,0,0,0-.5-2.9,3.83,3.83,0,0,0-3.92-1.73l-1.22.21.09-1.23c.11-1.53.15-3,.12-4.48a45.82,45.82,0,0,0-3.08-15.78l1.8-.71A48,48,0,0,1,113.82,288c0,1.15,0,2.34-.06,3.55a5.61,5.61,0,0,1,1.07.14,5.78,5.78,0,0,1,4.37,6.9,5.78,5.78,0,0,1-6.9,4.37,3.45,3.45,0,0,1-.46-.12C108,315.68,99.12,324,89.05,324.25Z"/><path d="M79.53,296.33a8,8,0,1,1,6.74-12.25,8,8,0,0,1-6.74,12.25Zm0-14a6,6,0,1,0,1.34.15A6.18,6.18,0,0,0,79.52,282.31Z"/><path d="M98.09,296.87a8,8,0,1,1,7.78-6.23h0A8,8,0,0,1,98.09,296.87Zm0-14a6,6,0,1,0,1.32.14A6.58,6.58,0,0,0,98.09,282.86Zm6.84,7.57h0Z"/><path d="M112.28,292.09l-.21,0-7-1.57a1,1,0,0,1-.74-1.15,1,1,0,0,1,1.16-.73l7,1.56a1,1,0,0,1-.21,1.91Z"/><path d="M72.7,286.94h0l-8.34-.46a1,1,0,0,1-.91-1,1,1,0,0,1,1-.91l8.34.46a1,1,0,0,1-.06,1.93Z"/><path d="M90.64,288.69h0l-3.71-.05a1,1,0,0,1-1-1,1,1,0,0,1,1-1h0l3.72.05a1,1,0,0,1,0,1.93Z"/><path class="cls-16" d="M63.83,287.5c.66.38,1.12-12.54,3.15-12.26a83.07,83.07,0,0,0,12.46.54c13.07,0,31.05-.34,33.45-7.5,1.57-4.69-4.36-10.49-6.09-12.18-7.54-7.35-21.56-11.33-32.29-4.59C62.64,259,61.67,286.24,63.83,287.5Z"/><path d="M63.86,288.46a1,1,0,0,1-.52-.13h0c-.39-.23-1.31-.76-1.39-5.67-.15-9.34,3-26.28,12-32,11.31-7.11,25.69-2.87,33.47,4.72,5.38,5.25,7.51,9.68,6.34,13.18-2.5,7.44-18.35,8.11-34.37,8.16H78.6a79.68,79.68,0,0,1-11.52-.53c-.68,1-1.27,5.48-1.56,7.7-.45,3.51-.55,4.11-1.21,4.44A1.13,1.13,0,0,1,63.86,288.46Zm23-39.4A22,22,0,0,0,75,252.33c-6.34,4-9,13.8-10.1,19.3a57.71,57.71,0,0,0-1,9.95c.52-3.71,1-6.18,2.11-7a1.43,1.43,0,0,1,1.11-.31,74.87,74.87,0,0,0,11.46.54h.86c10.58,0,30.28-.09,32.54-6.84.64-1.88.13-5.34-5.85-11.18A28.53,28.53,0,0,0,86.84,249.06Z"/><path d="M82.53,290a1.75,1.75,0,1,0-2.09,1.32A1.75,1.75,0,0,0,82.53,290Z"/><path d="M80.83,291.64a2.2,2.2,0,0,1-.44-.05,2,2,0,0,1-1.25-.88,2,2,0,0,1,.62-2.75,1.94,1.94,0,0,1,1.5-.26,2,2,0,0,1,1.51,2.38,2,2,0,0,1-1.94,1.56Zm0-3.51a1.44,1.44,0,0,0-.8.24,1.5,1.5,0,0,0-.67.94,1.52,1.52,0,0,0,1.15,1.81,1.5,1.5,0,0,0,1.13-.2,1.52,1.52,0,0,0,.67-.95,1.49,1.49,0,0,0-.2-1.14,1.51,1.51,0,0,0-.94-.66A1.37,1.37,0,0,0,80.82,288.13Z"/><path d="M101.52,291a1.75,1.75,0,1,0-2.1,1.32A1.75,1.75,0,0,0,101.52,291Z"/><path d="M99.81,292.59a2.2,2.2,0,0,1-.44,0,2,2,0,0,1-1.51-2.38,2,2,0,0,1,.88-1.25,1.94,1.94,0,0,1,1.5-.26,2,2,0,0,1,1.51,2.38h0A2,2,0,0,1,99.81,292.59Zm0-3.51a1.44,1.44,0,0,0-.8.24,1.5,1.5,0,0,0-.67.94,1.57,1.57,0,0,0,.2,1.14,1.55,1.55,0,0,0,1,.67,1.51,1.51,0,0,0,1.8-1.15h0a1.51,1.51,0,0,0-1.14-1.8A1.27,1.27,0,0,0,99.8,289.08Z"/><path d="M87.16,309H87.1a1,1,0,0,1,0-1.93h0a2.67,2.67,0,0,0,2.06-.74,3.58,3.58,0,0,0,.69-2.41l-2.5-15.18a1,1,0,0,1,1.91-.31l2.5,15.23a5.44,5.44,0,0,1-1.16,4A4.53,4.53,0,0,1,87.16,309Z"/><path d="M102,340.73h-.09a3,3,0,0,1-2.24-.94c-3-3.2-4.21-9-5.31-14.13-.24-1.11-.47-2.17-.71-3.16a1,1,0,0,1,.72-1.16,1,1,0,0,1,1.16.71c.24,1,.47,2.08.72,3.2,1,4.89,2.24,10.42,4.84,13.23a1.1,1.1,0,0,0,.86.32H102c7.12,0,32.5-25.11,51.06-43.45,2.79-2.76,5.49-5.43,8-7.94a1,1,0,0,1,1.35,1.38c-2.56,2.51-5.26,5.18-8,7.93C129.2,321.65,109.32,340.73,102,340.73Z"/><path d="M122.74,357.54a1,1,0,0,1-.87-1.4c9.3-18.59,19.45-28.26,31.21-39.47,6.28-6,13.4-12.76,21.13-21.66a1,1,0,1,1,1.46,1.27c-7.79,9-14.94,15.78-21.25,21.79-11.63,11.08-21.67,20.65-30.82,38.94A1,1,0,0,1,122.74,357.54Z"/><path d="M75.91,430.2a1,1,0,0,1-.08-1.93l56.52-4.52a1,1,0,0,1,.15,1.93L76,430.2Z"/><polygon class="cls-17" points="132.42 450.01 77.78 455.33 78.71 429.01 128.14 425.06 132.42 450.01"/><path d="M76.78,456.4l1-28.28,51.17-4.1,4.61,26.85Zm2.86-26.49-.85,24.35,52.51-5.11-4-23.06Z"/><path d="M85.92,316a14.43,14.43,0,0,1-4.38-.7,1,1,0,1,1,.59-1.84,11.86,11.86,0,0,0,6.76.2,1,1,0,0,1,.52,1.87A13.44,13.44,0,0,1,85.92,316Z"/><path d="M132.42,425.68a1,1,0,0,1-.87-.55l-9.46-19.8a1,1,0,0,1,1.75-.84l9.46,19.81a1,1,0,0,1-.46,1.29A1,1,0,0,1,132.42,425.68Z"/><g class="cls-18"><path class="cls-19" d="M127.67,418.74c-8.27.89-16.55,1.92-24.84,2.59q-6.08.5-12.16.56c-2.88,0-5.81-.2-8.7,0-.3-5-.89-9.92-1.55-14.87-.54-4.06-7-4.12-6.46,0a179.64,179.64,0,0,1,1.72,18.54,3.27,3.27,0,0,0,4.09,3.11c3.82-.94,8.2-.24,12.11-.31q6.09-.1,12.16-.64c7.89-.69,15.76-1.65,23.63-2.49C131.76,424.76,131.81,418.29,127.67,418.74Z"/></g><path d="M64.56,409.08a1,1,0,0,1-.59-.2c-12.3-9.63-15.3-14-24.21-27l-2.36-3.44a1,1,0,0,1,.19-1.3c17.37-14,30.7-25.58,40.72-35.43a20.79,20.79,0,0,0,5-7.2A29.24,29.24,0,0,0,85,323.31a1,1,0,0,1,1-1,1,1,0,0,1,1,.95,31,31,0,0,1-1.89,12,22.68,22.68,0,0,1-5.39,7.87c-9.94,9.76-23.09,21.21-40.17,35l1.85,2.7c8.52,12.41,11.56,16.84,22.72,25.69.32-1,.56-1.59.8-2.2.31-.78.6-1.52,1-2.92-2.4-3-4.4-5.92-6.51-9-2.42-3.53-4.92-7.18-8.15-11.1a1,1,0,0,1-.21-.73.93.93,0,0,1,.39-.66c2.71-2,6-4.23,9.22-6.38,3.61-2.44,7.35-5,10.33-7.2a1,1,0,0,1,1.55.71c.25,4.1.46,10.44.67,16.57s.42,12.45.67,16.53a1,1,0,0,1-1.93.12c-.25-4.11-.46-10.45-.67-16.58-.18-5.29-.36-10.73-.57-14.74-2.73,2-5.9,4.11-9,6.19-2.87,1.93-5.82,3.92-8.34,5.74,3,3.68,5.33,7.11,7.61,10.44s4.24,6.18,6.74,9.28a1,1,0,0,1,.17.89c-.55,1.8-.9,2.69-1.24,3.55s-.66,1.67-1.18,3.4a1,1,0,0,1-.64.64A.92.92,0,0,1,64.56,409.08Z"/><path class="cls-16" d="M72.94,400.36c.09,6.33,5.25,9.65,5.11,15-.07,2.31-1.18,5-2.67,5.25S73,417,69,412.39a31.19,31.19,0,0,0-4.44-4.28"/><path d="M75.19,421.61c-1.32,0-2.13-1.37-3.21-3.21A36.39,36.39,0,0,0,68.27,413,30.21,30.21,0,0,0,64,408.87a1,1,0,1,1,1.2-1.51,31.32,31.32,0,0,1,4.58,4.41,38.17,38.17,0,0,1,3.9,5.65,8.33,8.33,0,0,0,1.6,2.26c.76-.15,1.78-2.17,1.84-4.33.06-2.35-1.06-4.36-2.25-6.49-1.32-2.34-2.81-5-2.86-8.49a1,1,0,0,1,1.94,0c0,3,1.34,5.33,2.6,7.58s2.58,4.6,2.5,7.49c-.07,2.74-1.39,5.8-3.46,6.17A2.28,2.28,0,0,1,75.19,421.61Z"/><path class="cls-16" d="M67,401.17c4.33.19,4.39.32,5.85-.55"/><path d="M70.4,402.27c-.54,0-1.21,0-2.1-.07l-1.36-.06a1,1,0,0,1-.92-1,1,1,0,0,1,1-.93l1.36.07c2.9.13,2.9.14,4-.48a1,1,0,1,1,1,1.66A4.68,4.68,0,0,1,70.4,402.27Z"/><path d="M75.91,430.2a1,1,0,0,1-1-.91l-.53-8.6a1,1,0,1,1,1.93-.12l.52,8.61a1,1,0,0,1-.9,1Z"/><path d="M174.94,296.61a.94.94,0,0,1-.48-.13l-13.17-7.54a1,1,0,0,1-.35-1.32,1,1,0,0,1,1.32-.36l13.16,7.55a1,1,0,0,1-.48,1.8Z"/><g class="cls-20"><path class="cls-19" d="M179.48,273.21a10.08,10.08,0,0,1,9.17.61c2.06,1.2.49,4.57-1.58,3.36a6.8,6.8,0,0,0-5.1-.94c-1.17.28-2.78,1.12-3.17,2.37-.52,1.67,1,3.47,2.52,2.05,1.74-1.6,4.59.8,2.83,2.42s-3.83,2.39-6.09,1.39a5.66,5.66,0,0,1-3.08-5.21A7,7,0,0,1,179.48,273.21Z"/></g><path d="M170.87,294a.74.74,0,0,1-.25-.05.71.71,0,0,1-.43-.92c1.75-4.86,7.13-6.51,11.06-7.71.76-.23,1.48-.45,2.13-.68a3.47,3.47,0,0,0,2.26-3.14c.05-.85-.21-1.34-.36-1.42s-.28,0-.52.25c-1.74,1.5-3.64,2.12-5.21,1.7a4.43,4.43,0,0,1-3-3.12,2.85,2.85,0,0,1,1.23-3.36c2.47-1.93,8.6-3,9.68-2.29s4.12,1.1,4.51.66h0s0-.8-3-3.18c-4.08-3.18-13.66-.84-18.35,3.24-5.13,4.46-5.64,15-5.64,15.12a.73.73,0,0,1-.76.69.71.71,0,0,1-.69-.75c0-.46.55-11.29,6.14-16.16,5.2-4.51,15.53-6.92,20.19-3.28,2.09,1.63,4.36,3.69,3.29,5.17s-5.39.42-6.48-.31c-.72-.21-6.5.63-8.35,2.56a1.26,1.26,0,0,0-.4,1.4,3.13,3.13,0,0,0,2,2.21c1.09.29,2.54-.24,3.9-1.4a1.85,1.85,0,0,1,2.1-.45,2.81,2.81,0,0,1,1.17,2.81,5,5,0,0,1-3.23,4.42c-.66.23-1.4.46-2.18.7-3.84,1.17-8.62,2.64-10.13,6.81A.74.74,0,0,1,170.87,294Z"/><path class="cls-16" d="M198.09,277l-.14-2.22s-15.16.66-17.63,1.66c0,0-10.52,1.79-11.72,2.71l.1,1.83"/><rect class="cls-16" x="164.8" y="279.41" width="3.95" height="1.79" transform="translate(372.74 533.22) rotate(171.59)"/><path class="cls-21" d="M165,282a.48.48,0,0,1-.48-.41l-.26-1.77a.5.5,0,0,1,.08-.36.51.51,0,0,1,.32-.19l3.91-.58a.5.5,0,0,1,.55.41l.26,1.77a.5.5,0,0,1-.08.36.53.53,0,0,1-.32.19L165,282Zm.28-1.84.12.81,3-.44-.12-.81Z"/><path class="cls-16" d="M198.14,276.61c.12.18-16.56,4.52-29.44,4.35"/><path class="cls-21" d="M169.37,281.45h-.67a.5.5,0,0,1-.48-.49.45.45,0,0,1,.49-.48h.71c12.05,0,27.22-3.78,28.44-4.26l0,0a.49.49,0,0,1,.67.14.52.52,0,0,1,0,.51C198.19,277.52,181.34,281.45,169.37,281.45Z"/><path class="cls-16" d="M198,274.76a14.45,14.45,0,0,1-.09,1.63l.09-1.63c.06-.21-17.17.47-29.45,4.36"/><path class="cls-21" d="M168.5,279.6a.49.49,0,0,1-.46-.33.48.48,0,0,1,.32-.61c10.47-3.32,26.35-4.57,29.42-4.35a.47.47,0,0,1,.17,0h0a.43.43,0,0,1,.31.12h0a.45.45,0,0,1,.11.17.39.39,0,0,1,0,.18,15,15,0,0,1-.09,1.69.51.51,0,0,1-.52.42.49.49,0,0,1-.44-.51l.06-1.15h0c-2.83,0-17.85.92-28.75,4.37Z"/><rect class="cls-16" x="162.86" y="279.84" width="1.98" height="1.79" transform="matrix(-0.99, 0.15, -0.15, -0.99, 367.07, 534.43)"/><path class="cls-21" d="M163,282.25a.48.48,0,0,1-.48-.41l-.26-1.77a.48.48,0,0,1,.41-.55l2-.29a.45.45,0,0,1,.36.09.51.51,0,0,1,.19.32l.26,1.77a.46.46,0,0,1-.09.36.48.48,0,0,1-.31.19l-2,.29Zm.29-1.85.12.82,1-.15-.12-.81Z"/><line class="cls-16" x1="198.11" y1="275.61" x2="199.37" y2="275.6"/><path class="cls-21" d="M198.11,276.1a.49.49,0,0,1-.48-.48.47.47,0,0,1,.47-.49l1.26,0h0a.49.49,0,0,1,0,1l-1.25,0Z"/><path class="cls-22" d="M359.66,363.84h-.24c-3.54-.33-4.87-8-6-16.44a75.36,75.36,0,0,1-.6-14.06l1.92.09a74.3,74.3,0,0,0,.59,13.66c.5,3.65,2,14.61,4.3,14.83a1.83,1.83,0,0,0,1.22-.61c1.76-1.56,3.74-5.67,3.86-9.6.06-2.05-.48-3.86-1.73-7.75-1.34-4.16-3.09-8.9-4.18-11.27l1.76-.81c1.11,2.43,2.9,7.26,4.26,11.49,1.22,3.82,1.9,5.93,1.82,8.4-.13,4.1-2.07,8.83-4.51,11A3.77,3.77,0,0,1,359.66,363.84Z"/><path class="cls-22" d="M333.51,374.58l-1.93,0v-.27c.05-11,3.94-17.45,7.2-21a22.15,22.15,0,0,1,3.56-3.05c5.31-3.52,8-4.08,12-4l0,1.93c-3.67,0-6,.47-10.92,3.72a19.61,19.61,0,0,0-3.21,2.76c-3,3.26-6.64,9.31-6.69,19.64Z"/><path class="cls-22" d="M355.48,333.8a17.4,17.4,0,0,1-4.51-.59c-9.19-2.45-15.35-12.41-15.3-24.48a5.35,5.35,0,0,1-2.45-.08,5.48,5.48,0,1,1,3.95-10.17c4.37-15.08,17.14-24.75,28.81-21.64,10.23,2.72,16.55,14.69,15.09,28.2a5.49,5.49,0,0,1,2.21.13,5.49,5.49,0,0,1,1.34,10.05,5.47,5.47,0,0,1-4.17.55,5.21,5.21,0,0,1-1.81-.86C374.14,326.4,364.85,333.8,355.48,333.8Zm-17.77-28-.07,1.66c-.52,11.78,5.17,21.61,13.83,23.92,10.14,2.7,21.27-5.24,25.87-18.48l.59-1.71,1.1,1.45a3.52,3.52,0,0,0,1.92,1.31,3.55,3.55,0,1,0-.61-6.65l-1.64.78.27-1.79c2-13.14-3.84-25-13.48-27.55-10.84-2.89-22.81,6.57-26.67,21.09l-.54,2.12-1.2-1.14a3.46,3.46,0,0,0-1.53-.85h0a3.55,3.55,0,1,0,.69,6.6Z"/><path d="M375.89,304l4,.16c-.14.77-1,3-1.06,3.76-2.26.89-4.12,1.69-6.15,2.56"/><path d="M362.84,307.89a1.75,1.75,0,1,1,1.25,2.14A1.75,1.75,0,0,1,362.84,307.89Z"/><path d="M364.54,310.33a2.22,2.22,0,0,1-.51-.06,2,2,0,0,1-1.22-.93,2,2,0,0,1-.2-1.51,2,2,0,1,1,1.93,2.5Zm0-3.5a1.52,1.52,0,0,0-1.46,1.12,1.54,1.54,0,0,0,.15,1.15,1.51,1.51,0,1,0,1.7-2.22A1.74,1.74,0,0,0,364.54,306.83Z"/><path d="M345.12,302.61a1.75,1.75,0,1,1,1.24,2.14A1.74,1.74,0,0,1,345.12,302.61Z"/><path d="M346.81,305.05a2.22,2.22,0,0,1-.51-.06,2,2,0,0,1-1.22-.93,2,2,0,0,1-.2-1.51,2,2,0,0,1,.93-1.22,2,2,0,0,1,1.51-.2,2,2,0,0,1,1.21.93,2,2,0,0,1,.2,1.51A2,2,0,0,1,346.81,305.05Zm0-3.5a1.52,1.52,0,0,0-1.46,1.12,1.54,1.54,0,0,0,.15,1.15,1.48,1.48,0,0,0,.92.7,1.51,1.51,0,1,0,.78-2.92A1.74,1.74,0,0,0,346.81,301.55Z"/><path d="M353.71,321.49h-.17a4.61,4.61,0,0,1-3.39-2.07,4.25,4.25,0,0,1-.27-3.34L356.5,301a1,1,0,0,1,1.27-.5,1,1,0,0,1,.5,1.27l-6.59,15.06h0a2.3,2.3,0,0,0,.15,1.67,2.8,2.8,0,0,0,2.05,1.12,1,1,0,0,1-.17,1.92Z"/><path d="M371.45,316.75l-15.63-4.16L357.09,299l19.28,5.14ZM360,309.69l9.13,2.43,2.08-5.34-10.68-2.85Z"/><path d="M353.31,311.92l-15.72-4.45L336,293l22.92,6.55Zm-11.73-7.13,9.56,2.55,2.42-5.3-12.88-3.68Z"/><path class="cls-22" d="M350.61,330.91a1,1,0,0,1-.51-1.79,11.15,11.15,0,0,1,4.77-1.65,10.85,10.85,0,0,1,4,.33,1,1,0,0,1,.68,1.19,1,1,0,0,1-1.19.67,9.19,9.19,0,0,0-3.3-.27,9.07,9.07,0,0,0-3.94,1.37A1,1,0,0,1,350.61,330.91Z"/><path class="cls-22" d="M344.16,295.25a.93.93,0,0,1-.63-.23,1,1,0,0,1-.11-1.36,10.9,10.9,0,0,1,8-3.86,1,1,0,0,1,1,.93,1,1,0,0,1-.94,1,9,9,0,0,0-6.59,3.18A.94.94,0,0,1,344.16,295.25Z"/><path class="cls-22" d="M373.7,302.46a1,1,0,0,1-.89-.61,9,9,0,0,0-5.22-5.13,1,1,0,0,1,.69-1.81,11.23,11.23,0,0,1,4.19,2.83,10.91,10.91,0,0,1,2.13,3.4,1,1,0,0,1-.54,1.25A.92.92,0,0,1,373.7,302.46Z"/><path class="cls-22" d="M365.58,330.75a1.07,1.07,0,0,1-.25,0,1,1,0,0,1-.69-1.19,2.39,2.39,0,0,0-.27-2c-.68-1.07-2.66-2.57-8.23-3.58-6.57-1.2-12-.15-12.72,2.43a1,1,0,1,1-1.87-.49c1-3.74,7-5.28,14.94-3.84,5.09.93,8.21,2.38,9.52,4.44a4.32,4.32,0,0,1,.5,3.57A1,1,0,0,1,365.58,330.75Z"/><path class="cls-22" d="M388.41,434.23l-.4-.88c-.79-1.76-1.55-3.52-2.32-5.29-.68-1.56-1.36-3.13-2.06-4.7l-34.34-.43-.22-52.84a1,1,0,0,1,1-1h0a1,1,0,0,1,1,1l.21,50.93,32,.41L380,359.72l1.46.67c18.15,8.31,28.49,26.79,23.55,42.08-3.5,10.82-15.22,18.3-19.46,20.41q1,2.21,1.93,4.42c.63,1.44,1.26,2.89,1.9,4.33,4.27-2.26,23-13.09,27.12-30.55,2.32-9.76.09-20.57-6.27-30.43-7.65-11.85-20-20.69-32.37-23.08-6.26-1.21-9.21-1-13.11-.22a1,1,0,0,1-1.14-.75,1,1,0,0,1,.75-1.14c4.06-.85,7.32-1,13.86.21,12.82,2.48,25.71,11.65,33.63,23.93,6.66,10.31,9,21.65,6.53,31.93-4.16,17.5-22.85,29.49-29.07,32.3Zm-6.33-71.39,3.07,58.06c4.14-2.21,14.83-9.23,18-19C407.12,389.6,400.28,371.91,382.08,362.84Z"/><path class="cls-16" d="M340.93,340.06c-7.84-1.05-15.06,61.05-9.84,76.11.45,1.28,1.63,4.68,3.68,4.89,3.22.34,6.53-7.41,7.55-9.79,5.26-12.28,4.92-24.14,3.74-37.53C344.08,351.48,343.1,340.35,340.93,340.06Z"/><path d="M335,422l-.3,0c-2.66-.28-3.94-4-4.49-5.53-4.82-13.9.73-67.09,7.93-75.89a3.31,3.31,0,0,1,2.95-1.5h0c2.82.38,3.51,6.92,6,34.55,1.12,12.7,1.68,25.17-3.81,38C341.29,416.15,338.37,422,335,422Zm5.77-81c-.41,0-.89.5-1.14.81-6.77,8.29-12.16,60.87-7.59,74,.94,2.72,1.9,4.15,2.86,4.25.76,0,2.91-.66,6.56-9.2,5.32-12.43,4.77-24.63,3.66-37.08-1.62-18.3-2.79-31.56-4.35-32.81Z"/><path class="cls-16" d="M342.16,338.13c0-8.16,2-14.17-2-14.17s-3.51,5.35-3.51,13.51-6.11,16,3.51,16C348.72,353.5,342.16,346.28,342.16,338.13Z"/><path d="M340.2,354.46h0c-2.73,0-4.47-.6-5.48-1.86-1.52-1.92-.85-4.8-.07-8.13a31.69,31.69,0,0,0,1.07-7v-2.2c0-5.66,0-9.41,1.77-11.23a3.69,3.69,0,0,1,2.71-1.05,3.05,3.05,0,0,1,2.36.93c1.35,1.44,1.14,4.2.87,8-.14,1.85-.29,3.94-.29,6.19a27.56,27.56,0,0,0,1.41,7.56c.85,2.94,1.58,5.47.31,7.16C344,354,342.55,354.46,340.2,354.46Zm0-29.54a1.73,1.73,0,0,0-1.34.48c-1.25,1.26-1.23,5.06-1.21,9.86v2.21a32.74,32.74,0,0,1-1.13,7.44c-.66,2.84-1.23,5.3-.29,6.49.59.74,1.92,1.12,4,1.12h0c1.64,0,2.69-.28,3.11-.83.69-.92.08-3-.63-5.46a29.37,29.37,0,0,1-1.48-8.1c0-2.32.15-4.45.29-6.33.22-3.08.42-5.74-.35-6.56A1.16,1.16,0,0,0,340.19,324.92Z"/><path d="M335.61,520.15c-2,0-3.46-.52-4-1.75-1.42-3.09,4.23-7.65,10.54-10.57s13.45-4.26,14.87-1.18c.47,1,.43,2.77-2.44,5.41a32.23,32.23,0,0,1-8.09,5.15C342.66,519,338.58,520.15,335.61,520.15ZM353,506.83c-2.13,0-5.65.71-10.08,2.76-7.09,3.27-10.05,7-9.59,8s5.22,1.16,12.3-2.12a30.08,30.08,0,0,0,7.6-4.82c1.67-1.54,2.21-2.73,2-3.18S354.29,506.83,353,506.83Z"/><path d="M364.6,519.44c-2,0-3.46-.53-4-1.76-1.42-3.08,4.23-7.65,10.54-10.56s13.45-4.27,14.87-1.18c.47,1,.43,2.77-2.44,5.41a32,32,0,0,1-8.09,5.15C371.65,518.25,367.57,519.44,364.6,519.44ZM382,506.12a25.75,25.75,0,0,0-10.08,2.75c-7.09,3.28-10.06,7-9.6,8s5.23,1.15,12.31-2.12a29.9,29.9,0,0,0,7.6-4.82c1.67-1.54,2.21-2.73,2-3.18S383.28,506.12,382,506.12Z"/><rect class="cls-16" x="338.35" y="503.01" width="25.68" height="6.48"/><path d="M364,510.45H338.35a1,1,0,0,1-1-1V503a1,1,0,0,1,1-1H364a1,1,0,0,1,1,1v6.48A1,1,0,0,1,364,510.45Zm-24.71-1.93h23.74V504H339.32Z"/><path d="M366.77,429.05a39.55,39.55,0,0,1-8.74-1.29,1.93,1.93,0,1,1,.84-3.77c6.46,1.44,8.41,1.63,14.42.29a1.94,1.94,0,0,1,.84,3.78A33.79,33.79,0,0,1,366.77,429.05Z"/><path d="M386.52,510.45h0l-22-.64a1,1,0,0,1-.68-.31.93.93,0,0,1-.26-.69l2.91-81.06a1,1,0,0,1,1-.93,1,1,0,0,1,.93,1l-2.87,80.08,20,.59c-.36-13.57.44-25.64,1.22-37.33.78-11.89,1.6-24.18,1.18-38-.54-1.32-1.24-2.85-2-4.44-.91-2-1.84-4.07-2.6-6a1,1,0,0,1,1.79-.73c.74,1.85,1.67,3.9,2.57,5.89.76,1.67,1.49,3.29,2.06,4.66a.93.93,0,0,1,.07.33c.43,14-.39,26.38-1.19,38.36s-1.61,24.29-1.18,38.18a1,1,0,0,1-.28.71A1,1,0,0,1,386.52,510.45Z"/><rect class="cls-16" x="362.79" y="503.01" width="25.68" height="6.48"/><path d="M388.46,510.45H362.79a1,1,0,0,1-1-1V503a1,1,0,0,1,1-1h25.67a1,1,0,0,1,1,1v6.48A1,1,0,0,1,388.46,510.45Zm-24.71-1.93h23.74V504H363.75Z"/><path d="M359.94,504a1,1,0,0,1-.95-.77A140.48,140.48,0,0,1,364,427a1,1,0,1,1,1.82.65,138.52,138.52,0,0,0-4.92,75.2,1,1,0,0,1-.74,1.15Z"/><path d="M339.48,504a1,1,0,0,1-1-.79A126.86,126.86,0,0,1,337,466.4c2-18.59,7.66-35.36,12.36-44.85a1,1,0,0,1,1.3-.44,1,1,0,0,1,.43,1.29c-4.62,9.35-10.25,25.86-12.17,44.2a125.13,125.13,0,0,0,1.49,36.23,1,1,0,0,1-.77,1.13Z"/><polyline class="cls-16" points="211.06 270.3 211.06 263.47 252.41 263.47 252.41 287.61 211.06 287.61"/><path class="cls-23" d="M253.37,288.57H211.06a1,1,0,1,1,0-1.93h40.38v-22.2H212v5.86a1,1,0,0,1-1.93,0v-7.8h43.28Z"/><path d="M290.13,293.91h0l-22.62-.28.42-33.88,22.62.28a1,1,0,0,1,1,1,1,1,0,0,1-1,.95h0l-20.69-.25-.37,30,20.68.26a1,1,0,0,1,1,1A1,1,0,0,1,290.13,293.91Z"/><rect class="cls-16" x="276.77" y="249.01" width="41.35" height="24.13" transform="translate(591.64 525.83) rotate(-179.29)"/><path class="cls-23" d="M318.93,274.38l-43.28-.53.32-26.07,43.28.54Zm-41.33-2.44,39.42.49.27-22.2-39.41-.49Z"/><path d="M268.68,277.67h0l-11.16-.14a1,1,0,0,1-1-1,1,1,0,0,1,1-.95l11.16.13a1,1,0,0,1,0,1.94Z"/><polygon points="258.43 281.13 253.93 276.52 258.55 272.02 258.43 281.13"/><path d="M281.21,327.09a1,1,0,0,1-1-1v-9.27H202.88v9.27a1,1,0,1,1-1.93,0v-11.2h81.23v11.2A1,1,0,0,1,281.21,327.09Z"/><path class="cls-24" d="M244.51,376.23a1,1,0,0,1-1-1V366H166.18v7.29a1,1,0,0,1-1.93,0v-9.22h81.23v11.2A1,1,0,0,1,244.51,376.23Z"/><rect x="203.13" y="356.85" width="1.93" height="18.2"/><polygon points="204.1 357.82 208 357.82 204.1 353.92 200.2 357.82 204.1 357.82"/><rect class="cls-16" x="181.07" y="326.12" width="41.35" height="24.13"/><path class="cls-23" d="M223.39,351.22H180.11V325.16h43.28ZM182,349.29h39.42v-22.2H182Z"/><rect class="cls-16" x="260.53" y="326.12" width="41.35" height="24.13"/><path class="cls-23" d="M302.84,351.22H259.56V325.16h43.28Zm-41.34-1.93h39.41v-22.2H261.5Z"/><rect class="cls-16" x="230.01" y="375.26" width="28.99" height="16.92"/><path class="cls-23" d="M260,393.15H229.05V374.29H260Zm-29-1.93H258v-15H231Z"/><polygon points="231.22 294.33 235.13 294.33 231.22 290.43 227.32 294.33 231.22 294.33"/><polygon points="258.54 276.54 258.54 272.64 254.64 276.54 258.54 280.44 258.54 276.54"/><rect class="cls-16" x="150.72" y="374.08" width="28.99" height="16.92"/><path class="cls-23" d="M180.68,392H149.75V373.12h30.93Zm-29-1.93h27.06v-15H151.68Z"/><rect class="cls-16" x="190.19" y="375.26" width="28.99" height="16.92"/><path class="cls-23" d="M220.15,393.15H189.23V374.29h30.92Zm-29-1.93h27.06v-15H191.16Z"/><g class="cls-18"><path class="cls-19" d="M121.19,519.35c-9.44-.65-18.87-1.36-28.31-1.94-7.63-.48-13.49-.36-19.42,3.74-.15.11-.28.23-.43.35a18.79,18.79,0,0,0-5.51,3c-3.64,3-3.71,7.6,0,10.57,5.3,4.25,12.46,4.35,19.65,5q12.72,1.11,25.53,1.36c11.06.22,36.67,2.73,39.78-9.09C156,519,131.37,520,121.19,519.35Z"/></g><g class="cls-18"><path class="cls-19" d="M364.84,520c-9.44-.65-18.87-1.36-28.31-1.94-7.63-.47-13.49-.36-19.42,3.74-.15.11-.28.23-.43.35a18.79,18.79,0,0,0-5.51,3c-3.64,3-3.71,7.6,0,10.58,5.3,4.24,12.46,4.34,19.66,5q12.72,1.09,25.52,1.35c11.06.22,36.67,2.74,39.78-9.09C399.62,519.66,375,520.72,364.84,520Z"/></g></g><g id="CC_Laura_Henneke" data-name="CC Laura Henneke"><text class="cls-25" transform="translate(345.89 608.98)">Laura Henneke</text></g></svg>