<svg xmlns="http://www.w3.org/2000/svg" viewBox="0 0 453.54 705.83"><defs><style>.cls-1{fill:#fff;}.cls-2{fill:#0d0c0c;}.cls-3{fill:#070707;}.cls-4{opacity:0.3;}.cls-5{fill:#b6b6b7;}.cls-6{fill:#0e0d0d;}.cls-7{fill:#262525;}.cls-8{fill:#232222;}.cls-9{fill:#191818;}.cls-10{fill:#292828;}.cls-11{fill:#1e1d1d;}.cls-12{fill:#222121;}.cls-13{fill:#2b2a2a;}.cls-14{fill:#292929;}.cls-15{fill:#302f2f;}.cls-16{fill:#363535;}.cls-17{fill:#424141;}.cls-18{fill:#1f1e1e;}.cls-19{fill:#535353;}.cls-20{fill:#212020;}.cls-21{fill:#b7b7b7;}.cls-22{fill:#ffd120;}.cls-23{fill:#020202;}.cls-24{font-size:16px;font-family:PatrickHand-Regular, Patrick Hand;}</style></defs><g id="Artwork"><path class="cls-1" d="M373.33,319.34a14.43,14.43,0,0,0-14.24,17.05c-4.16-4.9-9.08-8.14-14.36-8.14s-10,3.13-14.15,7.88a14.47,14.47,0,1,0-14.28,12.18,14.37,14.37,0,0,0,7.83-2.32c-4,7.87-6.35,16.95-6.35,24.12a30.18,30.18,0,0,0,9.44,22.19,4.9,4.9,0,0,0-3.86,4.51c0,2.63,2.51,4.75,5.61,4.75s5.38-1.95,5.58-4.42a25.05,25.05,0,0,0,20.51-.07c.16,2.51,2.6,4.49,5.59,4.49s5.6-2.12,5.6-4.75a4.94,4.94,0,0,0-4-4.55,30.15,30.15,0,0,0,9.41-22.15c0-7.22-2.43-16.37-6.44-24.27a14.48,14.48,0,1,0,8.09-26.5Z"/><path class="cls-2" d="M360.65,402.49a6.47,6.47,0,0,1-6.28-4.12,26.06,26.06,0,0,1-19.15.05,6.5,6.5,0,0,1-6.25,4.07c-3.6,0-6.53-2.55-6.53-5.68a5.54,5.54,0,0,1,3.12-4.84,31.29,31.29,0,0,1-8.71-21.86c0-6.58,1.94-14.64,5.26-22a15.41,15.41,0,1,1,9.6-14.52c4.14-4.1,8.61-6.25,13-6.25s9,2.21,13.19,6.43A15.4,15.4,0,1,1,367.31,348c3.34,7.4,5.3,15.49,5.3,22.1A31.3,31.3,0,0,1,364,391.92a5.61,5.61,0,0,1,3.22,4.89C367.17,399.94,364.25,402.49,360.65,402.49Zm-4.75-6.81L356,397c.13,2,2.18,3.63,4.67,3.63s4.67-1.72,4.67-3.83a4,4,0,0,0-3.28-3.65l-1.64-.42,1.24-1.15a29.33,29.33,0,0,0,9.11-21.48c0-7.12-2.37-16-6.34-23.85l-1.61-3.18,3,2a13.55,13.55,0,1,0-6-11.25,12.74,12.74,0,0,0,.23,2.41l.61,3.4L358.38,337c-4.34-5.11-9.06-7.82-13.65-7.82s-9.17,2.62-13.45,7.57l-2.14,2.47.53-3.22a13.56,13.56,0,1,0-6,9.23l2.86-1.85-1.53,3c-3.92,7.78-6.26,16.64-6.26,23.7a29.33,29.33,0,0,0,9.15,21.51l1.22,1.13-1.6.44a4,4,0,0,0-3.18,3.62c0,2.11,2.1,3.83,4.68,3.83s4.49-1.57,4.66-3.57l.1-1.3,1.19.52a24.25,24.25,0,0,0,19.76-.06Z"/><path class="cls-3" d="M344.82,399.55c-15.38,0-27.88-13.51-27.88-30.12h1.85c0,15.59,11.68,28.27,26,28.27s26-12.68,26-28.27h1.85C372.69,386,360.19,399.55,344.82,399.55Z"/><path d="M345.13,359.51c-.59,0-1.66-.48-4-3a.77.77,0,0,1-.1-.93c.59-1.08,4.21-2.15,6.67-1.68a1.35,1.35,0,0,1,1.22.95c.33,1.38-2.14,3.5-3.05,4.22a.81.81,0,0,1-.48.37A1,1,0,0,1,345.13,359.51Zm-.08-.8h0ZM341.89,356c2.21,2.34,3,2.57,3.21,2.58a.69.69,0,0,1,.11-.13c1.47-1.15,3-2.77,2.81-3.34,0-.16-.36-.23-.49-.26A8.22,8.22,0,0,0,341.89,356Zm-.08-.09Z"/><path d="M340.33,352.36a2.61,2.61,0,1,1,2.8-2.61A2.72,2.72,0,0,1,340.33,352.36Zm0-4.29a1.7,1.7,0,1,0,1.88,1.68A1.79,1.79,0,0,0,340.33,348.07Z"/><path d="M349.4,352.36a2.61,2.61,0,1,1,2.79-2.61A2.72,2.72,0,0,1,349.4,352.36Zm0-4.29a1.69,1.69,0,1,0,1.87,1.68A1.79,1.79,0,0,0,349.4,348.07Z"/><path d="M344.93,363.26a.47.47,0,0,1-.46-.47v-3.44a.47.47,0,0,1,.93,0v3.44A.47.47,0,0,1,344.93,363.26Z"/><g class="cls-4"><path class="cls-5" d="M317.35,325.56c-10.09,0-10.09,15.64,0,15.64S327.43,325.56,317.35,325.56Z"/></g><g class="cls-4"><path class="cls-5" d="M379.7,326.81a7.88,7.88,0,0,0-11.05,0l-.53.52a7.82,7.82,0,1,0,11.06,11.06l.52-.52A7.89,7.89,0,0,0,379.7,326.81Z"/></g><path class="cls-2" d="M288.41,383.21a.94.94,0,0,1-.84-.53l-12.73-27.05a.92.92,0,0,1,1.67-.79l12.74,27.05a.93.93,0,0,1-.45,1.23A.89.89,0,0,1,288.41,383.21Z"/><path class="cls-2" d="M269.17,358.37l-4.7-9,11.95-6.23,4.7,9Zm-3.45-8.62,3.84,7.37,10.31-5.37L276,344.38Z"/><g class="cls-4"><rect class="cls-5" x="268.06" y="351.43" width="12.55" height="3.16" transform="translate(-132.1 166.76) rotate(-27.53)"/></g><path class="cls-2" d="M281.36,354.61l-6.91-13.25,4.69-2.44,6.9,13.25Zm-5.66-12.85,6.05,11.6,3.05-1.58-6.05-11.61Z"/><path class="cls-2" d="M266.37,362.43l-6.91-13.25,4.69-2.44,6.9,13.24Zm-5.66-12.86,6.05,11.61,3-1.59L263.75,348Z"/><circle class="cls-1" cx="311.59" cy="355.6" r="7.99"/><path class="cls-2" d="M311.61,364.06a8.75,8.75,0,0,1-1.34-.11,8.45,8.45,0,1,1,8.16-13.32h0a8.46,8.46,0,0,1-6.82,13.43Zm0-16A7.53,7.53,0,1,0,316,361.69a7.54,7.54,0,0,0,1.67-10.51h0A7.54,7.54,0,0,0,311.58,348.08Z"/><circle class="cls-1" cx="336.09" cy="321.94" r="7.99"/><path class="cls-2" d="M336.11,330.39a8.76,8.76,0,0,1-1.35-.1A8.46,8.46,0,1,1,342.93,317h0a8.46,8.46,0,0,1-1.88,11.81A8.36,8.36,0,0,1,336.11,330.39Zm0-16a7.53,7.53,0,1,0,6.1,3.11h0A7.52,7.52,0,0,0,336.08,314.41Z"/><circle class="cls-1" cx="352.81" cy="321.94" r="7.99"/><path class="cls-2" d="M352.82,330.39a8.46,8.46,0,1,1,4.95-1.61A8.36,8.36,0,0,1,352.82,330.39Zm0-16a7.43,7.43,0,0,0-4.41,1.44A7.53,7.53,0,0,0,357.23,328a7.53,7.53,0,0,0,1.67-10.51h0a7.45,7.45,0,0,0-4.91-3A6.94,6.94,0,0,0,352.79,314.41Z"/><circle class="cls-1" cx="377.85" cy="356.43" r="7.99"/><path class="cls-2" d="M377.87,364.88a8.45,8.45,0,0,1-5-15.29,8.44,8.44,0,0,1,11.8,1.87h0a8.46,8.46,0,0,1-1.87,11.81A8.45,8.45,0,0,1,377.87,364.88Zm0-16a7.43,7.43,0,0,0-4.41,1.44,7.53,7.53,0,1,0,11.86,7.27,7.45,7.45,0,0,0-1.35-5.6h0a7.48,7.48,0,0,0-4.91-3A8,8,0,0,0,377.84,348.9Z"/><circle class="cls-1" cx="380.1" cy="372.61" r="7.99"/><path class="cls-2" d="M380.11,381.06a8.45,8.45,0,1,1,6.83-13.42h0a8.45,8.45,0,0,1-6.83,13.42Zm0-16a7.53,7.53,0,1,0,6.1,3.11h0A7.52,7.52,0,0,0,380.09,365.08Z"/><circle class="cls-1" cx="310.65" cy="371.77" r="7.99"/><path class="cls-2" d="M310.66,380.22a8.73,8.73,0,0,1-1.34-.1,8.46,8.46,0,1,1,8.17-13.32h0a8.48,8.48,0,0,1-1.88,11.81A8.39,8.39,0,0,1,310.66,380.22Zm0-16a7.53,7.53,0,1,0,6.1,3.1h0A7.53,7.53,0,0,0,310.64,364.24Z"/><path class="cls-2" d="M288.17,380.76a.93.93,0,0,1-.26-1.82c2-.59,4.5-1.27,7.06-2,6.29-1.73,13.4-3.69,16.22-4.94,1.09-1.86,7.61-13,8.14-14.11a.92.92,0,0,1,1.57-.36,1,1,0,0,1,.14,1.06c-.06.14-7,13-8.87,14.85l.06.12c-2.77,1.3-9.88,3.27-16.76,5.17-2.56.7-5,1.38-7,2A.78.78,0,0,1,288.17,380.76Z"/><path class="cls-5" d="M354.92,358.11l-.08-.93.85-.08c12.78-1.35,21.3-1.5,25.33-.45l-.24.9c-2.69-.71-9.21-1.2-25,.47Z"/><path class="cls-5" d="M379.16,361.18c-2.56-1.07-8.94-2.47-24.79-3l-.9,0,.06-.93.87,0c12.84.45,21.29,1.49,25.12,3.1Z"/><path class="cls-5" d="M334.19,358.11l-.88-.09c-15.79-1.67-22.3-1.18-25-.47l-.23-.9c4-1,12.54-.9,25.32.45l.85.08Z"/><path class="cls-5" d="M309.94,361.18l-.36-.85c3.83-1.61,12.28-2.65,25.12-3.1l.87,0,.06.93-.89,0C318.88,358.71,312.5,360.11,309.94,361.18Z"/><path class="cls-6" d="M217.82,492h-1c.23-.09,0-.22,1-.22l10.9,0,4.95,0,5,0,6.93,0h1l4,0h2l12.88,0c2.69.08,7.87-.12,8.92.14l-7.93,0L251.51,492l-12.88,0C232,492,222.78,491.76,217.82,492Z"/><path class="cls-6" d="M204,492l-6.94,0-13.88-.06-14.86-.06-24.77-.11-16.85-.08-6.93,0v-.22c1.64.19,5.81.11,8.92.15l15.85.07,4,0,6.94,0,4,0,11.9.05h3l8.91,0,4,0,5.94,0c3-.06,8.54.18,9.91-.07C203.72,491.75,204.11,491.82,204,492Z"/><path class="cls-6" d="M113.77,491.33c.17.24-3.51,0-5,.09L92,491.34c1.06-.25,6.23,0,8.92-.07l7.93,0Z"/><path class="cls-6" d="M305,492c4,.08,10.53-.12,12.88.14l-9.91,0h-4C304.08,492,304.18,491.94,305,492Z"/><path class="cls-6" d="M361.5,492a10.85,10.85,0,0,1,2,.11H349.61v-.11H361.5Z"/><path class="cls-6" d="M344.66,491.93a30.13,30.13,0,0,1,4,.12h-2c-2.69-.08-7.87.13-8.92-.13h6.94Z"/><path class="cls-6" d="M375.38,491.85c2.37.07,7.19-.14,7.92.1h-5.94a30.85,30.85,0,0,1-4-.11Z"/><path class="cls-6" d="M367.45,489.73h-1c0-.11-.8-.13-1-.22h14.86c3.15.09-1.76.15-3,.12C374.34,489.69,368.82,489.48,367.45,489.73Z"/><path class="cls-6" d="M349.61,489.61c3,.08,8.54-.13,9.91.12H350.6l-10.9,0h-4c-4.31-.08-11.2.12-13.87-.14l14.86,0Z"/><path class="cls-7" d="M193,491.79l-5.94,0v-.45c.8,0,1,.12,2,.12-.16-.13.22-.2,1-.22.28.18-.94.19-1,.33,3.21.15.76-.35,4-.2C191.39,491.56,193.14,491.49,193,491.79Z"/><path class="cls-7" d="M183.13,491.75l-8.91,0c-1.3-.35.27-.31,0-.78h1c0,.26,1.71.33,1,.67,1.68.05,1.87-.08,2-.21a10.63,10.63,0,0,0,2-.33C182.78,491.12,183.73,491.35,183.13,491.75Z"/><path class="cls-8" d="M174.22,491.71h-3c1.38-.14,2-.95,3-.77C174.49,491.4,172.92,491.36,174.22,491.71Z"/><path class="cls-9" d="M331.77,492.13l-9.91,0v-.22h14.87C337.17,492.23,331.33,491.82,331.77,492.13Z"/><path class="cls-8" d="M274.3,492.09c-1.05-.26-6.23-.06-8.92-.14a31.33,31.33,0,0,1,4-.1h3c-1.07-.29-2.41-.55-2-1,2.57-.09-1.91-.5,1-.67-5.13,0-3.52.57-3,.77h-1c-.19-.09-1-.12-1-.23-.55-.25-1.54.13-3-.12a8.36,8.36,0,0,1,2-.21c.9.3,2.4-.23,3-.33-.73-.12-3.78.07-4-.34h6c.12.45,4.35.3,3,1.13-3-.18-3,.71,0,.55v.44a25,25,0,0,1,4,.13,7.87,7.87,0,0,0-2,.1Z"/><path class="cls-8" d="M196,491h2c.59.23-1.86.61,0,.34h1v.33l4,0c-1.37.25-6.89,0-9.91.07.1-.3-1.65-.23,0-.44-3.21-.15-.76.35-4,.2,0-.14,1.27-.15,1-.33v-.11A28.59,28.59,0,0,0,196,491Z"/><path class="cls-8" d="M178.18,491.4c-.11.13-.3.26-2,.21.72-.34-1-.41-1-.67-1.56-.47,6.43-.05,1-.11C175.46,491.17,179.62,491,178.18,491.4Z"/><path class="cls-7" d="M108.82,491.31c-.28-.18.93-.19,1-.33-3-.27-2-.79-3-1,.35-.18,1.75.1,2-.11,3.45.05-.08.3,2,.35a8.87,8.87,0,0,1-2,.21,8.5,8.5,0,0,0,2,.23c.88.09,5.53.58,5,.13,2.17,0,2.13.3,2,.57l-4,0Z"/><path class="cls-10" d="M102.87,491c.56.32,1.55-.17,3-.1-3.78-.33,1.47-.3-1-.67.24-.12,2-.07,2-.21,1,.22,0,.74,3,1-.06.14-1.27.15-1,.33l-7.93,0C101,491.1,100.76,490.89,102.87,491Z"/><path class="cls-8" d="M100.89,491.27c-2.69.06-7.86-.18-8.92.07-2-.08-6.51.11-6.93-.14,2-.06,6.5.16,6.93-.08h1c4.15.15,4.44-.15,4-.53h1c.68.22,5.9,0,5,.36C100.76,490.89,101,491.1,100.89,491.27Z"/><path class="cls-6" d="M92,491.12c-.43.24-4.88,0-6.93.08-10.84-.06-20.15-.29-31.71-.27-2.35-.27-8.9-.09-12.88-.18-.81-.1-2.72-.08-3-.23.4-.19,1.27,0,3,0,4.12.15,9.86,0,15.85.19l3,0h4c1.69.26,7.56.07,10.9.16l3,0c1.17.13,3.5.14,5.94.13l3,0Z"/><path class="cls-11" d="M310,491.86c-1.44.06-5.12-.14-5,.1-.84,0-.94,0-1,.11h-1c-.74-.25-5.56-.05-7.93-.13-.95-.44,5.56-.61,3-.88.36-.14,1.75-.17,2-.33h1c-.49.35,1.78.39,1,.78.85-.18,7.87.51,7.93-.21-2.39.31-5.85-.13-2-.67.77-.2,1.07.07,1,.23-2.49.26.8.11,3,.23C312.93,491.53,309,491.41,310,491.86Z"/><path class="cls-11" d="M287.18,491.58c-2,0-3.85-.72,1-.56-.76.1-1.06.25-1,.44,1.72-.27,2.56-.17,1,.12-.39.21,4.51.18,3-.1,1.34,0,.82.28,1,.44h-4C288.45,491.73,287.24,491.72,287.18,491.58Z"/><path class="cls-11" d="M270.34,490.86c-.43.45.91.71,2,1h-3c0-.29.37-.63-1-.78C269.43,491.05,269,490.85,270.34,490.86Z"/><path class="cls-11" d="M267.37,491c-1.26.46-1.54.46-2,.88-.8,0-1-.12-2-.12,1.52-.35.35-.49,0-.89,1.6,0,1.71-.1,3-.1C266.37,490.84,267.18,490.87,267.37,491Z"/><path class="cls-11" d="M250.52,491.9c1.28-.55-2.4-.56-2-1,.8,0,1,.12,2,.12.3.34,3.06.41,2,.9Z"/><path class="cls-11" d="M217.82,491.33h2c.28-.18-.93-.19-1-.34a1.8,1.8,0,0,1,1,0c.88.43,3-.63,3,0,1.56,0,.85-.35,4-.21v.11c2.28.05,1.1-.31,3-.32,2.12,0,1.89.17,2,.34v.22c-.84,0-.93,0-1-.11a10.78,10.78,0,0,0-2,.33c.42.21,2.83-.18,2,.34-1.7,0-2.57-.2-3,0-2.12,0-1.89-.17-2-.35-1.17,0-.84.2-1,.33l-5.94,0C218.07,491.46,215.85,491.58,217.82,491.33Z"/><path class="cls-9" d="M217.82,491.33c-2,.25.25.13,1,.34-.85,0-.94,0-1,.11-1,0-.77.13-1,.22L204.93,492c-1-.34,2.21-.19,4-.21v-.44c.83-.35,1.31.2,1,.34,2.15,0,.46-.4,1-.56h1a6.26,6.26,0,0,0,2,0c1.6,0,1.7.11,3,.12C217.67,491.2,217.76,491.27,217.82,491.33Z"/><path class="cls-7" d="M96.93,490.59c.47.38.18.68-4,.53.19-.09-.38-.1-1-.11,1.29-.15.62-.34-1-.45a13.42,13.42,0,0,1,3,0c1.54-.46-5.5,0-4-.46,1.6,0,1.7.11,3,.12-2-.43-.93-.54-2-1.12.47-.23-1.41-.21-3-.23a29.9,29.9,0,0,1,4-.09h3c1.13.14,1.12.4,1,.67-1.61,0-1.71-.11-3-.12-.78.38.93.49,3,.56C93.88,490.34,97.42,490.1,96.93,490.59Z"/><path class="cls-10" d="M86,491.09v-.33c2,0,3.1,0,3,.23,2.91-.08-.59-.36,0-.55,1.5-.3,1,.54,3,.57.61,0,1.18,0,1,.11H92Z"/><path class="cls-12" d="M342.67,491.93h-4c-.34-.22.2-.34,2-.33C342.81,491.55,342.58,491.75,342.67,491.93Z"/><path class="cls-12" d="M321.86,491.89c-2.25-.09-7.73.18-6.93-.24,2.38,0,2.15.21,4.95.12,1.73-.09,2.19-.34,2-.66.79.06,1.6.12,3,.12.89.33.89.35,0,.67Z"/><path class="cls-13" d="M315.92,490.88c-1.14.38-4.28.54-4.95,1h-1c-1-.45,3-.33,2-.77-2.18-.12-5.47,0-3-.23C311.91,490.77,313,490.77,315.92,490.88Z"/><path class="cls-10" d="M288.17,491c-.76.1-1.06.25-1,.44,1.72-.27,2.56-.17,1,.12-.39.21,4.51.18,3-.1,1.34,0,.82.28,1,.44h3c-.95-.44,5.56-.61,3-.88h-1c.17.28-2.22.26-3,.44v-.56h3c1.82-.13-.51-.73,4-.55v.34c-.49.35,1.78.39,1,.78.85-.18,7.87.51,7.93-.21-2.39.31-5.85-.13-2-.67.77-.2,1.07.07,1,.23,2.93-.09,4-.09,6.94,0a34.25,34.25,0,0,1,4.95.34,17.33,17.33,0,0,1-5.94.1v.33c2.38,0,2.15.21,4.95.12,1.73-.09,2.19-.34,2-.66.79.06,1.6.12,3,.12.27-.59-4.24,0-4-.56-1.64,0-.56-.31-2-.34-.17.16.35.41-1,.44,1-.62-1.54-.23-3-.45,1.07-.42,3.58-.25,4-.55h-3l-4.95,0a7.17,7.17,0,0,1-2,.11c-.54.16,1.15.58-1,.55a11,11,0,0,1-2-.11c5.11-.36-3.87-.55-8.91-.47h-4c-1.29.17-1.3.44,1,.22a25.09,25.09,0,0,1,3,.57c-1.75,0-5,.09-4-.24-2.73-.31-.93.16-3,.22-.58-.37.67-.52,1-.78l-11.89,0c0,.11.8.14,1,.23h-3c-.13.27-.16.53,1,.67l4-.21c.22.09,0,.22,1,.22.22-.08,0-.21,1-.21.18.39-2.34.47-4,.65-1.67-.31-5.06.38-3-.12-3.66,0-2.88.19-1,.33h-3v.55a25,25,0,0,1,4,.13c1.88,0,2.19-.12,4-.1-.09-.18-2.52-.09-2-.34,2.89.22,4.92.12,6.94.25.22-.09,0-.22,1-.22C285.2,491.54,283.33,490.86,288.17,491Zm5,.24c-.83.35-1.31-.2-1-.33-1,0-.77.13-1,.21-3.1-.08-1.67-.34,0-.44C292.62,490.8,293.28,491,293.13,491.26Z"/><path class="cls-11" d="M262.41,491.72c-1.25.34-3-.13-1-.23.28-.19-2.79-.56,0-.66C262,491.09,262.84,491.34,262.41,491.72Z"/><path class="cls-13" d="M261.42,491.49c-2,.1-.26.57,1,.23h1c1,0,1.18.1,2,.12.45-.42.73-.42,2-.88h1v.11c1.36.15,1,.49,1,.78a31.33,31.33,0,0,0-4,.1l-12.88,0c1.08-.49-1.68-.56-2-.9.61-.1,1.2-.19,0-.22a37.65,37.65,0,0,1,5.94-.2c-.27.18.94.19,1,.33-2,0-3.09,0-3-.23-5,.44,3,.58,4,.46A14.28,14.28,0,0,0,261.42,491.49Z"/><path class="cls-10" d="M240.61,490.86c3,0-1.74.47,1,.9a13.91,13.91,0,0,0-3,.1l-5,0v-.11c2.89.17,2.89-.49,0-.34.13-.14.16-.8-1-.44h-1c-.09-.17.14-.38-2-.34.28-.18-.93-.19-1-.34h1c.8-.06,1.61-.11,3-.1-.52.09-1,.17-1,.33,1.22-.12,2-.09,2,.12a38.8,38.8,0,0,1,4-.1c-.19-.09-1-.11-1-.23h2c1.84,0,.61-.37,2-.44h2a9.67,9.67,0,0,0,2,.12c.31.26-.16.43-1,.55a8.23,8.23,0,0,1-2,.22c-1.92-.3-5.56.41-5.94-.14-3.45.47,1.12.91,4,.79v-.55Z"/><path class="cls-10" d="M142.51,490.46c-.15-.13.17-.31-1-.34-.14.21-.65.37-2,.44V490c-2.33,0-.59.53-4,.43,1.36.57-2,.58-2,1a15.82,15.82,0,0,0,3-.21c.22.09,0,.22,1,.23.87-.39-2.55-.58,1-.66.08.71.51.24,2,0-.72.33,1.7.33,1,.67a18.39,18.39,0,0,1,3,.12l4,0c1-.37,4.15-.38,6.94-.3s-.7-.53,2-.44c2.29.21,3.63.43,2,.79l11.9.05c1.38-.14,2-.95,3-.77h1c-1.56-.47,6.43-.05,1-.11-.74.34,3.42.15,2,.57a10.63,10.63,0,0,0,2-.33c2.62.05,3.57.28,3,.68l4,0v-.45c.8,0,1,.12,2,.12-.16-.13.22-.2,1-.22v-.11a28.59,28.59,0,0,0,6-.08c-1.84-.38,3.56-.46,4-.21-2.14,0-.45.39-1,.55v.33l4,0c.77,0,1.16.1,1,.23h1c-1-.34,2.21-.19,4-.21v-.44c.83-.35,1.31.2,1,.34,2.15,0,.46-.4,1-.56h1c.15-.28-1.56-.35-2-.57a9.65,9.65,0,0,0,2-.1,21.42,21.42,0,0,1-3,0c-1,0-1.17.09-2,.1-.92-.27-1.81-.54-3-.79,0,.07-.15.13-1,.11v-.33h-3c3.88.27.2,1.14,4.95.68v.45c-1,0-1.18-.1-2-.12-.16.13.17.31-1,.33.51-.29-5.75-.4-2-.68.22.09,0,.22,1,.23.4-.27-1.81-.25-1-.56h-1c-.14.47-.65,0-2,0,.16.39-.27.71-2,.88-4.38-.12-2.24-.73-5-.24,0-.15-1.73-.11-2-.23a11.7,11.7,0,0,0,3-.21c-1.47-.11-2.13-.29-2-.57h-3c4.2.56,2,.52,0,1.11-3.85-.07-2.65-.88-5-.24-.14-.21-.65-.38-2-.46-.61.48,3.23.47,3,.91-2.33-.05-2.22-.36-4-.47-3.6.1-1-.48-3-.56-1.15,0-1.07-.18-1-.34h-1c-1.72.06.07.53-2,.55a1.72,1.72,0,0,0-1,0,39.45,39.45,0,0,0,4,.35c.23-.09,0-.22,1-.22-.44.39-3.17.34-3,.54-.08-.28-4.24-.13-3-.57h-1c.05.21-.76.23-2,.1-1.57.38-.12-1.08-3.95-.46a9.81,9.81,0,0,1,2,.12v.78c-.61,0-3.81-.29-4,0,1.64,0-.09.41-1,.44-1.38-.07-.15-.43-2-.45.06.19-.76.28-2,.32.06-.2-.76-.23-2-.12v-.44c-5.13.21-7.18-.32-4-.68h-2c-.6,0-1.17,0-1,.1.8,0,.33.7-1,.78-.17-.17.35-.41-1-.45-.23.08,0,.22-1,.21C143.28,490.33,143.48,490.46,142.51,490.46ZM202,491.6c-2.15,0-.45-.39-1-.56a7,7,0,0,0,2-.1C206.65,491.2,200.44,491.23,202,491.6Z"/><path class="cls-8" d="M92,491c-1.92,0-1.47-.87-3-.57-.59.19,2.91.47,0,.55.13-.2-1-.26-3-.23v.33l-3,0v-.55c3.28-.17,7.38-.25,7-.86-1.33.07-1.85.23-2,.44-2.33,0-.57-.49,0-.56,1.6,0,1.7.12,3,.13.41-.27-1.81-.25-1-.56h1c1.05.58,0,.69,2,1.12-1.27,0-1.37-.14-3-.12-1.54.46,5.5,0,4,.46a13.42,13.42,0,0,0-3,0C92.59,490.67,93.26,490.86,92,491Z"/><path class="cls-8" d="M74.14,490.92c.19-.09,1-.11,1-.22a1.81,1.81,0,0,0-1,0c-2.21-.06-.78-.59,0-.67,1.75.22.92.72,3,.91Z"/><path class="cls-14" d="M378.35,491.51c3.21.35-2.58.09-3,.34h-4c-.12-.19,1.22-.23,1-.44.81,0,1,.11,2,.11A30.33,30.33,0,0,1,378.35,491.51Z"/><path class="cls-12" d="M374.38,491.51c-1,0-1.17-.09-2-.11.23.21-1.11.25-1,.44h-6v-.55a11.44,11.44,0,0,0,3-.22c.92.12,3.65,0,3,.33,1.61.08,1.61-.52,0-.44C371.94,490.42,374.06,491.32,374.38,491.51Z"/><path class="cls-11" d="M325.83,491.9c.76-.1,1.06-.25,1-.44,3.22.35,0-.38,3,0,1.16,0,.84-.2,1-.33-2.39-.05-2.15.2-4.95.1a36.52,36.52,0,0,1,5.94-.21c2.86,0,1.72-.08,5-.21.8,0,1,.11,2,.11,2.63.42-1.9,0-2,.22-1.74-.16-2.26-.1-2,.22-1.78,0-2.09.13-4,.11v.33c1.22-.12,2-.09,2,.11Z"/><path class="cls-11" d="M314.93,491.65a16.5,16.5,0,0,1-3,0c.17.13-.21.2-1,.22.67-.44,3.81-.6,4.95-1a34.25,34.25,0,0,1,4.95.34,17.33,17.33,0,0,1-5.94.1Z"/><path class="cls-13" d="M241.6,491.76c-2.73-.43,2.05-.91-1-.9-.18-.09.39-.1,1-.1a8.23,8.23,0,0,0,2-.22c1.42,0,.34.33,2,.34v.34c-4.38,0,.09.27-1,.55a6,6,0,0,0-2,0Z"/><path class="cls-8" d="M227.73,491.71c.4-.19,1.27,0,3,0,.85-.52-1.56-.13-2-.34a10.78,10.78,0,0,1,2-.33c.06.07.15.13,1,.11v-.22h1c1.6.37-3.44.77,1,.78v.11l-4.95,0C228.9,491.73,228.33,491.71,227.73,491.71Z"/><path class="cls-7" d="M77.11,490.94c-2-.19-1.22-.69-3-.91-.78.08-2.21.61,0,.67a1.81,1.81,0,0,1,1,0c0,.11-.8.13-1,.22-3.34-.09-9.21.1-10.9-.16-.41-.27,1.81-.24,1-.55,4.85.29,4.42-.14,6.94.47a2.71,2.71,0,0,0,2-1.1,28,28,0,0,0,4,.36v.22c-.77,0-1.15.09-1,.21,1.28.23,4.81-.15,4,.47,4.09-.29,2.5-.8,5-1.09-.57-.36.68-.51,1-.77,1.42,0,.34.33,2,.34,1.37.42.15-.32,2-.21-.82.31,1.4.29,1,.56-1.27,0-1.37-.15-3-.13-.57.07-2.33.52,0,.56.13-.21.65-.37,2-.44.43.61-3.67.69-7,.86v.55C80.61,491.08,78.28,491.07,77.11,490.94Z"/><path class="cls-7" d="M56.3,490.72c-6-.17-11.73,0-15.85-.19,2.44-.08,4.29-.24,4-.65,1.47.17,2.13.37,2-.1,1,0,.77-.13,1-.21,1.16,0,.83.2,1,.33,1,0,.77-.13,1-.21.79,0,1-.11,2-.1.53.09,1,.18,1,.33a14.33,14.33,0,0,0,3-.09c1.16,0,.83.2,1,.34,1.17,0,.84-.2,1-.33,2.15,0,.44.39,1,.56C56.17,490.34,56.39,490.55,56.3,490.72Z"/><path class="cls-12" d="M392.22,491.6a30,30,0,0,1-4,.12,17.93,17.93,0,0,0,3,.1c-.74.26-5.55.06-7.93.13-.73-.24-5.55,0-7.92-.1.39-.25,6.18,0,3-.34a17.31,17.31,0,0,1,3,0c-.6.29,5.14.3,5.95,0-.42-.22-2.83.19-2-.33a28.8,28.8,0,0,0,4,0c-1.15.17-1.15.28,0,.45,2.69.07-.71-.53,2-.45v.33C391.05,491.59,391.62,491.59,392.22,491.6Z"/><path class="cls-15" d="M391.23,491.16c-2.69-.08.71.52-2,.45-1.15-.17-1.15-.28,0-.45a28.8,28.8,0,0,1-4,0c-.32-.29,5.55.09,4-.34.79.06,1.61.11,3,.1C392,491,391.23,491.05,391.23,491.16Z"/><path class="cls-11" d="M355.55,492v-.11a1.69,1.69,0,0,0-1,0c-2.91-.1,1.28-.28,0-.56-1.73.1-2.19.35-2,.67h-3c.48-.35-1.79-.39-1-.78a6.16,6.16,0,0,1-2,0v-.22c2,.22,1.94-.05,4-.11h1c0,.47,2.58.31,3,0h1c.43.23-.67.29-1,.44a27.17,27.17,0,0,1,4.95-.11h1c-.19.09-1,.11-1,.22,1.12.13,2.83.2,2,.55Z"/><path class="cls-13" d="M346.64,491.05v.11a6.16,6.16,0,0,0,2,0c-.8.39,1.47.43,1,.78v.11h-1a30.13,30.13,0,0,0-4-.12c0-.29-.38-.63,1-.77C343.47,490.81,343.61,490.8,346.64,491.05Z"/><path class="cls-13" d="M335.74,491.92c-.49-.35,1.78-.39,1-.78.08-.21,4.61.2,2-.22-1.19-.14-.38-.17,0-.33,1.13,0,.55.11,0,.11.25.12,2,.08,2,.23v.44c.85,0,.94,0,1-.11,2.87.07-1.52.17-1,.33-1.78,0-2.32.11-2,.33h-3Z"/><path class="cls-10" d="M360.51,491.18c1.12,0,.55.11,0,.11a24,24,0,0,0,3,0c.55.16-1.15.57,1,.55h4v.23h-5a10.85,10.85,0,0,0-2-.11c.85-.35-.86-.42-2-.55C359.52,491.29,360.32,491.27,360.51,491.18Z"/><path class="cls-12" d="M297.09,491.05c.17.28-2.22.26-3,.44v-.56h3Z"/><path class="cls-7" d="M278.27,490.66l4-.21c.22.09,0,.22,1,.22.22-.08,0-.21,1-.21.18.39-2.34.47-4,.65-1.67-.31-5.06.38-3-.12-.19-.09-1-.12-1-.23C276.24,490.48,277,490.63,278.27,490.66Z"/><path class="cls-11" d="M216.83,491.22c-1.27,0-1.37-.15-3-.12-1,0-.77-.14-1-.23,1,0,.78-.13,1-.22,1.16,0,.83.21,1,.34,1.17,0,.85-.2,1-.33h1C216.94,490.94,218.69,491,216.83,491.22Z"/><path class="cls-11" d="M196,491c-1.84-.38,3.56-.46,4-.21-2.14,0-.45.39-1,.55h-1c-1.86.27.59-.11,0-.34Z"/><path class="cls-16" d="M393.21,490.93c-.44.21,1.35.67-2,.56v-.33c0-.11.8-.14,1-.23v-.11C393.06,490.8,393.16,490.86,393.21,490.93Z"/><path class="cls-13" d="M381.32,491v.55a17.31,17.31,0,0,0-3,0,30.33,30.33,0,0,0-4,0c-.32-.19-2.44-1.09-3-.55v.11c-1.69,0-1.87-.09-2-.23-1.47.13-4.42.1-4,.45v.55h-1v-1.11c.81,0,1,.11,2,.11,1.82-.16,2.46-.46,5-.55,2.11,0,1.89-.16,2-.33,1.34.11,1.28.37,3,.44v.22c-1.61,0-1.71-.1-3-.11,0,.19.74.29,2,.34a4.66,4.66,0,0,0,2,.11c2,.22,1.94,0,4-.11Z"/><path class="cls-12" d="M364.47,491.84c-2.14,0-.44-.39-1-.55a24,24,0,0,1-3,0c.55,0,1.12-.09,0-.11h-1c.08-.17-.47-.42,1-.44-.33.22.21.35,2,.33,2.18-.11-.64-1,2-.33Z"/><path class="cls-13" d="M350.6,490.83c-2,.06-1.94.33-4,.11s2.27-.53-3-.45v-.11c1.16,0,.83-.2,1-.33,1.32.27,3.69-.12,4,.11,1.33-.07,1.85-.23,2-.44h2a9.67,9.67,0,0,0,2,.12c-4.35.26.09.38,1,.67-.83,0-.93-.05-1-.12C352.05,490.4,350.73,490.55,350.6,490.83Z"/><path class="cls-10" d="M270.34,490.86c-1.31,0-.91.19-2,.21V491c-.55-.2-2.16-.76,3-.77C268.43,490.36,272.91,490.77,270.34,490.86Z"/><path class="cls-11" d="M258.45,491.15c-1,.12-9,0-4-.46-.12.2,1,.27,3,.23S259.82,491.15,258.45,491.15Z"/><path class="cls-13" d="M128.64,490.29c1.19-.23,4.67-.2,5-.53,1.1-.17-.27.63,1,1-3.08-.36-1.67.37-2,.66-1.43,0-.34-.34-2-.34v-.34c-.61.15-3.81,0-4,.21-.93-.07-1.5-.32-2-.12C122,490.61,125.32,490.17,128.64,490.29Z"/><path class="cls-8" d="M110.8,490.65c0-.28.74-.13,2-.1v-.45a7.26,7.26,0,0,0-2,.11c-2.06,0,1.47-.3-2-.35-.23.21-1.63-.07-2,.11,0,.14-1.74.09-2,.21-1,0-.77-.14-1-.23l-4,.21h-1c-.54-.16,1.16-.57-1-.56s1.28.29,0,.56-1.11-.31-1-.45c-1,0-.78.13-1,.21-2-.07-3.75-.18-3-.56,1.27,0,1.37.14,3,.12.13-.27.14-.53-1-.67,3.33.09,9.2-.1,10.9.16-2.15,0-.45.39-1,.55,2.17.08,3.16-.3,3,.13,3-.12-.52-.45-2-.46.19-.09,1-.1,1-.21l11.89,0c1.69.26,7.56.08,10.9.16-.33.26-1,.56-3,.32-.82.31,1.4.3,1,.56v.11c-2.16,0-3.15-.1-3-.34-1.75,0-2.26.18-2,.43-2.39,0-2.16-.21-5-.13-.42-.24.68-.29,1-.44-2.54.22-8.8.89-3,1.09C116.33,491.23,111.68,490.74,110.8,490.65Z"/><path class="cls-10" d="M99.9,490.16c.28.2-.93.22-1,.1-1.16,0-.83.2-1,.33h-1c.49-.49-3.05-.25-1-.68.22-.08,0-.21,1-.21-.13.14-.16.8,1,.45s-2.21-.55,0-.56.44.4,1,.56Z"/><path class="cls-7" d="M79.1,489.61c3,.05,4,.65,2,.9-3.6-.09,2.31-.51-1-.56C80.37,489.77,79.15,489.75,79.1,489.61Z"/><path class="cls-11" d="M36.49,490.18c-.13-.28-.15-.54,1-.66,1.73.17-.88.45,3,.57C39.59,490.4,39,490.2,36.49,490.18Z"/><path class="cls-10" d="M45.41,489c-3.26-.08-1.41-.43-1-.67h-2a11.12,11.12,0,0,0-3,.21c-1,.14-2.65.2-4,.31-.59.23,1.22.73-1,.77v.56c2.29,0,1.11.32,3,.35.4-.19,1.27,0,3,0,2.44-.08,4.29-.24,4-.65,1.47.17,2.13.37,2-.1-.72-.06-4.65-.1-2-.45-.06-.07-.15-.13-1-.12-2.38.13.54.88-2,1,.48-.34-1.41-.44-2-.67,3.59.12.83-.5,4-.43A9.47,9.47,0,0,0,45.41,489Zm-8.92,1.18c-.13-.28-.15-.54,1-.66,1.73.17-.88.45,3,.57C39.59,490.4,39,490.2,36.49,490.18Z"/><path class="cls-10" d="M216.83,490.66h-1c-.15.13.17.32-1,.33-.15-.13.18-.32-1-.34-.22.09,0,.22-1,.22.9-.35,3-.48,1-.88v-.34c2.79,0,2.86.29,3,.57-2.41.19-.53.41,2,.23C219.18,490.64,218,490.66,216.83,490.66Z"/><path class="cls-13" d="M160.35,490.54c1.64,0-.09.41-1,.44-1.38-.07-.15-.43-2-.45.06.19-.76.28-2,.32.06-.2-.76-.23-2-.12v-.44A33.94,33.94,0,0,1,160.35,490.54Z"/><path class="cls-6" d="M416.84,489.48c-.14.13.24.19,1,.19-2.37.23-3.39.59-2.81,1.08-2.5.06-2.42.32-4,.41h-1c0-.11.79-.14,1-.23,2.07-.1,3-.39,2.95-.72C415.41,490,415.26,489.67,416.84,489.48Z"/><path class="cls-16" d="M397.17,490.7a19.48,19.48,0,0,0,4,.76h-2c-.74-.17-4.85,0-4-.32C395.33,490.94,395.84,490.78,397.17,490.7Z"/><path class="cls-11" d="M371.41,491c1.61-.08,1.61.52,0,.44.68-.3-2.05-.21-3-.33a11.44,11.44,0,0,1-3,.22c-.45-.35,2.5-.32,4-.45.11.14.29.27,2,.23Z"/><path class="cls-13" d="M324.84,491.23c.27-.59-4.24,0-4-.56,0-.92.85-.26,2,.11.84,0,.93,0,1-.11,2.25,0,3.72,0,4-.21,1.34,0,.81.28,1,.45,1.64-.11,1.08-.47,2-.67a10.77,10.77,0,0,0,2-.33,11.35,11.35,0,0,1,2,.34c-.79.28-2.85.42-3,.77a36.52,36.52,0,0,0-5.94.21c2.8.1,2.56-.15,4.95-.1-.15.13.17.32-1,.33-3-.38.25.35-3,0,.07.19-.23.34-1,.44h-1C325.73,491.58,325.73,491.56,324.84,491.23Z"/><path class="cls-11" d="M293.13,491.26c-.83.35-1.31-.2-1-.33-1,0-.77.13-1,.21-3.1-.08-1.67-.34,0-.44C292.62,490.8,293.28,491,293.13,491.26Z"/><path class="cls-7" d="M226.74,490.81c-3.12-.14-2.41.17-4,.21,0-.64-2.09.42-3,0a1.8,1.8,0,0,0-1,0c.06.15,1.27.16,1,.34h-2c-.06-.06-.15-.13-1-.11,1.86-.21.11-.28,0-.56,1.21,0,2.35,0,2-.21-2.51.18-4.39,0-2-.23a27.69,27.69,0,0,1,4,0V490a23.34,23.34,0,0,0-3,0c-.12-.2,1.22-.23,1-.44l5.94,0c1.65.23-.09.15,0,.45C222.69,490.6,230.3,490.41,226.74,490.81Z"/><path class="cls-7" d="M211.88,491.09c.15-.28-1.56-.35-2-.57a9.65,9.65,0,0,0,2-.1,21.42,21.42,0,0,1-3,0c-.17-.24.82-.35,3-.32v-.45c1.43,0,.34.34,2,.35,2,.4-.1.53-1,.88.23.09,0,.22,1,.23A6.26,6.26,0,0,1,211.88,491.09Z"/><path class="cls-7" d="M60.27,489.08c1.74-.21,3.45.21,3-.32,1.82-.37-.53.63,4,.35-.49.75-2,.47,1,1a9,9,0,0,0-2,0c-1-.24-4.61-1-4-.13-1.63,0-.55-.31-2-.34Z"/><path class="cls-17" d="M403.12,490.45c-.47.22,2.67.55,3,.31,2.38-.06-.54.51,3,.31a10.54,10.54,0,0,1-3,0,31.31,31.31,0,0,1-4.95.37,19.48,19.48,0,0,1-4-.76c-.42-.23.68-.3,1-.45l4,0C402.35,490.32,402.16,490.45,403.12,490.45Z"/><path class="cls-15" d="M397.17,490.7c-1.33.08-1.84.24-2,.45-1.31,0-.9-.19-2-.22,0-.07-.15-.13-1-.11-.18-.09.39-.1,1-.11.77,0,1.15.09,1,.22,2.33,0,.6-.49-1-.44.78-.42,3.47,0,5-.24C397.85,490.4,396.75,490.47,397.17,490.7Z"/><path class="cls-10" d="M360.51,489.73v.89c-2.46,0-3.07.17-5,.22h-1c-.4.3-3,.46-3,0h-1c.13-.28,1.45-.43,4-.44.05.07.15.14,1,.12-.89-.29-5.33-.41-1-.67a9.67,9.67,0,0,1-2-.12h7.92Z"/><path class="cls-7" d="M266.37,490.73c-1.26,0-1.37.14-3,.1.35.4,1.52.54,0,.89h-1c.43-.38-.39-.63-1-.89,3.63-.17-2.3-.18-1-.45v-.56c1.88.09.69.34,3,.13.51.16,1.46.28,2,.45a8.36,8.36,0,0,0-2,.21C264.83,490.86,265.82,490.48,266.37,490.73Z"/><path class="cls-8" d="M245.57,490.77v.11c-1.64,0-.56-.31-2-.34.83-.12,1.3-.29,1-.55a9.67,9.67,0,0,1-2-.12v-.22l15.85.06c-1.36.13-1,.48-1,.77-1.65-.15-1.54-.5-3-.68-3.16-.07-3.07.2-5,0,1.11.35.09.25,0,.66-1.47-.16-2.13-.36-2,.11-1,0-.77-.14-1-.23C245.22,490.36,245.74,490.6,245.57,490.77Z"/><path class="cls-11" d="M241.6,490.76c-.6,0-1.17,0-1,.1h-1v.55c-2.84.12-7.41-.32-4-.79C236,491.17,239.68,490.46,241.6,490.76Z"/><path class="cls-8" d="M197,489.81c.16.39-.27.71-2,.88-4.38-.12-2.24-.73-5-.24,0-.15-1.73-.11-2-.23a11.7,11.7,0,0,0,3-.21c-1.47-.11-2.13-.29-2-.57l10.9.05c3.88.27.2,1.14,4.95.68v.45c-1,0-1.18-.1-2-.12-.16.13.17.31-1,.33.51-.29-5.75-.4-2-.68.22.09,0,.22,1,.23.4-.27-1.81-.25-1-.56a64.31,64.31,0,0,0-7.93-.14A21.77,21.77,0,0,0,197,489.81Z"/><path class="cls-8" d="M170.26,489.92a39.45,39.45,0,0,0,4,.35c.23-.09,0-.22,1-.22-.44.39-3.17.34-3,.54-.08-.28-4.24-.13-3-.57C170.11,490.05,170.21,490,170.26,489.92Z"/><path class="cls-12" d="M389.25,490.83h-1c-.42-.23.69-.29,1-.45-3.34-.1-1.54.35-2,.56a21.06,21.06,0,0,0-4,0c-.4.27,1.81.24,1,.56-4.17.18-.17-.58-3-.55v-.11c.8-.07,1.61-.12,3-.12a18.57,18.57,0,0,0-5-.88,79,79,0,0,1,7.92-.24c-1.54.39.8.65,3,.77a4.63,4.63,0,0,0,2,.11c.78,0,1.15.09,1,.22-.6,0-1.17,0-1,.11v.11C390.86,490.94,390,490.89,389.25,490.83Z"/><path class="cls-10" d="M340.69,490.93c0-.15-1.73-.11-2-.23.55,0,1.13-.09,0-.11-.38.16-1.19.19,0,.33-1,0-1.18-.09-2-.11v-.22c-.84,0-.93,0-1,.11-1.35,0-.82-.28-1-.45a11.35,11.35,0,0,0-2-.34v-.11a14.73,14.73,0,0,0,3-.1h4c.72.3,3.57.35,4,.68v.11c5.24-.08.93.29,3,.45v.11c-3-.25-3.17-.24-1,.11C342.59,491.24,344.44,490.77,340.69,490.93Z"/><path class="cls-8" d="M166.29,490.12c-1.57.38-.12-1.08-3.95-.46a9.81,9.81,0,0,1,2,.12v.78c-.61,0-3.81-.29-4,0a33.94,33.94,0,0,0-6.94-.25c-5.13.21-7.18-.32-4-.68h-2c-.6,0-1.17,0-1,.1.8,0,.33.7-1,.78-.17-.17.35-.41-1-.45-.23.08,0,.22-1,.21-2.43-.28.74-.47,0-.88-1.47.08-2.13.27-2,.54a7.87,7.87,0,0,0-2,.1c-2.33,0-.59.53-4,.43,1.36.57-2,.58-2,1a15.82,15.82,0,0,0,3-.21c.22.09,0,.22,1,.23.87-.39-2.55-.58,1-.66.08.71.51.24,2,0-.72.33,1.7.33,1,.67a18.39,18.39,0,0,1,3,.12l-15.85-.07c.42-.17,3.11-.08,2-.43,1.64,0,.55.31,2,.34.31-.29-1.1-1,2-.66-1.25-.37.12-1.17-1-1-.29.33-3.77.3-5,.53v-.22c.55-.07,4-.32,1-.44a20.85,20.85,0,0,1,3,0c.73-.3-2-.23-2-.45h2c.45.29,7.15.83,5.94,0l16.85.08a3.75,3.75,0,0,0,2,.56c1.77,0,2-.09,1-.1a13.33,13.33,0,0,1,3,0c.69-.62-4.17.05-4-.46l8.92,0Z"/><path class="cls-12" d="M141.52,490.12c-.14.21-.65.37-2,.44V490a7.87,7.87,0,0,1,2-.1Z"/><path class="cls-7" d="M138.55,489.22c1.21.81-5.49.27-5.94,0,3,.09,3.61-.1,5.94-.09Z"/><path class="cls-10" d="M71.17,490.13c-1.15.35-1.12-.3-1-.45-.85,0-.94,0-1,.11-3.48-.21,2.31-.32,3-.1C71.39,489.78,71.09,489.94,71.17,490.13Z"/><path class="cls-10" d="M59.27,490.74v-1c-.12-.19-4.23.1-4-.36-1.48.1-1.6.8-2,.11-.81,0-1,.1-2,.1s-1.18.08-2,.1c.6-.1,2.3-.4-1-.34v-.22c2.42,0,.21-.37-1-.34.11-.21,3.31.15,5.94,0v.55l3-.65c2.56-.22-2.32.61,4,.36v.55c-.16.46-.35.93,2,1.12Z"/><path class="cls-12" d="M403.11,489.67c2.61-.31.78.17,4,.08-2,.23-.47.53,0,.78,2.8.07,2.57-.18,5-.15-2.56-.18-1.7-.76-3-1.09a31,31,0,0,0,3.95.19c-3.69.22.29.48,1,.74.07.33-.88.62-2.95.72-1,0-1.18.1-2,.13-3.52.2-.6-.37-3-.31-.3.24-3.44-.09-3-.31C404.42,490.09,402.85,490.13,403.11,489.67Z"/><path class="cls-10" d="M375.38,490.85c3,0,2-.52,5.94-.45.27.37-3.84.24-4,.56A4.66,4.66,0,0,1,375.38,490.85Z"/><path class="cls-8" d="M276.29,490.76h-2c.31-.41-.15-.73-1-1l5.95,0c0,.11.8.14,1,.23h-3c-.13.27-.16.53,1,.67C277,490.63,276.24,490.48,276.29,490.76Z"/><path class="cls-7" d="M236.65,490.29c0,.12.8.14,1,.23a38.8,38.8,0,0,0-4,.1c0-.21-.77-.24-2-.12,0-.16.47-.24,1-.33-1.36,0-2.17,0-3,.1.1-.3-1.65-.23,0-.45,1.31.05,1.56.21,3,.24a16.39,16.39,0,0,1,3,0C234.31,490.12,232.46,490.17,236.65,490.29Z"/><path class="cls-13" d="M226.74,490.81c3.56-.4-4.05-.21-2-.78,1,0,.77.14,1,.22,2.14-.32.84-.33,3,0,.05.15,1.26.16,1,.34-1.87,0-.69.37-3,.32Z"/><path class="cls-8" d="M208.9,490.41c-1,0-1.17.09-2,.1-.92-.27-1.81-.54-3-.79,0,.07-.15.13-1,.11v-.33l15.86.06c.22.21-1.12.24-1,.44a23.34,23.34,0,0,1,3,0v.23a27.69,27.69,0,0,0-4,0c-.11-.28-.18-.57-3-.57V490c-1.64,0-.55-.31-2-.35v.45C209.72,490.06,208.73,490.17,208.9,490.41Z"/><path class="cls-8" d="M77.11,490.16c-.77,0-1.15.09-1,.21,1.28.23,4.81-.15,4,.47,4.09-.29,2.5-.8,5-1.09-2.61-.36-1.23-.79,2-1v-.11l-7.93,0c.19-.09,1-.1,1-.21h-1c-.75.25-5.56,0-7.93.07,0,.07.14.13,1,.12,2.26,0,3.72,0,4,.24-1.37,0-2.18-.06-3-.13-.55.16,1.15.58-1,.56-.16-.14.17-.32-1-.34-.16.13.17.31-1,.33v-.45c-3.17,0-3.07-.22-5,0v-.34c-2.37-.08-4.52-.18-7.93-.15.18.28-2.22.26-3,.43.72-.48-2,.08-2-.23-3.18.21-4.33-.12-6.94.08v-.34a18.07,18.07,0,0,0-3,.1h2c-.42.24-2.27.59,1,.67,1.36,0,2.18.06,3,.13,2.42,0,.21-.37-1-.34.11-.21,3.31.15,5.94,0v.55l3-.65c2.56-.22-2.32.61,4,.36,1.74-.21,3.45.21,3-.32,1.82-.37-.53.63,4,.35-.49.75-2,.47,1,1a9,9,0,0,0-2,0c-1-.24-4.61-1-4-.13-1.63,0-.55-.31-2-.34-.16.46-.35.93,2,1.12h1c-.41-.27,1.81-.24,1-.55,4.85.29,4.42-.14,6.94.47a2.71,2.71,0,0,0,2-1.1,28,28,0,0,0,4,.36c2.06.1.28-.76,2-.33,3,.05,4,.65,2,.9-3.6-.09,2.31-.51-1-.56C78,490,79.85,490.47,77.11,490.16Zm-5.94,0c-1.15.35-1.12-.3-1-.45-.85,0-.94,0-1,.11-3.48-.21,2.31-.32,3-.1C71.39,489.78,71.09,489.94,71.17,490.13Z"/><path class="cls-8" d="M56.3,490.72c.09-.17-.13-.38,2-.32-.54-.17,1.17-.57-1-.56-.16.13.17.31-1,.33-.15-.14.18-.32-1-.34a14.33,14.33,0,0,1-3,.09c0-.15-.46-.24-1-.33,1,0,1.18-.09,2-.1.38.69.5,0,2-.11-.27.46,3.84.17,4,.36v1Z"/><path class="cls-8" d="M49.38,489.69c-.23.08,0,.22-1,.21-.16-.13.17-.31-1-.33-.22.08,0,.22-1,.21-.72-.06-4.65-.1-2-.45l4,0C51.68,489.29,50,489.59,49.38,489.69Z"/><path class="cls-10" d="M371.41,490.29c-2.49.09-3.13.39-5,.55-1,0-1.18-.09-2-.11-2.62-.63.2.22-2,.33-1.77,0-2.31-.11-2-.33.83-.13,1.31-.3,1-.55.73.17,4.85,0,4,.33,2.14,0,.45-.39,1-.56,2.38,0,2.15.21,5,.12Z"/><path class="cls-7" d="M128.64,490.07h-1c.41-.26-1.81-.25-1-.56,2,.24,2.65-.06,3-.32h1c0,.22,2.7.15,2,.45a20.85,20.85,0,0,0-3,0C132.67,489.75,129.19,490,128.64,490.07Z"/><path class="cls-10" d="M330.78,490.24c-.9.2-.34.56-2,.67-.17-.17.36-.41-1-.45-.25.2-1.72.25-4,.21A26.26,26.26,0,0,1,330.78,490.24Z"/><path class="cls-11" d="M294.12,490a25.09,25.09,0,0,1,3,.57c-1.75,0-5,.09-4-.24C294.3,490.36,294,490.17,294.12,490Z"/><path class="cls-8" d="M238.63,490.3h-2c-4.19-.12-2.34-.17-1-.22.84,0,.94,0,1-.11C238.77,489.92,238.54,490.13,238.63,490.3Z"/><path class="cls-10" d="M265.38,490.4c-.51-.17-1.46-.29-2-.45-.19-.1-1-.12-1-.23h2c.19.41,3.24.22,4,.34C267.78,490.17,266.28,490.7,265.38,490.4Z"/><path class="cls-7" d="M242.6,489.87h-2c-1.37.07-.14.43-2,.44-.09-.17.14-.38-2-.34-.35-.15-1.75-.18-2-.34l7.93,0Z"/><path class="cls-7" d="M166.29,490.12v-.78l6.94,0c-1.72.06.07.53-2,.55a1.72,1.72,0,0,0-1,0c0,.06-.15.13-1,.1h-1C168.33,490.23,167.52,490.25,166.29,490.12Z"/><path class="cls-9" d="M34.51,489.61c-2.41-.53.44-1,4-1.2.06.07.14.13,1,.12-1,.14-2.65.2-4,.31C34.91,489.07,36.72,489.57,34.51,489.61Z"/><path class="cls-7" d="M320.88,490.67c-1.64,0-.56-.31-2-.34-.17.16.35.41-1,.44,1-.62-1.54-.23-3-.45,1.07-.42,3.58-.25,4-.55l13.87,0v.11a10.77,10.77,0,0,1-2,.33,26.26,26.26,0,0,0-6.93.43c-.06.07-.15.14-1,.11C321.73,490.41,320.85,489.75,320.88,490.67Z"/><path class="cls-10" d="M259.44,489.71c.57.2-1.2.65,1,.67-1.31.27,4.62.28,1,.45-2.79.1.28.47,0,.66a14.28,14.28,0,0,1-3-.34c1.37,0,1-.28-1-.23-.05-.14-1.26-.15-1-.33a37.65,37.65,0,0,0-5.94.2c1.2,0,.61.12,0,.22-1,0-1.18-.09-2-.12-.42.45,3.26.46,2,1l-4,0c1.67-.23.15-.83-1-1.11.17-.17-.35-.41,1-.44.22.09,0,.22,1,.23-.15-.47.51-.27,2-.11.09-.41,1.11-.31,0-.66,1.89.21,1.8-.06,5,0,1.43.18,1.32.53,3,.68,0-.29-.37-.64,1-.77Z"/><path class="cls-10" d="M157.38,489.31c-.21.51,4.65-.16,4,.46a13.33,13.33,0,0,0-3,0c1,0,.78.14-1,.1a3.75,3.75,0,0,1-2-.56Z"/><path class="cls-12" d="M48.39,489.35l-4,0c-.06-.07-.15-.13-1-.12v-.11a9.47,9.47,0,0,0,2-.1c1.36,0,2.18.06,3,.13Z"/><path class="cls-15" d="M392.22,489.49c2.95-.14,1.27.8,3,.44,2.93.15-3.08.24-4,.34-.05-.19.73-.29,2-.34C393.34,489.73,392,489.7,392.22,489.49Z"/><path class="cls-8" d="M311,489.75a7.17,7.17,0,0,1-2,.11c-.54.16,1.15.58-1,.55a11,11,0,0,1-2-.11c5.11-.36-3.87-.55-8.91-.47C299.77,489.58,306.65,489.81,311,489.75Z"/><path class="cls-7" d="M293.13,490.37c-2.73-.31-.93.16-3,.22-.58-.37.67-.52,1-.78h2c-1.29.17-1.3.44,1,.22C294,490.17,294.3,490.36,293.13,490.37Z"/><path class="cls-7" d="M197,489.81a21.77,21.77,0,0,1-5-.13,64.31,64.31,0,0,1,7.93.14h-1C198.86,490.28,198.35,489.83,197,489.81Z"/><path class="cls-7" d="M106.85,489c0,.11-.81.12-1,.21,1.46,0,5,.34,2,.46.19-.43-.8-.05-3-.13.55-.16-1.15-.58,1-.55Z"/><path class="cls-10" d="M88,489.32c-1.64,0-.56-.31-2-.34-.32.26-1.57.41-1,.77-2.61-.36-1.23-.79,2-1C86.62,489,88.84,489,88,489.32Z"/><path class="cls-12" d="M376.37,490.4c-1.7-.07-1.64-.33-3-.44-.09.17.13.38-2,.33v-.22c1.22-.05,2-.14,2-.34h3c1.27.26-.13.2,1,.55C377.54,490.39,377,490.4,376.37,490.4Z"/><path class="cls-8" d="M350.6,489.72c-.13.21-.65.37-2,.44-.27-.23-2.64.16-4-.11-.16.13.17.31-1,.33-.4-.33-3.25-.38-4-.68Z"/><path class="cls-11" d="M273.31,490.87c1.39-.83-2.84-.68-3-1.13h3c.84.28,1.3.6,1,1C274.49,490.85,273.91,490.86,273.31,490.87Z"/><path class="cls-10" d="M414,490.22c-.71-.26-4.69-.52-1-.74a31,31,0,0,1-3.95-.19c1.29.33.43.91,3,1.09-2.39,0-2.16.22-5,.15-.48-.25-2-.55,0-.78-3.18.09-1.35-.39-4-.08.1-.39,1.9-.5-1-.66l6.43,0c1.94,0,4,0,6.31-.17-.32.2.76.18,1.92.17l.06.44C415.26,489.67,415.41,490,414,490.22Z"/><path class="cls-11" d="M392.22,489.49c-.23.21,1.12.24,1,.44-1.25.05-2,.15-2,.34-.6,0-1.17,0-1,.11-2.18-.12-4.52-.38-3-.77a79,79,0,0,0-7.92.24,18.57,18.57,0,0,1,5,.88c-1.36,0-2.17,0-3,.12-2,.06-1.94.33-4,.11.12-.32,4.23-.19,4-.56-3.95-.07-2.9.42-5.94.45-1.25-.05-2-.15-2-.34,1.27,0,1.37.15,3,.11v-.22c.6,0,1.17,0,1-.11,2.79-.11-.27-.47,0-.66,1.21,0,6.12,0,3-.12v-.11h4C387.69,489.34,389.84,489.43,392.22,489.49Z"/><path class="cls-8" d="M263.41,490c-2.29.21-1.1,0-3-.13v.56c-2.19,0-.42-.47-1-.67h3C262.41,489.83,263.22,489.85,263.41,490Z"/><path class="cls-13" d="M373.39,489.73c.06.2-.76.29-2,.34-2.8.09-2.57-.16-5-.12-.54.17,1.15.58-1,.56.88-.36-3.24-.16-4-.33.32.25-.16.42-1,.55-1.46,0-.91.27-1,.44a27.17,27.17,0,0,0-4.95.11c.31-.15,1.41-.21,1-.44,1.89,0,2.5-.24,5-.22v-.89h12.88Z"/><path class="cls-7" d="M71.18,488.91c-.16.13.17.31-1,.33v-.45c-3.17,0-3.07-.22-5,0v-.34l6,0c0,.07.14.13,1,.12C71.65,488.67,71.13,488.75,71.18,488.91Z"/><path class="cls-10" d="M57.3,488.28c.18.28-2.22.26-3,.43.72-.48-2,.08-2-.23-.16-.13.22-.2,1-.22Z"/><path class="cls-10" d="M72.17,488.58c2.26,0,3.72,0,4,.24-1.37,0-2.18-.06-3-.13-.55.16,1.15.58-1,.56-.16-.14.17-.32-1-.34C71.13,488.75,71.65,488.67,72.17,488.58Z"/><path class="cls-7" d="M52.35,488.48c-3.18.21-4.33-.12-6.94.08v-.34c1.85,0,6.56-.25,7.92,0C52.57,488.28,52.19,488.35,52.35,488.48Z"/><path class="cls-6" d="M42.44,488.32a11.12,11.12,0,0,0-3,.21c-.85,0-.93,0-1-.12,1.77-.16,3.88-.29,5.94-.41l9.91.05c4.09,0,6.2.22,10.9.16,2,.27,8.23.08,11.89.17h2c-.75.25-5.56,0-7.93.07l-6,0c-2.37-.08-4.52-.18-7.93-.15l-4,0c-1.36-.29-6.07-.05-7.92,0A18.07,18.07,0,0,0,42.44,488.32Z"/><path class="cls-11" d="M400.14,489.25c-.5.28,0,.67-3,.67-.59-.35,1.86-.34,0-.55C398.43,489.36,398.54,489.22,400.14,489.25Z"/><path class="cls-14" d="M402.12,489c2.89.16,1.09.27,1,.66-.26.46,1.31.42,0,.78-1,0-.77-.13-1-.22l-4,0c-1.48.22-4.17-.18-5,.24,1.6-.05,3.33.4,1,.44.15-.13-.23-.2-1-.22.16-.13-.21-.2-1-.22a4.63,4.63,0,0,1-2-.11c-.18-.09.39-.1,1-.11.88-.1,6.89-.19,4-.34-1.7.36,0-.58-3-.44-2.38-.06-4.53-.15-7.93-.09v-.12h6.94c.12.24,4.2,0,5.94.1s-.59.2,0,.55c3,0,2.47-.39,3-.67.18-.1-.39-.1-1-.11A19.25,19.25,0,0,1,402.12,489Z"/><path class="cls-9" d="M400.14,489.25c-1.6,0-1.71.11-3,.12-1.74-.06-5.82.14-5.94-.1,3.67.07,4.24-.2,7.92-.13C399.75,489.15,400.32,489.15,400.14,489.25Z"/><path class="cls-9" d="M114.76,491.56l-6,0v-.11c1.44-.05,5.12.15,5-.09l4,0h2v.22Z"/><path class="cls-15" d="M308,492.19l-9.91,0c-.17-.24,3.51,0,5-.1H308Z"/><path class="cls-9" d="M296.1,492.16l-18.83-.06h-2a7.87,7.87,0,0,1,2-.1c1.88,0,2.19-.12,4-.1l6.94,0h6.94c2.37.08,7.19-.12,7.93.13-1.45.06-5.13-.14-5,.1Z"/><path class="cls-8" d="M155.39,491.63l-6.94,0c1-.37,4.15-.38,6.94-.3Z"/><path class="cls-11" d="M346.64,492.16l-14.87,0c-.44-.31,5.4.1,5-.21h1c1,.26,6.23.05,8.92.13Z"/><path class="cls-7" d="M245.56,491.88l-6.93,0a13.91,13.91,0,0,1,3-.1h1a6,6,0,0,1,2,0c1.09-.28-3.38-.59,1-.55C245.65,491.63,246.68,491.54,245.56,491.88Z"/><path class="cls-18" d="M228.72,491.82l-10.9,0c.05-.07.14-.13,1-.11l5.94,0c.16-.13-.17-.31,1-.33.09.18-.14.39,2,.35C228.33,491.71,228.9,491.73,228.72,491.82Z"/><path class="cls-7" d="M155.39,491.3c2.69.09-.7-.53,2-.44,2.29.21,3.63.43,2,.79l-4,0Z"/><path class="cls-10" d="M117.73,491.35c.15-.27.19-.54-2-.57-5.82-.2.44-.87,3-1.09-.31.15-1.41.2-1,.44,2.8-.08,2.57.17,5,.13-.28-.25.23-.41,2-.43-.18.24.81.35,3,.34v-.11h1v.22c-3.32-.12-6.63.32-4,.54.49-.2,1.06.05,2,.12.15-.21,3.35-.06,4-.21v.34c1.13.35-1.56.26-2,.43-3.11,0-7.28,0-8.92-.15Z"/><path class="cls-9" d="M377.36,492.07h-8.92v-.23h4.95a30.85,30.85,0,0,0,4,.11Z"/><path class="cls-18" d="M317.9,492.1c-2.35-.26-8.89-.06-12.88-.14-.17-.24,3.51,0,5-.1h1c.77,0,1.15-.09,1-.22a16.5,16.5,0,0,0,3,0c-.8.42,4.68.15,6.93.24v.22Z"/><path class="cls-12" d="M288.17,491.91l-6.94,0c-.09-.18-2.52-.09-2-.34,2.89.22,4.92.12,6.94.25.22-.09,0-.22,1-.22C287.24,491.72,288.45,491.73,288.17,491.91Z"/><path class="cls-11" d="M245.56,491.88c1.12-.34.09-.25,0-.66v-.45c1.13.28,2.65.88,1,1.11Z"/><path class="cls-9" d="M392.22,491.6c1.75.06,5.83-.15,5.95.1-3.13-.05-3.5.21-6.94.12a17.93,17.93,0,0,1-3-.1A30,30,0,0,0,392.22,491.6Z"/><path class="cls-11" d="M345.65,491.16c-1.37.14-1,.48-1,.77h-2c-.09-.18.14-.38-2-.34-.53-.16,3.86-.26,1-.33-.05.07-.14.13-1,.11v-.44C344.44,490.77,342.59,491.24,345.65,491.16Z"/><path class="cls-11" d="M232.68,491c1.15-.36,1.12.3,1,.44,2.89-.15,2.89.51,0,.34C229.24,491.72,234.28,491.32,232.68,491Z"/><path class="cls-8" d="M202,491.6c-2.15,0-.45-.39-1-.56a7,7,0,0,0,2-.1C206.65,491.2,200.44,491.23,202,491.6Z"/><path class="cls-11" d="M402.14,491.57a17,17,0,0,1-3-.1h2a31.31,31.31,0,0,0,4.95-.37,10.54,10.54,0,0,0,3,0c.8,0,1-.12,2-.13-.19.09-1,.12-1,.23C408.78,491.44,404.71,491.43,402.14,491.57Z"/><path class="cls-14" d="M399.16,491.47a17,17,0,0,0,3,.1,29.79,29.79,0,0,1-4,.13c-.12-.25-4.2,0-5.95-.1-.6,0-1.17,0-1-.11,3.33.11,1.54-.35,2-.56,1.08,0,.67.22,2,.22C394.31,491.51,398.42,491.3,399.16,491.47Z"/><path class="cls-14" d="M385.29,491.17c-.85.52,1.56.11,2,.33-.81.31-6.55.3-5.95,0V491c2.81,0-1.19.73,3,.55.81-.32-1.4-.29-1-.56a21.06,21.06,0,0,1,4,0c.44-.21-1.36-.66,2-.56-.31.16-1.42.22-1,.45h1C390.84,491.26,385,490.88,385.29,491.17Z"/><path class="cls-10" d="M352.59,492c-.21-.32.25-.57,2-.67,1.28.28-2.91.46,0,.56a1.69,1.69,0,0,1,1,0V492Z"/><path class="cls-10" d="M332.76,491.91c.06-.2-.76-.23-2-.11v-.33c1.88,0,2.19-.13,4-.11-.28-.32.24-.38,2-.22.79.39-1.48.43-1,.78Z"/><path class="cls-13" d="M273.31,491.42c-3,.16-3-.73,0-.55.6,0,1.18,0,1-.11h2c0,.11.8.14,1,.23-3.66,0-2.88.19-1,.33h-3Z"/><path class="cls-7" d="M102.87,491c.95-.4-4.27-.14-5-.36.16-.13-.17-.32,1-.33.06.12,1.27.1,1-.1l4-.21c.22.09,0,.22,1,.23,2.46.37-2.79.34,1,.67C104.42,490.78,103.43,491.27,102.87,491Z"/><path class="cls-10" d="M110.8,490.65a8.5,8.5,0,0,1-2-.23,8.87,8.87,0,0,0,2-.21,7.26,7.26,0,0,1,2-.11v.45C111.54,490.52,110.76,490.37,110.8,490.65Z"/><path class="cls-7" d="M43.43,489.21c-2.38.13.54.88-2,1,.48-.34-1.41-.44-2-.67,3.59.12.83-.5,4-.43Z"/><path class="cls-7" d="M331.77,491c.13-.35,2.19-.49,3-.77.17.17-.36.41,1,.45.06-.07.15-.13,1-.11v.22C333.49,490.94,334.63,491,331.77,491Z"/><path class="cls-10" d="M77.11,489.94c2.06.1.28-.76,2-.33.05.14,1.27.16,1,.34-2,.05-.24.52-3,.21Z"/><path class="cls-7" d="M178.19,490.28c-3.6.1-1-.48-3-.56C175.55,489.2,179.14,490,178.19,490.28Z"/><path class="cls-19" d="M297.09,490.94c1.82-.13-.51-.73,4-.55v.34h-1c-.24.16-1.63.19-2,.33h-1Z"/><path class="cls-8" d="M228.73,490.26c-2.14-.34-.84-.33-3,0-.22-.08,0-.22-1-.22-.09-.3,1.65-.22,0-.45l8.92,0c.13.2-1.21.23-1,.44-1.42,0-1.67-.19-3-.24-1.65.22.1.15,0,.45Z"/><path class="cls-8" d="M186.12,489.43c4.2.56,2,.52,0,1.11-3.85-.07-2.65-.88-5-.24-.14-.21-.65-.38-2-.46-.61.48,3.23.47,3,.91-2.33-.05-2.22-.36-4-.47.95-.33-2.64-1.08-3-.56-1.15,0-1.07-.18-1-.34Z"/><path class="cls-10" d="M234.67,489.62c.23.16,1.63.19,2,.34-.05.07-.15.13-1,.11a16.39,16.39,0,0,0-3,0c-.22-.21,1.12-.24,1-.44Z"/><path class="cls-7" d="M141.52,489.9c-.14-.27.52-.46,2-.54.73.41-2.44.6,0,.88-.22.09,0,.22-1,.22-.15-.13.17-.31-1-.34Z"/><path class="cls-20" d="M92,488.79a29.9,29.9,0,0,0-4,.09c1.56,0,3.44,0,3,.23H90c-1.83-.11-.61.63-2,.21.82-.31-1.4-.29-1-.56v-.11C88.47,488.72,92.15,488.55,92,488.79Z"/><path class="cls-9" d="M129.64,489.18c-3.34-.08-9.21.1-10.9-.16,4.31.09,11.2-.09,13.87.18h-3Z"/><path class="cls-9" d="M292.14,489.59c-1.37.25-6.89,0-9.91.08v-.11l6.94,0Z"/><path class="cls-9" d="M164.32,489.23c-4.32-.09-11.2.09-13.88-.18l13.88.06Z"/><path class="cls-6" d="M139.55,489l10.89,0c2.68.27,9.56.09,13.88.18l26.75.11,34.68.14,11.89,0,21.8.08,22.79.07c3-.06,8.54.17,9.91-.08l10.9,0,10.9,0a7,7,0,0,1,2,.12l-4.95,0c-4.32.06-11.2-.17-13.87.08h-6l-11.89,0-5.95,0H258.45l-15.85-.06-7.93,0h-1l-8.92,0-5.94,0L203,489.5h-3l-10.9-.05h-3l-11.89-.05h-1l-6.94,0-8.92,0h-2l-16.85-.08v-.11c-2.33,0-2.91.18-5.94.09-2.67-.27-9.56-.09-13.87-.18l-11.89,0h-1c-1.7-.26-7.57-.07-10.9-.16H92c.17-.24-3.51-.07-5-.14l-7.93,0c.19-.09,1-.1,1-.21h4c1,.26,6.23.08,8.91.16,3.66.27,11.55.09,16.85.19C117.75,489.05,130,488.89,139.55,489Z"/><path class="cls-20" d="M377.36,490.29c-1.12-.35.28-.29-1-.55h-8.92c1.37-.25,6.89,0,9.91-.1C377.09,489.82,380.15,490.18,377.36,490.29Z"/><path class="cls-9" d="M313.94,489.54l6.94,0h1c2.67.26,9.56.06,13.87.14a14.73,14.73,0,0,1-3,.1l-13.87,0h-3a7,7,0,0,0-2-.12Z"/><path class="cls-9" d="M359.52,489.73c-1.37-.25-6.9,0-9.91-.12v-.11h15.86c.19.09,1,.11,1,.22h-6.94Z"/><path class="cls-12" d="M77.12,488.38c-3.66-.09-9.87.1-11.89-.17C68.89,488.3,75.1,488.12,77.12,488.38Z"/><path d="M231.06,486.1a81.33,81.33,0,0,1-10.23-.53,8.83,8.83,0,0,1-6.22-4.08,17.68,17.68,0,0,1-2.16-13.25,9.54,9.54,0,0,1,5-5.72c5-2.72,12.62-3.31,18.61-1.43s9.27,4.72,10.23,8.56h0c1,3.88,1.51,14.34.34,15.82l-.28.36-.59.08c-2.48,0-5.06,0-7.66.09C235.73,486.05,233.38,486.1,231.06,486.1Zm-2.56-24.24a21.93,21.93,0,0,0-10.21,2.29,7.71,7.71,0,0,0-4,4.57,15.9,15.9,0,0,0,1.91,11.74,6.88,6.88,0,0,0,4.92,3.27,118.51,118.51,0,0,0,16.94.42c2.43,0,4.85-.09,7.17-.1a50.49,50.49,0,0,0-.74-13.95c-.79-3.18-3.81-5.61-9-7.24A23.61,23.61,0,0,0,228.5,461.86Zm17.22,22.19Z"/><path d="M234.22,478.14a30.39,30.39,0,0,1-5-.41,29.07,29.07,0,0,1-16.33-8.85.93.93,0,0,1,1.35-1.28,26.74,26.74,0,0,0,15.28,8.3,30,30,0,0,0,11.06-.29.92.92,0,0,1,1.09.72.93.93,0,0,1-.72,1.1A33.48,33.48,0,0,1,234.22,478.14Z"/><path class="cls-21" d="M249.6,470.59a.47.47,0,0,1-.46-.42,26.14,26.14,0,0,1,.39-7.4A28.34,28.34,0,0,1,259,447.13a.48.48,0,0,1,.66.05.47.47,0,0,1-.06.66A27.42,27.42,0,0,0,250.43,463a25.34,25.34,0,0,0-.37,7.13.45.45,0,0,1-.42.5Z"/><path class="cls-21" d="M249,470.29a.46.46,0,0,1-.44-.32,25.85,25.85,0,0,1-1.27-7.3,28.23,28.23,0,0,1,5.79-17.36.46.46,0,1,1,.74.55,27.46,27.46,0,0,0-5.61,16.78,25.44,25.44,0,0,0,1.22,7,.45.45,0,0,1-.29.58Z"/><path class="cls-1" d="M255.63,473.67h0a13.32,13.32,0,0,0-6-3.42c-1.05-.27-6.84-1.71-9.87,1.58-2.63,2.86-1.7,9.33-.13,11,2.8,3,12,2.52,14.52.84s3-6.09,1.49-10"/><path d="M247.28,486c-3.28,0-6.68-.71-8.34-2.5s-2.89-9,.13-12.28,8.57-2.41,10.78-1.85a14.32,14.32,0,0,1,6.43,3.66l.22.33c1.71,4.48.92,9.26-1.84,11.12C253.31,485.36,250.35,486,247.28,486Zm-1.76-15.35a6.78,6.78,0,0,0-5.09,1.82c-2.35,2.56-1.34,8.47-.13,9.77,2.45,2.65,11.18,2.15,13.33.7,2-1.32,2.48-5.2,1.21-8.73a12.43,12.43,0,0,0-5.44-3.05A16.91,16.91,0,0,0,245.52,470.63Z"/><circle class="cls-1" cx="256.98" cy="474.44" r="5.4"/><path d="M257,480.31h-.34a5.88,5.88,0,0,1-5.52-6.2h0a5.86,5.86,0,0,1,10.23-3.56,5.86,5.86,0,0,1-.47,8.28A5.86,5.86,0,0,1,257,480.31Zm0-10.81a5,5,0,0,0-4.93,4.66h0a4.88,4.88,0,0,0,1.24,3.57,4.94,4.94,0,1,0,4-8.22Zm-5.39,4.63h0Z"/><path d="M247.88,482.59h0l-2.11-.08a.46.46,0,1,1,0-.92l2.11.07a.47.47,0,0,1,0,.93Z"/><path d="M254.41,474.44A2.57,2.57,0,1,1,257,476.8,2.47,2.47,0,0,1,254.41,474.44Z"/><circle class="cls-1" cx="238.86" cy="474.44" r="5.4"/><path d="M238.86,480.31h-.34a5.88,5.88,0,0,1-5.52-6.2,5.88,5.88,0,0,1,6.19-5.51,5.86,5.86,0,0,1,3.57,10.23A5.88,5.88,0,0,1,238.86,480.31Zm0-10.81a5,5,0,0,0-4.92,4.66,4.93,4.93,0,0,0,4.64,5.21,4.94,4.94,0,1,0,.57-9.86Zm-5.39,4.63h0Z"/><path d="M236.29,474.44a2.57,2.57,0,1,1,2.56,2.36A2.46,2.46,0,0,1,236.29,474.44Z"/><path d="M246.28,489.82a.93.93,0,0,1-.93-.92V485a.93.93,0,1,1,1.85,0v3.92A.92.92,0,0,1,246.28,489.82Z"/><path d="M243.26,489.82a.93.93,0,0,1-.93-.92V485a.93.93,0,1,1,1.85,0v3.92A.92.92,0,0,1,243.26,489.82Z"/><path d="M240.24,489.82a.93.93,0,0,1-.93-.92V485a.93.93,0,1,1,1.85,0v3.92A.92.92,0,0,1,240.24,489.82Z"/><path d="M237.22,489.82a.93.93,0,0,1-.93-.92v-3.07a.93.93,0,0,1,1.85,0v3.07A.92.92,0,0,1,237.22,489.82Z"/><g class="cls-4"><path class="cls-5" d="M261.71,497.13,250,496.59c3.78-.16,7.56-.32,11.33-.46,2.85-.1,2.87-4.73,0-4.77a230.64,230.64,0,0,0-26.54,1.15l-.72.08q-9.69.51-19.38,1.11a2.2,2.2,0,0,0-1.91,1.29c-1.38,0-2.75,0-4.12-.11-2.85-.22-2.84,4.55,0,4.77.82.06,1.63.09,2.45.1-1.14,1.42-.64,4.14,1.54,4s4.23-.33,6.35-.48a2.56,2.56,0,0,0,2,1.74,189.33,189.33,0,0,0,27.86,1.19c2.23-.07,2.72-3,1.46-4.24,3.78,0,7.57-.06,11.35,0C264.58,501.92,264.56,497.26,261.71,497.13Z"/></g><g class="cls-4"><rect class="cls-5" x="27.84" y="232.17" width="218.44" height="161.67"/></g><rect class="cls-1" x="35.88" y="224.4" width="218.44" height="161.67"/><path d="M255.24,387H35V223.47H255.24ZM36.81,385.14H253.39V225.32H36.81Z"/><rect class="cls-1" x="45.35" y="233.81" width="199.5" height="139.64"/><path d="M245.77,374.38H44.42V232.89H245.77Zm-199.5-1.85H243.92V234.74H46.27Z"/><circle class="cls-1" cx="229.97" cy="379.86" r="2.83"/><path d="M230,383.62a3.76,3.76,0,1,1,3.76-3.76A3.77,3.77,0,0,1,230,383.62Zm0-5.67a1.91,1.91,0,1,0,1.91,1.91A1.92,1.92,0,0,0,230,378Z"/><circle class="cls-1" cx="242.35" cy="379.86" r="2.83"/><path d="M242.34,383.62a3.76,3.76,0,1,1,3.76-3.76A3.76,3.76,0,0,1,242.34,383.62Zm0-5.67a1.91,1.91,0,1,0,1.91,1.91A1.91,1.91,0,0,0,242.34,378Z"/><rect class="cls-1" x="217.41" y="215.84" width="31.32" height="8.56"/><path d="M249.65,225.32H216.48v-10.4h33.17Zm-31.32-1.85H247.8v-6.7H218.33Z"/><polygon class="cls-22" points="60.62 279.37 53.15 271.9 60.99 264.05 62.96 266.02 57.07 271.9 62.58 277.41 60.62 279.37"/><polygon class="cls-22" points="71.19 279.37 69.23 277.41 75.11 271.52 69.6 266.02 71.57 264.05 79.04 271.52 71.19 279.37"/><rect class="cls-22" x="79.11" y="283.55" width="79.97" height="2.78"/><rect class="cls-22" x="117.41" y="291.1" width="115.65" height="2.78"/><rect class="cls-22" x="147.55" y="291.1" width="85.52" height="2.78"/><rect class="cls-22" x="58.04" y="340.47" width="18.01" height="2.78" transform="translate(-280.33 315.64) rotate(-74.59)"/><polygon class="cls-22" points="61.57 349.46 54.1 342 61.95 334.15 63.91 336.11 58.03 342 63.54 347.5 61.57 349.46"/><polygon class="cls-22" points="72.15 349.46 70.18 347.5 76.07 341.62 70.56 336.11 72.52 334.15 80 341.62 72.15 349.46"/><rect class="cls-22" x="147.55" y="298.65" width="85.52" height="2.78"/><rect class="cls-22" x="147.55" y="306.2" width="85.52" height="2.78"/><rect class="cls-22" x="79.11" y="321.29" width="79.97" height="2.78"/><rect class="cls-22" x="115.9" y="313.75" width="115.65" height="2.78"/><rect class="cls-1" x="291.87" y="386.93" width="102.46" height="102.46"/><path class="cls-23" d="M395.26,490.31H290.94V386H395.26Zm-102.47-1.85H393.41V387.85H292.79Z"/><g class="cls-4"><rect class="cls-5" x="291.87" y="386.93" width="102.46" height="9.89"/></g></g><g id="CC_Laura_Henneke" data-name="CC Laura Henneke"><text class="cls-24" transform="translate(345.89 608.98)">Laura Henneke</text></g></svg>