<svg xmlns="http://www.w3.org/2000/svg" viewBox="0 0 453.54 705.83"><defs><style>.cls-1{opacity:0.3;}.cls-2{fill:#b6b6b7;}.cls-3{fill:#fff;}.cls-4{fill:#2abeef;}.cls-5{fill:#b7b7b7;}.cls-6{font-size:16px;font-family:PatrickHand-Regular, Patrick Hand;}</style></defs><g id="Artwork"><g class="cls-1"><rect class="cls-2" x="268.25" y="101.9" width="113.43" height="88.37"/></g><g class="cls-1"><rect class="cls-2" x="266.62" y="212.53" width="113.43" height="88.37"/></g><g class="cls-1"><rect class="cls-2" x="266.78" y="323.16" width="113.43" height="88.37"/></g><rect class="cls-3" x="276.16" y="97.56" width="108.07" height="86.33"/><path d="M385.3,185H275.1V96.49H385.3Zm-108.07-2.13H383.17V98.62H277.23Z"/><path class="cls-4" d="M374,125.79a9.36,9.36,0,0,0-16.39-5.22,11.95,11.95,0,0,0-22.7,3.78,11.3,11.3,0,0,0-9.39,11.13h0a11.29,11.29,0,0,0,11.3,11.29h31.39a11.29,11.29,0,0,0,11.3-11.29h0A11.29,11.29,0,0,0,374,125.79Z"/><rect class="cls-3" x="274.54" y="208.19" width="108.07" height="86.33"/><path d="M383.68,295.58H273.47V207.12H383.68ZM275.6,293.45h106v-84.2H275.6Z"/><ellipse class="cls-4" cx="332.05" cy="237.95" rx="4.33" ry="8.61"/><ellipse class="cls-4" cx="332.05" cy="266.73" rx="4.33" ry="8.61"/><ellipse class="cls-4" cx="346.44" cy="252.34" rx="8.61" ry="4.33"/><ellipse class="cls-4" cx="317.66" cy="252.34" rx="8.61" ry="4.33"/><ellipse class="cls-4" cx="342.23" cy="242.16" rx="8.61" ry="4.33" transform="translate(-71 312.92) rotate(-45)"/><ellipse class="cls-4" cx="321.88" cy="262.51" rx="8.61" ry="4.33" transform="translate(-91.35 304.49) rotate(-45)"/><ellipse class="cls-4" cx="342.23" cy="262.51" rx="4.33" ry="8.61" transform="translate(-85.39 318.88) rotate(-45)"/><ellipse class="cls-4" cx="321.88" cy="242.16" rx="4.33" ry="8.61" transform="translate(-76.96 298.53) rotate(-45)"/><circle class="cls-4" cx="331.69" cy="252.52" r="7.35"/><path d="M344.18,293.25a1.06,1.06,0,0,1-1.05-.95c-1.45-12.91-6.9-27.5-10.13-33.29a1.07,1.07,0,1,1,1.86-1c3.32,5.95,8.91,20.89,10.38,34.09a1.05,1.05,0,0,1-.94,1.18Z"/><g class="cls-1"><path class="cls-2" d="M196.71,577.49l-25.21-1.08q12.24-.49,24.48-.91c6.15-.22,6.19-9.52,0-9.6a533,533,0,0,0-57.35,2.31l-1.55.16q-21,1-41.89,2.23a4.79,4.79,0,0,0-4.13,2.59c-3,0-5.93,0-8.89-.22-6.16-.44-6.13,9.16,0,9.59,1.76.12,3.52.18,5.28.22-2.45,2.84-1.37,8.32,3.33,8s9.15-.68,13.73-1a5.39,5.39,0,0,0,4.33,3.5,438.26,438.26,0,0,0,60.18,2.4c4.82-.14,5.89-6,3.16-8.52q12.27-.14,24.53,0C202.9,587.13,202.86,577.75,196.71,577.49Z"/></g><path d="M140.24,561.24a1.6,1.6,0,0,1-.82-3l107.29-63.39a1.6,1.6,0,0,1,1.62,2.75L141.05,561A1.62,1.62,0,0,1,140.24,561.24Z"/><path class="cls-3" d="M139.7,524.11c-5.81-12.51-22.66-14.43-27.65-15-21.68-2.47-51.22,9.07-52.48,26.91-1,14.1,9.07,37.59,26.66,36.5,18.91-1.18,41.38-7.28,61.65-11.08C150.21,561,144.68,534.86,139.7,524.11Z"/><path d="M85.07,574.69c-5.81,0-11.29-2.45-15.93-7.13C60.6,559,56.8,545.1,57.45,535.87c.42-5.94,3.7-11.62,9.48-16.43,11-9.12,29.63-14.23,45.37-12.44,15.27,1.74,25.14,7.19,29.33,16.22h0c4.24,9.13,10.62,34.71,8.44,38.92a2.51,2.51,0,0,1-1.8,1.39c-6.17,1.16-12.69,2.56-19,3.92-14.56,3.13-29.62,6.37-42.9,7.2C85.93,574.67,85.5,574.69,85.07,574.69ZM106,510.91c-13.13,0-27.66,4.59-36.34,11.81-4.87,4-7.62,8.7-8,13.45-.57,8.07,2.9,20.76,10.46,28.39,4.15,4.19,8.84,6.14,13.94,5.83,13-.8,27.87-4,42.28-7.11,5.94-1.27,12.06-2.59,17.94-3.71.13-4.79-4-24.81-8.56-34.56h0c-3.52-7.58-12.25-12.22-25.95-13.78A52.8,52.8,0,0,0,106,510.91Z"/><path d="M148.83,560.44a2,2,0,0,1-.34,0,1.6,1.6,0,0,1-1.22-1.91l21.95-99.12a1.6,1.6,0,1,1,3.12.69l-22,99.12A1.59,1.59,0,0,1,148.83,560.44Z"/><path d="M101.62,550.09c-15.08,0-29.26-4.68-42.15-13.92a1.06,1.06,0,1,1,1.24-1.73c13,9.34,27.44,13.87,42.72,13.5a77,77,0,0,0,27.76-6.13,1.07,1.07,0,0,1,.82,2,79.21,79.21,0,0,1-28.53,6.29Z"/><path class="cls-5" d="M149.48,524a1.07,1.07,0,0,1-1-.76,43,43,0,0,1-1.82-13.52c.35-14.16,7.49-25.14,13.41-31.87a1.06,1.06,0,1,1,1.59,1.41c-5.68,6.46-12.53,17-12.87,30.51a41.19,41.19,0,0,0,1.73,12.86,1.07,1.07,0,0,1-.72,1.32A1,1,0,0,1,149.48,524Z"/><path class="cls-5" d="M148.21,523.62a1.07,1.07,0,0,1-.92-.52,43.8,43.8,0,0,1-5.07-12.71c-3.26-14.5,2-27.25,5.45-33.56a1.07,1.07,0,1,1,1.87,1c-3.29,6-8.35,18.26-5.24,32.08A41.4,41.4,0,0,0,149.12,522a1.07,1.07,0,0,1-.91,1.61Z"/><path class="cls-3" d="M167.07,528.59h0A33.7,33.7,0,0,0,150.51,523c-2.76-.16-17.82-1-23.75,8.67-5.15,8.37.25,24,5,27.43,8.42,6.17,31.07.48,36.47-4.91,5.25-5.23,4.49-16.54-1.12-25.58"/><path d="M142.82,563.93c-4.86,0-9.32-.9-12.36-3.13-5.34-3.91-11.38-20.74-5.51-30.27,6-9.71,20-10,25.68-9.68a35.86,35.86,0,0,1,17.62,6l.39.26.24.4c6.35,10.22,6.7,22.35.81,28.21C165.6,559.76,153.28,563.93,142.82,563.93Zm5-38.9c-5.75,0-15.16,1.09-19.25,7.74-4.66,7.56.73,21.91,4.4,24.59,7.43,5.44,29,0,33.71-4.7,4.29-4.28,3.75-14.32-1.18-22.55a31.4,31.4,0,0,0-15.12-5C149.67,525.06,148.8,525,147.83,525Z"/><circle class="cls-3" cx="170.78" cy="529.86" r="13.66"/><path d="M170.75,544.58a14.73,14.73,0,0,1-14.56-12.76h0a14.73,14.73,0,1,1,16.56,12.63A15,15,0,0,1,170.75,544.58Zm-12.45-13a12.59,12.59,0,1,0,10.8-14.16,12.5,12.5,0,0,0-10.8,14.16Z"/><circle class="cls-3" cx="125.79" cy="538.56" r="13.66"/><path d="M125.76,553.29a14.72,14.72,0,1,1,14.62-16.69,14.72,14.72,0,0,1-14.62,16.69Zm0-27.32a13.83,13.83,0,0,0-1.69.11,12.61,12.61,0,1,0,1.69-.11Z"/><path d="M136.35,575.8a1.07,1.07,0,0,1-1-.86l-1.88-9.73a1.07,1.07,0,0,1,2.1-.4l1.88,9.72a1.07,1.07,0,0,1-.85,1.25Z"/><path d="M128.85,577.25a1.07,1.07,0,0,1-1-.86l-1.88-9.73a1.07,1.07,0,0,1,2.1-.4L129.9,576a1.07,1.07,0,0,1-.85,1.25Z"/><path d="M120.05,544.58a1.07,1.07,0,0,1-1-.64,9.1,9.1,0,0,1-.22-6.8,8.25,8.25,0,0,1,4.52-4.83,8.79,8.79,0,0,1,11.42,4.85,1.07,1.07,0,0,1-2,.85,6.65,6.65,0,0,0-8.61-3.75,6.18,6.18,0,0,0-3.37,3.62,7,7,0,0,0,.18,5.22,1.07,1.07,0,0,1-1,1.48Z"/><path d="M164.92,535.78a1.08,1.08,0,0,1-1-.64,8.79,8.79,0,0,1,4.31-11.63,8.31,8.31,0,0,1,6.63,0,9.12,9.12,0,0,1,4.78,4.82,1.06,1.06,0,0,1-1.95.85,7.06,7.06,0,0,0-3.67-3.72,6.26,6.26,0,0,0-4.95,0,6.67,6.67,0,0,0-3.19,8.84,1.07,1.07,0,0,1-.56,1.4A1.2,1.2,0,0,1,164.92,535.78Z"/><path d="M149.16,556.05a11.05,11.05,0,0,1-6.59-2.18,1.06,1.06,0,0,1-.23-1.49,1.08,1.08,0,0,1,1.49-.23,9,9,0,0,0,4,1.67,9.29,9.29,0,0,0,5.37-.81,1.06,1.06,0,1,1,.92,1.92A11.56,11.56,0,0,1,149.16,556.05Z"/><rect class="cls-3" x="274.54" y="318.6" width="108.07" height="86.33"/><path d="M383.68,406H273.47V317.54H383.68ZM275.6,403.87h106v-84.2H275.6Z"/><path d="M277,507.88,167.76,493.26l11.73-87.68L288.72,420.2ZM170.15,491.43l105,14.06L286.33,422l-105-14Z"/><path d="M330.57,246.24c-3.07,0-5.39-4.16-5.39-9.67,0-5.25,2.47-9.68,5.39-9.68s5.4,4.43,5.4,9.68C336,242.08,333.65,246.24,330.57,246.24Zm0-17.22c-1.31,0-3.26,3.17-3.26,7.55s1.72,7.54,3.26,7.54,3.27-3.22,3.27-7.54S331.89,229,330.57,229Z"/><path d="M330.57,275c-3.07,0-5.39-4.16-5.39-9.67,0-5.25,2.47-9.68,5.39-9.68s5.4,4.43,5.4,9.68C336,270.86,333.65,275,330.57,275Zm0-17.22c-1.31,0-3.26,3.17-3.26,7.55s1.72,7.54,3.26,7.54,3.27-3.23,3.27-7.54S331.89,257.8,330.57,257.8Z"/><path d="M345,256.36c-5.51,0-9.67-2.32-9.67-5.4s4.16-5.4,9.67-5.4c5.25,0,9.68,2.47,9.68,5.4S350.21,256.36,345,256.36Zm0-8.67c-4.32,0-7.54,1.72-7.54,3.27s3.22,3.27,7.54,3.27,7.55-2,7.55-3.27S349.34,247.69,345,247.69Z"/><path d="M316.19,256.36c-5.52,0-9.68-2.32-9.68-5.4s4.16-5.4,9.68-5.4c5.24,0,9.67,2.47,9.67,5.4S321.43,256.36,316.19,256.36Zm0-8.67c-4.32,0-7.55,1.72-7.55,3.27s3.23,3.27,7.55,3.27,7.54-2,7.54-3.27S320.56,247.69,316.19,247.69Z"/><path d="M336.68,248.67a3.76,3.76,0,0,1-2.77-1c-2.18-2.17-.88-6.76,3-10.65,3.71-3.71,8.59-5.1,10.66-3s.68,6.95-3,10.66h0a15,15,0,0,1-5.63,3.67A7.49,7.49,0,0,1,336.68,248.67Zm8.24-13.58c-1.56,0-4.17,1.07-6.48,3.38-3.06,3.06-4.12,6.56-3,7.65.52.51,1.56.55,2.87.12a12.82,12.82,0,0,0,4.78-3.15c3.09-3.09,3.95-6.71,3-7.64A1.6,1.6,0,0,0,344.92,235.09Zm-1.11,8.76h0Z"/><path d="M316.35,269a3.83,3.83,0,0,1-2.79-1c-2.18-2.18-.88-6.76,3-10.66a14.65,14.65,0,0,1,5.7-3.6c2.12-.67,3.93-.45,5,.58s1.25,2.84.58,5a14.35,14.35,0,0,1-3.6,5.7h0C321.59,267.58,318.66,269,316.35,269Zm8.23-13.56a5.7,5.7,0,0,0-1.66.28,12.51,12.51,0,0,0-4.83,3.08c-3,3.05-4.12,6.55-3,7.65s4.6,0,7.65-3h0a12.51,12.51,0,0,0,3.08-4.83c.4-1.28.38-2.38-.05-2.81A1.64,1.64,0,0,0,324.58,255.46Z"/><path d="M344.91,268.93c-2.36,0-5.44-1.44-8-4h0a14.92,14.92,0,0,1-3.66-5.62c-.71-2.13-.48-3.92.64-5s2.91-1.35,5-.64a15,15,0,0,1,5.63,3.66,14.5,14.5,0,0,1,3.6,5.71c.66,2.11.45,3.92-.58,5A3.65,3.65,0,0,1,344.91,268.93Zm-6.47-5.49c3.09,3.09,6.71,4,7.64,3,.44-.44.46-1.54.06-2.82a12.51,12.51,0,0,0-3.08-4.83,12.82,12.82,0,0,0-4.78-3.15c-1.31-.43-2.36-.39-2.87.13s-.55,1.55-.12,2.86a12.82,12.82,0,0,0,3.15,4.78Z"/><path d="M324.56,248.59c-2.36,0-5.44-1.45-8-4h0c-3.9-3.9-5.2-8.48-3-10.66s6.76-.87,10.66,3a14.28,14.28,0,0,1,3.6,5.7c.67,2.11.46,3.92-.58,5A3.65,3.65,0,0,1,324.56,248.59ZM316.33,235a1.75,1.75,0,0,0-1.27.42c-1.09,1.09,0,4.59,3,7.64h0c3.09,3.1,6.72,4,7.65,3,.43-.44.45-1.54.05-2.82a12.51,12.51,0,0,0-3.08-4.83C320.44,236.2,317.92,235,316.33,235Z"/><circle class="cls-3" cx="330.21" cy="251.14" r="7.35"/><path d="M330.21,259.55a8.41,8.41,0,1,1,8.41-8.41A8.42,8.42,0,0,1,330.21,259.55Zm0-14.69a6.28,6.28,0,1,0,6.28,6.28A6.28,6.28,0,0,0,330.21,244.86Z"/><path d="M365.55,145.5H334.16a12.36,12.36,0,0,1-2.86-24.38,13,13,0,0,1,23.91-4.64,10.42,10.42,0,0,1,17.12,6.34,12.24,12.24,0,0,1,5.58,10.32A12.37,12.37,0,0,1,365.55,145.5Zm-21.42-33.09a10.86,10.86,0,0,0-10.82,9.72l-.09.8-.79.14a10.22,10.22,0,0,0,1.73,20.3h31.39a10.24,10.24,0,0,0,10.23-10.23,10.14,10.14,0,0,0-5-8.77l-.46-.28-.05-.53a8.29,8.29,0,0,0-14.53-4.62l-1.07,1.23-.69-1.48A10.93,10.93,0,0,0,344.13,112.41Z"/><path class="cls-4" d="M337.23,164.05a6.91,6.91,0,0,0-12.1-3.85A8.83,8.83,0,0,0,308.36,163a8.34,8.34,0,0,0-6.93,8.22h0a8.34,8.34,0,0,0,8.34,8.34H333a8.34,8.34,0,0,0,8.34-8.34h0A8.33,8.33,0,0,0,337.23,164.05Z"/><path d="M331,178.89H307.78a9.4,9.4,0,0,1-2.36-18.51,9.89,9.89,0,0,1,18-3.62,8,8,0,0,1,12.83,4.94,9.32,9.32,0,0,1,4.14,7.78A9.42,9.42,0,0,1,331,178.89Zm-15.81-24.44a7.74,7.74,0,0,0-7.72,6.93l-.08.8-.8.14a7.27,7.27,0,0,0,1.24,14.44H331a7.29,7.29,0,0,0,7.28-7.28,7.21,7.21,0,0,0-3.55-6.24l-.46-.27-.05-.54a5.85,5.85,0,0,0-10.24-3.26l-1.07,1.24-.7-1.48A7.76,7.76,0,0,0,315.14,154.45Z"/><path class="cls-4" d="M359.27,366.61a4.8,4.8,0,0,0-4.8-4.8H351a4.8,4.8,0,0,0,0-9.59h-4.73a4.8,4.8,0,1,0,0-9.59h-20.6a4.8,4.8,0,1,0,0,9.59H321a4.8,4.8,0,0,0,0,9.59h-3.44a4.8,4.8,0,0,0,0,9.59h1.13a4.78,4.78,0,0,0-2.48,4.18h0a4.79,4.79,0,0,0,4.79,4.8h2.1a4.79,4.79,0,0,0,2.63,8.8h20.6a4.79,4.79,0,0,0,2.63-8.8H351a4.79,4.79,0,0,0,4.79-4.8h0a4.78,4.78,0,0,0-2.48-4.18h1.12A4.8,4.8,0,0,0,359.27,366.61Z"/><circle class="cls-4" cx="223.99" cy="469.67" r="15.91"/><path d="M339.84,350.84H319.23a5.86,5.86,0,0,1,0-11.72h20.61a5.86,5.86,0,0,1,0,11.72Zm-20.61-9.59a3.73,3.73,0,0,0,0,7.46h20.61a3.73,3.73,0,0,0,0-7.46Z"/><path d="M339.84,389.72H319.23a5.86,5.86,0,0,1,0-11.72h20.61a5.86,5.86,0,1,1,0,11.72Zm-20.61-9.59a3.73,3.73,0,0,0,0,7.46h20.61a3.73,3.73,0,1,0,0-7.46Z"/><path d="M344.56,360.43H314.51a5.86,5.86,0,0,1,0-11.72h30.05a5.86,5.86,0,0,1,0,11.72Zm-30.05-9.59a3.73,3.73,0,0,0,0,7.46h30.05a3.73,3.73,0,0,0,0-7.46Z"/><path d="M344.56,380H314.51a5.86,5.86,0,0,1,0-11.72h30.05a5.86,5.86,0,0,1,0,11.72Zm-30.05-9.59a3.73,3.73,0,0,0,0,7.46h30.05a3.73,3.73,0,1,0,0-7.46Z"/><path d="M348,370H311.07a5.86,5.86,0,0,1,0-11.72H348A5.86,5.86,0,0,1,348,370Zm-36.93-9.59a3.73,3.73,0,0,0,0,7.46H348a3.73,3.73,0,1,0,0-7.46Z"/><circle class="cls-4" cx="329.53" cy="364.04" r="7.79"/><path d="M329.53,372.9a8.86,8.86,0,1,1,8.86-8.86A8.87,8.87,0,0,1,329.53,372.9Zm0-15.59a6.73,6.73,0,1,0,6.73,6.73A6.74,6.74,0,0,0,329.53,357.31Z"/><path d="M219.14,485.2a18.64,18.64,0,1,1,18.46-16.32h0a18.64,18.64,0,0,1-18.46,16.32Zm0-35.16a16.51,16.51,0,1,0,10.14,29.55,16.36,16.36,0,0,0,6.26-11,16.54,16.54,0,0,0-14.33-18.44A16.09,16.09,0,0,0,219.09,450Zm17.45,18.7h0Z"/><rect class="cls-3" x="205.31" y="449.09" width="31.24" height="5.84" rx="1.37" transform="translate(58.09 -24.02) rotate(7.16)"/><path d="M233.54,457.58l-.51,0-25.2-3.17a4,4,0,0,1-2.65-1.51,3.93,3.93,0,0,1-.8-2.94,4,4,0,0,1,4.45-3.46l25.2,3.17a4,4,0,0,1,2.65,1.51,3.94,3.94,0,0,1,.8,2.94,4,4,0,0,1-3.94,3.49Zm-25.21-9a1.86,1.86,0,0,0-1.84,1.63,1.86,1.86,0,0,0,1.61,2.07l25.2,3.17a1.78,1.78,0,0,0,1.37-.38,1.82,1.82,0,0,0,.7-1.23,1.85,1.85,0,0,0-.37-1.37,1.92,1.92,0,0,0-1.24-.71l-25.2-3.16Z"/><path d="M274.16,440.39H274l-52.34-6.58a1.06,1.06,0,1,1,.26-2.11l52.35,6.58a1.06,1.06,0,0,1-.13,2.12Z"/><rect class="cls-3" x="215.44" y="423.27" width="5.68" height="18.07" rx="1.33" transform="translate(55.61 -23.84) rotate(7.16)"/><path d="M217.52,442.35a4.19,4.19,0,0,1-.5,0,3.91,3.91,0,0,1-3.38-4.36l1.54-12.29a3.91,3.91,0,1,1,7.75,1l-1.55,12.29a3.9,3.9,0,0,1-3.86,3.42Zm1.53-18a1.77,1.77,0,0,0-1.75,1.55l-1.55,12.3a1.73,1.73,0,0,0,.36,1.3,1.75,1.75,0,0,0,1.18.68h0a1.83,1.83,0,0,0,1.31-.36,1.78,1.78,0,0,0,.67-1.18l1.54-12.3a1.77,1.77,0,0,0-1.53-2Z"/><rect class="cls-3" x="221.15" y="423.98" width="5.68" height="18.07" rx="1.33" transform="translate(55.74 -24.55) rotate(7.16)"/><path d="M223.22,443.07l-.49,0a3.91,3.91,0,0,1-3.38-4.36l1.54-12.3a3.91,3.91,0,0,1,4.36-3.38,3.9,3.9,0,0,1,3.39,4.36l-1.55,12.29A3.9,3.9,0,0,1,223.22,443.07Zm1.54-18a1.76,1.76,0,0,0-1.75,1.55l-1.55,12.29a1.77,1.77,0,1,0,3.52.44l1.54-12.29a1.77,1.77,0,0,0-1.53-2Z"/><rect class="cls-3" x="221.15" y="423.98" width="5.68" height="18.07" rx="1.33" transform="translate(55.74 -24.55) rotate(7.16)"/><path d="M223.22,443.07l-.49,0a3.91,3.91,0,0,1-3.38-4.36l1.54-12.3a3.91,3.91,0,0,1,4.36-3.38,3.9,3.9,0,0,1,3.39,4.36l-1.55,12.29A3.9,3.9,0,0,1,223.22,443.07Zm1.54-18a1.76,1.76,0,0,0-1.75,1.55l-1.55,12.29a1.77,1.77,0,1,0,3.52.44l1.54-12.29a1.77,1.77,0,0,0-1.53-2Z"/><rect class="cls-3" x="226.79" y="424.69" width="5.68" height="18.07" rx="1.33" transform="translate(55.88 -25.25) rotate(7.16)"/><path d="M228.86,443.77a4.19,4.19,0,0,1-.5,0h0a3.9,3.9,0,0,1-3.38-4.36l1.54-12.29A3.89,3.89,0,0,1,228,424.5a3.83,3.83,0,0,1,2.88-.79,3.89,3.89,0,0,1,3.39,4.35l-1.55,12.3a3.91,3.91,0,0,1-3.86,3.41Zm-.23-2.14a1.76,1.76,0,0,0,2-1.54l1.55-12.29a1.8,1.8,0,0,0-.36-1.31,1.78,1.78,0,0,0-1.18-.67,1.76,1.76,0,0,0-1.31.36,1.7,1.7,0,0,0-.67,1.18l-1.55,12.29a1.78,1.78,0,0,0,1.54,2Z"/><path d="M295.7,137c-2.13,0-4.38-2.05-5.45-5.16a9.16,9.16,0,0,1-.4-4.75,4,4,0,0,1,2.45-3.17c2.39-.82,5.24,1.37,6.49,5h0c1.24,3.62.34,7.1-2.06,7.92A3,3,0,0,1,295.7,137Zm-2.35-11.12a1.08,1.08,0,0,0-.36,0,2,2,0,0,0-1.06,1.6,7.12,7.12,0,0,0,.33,3.62c.9,2.61,2.7,4,3.78,3.66s1.6-2.67.73-5.21C296,127.22,294.43,125.84,293.35,125.84Z"/><path d="M299.42,147.86a4.46,4.46,0,0,1-2.83-1.17,9.75,9.75,0,0,1-3-8.74,3.65,3.65,0,0,1,6.34-2.18,9.78,9.78,0,0,1,3,8.74,4,4,0,0,1-2.46,3.18A3.12,3.12,0,0,1,299.42,147.86Zm-2.34-11.13a1.07,1.07,0,0,0-.35.06,2,2,0,0,0-1.06,1.6,7.73,7.73,0,0,0,2.29,6.67,1.58,1.58,0,0,0,2.89-1,7.09,7.09,0,0,0-.34-3.61h0a7.1,7.1,0,0,0-1.95-3.06A2.49,2.49,0,0,0,297.08,136.73Z"/><path d="M288.56,139.53a1.05,1.05,0,0,1-1-.71,1.07,1.07,0,0,1,.66-1.36l15.65-5.37a1.06,1.06,0,0,1,.69,2l-15.65,5.38A1,1,0,0,1,288.56,139.53Z"/></g><g id="CC_Laura_Henneke" data-name="CC Laura Henneke"><text class="cls-6" transform="translate(345.89 608.98)">Laura Henneke</text></g></svg>