<svg xmlns="http://www.w3.org/2000/svg" viewBox="0 0 453.54 705.83"><defs><style>.cls-1{fill:#fff;}.cls-2{fill:#b7b7b7;}.cls-3{fill:#010101;}.cls-4{fill:#1a1a1a;}.cls-5{fill:#171717;}.cls-6{fill:#0d0d0d;}.cls-7{fill:#1d1d1d;}.cls-8{fill:#121212;}.cls-9{fill:#161616;}.cls-10{fill:#202020;}.cls-11{fill:#1e1e1e;}.cls-12{fill:#252525;}.cls-13{fill:#2b2b2b;}.cls-14{fill:#383838;}.cls-15{fill:#131313;}.cls-16{fill:#4a4a4a;}.cls-17{fill:#151515;}.cls-18{opacity:0.3;}.cls-19{fill:#b6b6b7;}.cls-20{fill:#ffd120;}.cls-21{font-size:16px;font-family:PatrickHand-Regular, Patrick Hand;}</style></defs><g id="Artwork"><path d="M220.13,521.71l-33.44-9.21,26.79-97.3,33.45,9.21Zm-30.5-10.87,28.84,7.94L244,426.07l-28.84-7.94Z"/><path d="M203.88,583.5l-20.39-48.18,31.94-13.52L235.82,570Zm-17.26-46.91,18.53,43.78,27.55-11.66-18.53-43.78Z"/><path d="M304.51,521.71l-26.79-97.3,33.44-9.21L338,512.5Zm-23.86-95.64,25.53,92.71L335,510.84l-25.53-92.71Z"/><path d="M320.76,583.5,288.82,570l20.39-48.17,32,13.52ZM292,568.71l27.55,11.66L338,536.59l-27.55-11.66Z"/><path d="M318.15,256.14H165.3V154.81H318.15Zm-150.47-2.38H315.77V157.19H167.68Z"/><polygon class="cls-1" points="319 271.31 168.53 271.31 188.98 432 328.02 429.37 319 271.31"/><path d="M187.93,433.21l-20.75-163.1h153l.06,1.13,9.09,159.3Zm-18-160.71L190,430.79l136.73-2.59-8.89-155.7Z"/><circle class="cls-2" cx="116.5" cy="347.05" r="19.93"/><path d="M116.51,368.18a21.13,21.13,0,1,1,21.12-21.13A21.16,21.16,0,0,1,116.51,368.18Zm0-39.87a18.74,18.74,0,1,0,18.73,18.74A18.77,18.77,0,0,0,116.51,328.31Z"/><path d="M115.7,328,114,326.34c11.48-11.47,19.49-18.51,27.23-25.31s15.7-13.79,27.12-25.21l1.69,1.69C158.58,289,150.57,296,142.82,302.82S127.13,316.61,115.7,328Z"/><path d="M127,365.58l-1.12-2.1c8.06-4.3,15.48-12.65,25.76-24.2,6.19-6.95,13.2-14.84,21.84-23.47l1.69,1.68c-8.59,8.59-15.58,16.44-21.75,23.37C143.35,352.16,135.41,361.08,127,365.58Z"/><rect x="97.98" y="281.1" width="2.39" height="51.43" transform="translate(-166.58 124.2) rotate(-37.59)"/><rect x="77.52" y="281.59" width="2.38" height="64.66" transform="translate(-163.68 99.48) rotate(-34.43)"/><rect class="cls-2" x="38.66" y="267.63" width="45.85" height="19.63"/><path d="M85.7,288.44H37.47v-22H85.7Zm-45.84-2.38H83.32V268.82H39.86Z"/><path d="M85.7,268.41H69.83V241.14H85.7ZM72.21,266H83.32V243.52H72.21Z"/><path d="M292.08,272.5H193.41V253.58h98.67Zm-96.29-2.39H289.7V256H195.79Z"/><path d="M195.52,232.94a24.81,24.81,0,1,1,24.81-24.81A24.83,24.83,0,0,1,195.52,232.94Zm0-47.23a22.43,22.43,0,1,0,22.42,22.42A22.45,22.45,0,0,0,195.52,185.71Z"/><path d="M286,230.28a24.81,24.81,0,1,1,24.81-24.8A24.83,24.83,0,0,1,286,230.28Zm0-47.22a22.42,22.42,0,1,0,22.42,22.42A22.44,22.44,0,0,0,286,183.06Z"/><path d="M197,207.45a3.33,3.33,0,1,0-3.32,3.32A3.32,3.32,0,0,0,197,207.45Z"/><path d="M193.63,212a4.52,4.52,0,1,1,4.52-4.52A4.53,4.53,0,0,1,193.63,212Zm0-6.66a2.14,2.14,0,1,0,2.13,2.14A2.14,2.14,0,0,0,193.63,205.31Z"/><path d="M291.66,207.45a3.33,3.33,0,1,0-3.33,3.32A3.33,3.33,0,0,0,291.66,207.45Z"/><path d="M288.33,212a4.52,4.52,0,1,1,4.52-4.52A4.53,4.53,0,0,1,288.33,212Zm0-6.66a2.14,2.14,0,1,0,2.14,2.14A2.14,2.14,0,0,0,288.33,205.31Z"/><path class="cls-3" d="M250.73,90.65l.62.09c-.16.09-.06.29-.66.19-2.27-.39-4.67-.8-6.82-1.33a19.25,19.25,0,0,1-2.81-.92,11.54,11.54,0,0,1-2.45-1.34,8.53,8.53,0,0,1-2.49-2.71l-.22-.45a5.56,5.56,0,0,1-.49-1.88,5.44,5.44,0,0,1,0-1A11.51,11.51,0,0,1,238.55,75c1.08-1.15,3.39-3.42,4.12-3.49a26.55,26.55,0,0,0-3.61,3.15c-2,2.1-3.55,4.73-3.53,7.17a6.77,6.77,0,0,0,3.16,5.41C241.51,89.36,247.56,90.39,250.73,90.65Z"/><path class="cls-3" d="M259,90.9a5.79,5.79,0,0,0,3-1.14c.65-.3-.06-1.86-2.8-1.79a35.48,35.48,0,0,0-9,1.1,17.14,17.14,0,0,0-6.39,3.18,11.32,11.32,0,0,0-3.66,5.59c-.85,3-.34,6.1,1.79,8a9.12,9.12,0,0,0,3.13,1.85l-.1.27c-.81-.5-2.9-1.43-3.82-2.76-1.7-2-1.94-5.14-1-7.91a12.46,12.46,0,0,1,.9-2,11.06,11.06,0,0,1,2.42-3A15.4,15.4,0,0,1,245.32,91a20.12,20.12,0,0,1,6.57-2.46c.59-.12,1.19-.23,1.79-.31a40.75,40.75,0,0,1,5.49-.38,6.21,6.21,0,0,1,1.92.27,1.82,1.82,0,0,1,1.23,1.16c.08.18,0,.48-.71.93s-1.6.63-2,.88C259.19,91.13,259,91.08,259,90.9Z"/><path class="cls-3" d="M248.33,108.77c-.06-.3,2.11.18,3,.09s1.82,0,2.49,0,.92-.28.88-.27a.92.92,0,0,0-.11-.69,1.38,1.38,0,0,0-.8-.74c.18-.12.58,0,.89.57a1.65,1.65,0,0,1,.18.73.69.69,0,0,1-.06.23c0,.09-.4.27-1.09.32s-1.6,0-2.39,0A27.15,27.15,0,0,1,248.33,108.77Z"/><path class="cls-3" d="M259.51,67c.91.43,1.75,1.3,1.63,1.76a3.68,3.68,0,0,1-1.52,2.09,5.74,5.74,0,0,0,1.32-1.9c.09-.4.05-.59-.41-1.1A4.31,4.31,0,0,0,259,67C259,66.9,259.14,66.84,259.51,67Z"/><path class="cls-3" d="M240.18,67.33c.09-.38.25-1,.4-1-.89,2.31,0,4.39,2.18,5.86l-.08.12a7.85,7.85,0,0,1-1.23-1,5.52,5.52,0,0,1-.87-1.21A4.28,4.28,0,0,1,240.18,67.33Z"/><path class="cls-3" d="M245.19,73.64c-.81-.3-1.94-.84-2-1.1.31.19.64.36,1,.53,1.32.83,4.4,1.11,5,1.42l-.58-.06A16.12,16.12,0,0,1,246.3,74,10.92,10.92,0,0,1,245.19,73.64Z"/><path class="cls-3" d="M244.31,60.45c1.06-1,3.24-3.05,3.85-3a22.3,22.3,0,0,0-2.86,2.25c-.71.57-1.54,1.61-1.81,1.63Z"/><path class="cls-3" d="M239,62.82l-.36.6c-.12-.07-.42.43-.58.51l.33-.65a25.77,25.77,0,0,1,6.36-7.21c1.79-1.24-.87.86-1.47,1.43C241.74,58.9,239.16,61.76,239,62.82Z"/><path class="cls-3" d="M241,74.83A10.58,10.58,0,0,1,238,71.76a5.1,5.1,0,0,1-.79-3.37,7.44,7.44,0,0,0,2.12,4.89,10.25,10.25,0,0,0,1.09,1,15.24,15.24,0,0,0,7.13,2.89,21.12,21.12,0,0,0,2.75.24,16.37,16.37,0,0,0,5.24-.7A27.14,27.14,0,0,0,259.76,75,18.13,18.13,0,0,1,241,74.83Z"/><path class="cls-4" d="M262.32,89.26a1.82,1.82,0,0,0-1.23-1.16l.19-.54c.35.17.36.29.68.51,0-.17.24-.16.5.06-.08.23-.46-.09-.58.06.4.44.46.44.62.43s.34,0,.39.54C262.49,88.76,262.73,89.25,262.32,89.26Z"/><path class="cls-4" d="M259.17,87.83a40.75,40.75,0,0,0-5.49.38c-.86-.32.11-.43-.14-1l.63-.08c0,.33,1.11.29.71.78,1.05,0,1.15-.22,1.21-.4a4.19,4.19,0,0,0,1.23-.5C259,87,259.52,87.33,259.17,87.83Z"/><path class="cls-5" d="M253.68,88.21c-.6.08-1.2.19-1.79.31.78-.35,1-1.44,1.65-1.3C253.79,87.78,252.82,87.89,253.68,88.21Z"/><path class="cls-6" d="M252.7,74.12A12.43,12.43,0,0,0,258,72.25l.16.24a9.76,9.76,0,0,1-1.49.82,4.83,4.83,0,0,1-.52.23,14.23,14.23,0,0,1-4,.93c-.59.06-1.18.07-1.77.08l-.59,0c-.12-.2.67-.12,1.47-.13S252.85,74.31,252.7,74.12Z"/><path class="cls-5" d="M242.67,71.49c-.73.07-3,2.34-4.12,3.49,0-.27.93-1.17,1.6-1.8.45-.41.91-.8,1.39-1.18-.75.11-1.6.43-1.78-.19,1.18-1.18-1.36.34-.07-1.08-2.54,2.28-1.17,2.12-.78,2l-.45.44c-.17,0-.55.35-.65.25-.49.05-.55.84-1.36,1.37a2.5,2.5,0,0,1,.61-1.18c.66-.18.86-1.34,1.06-1.71-.48.21-1.69,1.87-2.15,1.65a24.84,24.84,0,0,1,2.85-2.86c.42.34,2.49-1.54,2.42-.13-1.68,1.05-.92,1.92.43.57l.35.45c.76-.58,1.86-1.4,2.07-1.27-.6.36-.88.62-.93.79Z"/><path class="cls-5" d="M263.06,90.22a2.53,2.53,0,0,1-.65.66c-.34-.08.13-1.13-.25-.35a3.07,3.07,0,0,1-.4.26l-.21-.38a6.47,6.47,0,0,1-1.91.66c.37-.25,1.28-.45,2-.88s.79-.75.71-.93c.41,0,.17-.5.57-.1-.05-.52-.29-.56-.39-.54s-.22,0-.62-.43c.12-.15.5.17.58-.06l.1-.1a4.19,4.19,0,0,1,.5,1.2A4.64,4.64,0,0,1,263.06,90.22Z"/><path class="cls-5" d="M256.09,87.52c-.06.18-.16.35-1.21.4.4-.49-.68-.45-.71-.78-1.07-.52,4.07-.51.61-.22C254.35,87.39,257,86.91,256.09,87.52Z"/><path class="cls-4" d="M251.34,109c.17.24-.58.23-.63.41,1.85.38,1.26,1,1.88,1.32-.23.23-1.14-.13-1.29.13-2.25-.13.06-.37-1.27-.49a3.19,3.19,0,0,1,1.29-.22,3.15,3.15,0,0,0-1.25-.35c-.59-.09-3.3-1.12-3-.53-1.3-.31-1.17-.65-1-1a19,19,0,0,0,2.29.47A27.15,27.15,0,0,0,251.34,109Z"/><path class="cls-7" d="M254.67,109.23c-.29-.33-.55.39-1.47.34,2.23.26-.85.46.64.83-.13.18-1.24.14-1.25.33-.62-.29,0-.94-1.88-1.32,0-.18.8-.17.63-.41.79,0,1.7,0,2.39,0s1.06-.23,1.09-.32C254.93,108.79,255.35,109,254.67,109.23Z"/><path class="cls-5" d="M254.82,108.65a.69.69,0,0,0,.06-.23,1.65,1.65,0,0,0-.18-.73c-.31-.57-.71-.69-.89-.57a2.45,2.45,0,0,0-1.58,0c-.64.16-1.24.42-1.41.33a4.76,4.76,0,0,1,1.93-.56c.62,0,1,.07,1.15,0a1.29,1.29,0,0,1,.26.12c.47.39.68.79.87.9a.47.47,0,0,0,.61-.11,2.33,2.33,0,0,1,.1.44c-.11.17-.1.72-.39,1s-.8.37-.68.07C255.35,109,254.93,108.79,254.82,108.65Z"/><path class="cls-3" d="M253.9,106.84c-.13.12-.53,0-1.15,0a4.76,4.76,0,0,0-1.93.56,18.44,18.44,0,0,0-6.85,6,17.08,17.08,0,0,0-3.13,9,9.48,9.48,0,0,0-.06,3.5,24.15,24.15,0,0,0,1,4.12c0,.51.53,1.55.42,1.77-.32-.12-.31-.71-.69-1.67a19.28,19.28,0,0,1-.75-9.52,17.34,17.34,0,0,1,.94-3.47,5.42,5.42,0,0,1,.22-.56c.61-.84,2.12-4.06,3.65-5.45.4-.44.83-.86,1.27-1.26.62-.35,1.69-1.24,2.93-2a10.13,10.13,0,0,1,1.48-.73A4,4,0,0,1,253.9,106.84Z"/><path class="cls-8" d="M261.16,68.26a3.3,3.3,0,0,0-.79-.91c-.41-.31-.83-.48-.86-.32-.37-.19-.47-.13-.52-.06l-.5-.16a3,3,0,0,0-1.76-.5,19.85,19.85,0,0,0-2.63.08c-.31-.25.48-.56,1.2-.76s1.33-.29.53-.49c.22-.19,1.1-.18,1.28-.35l.63.08c-.36.38,1,.72.4,1.11a4.6,4.6,0,0,1,2.16,1c.81.59,1.08,1.18,1.51,1a11.3,11.3,0,0,1-1.14-1.27c-.22-.32,0-.7,1.16-.14.56.19.39.59.2.66-1.32-.89.53.39.23,1.61-.3.21-.36-.16-.53-.4S261.33,68,261.16,68.26Z"/><path class="cls-8" d="M249.33,67.15c-1.15.4-2.63,0,.35-.89-.42.28-.53.54-.4.75.9-.7,1.45-.72.63-.07-.14.3,2.73-.59,1.73-.66.82-.16.58.23.72.41a22.25,22.25,0,0,0-2.31.66C250.14,67.07,249.42,67.31,249.33,67.15Z"/><path class="cls-8" d="M239.76,71.81c.18.62,1,.3,1.78.19-.48.38-.94.77-1.39,1.18-.26-.27-.38-.77-1.14-.31C239.48,72.38,239.13,72.37,239.76,71.81Z"/><path class="cls-8" d="M238.46,73.21c-.13,1-.24,1.11,0,1.68a6.29,6.29,0,0,0-.87.81c.22-1-.36-.57-.9-.7.66-.77.58-.93,1.13-1.54C237.91,73.56,238.29,73.21,238.46,73.21Z"/><path class="cls-8" d="M235.41,82.3c-.8-.63-.55,1.35-1.08,1.29-.09-.48,0-.61-.06-1.19.35-.24.55-1.73,1.13-1.09A5.44,5.44,0,0,0,235.41,82.3Z"/><path class="cls-8" d="M250.6,91.5l-1.26-.22c-.22.2.55.35.56.54-.15.13-.65,0-.63-.11-.46-.65-2.08.46-1.9-.35-1-.13-.64.35-2.57-.22l0-.14c-1.42-.37-.79.25-2,0-1.34-.32-1.1-.56-1.09-.78l.1-.27c.5.14.53.23.54.33a3.21,3.21,0,0,0,1.31-.09c-.19-.32-1.75-.25-1.06-.74,1,.27,1.46.65,1.77.48,1.3.22,1.11.45,1.13.68.73.13.57-.15.7-.29L250,91C250.47,91.32,251.89,91.37,250.6,91.5Z"/><path class="cls-6" d="M250.6,91.5c1.29-.13-.13-.18-.56-.53.53.12.6,0,.65,0,.6.1.5-.1.66-.19a25.28,25.28,0,0,0,7.12.25c.63.35-1.24.44-2.3.44V92c-.51.47-.8-.26-.6-.43-1.31-.07-.3.5-.64.7l-.62,0c-.55-.13-1.1-.26-1.25-.11a13.14,13.14,0,0,1-1.86-.38C250.66,91.68,250.62,91.59,250.6,91.5Z"/><path class="cls-4" d="M255.64,107.75a.47.47,0,0,1-.61.11c-.19-.11-.4-.51-.87-.9.1-.09,0-.18-.22-.25.45,0,.5-.34-.31-.66.45-.19.9.19,1.25.54.47.06,0-.51-.67-.7s-1.52-.14-1.07-.46a2.67,2.67,0,0,1,1.59.53c-.33-.48-.5-.67-.5-.89a1.3,1.3,0,0,0-.3-.86c.44-.25-1.13-.5-2.3-.2a4.6,4.6,0,0,1,3.18,0,4.46,4.46,0,0,1,2.18,1.53c.46.92.05,1.06-.28,1.14-.65-1-.61-1.12-1.41-1.68-.75.18.4.74.91,2-.57-.41-.48-.15-.38.14S256,107.78,255.64,107.75Z"/><path class="cls-7" d="M251.25,107.11l-.15-.4c1-.45,1.61-.37,1.57-.11,1.36-.17-.3-.47-.08-.71.81-.43.63.63,1.35.82.22.07.32.16.22.25a1.29,1.29,0,0,0-.26-.12A4,4,0,0,0,251.25,107.11Z"/><path class="cls-9" d="M246.3,74a16.12,16.12,0,0,0,2.32.45c.16.3-.18.45-1.26.24C246.08,74.46,246.29,74.22,246.3,74Z"/><path class="cls-9" d="M258.11,72.49a8.21,8.21,0,0,0,1.95-1.69c.57-.68.91-1.15,1-.83-.75,1.09-.9.83-2,2-.67.72-.78,1.1-.44,1.39l-1.68.76c-.67-.15-.65-.18-.36-.78A9.76,9.76,0,0,0,258.11,72.49Z"/><path class="cls-10" d="M261.58,71c0-.43.24-1.09.23-1.62s-.27-.85-.57-.87a.87.87,0,0,0-.08-.26c.17-.28.42-.11.57.16s.23.61.53.4c.3-1.22-1.55-2.5-.23-1.61a2.33,2.33,0,0,1,.58,1.93A4,4,0,0,1,261.58,71Z"/><path class="cls-7" d="M249.68,66.26c-.42.28-.53.54-.4.75.9-.7,1.45-.72.63-.07-.14.3,2.73-.59,1.73-.66.82-.16.58.23.72.41q.88-.19,1.74-.3c-.31-.25.48-.56,1.2-.76s1.33-.29.53-.49h-.62c.11.34-1.36.43-1.77.75l-.11-.7A16.92,16.92,0,0,1,255.2,65c1.16-.13-.36-1.08,2.61-.56l-.07.42c-.36.38,1,.72.4,1.11a4.6,4.6,0,0,1,2.16,1c.81.59,1.08,1.18,1.51,1a11.3,11.3,0,0,1-1.14-1.27c-.22-.32,0-.7,1.16-.14.56.19.39.59.2.66a2.33,2.33,0,0,1,.58,1.93,4,4,0,0,1-1,1.87,5.42,5.42,0,0,1-2.49,1.86c0-.29.5-.81,1-1.38a5.76,5.76,0,0,1,1.38-1.29l-.36-.23c-.75,1.09-.9.83-2,2-.67.72-.78,1.1-.44,1.39l-1.68.76c.08.38.7.11,1.27-.25s1.09-.76,1.26-.4c.83-.66.53.1,1.29-.5-.07-.24-.52-.23.06-.88.11,1,.94-.5,1.68-1.18.07,1-1.31,2.13-1.26,2.58a12.76,12.76,0,0,0,1.44-1.59A4.9,4.9,0,0,0,263.91,68c-.15-.17-.3-.74-.84-1.54-.42-.17-.07,1.06-1-.1-.34-.42-1.06-.82-1-.95.82.37,1.1.55,1,.37a3.33,3.33,0,0,0-1.21-1,10.48,10.48,0,0,0-5.7-1.15,17.57,17.57,0,0,0-2.72.32c-.81.41-.75.72.72.16.6.16,1.75.2,2,.52-1.16,0-3.18.56-2.62,0-1.86,0-.57.33-1.84.74-.49-.35.25-.77.38-1.14a30.28,30.28,0,0,0-7.4,3c.06.13.55-.12.72-.07-.59.31-1.15.65-1.71,1,.11.34.28.63,1,.38.78-.55,1.3-1,2.13-1.49.18,0,.14.24.71,0,.09-.16-.1-.27.47-.52.3.4-1.13,1.17-1.92,1.89-1.14.16-2.48,2.11-1.7.84-1.95,1.31-1.36,1.24-.3.71-.52.34-1,.71-1.53,1.08l.09.12.35.45c.76-.58,1.86-1.4,2.07-1.27,1-.58,1.07-.83,2-1.33-.16-.19-1.42.65-1.28.21,1.69-.65,2.78-1.28,4-1.6.09-.15-.09-.28.48-.48C248.18,67.55,246.7,67.17,249.68,66.26Zm3.1-.53a.38.38,0,0,1-.7-.3c-.6.15-.43.29-.54.43-1.92.44-1.16-.14-.15-.55C252.35,65.19,252.81,65.37,252.78,65.73Z"/><path class="cls-8" d="M237.23,76.18c-.07.83-1.09,1.39-.58.32-.11-.3-1.53,1.08-.71-.48C236.44,75.9,237,75.67,237.23,76.18Z"/><path class="cls-10" d="M236.65,76.5c-.51,1.07.51.51.58-.32l.35-.48a6.29,6.29,0,0,1,.87-.81c-.23-.57-.12-.69,0-1.68l.45-.44.1.1c.76-.46.88,0,1.14.31-.67.63-1.63,1.53-1.6,1.8a11.51,11.51,0,0,0-3.15,6.33c-.58-.64-.78.85-1.13,1.09-.16-.35-.31-.71-.29,0a5.12,5.12,0,0,1,.26-3.73c.15.24.44-.47.63-.42-.43,1.15-.61,1.81-.85,1.68,0,1.6.29,1.12.52.28s.76-2.09.85-2.4A6.44,6.44,0,0,0,236.65,76.5Z"/><path class="cls-7" d="M236.9,87.61c-1.35-1.25,1.13.26.37-1.22.53.56,1.16,1,1.34,1a11.54,11.54,0,0,0,2.45,1.34l-.06.14c-1.43-.89-1.84-.15-.16.39-.15.14-.49.93.36.76l.58.21c0,.22-.25.46,1.09.78-.24.18.52.4.51.58l-.63-.17a7.48,7.48,0,0,1-1.9-.46c.36,0,.71,0,.75-.19-.8-.1-1.29-.35-1.15-.58a7,7,0,0,1-2.32-1c0,.17.48.46.4.58a12.86,12.86,0,0,1-1.1-.71c-1-.72-.62.15-1.4-.39a12.85,12.85,0,0,1-1-1c.09-.1-.47-.71-.72-1.19.16-.36.51-.19,1,.13a4,4,0,0,1,1,.77c.59,1.23,3.07,1.64,3,2.32,2.23.33-.2-1.22-1.49-2.16l-.44.56Z"/><path class="cls-7" d="M238.47,98c-.18,0-.4-.21-.55.52.27.14.36.49.41,1.31l-.71,0c0,.76.17.86.32,1s.26.41.36,1.45c.57-.9,1,1,1.52.78a8.5,8.5,0,0,0-.6-1.5c.1-.13.25,0,.24-.56-.52-.49-.69,1.53-.87-.54.9,0,.31-.26.08-1.18.37.46.57-.92.94-.43.12-.64.35-1.54.55-1.56a12.46,12.46,0,0,1,.9-2c-.16-.7.85-2.33,2.14-3.28s-.77-.27.58-1.18c1.3-.61,2.12-.71,1.54.17a20.12,20.12,0,0,1,6.57-2.46c.78-.35,1-1.44,1.65-1.3l.63-.08c-1.07-.52,4.07-.51.61-.22-.43.47,2.18,0,1.31.6a4.19,4.19,0,0,0,1.23-.5c1.69,0,2.2.31,1.85.81a6.21,6.21,0,0,1,1.92.27l.19-.54c.35.17.36.29.68.51,0-.17.24-.16.5.06l.1-.1a4.19,4.19,0,0,1,.5,1.2,4.64,4.64,0,0,1,0,1c.4-.24.42.19,0,.71s-1.28.84-1.44.74c1.12-.54,0-.57.16-.88l-.21-.38a6.47,6.47,0,0,1-1.91.66c-.45.06-.68,0-.62-.17-.18,0-.36.06-.55.09.63.35-1.24.44-2.3.44V92c-.51.47-.8-.26-.6-.43-1.31-.07-.3.5-.64.7l-.62,0c-.12.35,1,.5,1.23.77-.49,0-1.26,0-1.29.09,1.11.13,1.65-.16,1.93.06a8.12,8.12,0,0,0,1.28-.19,8.12,8.12,0,0,0,2.06.76c0-.1.07-.18.63-.27l.1.42a11.08,11.08,0,0,0,2-.63c-1.4.37-1.52-.07-1.68-.27s-.34-.26-1.83.28l-.08-.56c.63-.09.76,0,1.27-.08.06-.19-.19-.37.51-.56-.1.22.78.13,1.42,0s1.08-.28,0,.45c-.18,0-.12-.24-.7,0-.14.44,1.22-.15.88.42a5.12,5.12,0,0,0,.62-.31c-.22-.58.4-.18,1.17-.86-.49-.28-.38-.78-.26-1.68a7.13,7.13,0,0,0,.29-1.72c0-.23,0-.44-.76-.84.16-.17-.74-.8-.84-1,1,.53,1.36,1,1.69,1.09-.51-.9-.86-1.33-.54-1.56a5.73,5.73,0,0,0-2.14-.94c1.46.75,1.58,1.24,1.34,1.24a5.25,5.25,0,0,0-1.66.15c-2.32-.4-1.65-1.28-3.11-.46-.1-.26-.45-.47-1.32-.51-.37.62,2.13.48,2,1.07-1.49,0-1.45-.4-2.58-.46-2.32.35-.71-.55-2-.52-.76.08-.73-.12-.71-.33l-.66.09c-1.11.29.16.66-1.16.94,0-.07-.56,0-.64.14a21.79,21.79,0,0,0,2.62,0c.13-.13,0-.29.61-.37-.24.52-2,.75-1.8,1-.13-.4-2.7.44-2-.3l-.63.16c.1.26-.39.43-1.2.52-.79.83-.59-1.34-2.64.46.47-.21,1.2-.53,1.27-.41l.37.93c-.39.06-2.36.71-2.26,1.08.89-.53.18.48-.24.81-.76.38-.38-.44-1.34.21.17.17-.17.57-.7,1.09-.16-.23-.55.09-1,.72l-.41-.39a24.66,24.66,0,0,1-2,2.56c-.38.35-.61,0-.23-1a12.22,12.22,0,0,0-.67,1.17c-.19.36-.32.73-.16.66.16-.52.89.19.67,1-.23,0-.43-.42-.75.4.06.18.25.11.07.7C238.41,97.49,238.61,97.42,238.47,98Zm21.76-6.93c1.08-.35.39.41.73.53-.62.18-1,.29-1.11.44C257.58,92.19,261.26,91.36,260.23,91.08Z"/><path class="cls-5" d="M253.94,106.71c-.72-.19-.54-1.25-1.35-.82-.22.24,1.44.54.08.71,0-.26-.53-.34-1.57.11l.15.4a10.13,10.13,0,0,0-1.48.73l-.37-.61a12,12,0,0,1,2.54-1.47c.75-.33,1.34-.5,1.21-.9-.89.1-1.17.42-1.19.69-1.39.34-.55-.52-.15-.7a4.22,4.22,0,0,1,2,.07c.36-.34-1.24-.41-.64-.78a6.71,6.71,0,0,1,.76.07,1.3,1.3,0,0,1,.3.86c0,.22.17.41.5.89a2.67,2.67,0,0,0-1.59-.53c-.45.32.36.23,1.07.46s1.14.76.67.7c-.35-.35-.8-.73-1.25-.54C254.44,106.37,254.39,106.71,253.94,106.71Z"/><path class="cls-5" d="M245.57,111.1c0-.16.31-.54.2-.63s-.47.39-.41.44c-.94,1-.91-.14-.64-.58,1-.63,1.06.2,2.12-.49C246.4,110.24,246,110.66,245.57,111.1Z"/><path class="cls-11" d="M245.36,58.87c.93-.46.62-.19.11.26s-1.19,1.12-1.16,1.32l-.82.9a7.68,7.68,0,0,0-.78.93c-.25-.1.22-.79-.07-.85.36-.36.53-.37,1-.82C244.24,59.52,244.15,60.05,245.36,58.87Z"/><path class="cls-9" d="M243.59,60.61c-.42.45-.59.46-1,.82.29.06-.18.75.07.85-.36.48-.76.95-1.09,1.45a13.86,13.86,0,0,0-.88,1.52l-.64-.31a4.9,4.9,0,0,0,.69-1.76c.43-.41,1.45-1.83,1.47-1.26.7-.73.12-1.24-.45-.35C241.46,60.83,243.28,60.57,243.59,60.61Z"/><path class="cls-8" d="M256.1,73.54c-.37.27-.47.52-.35.74-2,.13.16.51-1.75.49-.68.17-.45.36-.52.54a20.49,20.49,0,0,0,2.94-1,6.45,6.45,0,0,1-3.54,1.2,24.72,24.72,0,0,1-3.16.41c-.52,0-.62-.19-1.26-.24-1.6-.75,1.21.16,1.28-.19,1.1.27,1.44.13,1.25-.26a21.54,21.54,0,0,0,2.42-.37l-.07-.43c-.7.28-1.2.29-1.19,0A14.23,14.23,0,0,0,256.1,73.54Z"/><path class="cls-8" d="M261.09,70c.18-.65.33-.7.46-1.19-.17,0-.24-.09-.31-.26.3,0,.56.32.57.87s-.21,1.19-.23,1.62a5.42,5.42,0,0,1-2.49,1.86c0-.29.5-.81,1-1.38a5.76,5.76,0,0,1,1.38-1.29Z"/><path class="cls-10" d="M237.27,86.39c.76,1.48-1.72,0-.37,1.22,0,.17-.27-.06-.55-.32a4,4,0,0,0-1-.77c-.49-.76.2-.41-.32-1.27l.38-.21c1.36,2.13.24-.22.89.1.18.45.44.88.64.85C237,86.13,237.15,86.25,237.27,86.39Z"/><path class="cls-5" d="M244.44,89.89c-.31.17-.78-.21-1.77-.48-.69.49.87.42,1.06.74a3.21,3.21,0,0,1-1.31.09c0-.1,0-.19-.54-.33l-.1.27L241.2,90c-.74-.78,2.28-.23-.2-1.15l.06-.14a19.25,19.25,0,0,0,2.81.92C243.74,89.69,244.07,89.79,244.44,89.89Z"/><path class="cls-4" d="M246.84,109.84c-1.06.69-1.15-.14-2.12.49-.27.44-.3,1.56.64.58-.06,0,.22-.47.41-.44s-.21.47-.2.63c-1.53,1.39-3,4.61-3.65,5.45-.42.1.15-1.14-.41-.84,1.65-2.55,1.18-2.57,2.69-3.4.28-1-.15-1.3-.33-1.88a17.93,17.93,0,0,0,2.1-1.54l.2.21c-.35.35-.45.59-.26.63.73-.37,2.15-2.1,2.22-1.14,1.85-1.71.69-1.75,1.91-2.83-.55-.26.12-.79.23-1.19,1-.3.36.29,1.48,0,1.05.38,0-.49,1.42-.43-.6.37,1,.44.64.78a4.22,4.22,0,0,0-2-.07c-.4.18-1.24,1,.15.7,0-.27.3-.59,1.19-.69.13.4-.46.57-1.21.9a12,12,0,0,0-2.54,1.47l.37.61C248.53,108.6,247.46,109.49,246.84,109.84Z"/><path class="cls-4" d="M240.76,120.58a19.28,19.28,0,0,0,.75,9.52c-.62-1.36-1-2.46-1.52-2.14,0-1,.21-1.4-.37-1.22-.09-.61-.24-.47-.38-.6-.05-.76.21-.56.37-.68-.07-.61-.22-.48-.34-.62a7,7,0,0,1-.18-1.28c.11-.34.24-.66.44-.63a6,6,0,0,0,0-1.91c.13-.74.34-.49.52-.56.09-.72-.16-.57-.31-.7.26-1.35.55-.17.82-.46C240.24,120.57,240.56,120.49,240.76,120.58Z"/><path class="cls-9" d="M252.84,54.55a15.41,15.41,0,0,1-2.2,1.12c.17.12,1.06-.38,1.73-.63a6.71,6.71,0,0,1-1.8,1,17,17,0,0,0-2.41,1.43c-.61-.07-2.79,2-3.85,3,0-.2.68-.85,1.16-1.32s.82-.72-.11-.26a4.71,4.71,0,0,1,1.46-1.16c-.11.45,2.85-1.46,3.14-2-.36-.12-1.42,1.08-1.3.24,1.23-.38.66-.47,2.23-1.18-.57.5-.49.63.25.51,1.57-.62-.7-.43.9-1l.17.4C252.15,54.79,252.48,54.68,252.84,54.55Z"/><path class="cls-12" d="M252,54.24c-1.6.61.67.42-.9,1-.74.12-.82,0-.25-.51-1.57.71-1,.8-2.23,1.18-.18-.11.61-.52,1.3-.9s1.33-.63.75-.67c.5-.15,1-.33,1.82-.63C252.46,53.9,252,54.11,252,54.24Z"/><path class="cls-8" d="M240.58,70.11l-.13.07c-.09.15.18.48.25.43.81,1.32-.7-.36-.6.39.69.76,1.14.67,1.35.32a7.85,7.85,0,0,0,1.23,1c-.51.22.6,1-.06,1.16.52.2,1,.37,1.09.58l-.06.13-.07.13c-1-.84-1.12-.5-2.23-1.2l-.49-.41c.36-.44-.8-1.39-1.24-1.44-.11-.18-.21-.36-.31-.54.14-.37.53.19.79.23a5.09,5.09,0,0,1-.76-1.06,3.46,3.46,0,0,1-.24-1.61c0-.19,0-.39,0-.59.1.13.12.59.27.58.13-.63.42-1.52.79-1A4.28,4.28,0,0,0,240.58,70.11Z"/><path class="cls-10" d="M243.65,74.23l.06-.13c-.05-.21-.57-.38-1.09-.58.66-.18-.45-.94.06-1.16l.08-.12.46.3c0,.26,1.16.8,2,1.1-.14.35-.05.85-.92.71C245.41,75.24,245.3,75.27,243.65,74.23Z"/><path class="cls-10" d="M250.38,74.55c.3.46-1.1.46-.64,1-.07.35-2.88-.56-1.28.19.74.26.23.24-.05.42-.73-.12-.34-.18,0-.14-.15-.15-1.26-.3-1.23-.48l.11-.56c-.51-.13-.58-.07-.63,0-1.72-.49,1,0,.68-.29,1.08.21,1.42.06,1.26-.24l.58.06.59,0Z"/><path class="cls-7" d="M239.12,67.74c.1-.66.17-.3.14,0,.24-.21,0-.73.37-1.7.31-.22.47.84.87-.28l.24-.52a13.86,13.86,0,0,1,.88-1.52l.24.16c-.22.33-.41.66-.6,1a9,9,0,0,0-.68,1.5c-.15,0-.31.57-.4,1-.37-.53-.66.36-.79,1C239.24,68.33,239.22,67.87,239.12,67.74Z"/><path class="cls-9" d="M255.21,65.15c.11.34-1.36.43-1.77.75l-.11-.7A16.92,16.92,0,0,1,255.2,65Z"/><path class="cls-4" d="M243.72,68.56c.78-.55,1.3-1,2.13-1.49.18,0,.14.24.71,0,.09-.16-.1-.27.47-.52.3.4-1.13,1.17-1.92,1.89-1.14.16-2.48,2.11-1.7.84-.17,0-.62.23-.7.11C242.49,69.08,243,69,243.72,68.56Z"/><path class="cls-8" d="M251.2,91.74a13.14,13.14,0,0,0,1.86.38c.61.07.47.22.6.35-.61,0-.51.12-.66.22-.74-.1-.5-.32-.58-.5-.74-.07-.57.19-.69.34l-.63-.09C251.08,92.08,250,91.82,251.2,91.74Z"/><path class="cls-8" d="M263.06,90.22c.4-.24.42.19,0,.71s-1.28.84-1.44.74c1.12-.54,0-.57.16-.88a3.07,3.07,0,0,0,.4-.26c.38-.78-.09.27.25.35A2.53,2.53,0,0,0,263.06,90.22Z"/><path class="cls-13" d="M253.13,53.53c-.17.35,1.08.51-.92,1.11l-.17-.4c-.06-.13.42-.34.49-.49l-.05-.13C253,53.4,253.07,53.46,253.13,53.53Z"/><path class="cls-10" d="M246.39,57.13l.43.58a4.71,4.71,0,0,0-1.46,1.16c-1.21,1.18-1.12.65-1.77,1.74-.31,0-2.13.22-1.78,1l.11.09c-.61.88-.82.88-1,.83-.46.86-1.37,2.51-.82,2.45l.64.31-.24.52-1.31-.56c.24-.47.39-.53.69-1.09A9.44,9.44,0,0,1,241.14,61c.92-1.06.67-1.08.53-1.29.73-.57.9-.35,1.79-1.05l.2.21c-.75.73-.87.71-1.46,1.31.17.18.61-.11,1.19-.67.28,0,1.07-.5,1-.77,1.13-.68.91-.85,1.87-1.75Z"/><path class="cls-9" d="M240.5,65.77c-.4,1.12-.56.06-.87.28-.38,1-.13,1.49-.37,1.7,0-.31,0-.67-.14,0,0,.2,0,.4,0,.59-.21,0-.56.33-.55-.63.29.23.39-.1.63-1.16.27-1.35-1.35,0,0-1.33Z"/><path class="cls-10" d="M241.35,73.16c1.11.7,1.23.36,2.23,1.2,1.15.68-1.69.09,1.6,1.24l0,.13c-.75-.22-.62.07-.78.19-.72-.6-2.39-.92-2.41-1.3-.83-.41-1.24-.49-1.49-.34a10.25,10.25,0,0,1-1.09-1c.08-.1-.53-.75-.82-1.27,2.29,2.32.22-.32.37-1.05.31.49.27.58.22.66C240.16,73.07,241.1,73.38,241.35,73.16Z"/><path class="cls-7" d="M239.76,71.81c-.63.56-.28.57-.75,1.06l-.1-.1c-.39.08-1.76.24.78-2C238.4,72.15,240.94,70.63,239.76,71.81Z"/><path class="cls-8" d="M235.39,77.84c-.09.31-.62,1.55-.85,2.4s-.49,1.32-.52-.28c.24.13.42-.53.85-1.68S235.76,77.09,235.39,77.84Z"/><path class="cls-10" d="M239.91,106.18c-.78-.34-1.73-2.39-2.13-2.47-.43-.63.79-.1,1.07-.95.1,1.87.75.74,1.14.77.28.69-.32.34.08,1.13l-.37.22c.3.22,1.34,1.75,1.63,1.57.33.41.41.87.79.83.57.54.4.68-.16.5A4.3,4.3,0,0,1,239.91,106.18Z"/><path class="cls-5" d="M250.07,109.8c0,.36-.48.16-1.26,0l-.06.56a2.12,2.12,0,0,0,1.28,0c1.33.12-1,.36,1.27.49.15-.26,1.06.1,1.29-.13,0-.19,1.12-.15,1.25-.33.6-.06.5.11.66.2a2.22,2.22,0,0,0,1.67-1.43,1.74,1.74,0,0,0,.13-.51c.22-.34.72.91.72-.62-.16-.78-.22-.51-.27-.2s-.25.63-.44.28c-.56-.5.21-.73.42-.72-.24-.62-.37-.41-.52-.48-.51-1.21-1.66-1.77-.91-2,.8.56.76.73,1.41,1.68.33-.08.74-.22.28-1.14a5.09,5.09,0,0,1,1,2.32,3.55,3.55,0,0,1-.87,3,3.94,3.94,0,0,1-2.38,1.19,4.16,4.16,0,0,1-1.46,0c1.53-.06.28-.52.65-.75-1.46,0-2.1.44-2-.09-2,.14.34.59,1.32.56-.13.12-.66.15-.66.29a26,26,0,0,1-8-1c-.52-.34-1.76-.77-3-1.55a9.54,9.54,0,0,1-3.17-3c.42,0,.94.17,1.69,1.31.67.09-.41-.92,0-1l.1-.1c1,1,1.45,1.38,1.17,1.59,1,.64,1.4.55,1.38.19,1.37.61,1.11.88,2.87,1.3.18.36-.52.24-.78.36,1.75.31,5.74-.14,2.19-.91C246.77,108.68,249.48,109.71,250.07,109.8Z"/><path class="cls-7" d="M256.17,109.17c-.27,0-.12-.5,0-.52,0-.6-.26-.41-.42-.46a2.33,2.33,0,0,0-.1-.44c.33,0,.3-.38.19-.69s-.19-.55.38-.14c.15.07.28-.14.52.48-.21,0-1,.22-.42.72.19.35.37,0,.44-.28s.11-.58.27.2c0,1.53-.5.28-.72.62A1.74,1.74,0,0,1,256.17,109.17Z"/><path class="cls-4" d="M246.68,107.73c1.62-1.18,2.58-.79,1.7.16-1.9,1.24.8-1.39-.93-.22C247.46,107.38,246.82,107.84,246.68,107.73Z"/><path class="cls-8" d="M242.09,132.51c-.27.23-.58.42-1.05-.19-.26-1.1.71.27-.07-2C241.55,130.65,241.42,131.11,242.09,132.51Z"/><path class="cls-7" d="M238.75,127.55c.38,2.17-.31,1.07-.71.84.11.45.21.91.35,1.35a3.49,3.49,0,0,0,.94,1.87c.42.56,1,1.57,1.55,2.28.45.19.42-1.15,1.2.07l.61-.36c-.74-1.23,0-.79-.49-1.83-.32-.12-.31-.71-.69-1.67-.62-1.36-1-2.46-1.52-2.14,0-1,.21-1.4-.37-1.22,0,.46.55,3-.33,1.37-.07.06-.14.14,0,.68.59,1.46,1-.62,1.59.87-.53-.15-.25,1-.38,1.48-.66-2.26-.82-.29-1.34-2.32C239,128.33,238.89,127.54,238.75,127.55Zm3.34,5c-.27.23-.58.42-1.05-.19-.26-1.1.71.27-.07-2C241.55,130.65,241.42,131.11,242.09,132.51Z"/><path class="cls-7" d="M251.1,92.44l.63.09c.12-.15,0-.41.69-.34.08.18-.16.4.58.5.15-.1.05-.27.66-.22-.6.4-2,.41-.75,1.07l0,.43c-1.84-.19-1.83-.6-1.85-1,1.6,0,.41-.46-1.23-.49C249.59,92.24,250.32,92.34,251.1,92.44Z"/><path class="cls-10" d="M245.11,89.44c.89-.53.18.48-.24.81-.76.38-.38-.44-1.34.21.17.17-.17.57-.7,1.09-.16-.23-.55.09-1,.72l-.41-.39C243.18,90,243.78,89.82,245.11,89.44Z"/><path class="cls-3" d="M268.69,52.27c-.17.11,0,.29.52.52-1.67-.46-2.44-.31-2.32.43a6.15,6.15,0,0,0-2.55-.23l-.61-.11c0-.14.53-.08.67-.17,1.32.12,2,.1,2.09-.35C267.49,52.4,267.54,52,268.69,52.27Z"/><path class="cls-13" d="M255.51,52.51a11.36,11.36,0,0,0,2.67.56,8.69,8.69,0,0,0-1.23.18c-.5-.19-2.94.73-2.52.16C254.44,53.14,254.69,52.82,255.51,52.51Z"/><path class="cls-8" d="M241.81,61.57c.57-.89,1.15-.38.45.35,0-.57-1,.85-1.47,1.26a4.9,4.9,0,0,1-.69,1.76c-.55.06.36-1.59.82-2.45.18,0,.39,0,1-.83Z"/><path class="cls-10" d="M257,74.09c.08.38.7.11,1.27-.25s1.09-.76,1.26-.4c.71.92-.29.65-1.16.59-.48.24-.49.34-.49.44-1.33.62-2.23.94-2.31,1.23-.87.2-.62-.2-.78-.37-1,.37-.54.75-1.09,1.11a5.63,5.63,0,0,0-1.29.6,3.2,3.2,0,0,1-1.37-.36c.53-.34,1.85-.66,1.86-1.14a6.45,6.45,0,0,0,3.54-1.2,20.49,20.49,0,0,1-2.94,1c.07-.18-.16-.37.52-.54,1.91,0-.25-.36,1.75-.49-.12-.22,0-.47.35-.74a4.83,4.83,0,0,0,.52-.23C256.33,73.91,256.31,73.94,257,74.09Z"/><path class="cls-8" d="M252.78,65.73a.38.38,0,0,1-.7-.3c-.6.15-.43.29-.54.43-1.92.44-1.16-.14-.15-.55C252.35,65.19,252.81,65.37,252.78,65.73Z"/><path class="cls-4" d="M244.8,91.14c1.93.57,1.57.09,2.57.22-.18.81,1.44-.3,1.9.35,0,.07.48.24.63.11,0-.19-.78-.34-.56-.54l1.26.22c0,.09.06.18.6.24-1.22.08-.12.34-.1.7-.78-.1-1.51-.2-1.32.08,1.64,0,2.83.45,1.23.49-1.31,0-.81-.14-2.56-.43l0,.28c.25.26.83.1,1.93.33,0,.27-.84.17-.74.46l-3.84-.71c-1-.49.09-.16.11-.56C247.31,91.94,242.42,91.17,244.8,91.14Z"/><path class="cls-4" d="M254.31,92.23c-.12.35,1,.5,1.23.77-.49,0-1.26,0-1.29.09,1.11.13,1.65-.16,1.93.06.12.3-.53.48-2,.37l0,.57c-1-.11-.19-.44-1.27-.55-1.25-.66.15-.67.75-1.07-.13-.13,0-.28-.6-.35C253.21,92,253.76,92.1,254.31,92.23Z"/><path class="cls-4" d="M239.26,117.62c.07-1.22,1-2.09.28-2.06.09-1.33.53.61,1.58-2.23.69.78-.1,1.39,1.44.1-.37.6-.67.75-.63,1.09-.59.36-2.34,2.24-1.17,2.24-.37,1-.5.19-.82,1.07Z"/><path class="cls-14" d="M259.32,51.65c-.27.29,1.76.69,1.95.4,1.54.06-.38.62,1.87.58a3.34,3.34,0,0,1-1.88-.15,19.51,19.51,0,0,1-3.08.59,11.36,11.36,0,0,1-2.67-.56c-.34-.23.35-.45.51-.68a19.42,19.42,0,0,1,2.63-.4C258.8,51.53,258.69,51.7,259.32,51.65Z"/><path class="cls-12" d="M255.51,52.51c-.82.31-1.07.63-1.08.9-.8.24-.64-.1-1.3.12-.06-.07-.15-.13-.65.09-.16-.07.19-.22.55-.36s.75-.13.7.05c1.44-.44.19-.75-.79-.32.31-.7,2.18-.73,3.08-1.16C255.86,52.06,255.17,52.28,255.51,52.51Z"/><path class="cls-7" d="M237.26,67.6l1.14.09a4.81,4.81,0,0,0,.91,3.08c.1.18.2.36.31.54.44,0,1.6,1,1.24,1.44l.49.41c-.25.22-1.19-.09-2.21-1.54.05-.08.09-.17-.22-.66-.15.73,1.92,3.37-.37,1.05.29.52.9,1.17.82,1.27a7.44,7.44,0,0,1-2.12-4.89A6.91,6.91,0,0,1,237.26,67.6Z"/><path class="cls-4" d="M237.81,73.46c-.55.61-.47.77-1.13,1.54.54.13,1.12-.29.9.7l-.35.48c-.25-.51-.79-.28-1.29-.16,1.12-2-1,1.11-.83.24l-.61-.37c.79-1,.59-.17,1.27-1.59.38-.15.9-.54,1.29-.65a2.5,2.5,0,0,0-.61,1.18C237.26,74.3,237.32,73.51,237.81,73.46Z"/><path class="cls-5" d="M234.87,85.32l.12-.07c.52.86-.17.51.32,1.27-.45-.32-.8-.49-1-.13.25.48.81,1.09.72,1.19l-.22.19a9,9,0,0,1-2.29-5.22A10.37,10.37,0,0,1,233.72,77c-.25.94.29.87.63,1-.58.93-1,.73-1.45,1.65-.45,2.24,0,2.18-.11,3.55.31-.85.31-.1.85-.15,0,1-.06,1.51.46,1.2.21.58,0,.53,0,.71C234.51,85.79,234.63,85.33,234.87,85.32Z"/><path class="cls-8" d="M236.35,87.29c.28.26.55.49.55.32l.47.4.44-.56c1.29.94,3.72,2.49,1.49,2.16C239.42,88.93,236.94,88.52,236.35,87.29Z"/><path class="cls-5" d="M263.91,91.67c-.49-.28-.38-.78-.26-1.68a7.13,7.13,0,0,0,.29-1.72c0-.23,0-.44-.76-.84.16-.17-.74-.8-.84-1,1,.53,1.36,1,1.69,1.09-.51-.9-.86-1.33-.54-1.56a4.1,4.1,0,0,1,1.76,4.08,4.74,4.74,0,0,1-3,3.16c-1.4.37-1.52-.07-1.68-.27s-.34-.26-1.83.28l-.08-.56c.63-.09.76,0,1.27-.08.06-.19-.19-.37.51-.56-.1.22.78.13,1.42,0s1.08-.28,0,.45c-.18,0-.12-.24-.7,0-.14.44,1.22-.15.88.42a4,4,0,0,0,2.49-1.7,3.19,3.19,0,0,0,.15-3.13,5.32,5.32,0,0,1,0,1.8A5.24,5.24,0,0,1,263.91,91.67Z"/><path class="cls-5" d="M250.8,86.41a21.79,21.79,0,0,0,2.62,0c.13-.13,0-.29.61-.37-.24.52-2,.75-1.8,1-.13-.4-2.7.44-2-.3C250.74,86.59,250.78,86.51,250.8,86.41Z"/><path class="cls-9" d="M250.71,54.38l-.59.27c-.38-.15.24-.52.34-.79-2.06.83-.69.86-.84,1.22a5.17,5.17,0,0,0-2.18,1.32c0,.43,1.13-.39.91.25-2,1.65-.5-.57-2,.48L246.3,57a9,9,0,0,1,1.52-1.22,5.75,5.75,0,0,0-3.34,1,13.9,13.9,0,0,1,4.33-3.27c-.67,1,.87.44,2.25,0,.2.05,1.12-.1,1.27-.36.49-.15.75-.16.7,0-.36.14-.71.29-.55.36l.05.13C251.7,54.05,251.21,54.23,250.71,54.38Z"/><path class="cls-7" d="M247.2,75.51c0,.18,1.08.33,1.23.48-.36,0-.75,0,0,.14.28-.18.79-.16.05-.42.64.05.74.2,1.26.24v.29c.55.05.61,0,.65-.12.88,0,.54.35.66.56a3.2,3.2,0,0,0,1.37.36l0,.14c-1,.09-1.95,0-2.07.23a21.12,21.12,0,0,1-2.75-.24c-.44-.41-2.33-.93-2.45-1.44l0-.13c-3.29-1.15-.45-.56-1.6-1.24l.07-.13c1.65,1,1.76,1,.62.12C246.1,74.89,244.81,75.16,247.2,75.51Z"/><path class="cls-5" d="M248.37,87.38c-.79.83-.59-1.34-2.64.46.47-.21,1.2-.53,1.27-.41l.37.93c-.39.06-2.36.71-2.26,1.08-1.33.38-1.93.59-3.66,2.44a24.66,24.66,0,0,1-2,2.56c-.38.35-.61,0-.23-1a12.22,12.22,0,0,0-.67,1.17c-.19.36-.32.73-.16.66.16-.52.89.19.67,1-.23,0-.43-.42-.75.4.06.18.25.11.07.7-.72,1.44-.48-.63-1.1-.32-.15,1,0,1.51.4,1.47a2.07,2.07,0,0,0,0,1.31c0,.76.17.86.32,1s.26.41.36,1.45c.57-.9,1,1,1.52.78a8.5,8.5,0,0,0-.6-1.5c.1-.13.25,0,.24-.56-.52-.49-.69,1.53-.87-.54.9,0,.31-.26.08-1.18.37.46.57-.92.94-.43.12-.64.35-1.54.55-1.56-1,2.77-.73,5.87,1,7.91-.35,0-1-1.26-1.06-.53-.4-.79.2-.44-.08-1.13-.39,0-1,1.1-1.14-.77-.28.85-1.5.32-1.07.95.4.08,1.35,2.13,2.13,2.47l-.22.18c-.31-.16-1.84-2-.85-.19-.34-.13-.47-.74-1-1.78-.58-.32.3,1.37.1,1.51a13,13,0,0,1-.63-1.3,23.84,23.84,0,0,0-.13-2.57c-.07-1.08-.09-2-.63-1.61A14.37,14.37,0,0,1,241.53,90c.46,0,.64.22,1.5-.26,1-.66,1.06-.86.45-.5.27-.48,1-.68,1.72-1,0-1-2.38,1.49-2.59.93a19.63,19.63,0,0,1,5.44-2.75Z"/><path class="cls-9" d="M237.92,98.53c.27.14.36.49.41,1.31l-.71,0a2.07,2.07,0,0,1,0-1.31Z"/><path class="cls-4" d="M236.58,100.42c.54-.41.56.53.63,1.61a23.84,23.84,0,0,1,.13,2.57,13.14,13.14,0,0,1-.9-4.18Z"/><path class="cls-7" d="M243.62,111.87c-.06.85-.72.36-.83.18-.34.44-.31.53-.25.61-1.44,1.79.45-1.52,1-1.64C243.35,111.5,243.4,111.76,243.62,111.87Z"/><path class="cls-7" d="M241.14,118.82l-1.24-.33c-.31,0-.4,2.7-.93,2.45,0,1,.91,1.13,0,1.32,0,.53.09.65.1,1.3a7,7,0,0,0,.18,1.28c-.14-.38-.62-1.49-.38.68l-.28,0c-.14-1.62-.5-.11-.36.71-.29-.05-.1-2.27-.12-4.06l.71,0c-.23-.7-.45-1.38-.62-2.09.07-1.77.37,1.66,1-2.54l.68.21c.55.28,1.06.52,1.76-.72A17.08,17.08,0,0,0,241.14,118.82Z"/><path class="cls-9" d="M259.26,50.65c1.8-.38.55.15,2.74.16-1.37.17-.35.65-.07,1,1.83.24,1.71,0,3.26.32-1.62-.56-.92-1.18-1.75-1.77,1.15.6,1.14.23,2.68.85-2.57-.42.07.6.37,1.15-.11.45-.77.47-2.09.35a12.5,12.5,0,0,0-1.26-.08c-2.25,0-.33-.52-1.87-.58-.19.29-2.22-.11-1.95-.4C260.17,51.19,259.12,51.25,259.26,50.65Z"/><path class="cls-7" d="M243.39,59.54c1.43-1.36.45-1.43,2.57-3,.41.26-1.8,1.81-1.53,2.21C244.46,59,243.67,59.5,243.39,59.54Z"/><path class="cls-5" d="M242.71,69.37l-1.05.73c-.14-.54-.63-.7-1.29-.64a31.21,31.21,0,0,1,3.34-2.22c.06.13.55-.12.72-.07-.59.31-1.15.65-1.71,1,.11.34.28.63,1,.38C243,69,242.49,69.08,242.71,69.37Z"/><path class="cls-4" d="M238.53,89.67c.08-.12-.37-.41-.4-.58a7,7,0,0,0,2.32,1c-.14.23.35.48,1.15.58,0,.19-.39.2-.75.19a7.48,7.48,0,0,0,1.9.46c-.17.36,1,.57-.15.56-.83-.3-.93-.54-1.8-.89a4.3,4.3,0,0,1-1.83-.8C239.84,90.56,240.93,91.05,238.53,89.67Z"/><path class="cls-10" d="M244.8,91.14c-2.38,0,2.51.8,1.06,1.24-.62-.13-.46-.27-.58-.41-1.46.13-.64.32-1.9-.43,0-.18-.75-.4-.51-.58,1.17.29.54-.33,2,0Z"/><path class="cls-5" d="M256.18,93.15a8.12,8.12,0,0,0,1.28-.19,8.12,8.12,0,0,0,2.06.76c0-.1.07-.18.63-.27l.1.42a28.25,28.25,0,0,1-10.66-.22c-.1-.29.78-.19.74-.46-1.1-.23-1.68-.07-1.93-.33l0-.28c1.75.29,1.25.46,2.56.43,0,.36,0,.77,1.85,1l0-.43c1.08.11.32.44,1.27.55l0-.57C255.65,93.63,256.3,93.45,256.18,93.15Z"/><path class="cls-5" d="M246.17,109.1c-.35.35-.45.59-.26.63.73-.37,2.15-2.1,2.22-1.14,1.85-1.71.69-1.75,1.91-2.83-1.69.42-1.37-.61.83-1.7l-.05-.13a15.78,15.78,0,0,0-4.94,2.79c0-.17.46-.55.38-.66l-.55.43c-.26.52-2.92,2.64-3.8,4.09.1,0,.2,0,.54-.46,1-1.25,1.78-1.89,2.07-1.83-.68.66-1.1,1-1.52,1.4-.08.41,1.07-.12.12,1-.2,0-.25-.35-.75.27.07.19.38.14-.05.79l-.47-.33c-1.13,1.85-1.37,1.65-1.74,2.93l-.39-.19a15.72,15.72,0,0,0-1.94,5.24c.37-.05.06,1.6.27,2.14-.6-.55,0,1.37-.38,1.36.26,2.2,0,3,.51,4.79l-.42.08c.16.81.43,1.94.63,2-.14-.44-.24-.9-.35-1.35.4.23,1.09,1.33.71-.84a7.16,7.16,0,0,1-.14-2c-.14-1.62-.5-.11-.36.71-.29-.05-.1-2.27-.12-4.06l.71,0c-.23-.7-.45-1.38-.62-2.09.07-1.77.37,1.66,1-2.54.07-1.22,1-2.09.28-2.06.09-1.33.53.61,1.58-2.23.69.78-.1,1.39,1.44.1-.37.6-.67.75-.63,1.09-.59.36-2.34,2.24-1.17,2.24-.37,1-.5.19-.82,1.07.55.28,1.06.52,1.76-.72a5.42,5.42,0,0,1,.22-.56c-.42.1.15-1.14-.41-.84,1.65-2.55,1.18-2.57,2.69-3.4.28-1-.15-1.3-.33-1.88a17.93,17.93,0,0,0,2.1-1.54c1.09-.77-.51-.88.71-1.16,1.62-1.18,2.58-.79,1.7.16-1.9,1.24.8-1.39-.93-.22C246.47,108.55,247.73,108.26,246.17,109.1Zm-2.55,2.77c-.06.85-.72.36-.83.18-.34.44-.31.53-.25.61-1.44,1.79.45-1.52,1-1.64C243.35,111.5,243.4,111.76,243.62,111.87Z"/><path class="cls-5" d="M240.76,120.58c-.2-.09-.52,0-.19-1.28-.27.29-.56-.89-.82.46.15.13.4,0,.31.7-.18.07-.39-.18-.52.56a6,6,0,0,1,0,1.91c-.2,0-.33.29-.44.63,0-.65-.1-.77-.1-1.3.89-.19,0-.32,0-1.32.53.25.62-2.44.93-2.45l1.24.33A17.2,17.2,0,0,0,240.76,120.58Z"/><path class="cls-5" d="M239.27,124.84c.12.14.27,0,.34.62-.16.12-.42-.08-.37.68.14.13.29,0,.38.6s.55,3-.33,1.37a22.16,22.16,0,0,1-.4-2.59C238.65,123.35,239.13,124.46,239.27,124.84Z"/><path class="cls-7" d="M241.14,61a9.44,9.44,0,0,0-1.26,3.09c-.3.56-.45.62-.69,1.09-1.36,1.33.26,0,0,1.33-.24,1.06-.34,1.39-.63,1.16-.12-.55-.26-.92-.63-.76.18-.53,1.08-3.22,1.28-2.44.69-1.26-.31-.52-.32-.94.8-1.46,1-1.13,2-2.71Z"/><path class="cls-4" d="M239.69,106.36l.41.48c-.45,0,.63,1.06,0,1-.75-1.14-1.27-1.3-1.69-1.31l-.4-.6c.2-.14-.68-1.83-.1-1.51.5,1,.63,1.65,1,1.78C237.85,104.37,239.38,106.2,239.69,106.36Z"/><path class="cls-7" d="M253.68,76.44c.55-.36.1-.74,1.09-1.11.16.17-.09.57.78.37.08-.29,1-.61,2.31-1.23a4.67,4.67,0,0,1-1.84,1.4A5.55,5.55,0,0,1,253.68,76.44Z"/><path class="cls-8" d="M253.15,64.06c.6.16,1.75.2,2,.52-1.16,0-3.18.56-2.62,0C253.32,64.45,253.07,64.25,253.15,64.06Z"/><path class="cls-5" d="M237.43,89a12.86,12.86,0,0,0,1.1.71c2.4,1.38,1.31.89.44.57-.48-.29-.58-.25-.65-.2C237.05,89.35,237.36,89.17,237.43,89Z"/><path class="cls-7" d="M237.06,73.65c-.39.11-.91.5-1.29.65-.17,0-.52.45-.63.37.27-.37.54-.73.83-1.08.46.22,1.67-1.44,2.15-1.65C237.92,72.31,237.72,73.47,237.06,73.65Z"/><path class="cls-4" d="M235.07,87.58a12.85,12.85,0,0,0,1,1c.78.54.43-.33,1.4.39-.07.21-.38.39.89,1.08.11.3,1,.77,1,1a13.21,13.21,0,0,1-4.48-3.28Z"/><path class="cls-4" d="M248.37,87.38l-.32-.94a28,28,0,0,1,4.55-1.11c-1.11.29.16.66-1.16.94,0-.07-.56,0-.64.14s-.06.18-.6.29l-.63.16C249.67,87.12,249.18,87.29,248.37,87.38Z"/><path class="cls-6" d="M242.08,134c.28,1.69-1.38.54-2.62-1.66.06-.07.11-.16-.13-.69.42.56,1,1.57,1.55,2.28C241.33,134.08,241.3,132.74,242.08,134Z"/><path class="cls-4" d="M259.51,73.44c.83-.66.53.1,1.29-.5-.07-.24-.52-.23.06-.88.11,1,.94-.5,1.68-1.18.07,1-1.31,2.13-1.26,2.58a15,15,0,0,1-8.87,3.72l0-.14a5.63,5.63,0,0,1,1.29-.6,5.55,5.55,0,0,0,2.34-.57,4.67,4.67,0,0,0,1.84-1.4c0-.1,0-.2.49-.44C259.22,74.09,260.22,74.36,259.51,73.44Z"/><path class="cls-7" d="M234,76.41c.41-.21.35,1.09,1.08-.15-.17.87,1.95-2.28.83-.24-.82,1.56.6.18.71.48a6.44,6.44,0,0,1-1.26,1.34c.37-.75-.06-.75-.52.44-.19,0-.48.66-.63.42a5.12,5.12,0,0,0-.26,3.73c0-.74.13-.38.29,0,.06.58,0,.71.06,1.19.53.06.28-1.92,1.08-1.29a5.56,5.56,0,0,0,.49,1.88c-.61-.66-1.08.32-1,1.14-.24,0-.36.47-.8-.31.05-.18.24-.13,0-.71-.52.31-.5-.22-.46-1.2-.54.05-.54-.7-.85.15.13-1.37-.34-1.31.11-3.55.48-.92.87-.72,1.45-1.65-.34-.15-.88-.08-.63-1C233.82,76.82,233.92,76.61,234,76.41Z"/><path class="cls-7" d="M242.61,89.19c.21.56,2.58-1.9,2.59-.93-.7.33-1.45.53-1.72,1,.61-.36.52-.16-.45.5-.86.48-1,.23-1.5.26C241.89,89.75,242.23,89.44,242.61,89.19Z"/><path class="cls-9" d="M238.89,125.52a22.16,22.16,0,0,0,.4,2.59c-.07.06-.14.14,0,.68l-.13,0c-.17-.49-.29-1.28-.43-1.27a7.16,7.16,0,0,1-.14-2Z"/><path class="cls-12" d="M251.87,52c1.86-.89,1.15.67,2.11-.12,2-.37-1.91.88-2.37,1.29-.13-.22.32-.52,1.09-.88C252.7,52,251.82,52.32,251.87,52Z"/><path class="cls-5" d="M263.91,68c-.15-.17-.3-.74-.84-1.54-.42-.17-.07,1.06-1-.1-.34-.42-1.06-.82-1-.95.82.37,1.1.55,1,.37a3.33,3.33,0,0,0-1.21-1,10.48,10.48,0,0,0-5.7-1.15,9.17,9.17,0,0,1,4.47.41C261.38,64.54,263.44,65.89,263.91,68Z"/><path class="cls-4" d="M252.57,64.6c-1.86,0-.57.33-1.84.74-.49-.35.25-.77.38-1.14l1.32-.3c-.81.41-.75.72.72.16C253.07,64.25,253.32,64.45,252.57,64.6Z"/><path class="cls-4" d="M263.91,91.67a5.24,5.24,0,0,0,.85-1.86,5.32,5.32,0,0,0,0-1.8,3.19,3.19,0,0,1-.15,3.13,4,4,0,0,1-2.49,1.7,5.12,5.12,0,0,0,.62-.31C262.52,92,263.14,92.35,263.91,91.67Z"/><path class="cls-4" d="M252.6,112c0-.14.53-.17.66-.29-1,0-3.3-.42-1.32-.56-.12.53.52.08,2,.09-.37.23.88.69-.65.75Z"/><path class="cls-7" d="M251.75,104.57c-1.12.29-.49-.3-1.48,0-.11.4-.78.93-.23,1.19-1.69.42-1.37-.61.83-1.7C250.67,104.45,252.25,104,251.75,104.57Z"/><path class="cls-9" d="M243.46,58.69c-.89.7-1.06.48-1.79,1.05.14.21.39.23-.53,1.29l-.22-.18c.43-.7.76-1.16.54-1.3a19.72,19.72,0,0,1,1.41-1.48c.86-.35.12.25,1,.07C244,58.14,243.75,58.41,243.46,58.69Z"/><path class="cls-5" d="M240.46,74.28c.25-.15.66-.07,1.49.34,0,.38,1.69.7,2.41,1.3.16-.12,0-.41.78-.19.12.51,2,1,2.45,1.44A15.24,15.24,0,0,1,240.46,74.28Z"/><path class="cls-8" d="M241.24,70.6c.07-1.41-2,.47-2.42.13.5-.44,1-.87,1.55-1.27.66-.06,1.15.1,1.29.64C241.83,70.13,241.54,70.36,241.24,70.6Z"/><path class="cls-7" d="M266.49,52.36c-.3-.55-2.94-1.57-.37-1.15-1.54-.62-1.53-.25-2.68-.85.83.59.13,1.21,1.75,1.77-1.55-.32-1.43-.08-3.26-.32-.28-.35-1.3-.83.07-1-2.19,0-.94-.54-2.74-.16,0-.48,1.32-.71-.76-.79a26.66,26.66,0,0,1,9.2,1.07c-.33.13.42.47,1.22.81l-.23.53C267.54,52,267.49,52.4,266.49,52.36Z"/><path class="cls-8" d="M251.87,52c-.05.3.83,0,.83.29-.77.36-1.22.66-1.09.88-.38.14-.71.34-.55.39-1.38.42-2.92.94-2.25,0a13.9,13.9,0,0,0-4.33,3.27,5.75,5.75,0,0,1,3.34-1A9,9,0,0,0,246.3,57c-1,.9-.74,1.07-1.87,1.75-.27-.4,1.94-2,1.53-2.21-2.12,1.55-1.14,1.62-2.57,3-.58.56-1,.85-1.19.67.59-.6.71-.58,1.46-1.31l-.2-.21c.29-.28.56-.55.39-.55,1.27-1.39-.54-.33-.58-.64.6-.57,3.26-2.67,1.47-1.43l-.09-.11c.7-.6,1.49-1.08,2.24-1.61A18.67,18.67,0,0,1,251.87,52Z"/><path class="cls-5" d="M235.77,74.3c-.68,1.42-.48.56-1.27,1.59l.61.37c-.73,1.24-.67-.06-1.08.15a16.54,16.54,0,0,1,1.11-1.74C235.25,74.75,235.6,74.33,235.77,74.3Z"/><path class="cls-10" d="M241.46,59.55c.22.14-.11.6-.54,1.3-1.06,1.58-1.24,1.25-2,2.71,0,.42,1-.32.32.94-.2-.78-1.1,1.91-1.28,2.44.37-.16.51.21.63.76,0,1,.34.58.55.63a3.46,3.46,0,0,0,.24,1.61A5.09,5.09,0,0,0,240.1,71c-.26,0-.65-.6-.79-.23a4.81,4.81,0,0,1-.91-3.08l-1.14-.09a10.27,10.27,0,0,1,1.37-4.18l.36-.6A23.36,23.36,0,0,1,241.46,59.55Z"/><path class="cls-4" d="M242.37,110.93c.07.19.38.14-.05.79l-.47-.33c-1.13,1.85-1.37,1.65-1.74,2.93l-.39-.19a22.29,22.29,0,0,1,2.19-3.55c.1,0,.2,0,.54-.46C242.31,110.48,242.19,110.83,242.37,110.93Z"/><path class="cls-7" d="M237.78,119.37c.37-.05.06,1.6.27,2.14-.6-.55,0,1.37-.38,1.36-.17.11-.25-.16-.25-.71A21.72,21.72,0,0,1,237.78,119.37Z"/><path class="cls-7" d="M242.45,110.12c1-1.25,1.78-1.89,2.07-1.83-.68.66-1.1,1-1.52,1.4-.08.41,1.07-.12.12,1-.2,0-.25-.35-.75.27C242.19,110.83,242.31,110.48,242.45,110.12Z"/><path class="cls-4" d="M237.67,122.87c.26,2.2,0,3,.51,4.79l-.42.08c-.36-1.26-.85-4.63-.34-5.58C237.42,122.71,237.5,123,237.67,122.87Z"/><path class="cls-3" d="M238.39,129.74a3.49,3.49,0,0,0,.94,1.87c.24.53.19.62.13.69a17.3,17.3,0,0,1-1.84-3.81,22.64,22.64,0,0,1-.43-7.06,23.35,23.35,0,0,1,2.28-7.43c.45-.57,1.15-1.84,2.08-3.15a18.82,18.82,0,0,1,3.08-3.45c.35-.31.7-.62,1.08-.91-.26.52-2.92,2.64-3.8,4.09a22.29,22.29,0,0,0-2.19,3.55,15.72,15.72,0,0,0-1.94,5.24,21.72,21.72,0,0,0-.36,2.79c-.51,1,0,4.32.34,5.58C237.92,128.55,238.19,129.68,238.39,129.74Z"/><path class="cls-8" d="M257.14,50.3c-.3.41.14.85-1.86,1.24-.51-.36,1.16-.69-.17-.69A17.3,17.3,0,0,1,257.14,50.3Z"/><path class="cls-11" d="M258.5,49.86c2.08.08.79.31.76.79s.91.54.06,1c-.63.05-.52-.12-.67-.22a19.42,19.42,0,0,0-2.63.4c-.9.43-2.77.46-3.08,1.16,1-.43,2.23-.12.79.32.05-.18-.22-.21-.7-.05.05-.2-.21-.19-.7,0-.15.26-1.07.41-1.27.36s.17-.25.55-.39c.46-.41,4.32-1.66,2.37-1.29-1,.79-.25-.77-2.11.12a18.67,18.67,0,0,0-5,2.33l-.07-.12A28.6,28.6,0,0,1,251.11,52c.1.13.79-.12,1.6-.44a21.24,21.24,0,0,1,2.4-.71c1.33,0-.34.33.17.69,2-.39,1.56-.83,1.86-1.24.1-.14-.3-.09-.72,0C256.5,50.08,257.67,50,258.5,49.86Z"/><path class="cls-6" d="M257.14,50.3a17.3,17.3,0,0,0-2,.55,21.24,21.24,0,0,0-2.4.71c-.81.32-1.5.57-1.6.44,1.22-.42,1.9-.74,2.61-1a10.18,10.18,0,0,1,2.7-.72C256.84,50.21,257.24,50.16,257.14,50.3Z"/><path class="cls-6" d="M247.79,108.4a25.88,25.88,0,0,0,3.56.32v.14c-.91.09-3.08-.39-3-.09a19,19,0,0,1-2.29-.47c-.36-.11-.74-.21-1.09-.35l.1-.27A16.2,16.2,0,0,0,247.79,108.4Z"/><path class="cls-12" d="M260.43,68a7.18,7.18,0,0,0-4.61-1.41c-.08-.35,2,0,2.67.24l.5.16a4.31,4.31,0,0,1,1.54.91Z"/><path class="cls-6" d="M254.7,66.61a25.13,25.13,0,0,0-10.53,3.86l-1,.67c.05-.17.33-.43.93-.79,1-.58,1.07-.83,2-1.33a27.64,27.64,0,0,1,3.92-1.67,22.25,22.25,0,0,1,2.31-.66q.88-.19,1.74-.3a19.85,19.85,0,0,1,2.63-.08,3,3,0,0,1,1.76.5c-.71-.22-2.75-.59-2.67-.24C255.45,66.57,255.08,66.59,254.7,66.61Z"/><path class="cls-5" d="M243.48,92.31a11.06,11.06,0,0,0-2.42,3c-.16-.7.85-2.33,2.14-3.28Z"/><path class="cls-8" d="M244.26,72.94a15.61,15.61,0,0,0,8.44,1.18c.15.19-.64.27-1.44.27s-1.59-.07-1.47.13l-.59,0c-.6-.31-3.68-.59-5-1.42Z"/><path class="cls-4" d="M236.12,84.63a8.53,8.53,0,0,0,2.49,2.71c-.18.09-.81-.39-1.34-1-.12-.14-.26-.26-.37-.4-.2,0-.46-.4-.64-.85-.65-.32.47,2-.89-.1C235.8,84.73,235.46,84.33,236.12,84.63Z"/><path class="cls-15" d="M243.87,89.6c2.15.53,4.55.94,6.82,1.33-.05.08-.12.16-.65,0l-3.77-.69c-.13.14,0,.42-.7.29,0-.23.17-.46-1.13-.68C244.07,89.79,243.74,89.69,243.87,89.6Z"/><path class="cls-4" d="M243.2,92c1.31-.92-.77-.27.58-1.18,1.3-.61,2.12-.71,1.54.17a15.4,15.4,0,0,0-1.84,1.33Z"/><path class="cls-7" d="M246,108.3c-.18.32-.31.66,1,1,3.55.77-.44,1.22-2.19.91.26-.12,1,0,.78-.36-1.76-.42-1.5-.69-2.87-1.3,0,.36-.41.45-1.38-.19.28-.21-.21-.62-1.17-1.59l-.1.1-.41-.48.22-.18a4.3,4.3,0,0,0,2.05,1.6c.56.18.73,0,.16-.5-.38,0-.46-.42-.79-.83-.29.18-1.33-1.35-1.63-1.57l.37-.22c.08-.73.71.52,1.06.53.92,1.33,3,2.26,3.82,2.76C245.3,108.09,245.68,108.19,246,108.3Z"/><path class="cls-6" d="M245.39,59.82a23.5,23.5,0,0,0-3.53,4.07l-.24-.16c.33-.5.73-1,1.09-1.45a7.68,7.68,0,0,1,.78-.93c.27,0,1.1-1.06,1.81-1.63Z"/><path class="cls-15" d="M259.62,70.88a3.68,3.68,0,0,0,1.52-2.09c.12-.46-.72-1.33-1.63-1.76,0-.16.45,0,.86.32a3.3,3.3,0,0,1,.79.91.87.87,0,0,1,.08.26c.07.17.14.3.31.26-.13.49-.28.54-.46,1.19-.12-.32-.46.15-1,.83a8.21,8.21,0,0,1-1.95,1.69l-.16-.24A8.53,8.53,0,0,0,259.62,70.88Z"/><path class="cls-9" d="M250.05,67.35A27.64,27.64,0,0,0,246.13,69c-.16-.19-1.42.65-1.28.21,1.69-.65,2.78-1.28,4-1.6.09-.15-.09-.28.48-.48C249.42,67.31,250.14,67.07,250.05,67.35Z"/><path class="cls-8" d="M236.12,84.63c-.66-.3-.32.1-.75.41l-.38.21-.12.07c-.05-.82.42-1.8,1-1.14Z"/><path class="cls-6" d="M252.84,54.55c1-.38,3.42-1.22,3.57-.9-1.91.37-2,.75-4,1.39-.67.25-1.56.75-1.73.63A15.41,15.41,0,0,0,252.84,54.55Z"/><path class="cls-8" d="M244.27,74.35c.87.14.78-.36.92-.71a10.92,10.92,0,0,0,1.11.34c0,.24-.22.48,1.06.69.29.29-2.4-.2-.68.29,0-.08.12-.14.63,0l-.11.56C244.81,75.16,246.1,74.89,244.27,74.35Z"/><path class="cls-8" d="M241.2,90c-.85.17-.51-.62-.36-.76-1.68-.54-1.27-1.28.16-.39C243.48,89.74,240.46,89.19,241.2,90Z"/><path class="cls-5" d="M260.23,91.08c1.08-.35.39.41.73.53-.62.18-1,.29-1.11.44C257.58,92.19,261.26,91.36,260.23,91.08Z"/><path class="cls-8" d="M258.8,53.14a9.42,9.42,0,0,1-1.85.11,8.69,8.69,0,0,1,1.23-.18,19.51,19.51,0,0,0,3.08-.59,3.34,3.34,0,0,0,1.88.15,12.5,12.5,0,0,1,1.26.08c-.14.09-.65,0-.67.17A47.13,47.13,0,0,0,258.8,53.14Z"/><path class="cls-11" d="M257,53.25a9.42,9.42,0,0,0,1.85-.11,17.43,17.43,0,0,1-2.39.51c-.15-.32-2.56.52-3.57.9-.36.13-.69.24-.63.09,2-.6.75-.76.92-1.11.66-.22.5.12,1.3-.12C254,54,256.45,53.06,257,53.25Z"/><path class="cls-11" d="M248.66,56c-.12.84.94-.36,1.3-.24-.29.54-3.25,2.45-3.14,2l-.43-.58c1.46-1.05-.08,1.17,2-.48.22-.64-.93.18-.91-.25a5.17,5.17,0,0,1,2.18-1.32c.15-.36-1.22-.39.84-1.22-.1.27-.72.64-.34.79l.59-.27c.58,0,0,.34-.75.67S248.48,55.84,248.66,56Z"/><path class="cls-7" d="M241.45,71.32c-.21.35-.66.44-1.35-.32-.1-.75,1.41.93.6-.39-.07,0-.34-.28-.25-.43l.13-.07A5.52,5.52,0,0,0,241.45,71.32Z"/><path class="cls-7" d="M252.15,74.47c0,.28.49.27,1.19,0l.07.43a21.54,21.54,0,0,1-2.42.37c.19.39-.15.53-1.25.26-.46-.51.94-.51.64-1C251,74.54,251.56,74.53,252.15,74.47Z"/><path class="cls-10" d="M241.67,71.17c-1.35,1.35-2.11.48-.43-.57.3-.24.59-.47.42-.5l1.05-.73c.08.12.53-.15.7-.11-1.95,1.31-1.36,1.24-.3.71-.52.34-1,.71-1.53,1.08Z"/><path class="cls-4" d="M254.67,109.23c-.12.3.41.23.68-.07s.28-.8.39-1c.16,0,.43-.14.42.46-.11,0-.26.53,0,.52a2.22,2.22,0,0,1-1.67,1.43c-.16-.09-.06-.26-.66-.2-1.49-.37,1.59-.57-.64-.83C254.12,109.62,254.38,108.9,254.67,109.23Z"/><path class="cls-7" d="M250.07,109.8a3.15,3.15,0,0,1,1.25.35,3.19,3.19,0,0,0-1.29.22,2.12,2.12,0,0,1-1.28,0l.06-.56C249.59,110,250.08,110.16,250.07,109.8Z"/><path class="cls-4" d="M239.31,128.79c.59,1.46,1-.62,1.59.87-.53-.15-.25,1-.38,1.48-.66-2.26-.82-.29-1.34-2.32Z"/><path class="cls-4" d="M252.88,75.54c0,.48-1.33.8-1.86,1.14-.12-.21.22-.52-.66-.56,0,.09-.1.17-.65.12V76A24.72,24.72,0,0,0,252.88,75.54Z"/><path class="cls-7" d="M246,108.89c1.09-.77-.51-.88.71-1.16.14.11.78-.35.77-.06-1,.88.28.59-1.28,1.43Z"/><path class="cls-4" d="M256,86.09c-2.32.35-.71-.55-2-.52C254.12,84.87,256.59,85.6,256,86.09Z"/><path class="cls-16" d="M255.2,65c1.16-.13-.36-1.08,2.61-.56l-.07.42-.63-.08c-.18.17-1.06.16-1.28.35h-.62Z"/><path class="cls-5" d="M243.38,91.54c1.26.75.44.56,1.9.43.12.14,0,.28.58.41,0,.4-1.13.07-.11.56A29.94,29.94,0,0,1,240,91.33c0-.27.88,0,.84-.29.87.35,1,.59,1.8.89,1.13,0,0-.2.15-.56Z"/><path class="cls-5" d="M261.35,85.06c1.46.75,1.58,1.24,1.34,1.24a5.25,5.25,0,0,0-1.66.15c-2.32-.4-1.65-1.28-3.11-.46-.1-.26-.45-.47-1.32-.51-.37.62,2.13.48,2,1.07-1.49,0-1.45-.4-2.58-.46.6-.49-1.87-1.22-2-.52-.76.08-.73-.12-.71-.33,1.32-.19,2.64-.3,4-.37A15.8,15.8,0,0,1,261.35,85.06Z"/><path class="cls-7" d="M239.33,91.05c-.06-.24-.9-.71-1-1,.07-.05.17-.09.65.2a4.3,4.3,0,0,0,1.83.8c0,.31-.82,0-.84.29Z"/><path class="cls-4" d="M237.64,98.48c-.37,0-.55-.45-.4-1.47.62-.31.38,1.76,1.1.32.07.16.27.09.13.68-.18,0-.4-.21-.55.52Z"/><path class="cls-17" d="M254.81,104a4.6,4.6,0,0,0-3.18,0c1.17-.3,2.74-.05,2.3.2a6.71,6.71,0,0,0-.76-.07c-1.41-.06-.37.81-1.42.43.5-.54-1.08-.12-.88-.51l-.05-.13a9.38,9.38,0,0,1,2.45-.37C254.19,103.57,254.94,103.86,254.81,104Z"/><path class="cls-6" d="M238.37,106.5a9.54,9.54,0,0,0,3.17,3c1.28.78,2.52,1.21,3,1.55a14.24,14.24,0,0,1-4.72-2.57,8,8,0,0,1-2.52-3.83,13,13,0,0,0,.63,1.3Z"/><path class="cls-6" d="M251.7,63.76c-.87.46-4.5,1.36-6.29,2.41l-.06-.12a31.29,31.29,0,0,1,4.38-1.76C250.38,64.09,251,63.91,251.7,63.76Z"/><path class="cls-6" d="M246.73,86.77a17.4,17.4,0,0,0-4.55,2.57A27.33,27.33,0,0,0,239,92.45a17,17,0,0,1,7.72-5.81Z"/><path class="cls-3" d="M236.34,99.7A14.45,14.45,0,0,1,239,92.45a27.33,27.33,0,0,1,3.22-3.11,17.4,17.4,0,0,1,4.55-2.57,30.26,30.26,0,0,1,8.83-1.93,32.33,32.33,0,0,1,4.54-.11,7.4,7.4,0,0,1,2.49.59,5,5,0,0,1,2.14,1.76,3.81,3.81,0,0,1,.41,3.8,5.14,5.14,0,0,1-2.62,2.41,16.06,16.06,0,0,1-6,1.14A56.5,56.5,0,0,1,245.08,93a22,22,0,0,1-7.65-2.78A10.8,10.8,0,0,1,232.66,84a10.41,10.41,0,0,1,1.25-7.68A21.58,21.58,0,0,1,239,70.4a30.94,30.94,0,0,1,6.43-4.23c1.79-1,5.42-2,6.29-2.41a15.41,15.41,0,0,1,7.69,0A7.66,7.66,0,0,1,263,65.94a4.1,4.1,0,0,1,.64,4.7c-.42.87-.76,1.17-.94,1.23A4.9,4.9,0,0,0,263.91,68c-.47-2.1-2.53-3.45-4.29-4a9.17,9.17,0,0,0-4.47-.41,17.57,17.57,0,0,0-2.72.32l-1.32.3a30.28,30.28,0,0,0-7.4,3,31.21,31.21,0,0,0-3.34,2.22c-.53.4-1.05.83-1.55,1.27A24.84,24.84,0,0,0,236,73.59c-.29.35-.56.71-.83,1.08A16.54,16.54,0,0,0,234,76.41c-.11.2-.21.41-.31.62a10.37,10.37,0,0,0-1.16,5.52,9,9,0,0,0,2.29,5.22,13.21,13.21,0,0,0,4.48,3.28l.63.28a29.94,29.94,0,0,0,5.79,1.61l3.84.71a28.25,28.25,0,0,0,10.66.22,11.08,11.08,0,0,0,2-.63,4.74,4.74,0,0,0,3-3.16A4.1,4.1,0,0,0,263.49,86a5.73,5.73,0,0,0-2.14-.94,15.8,15.8,0,0,0-4.13-.19c-1.32.07-2.64.18-4,.37l-.66.09a28,28,0,0,0-4.55,1.11,19.63,19.63,0,0,0-5.44,2.75c-.38.25-.72.56-1.08.84a14.37,14.37,0,0,0-4.95,10.39h-.14a13.14,13.14,0,0,0,.9,4.18,8,8,0,0,0,2.52,3.83,14.24,14.24,0,0,0,4.72,2.57,26,26,0,0,0,8,1h.67a4.16,4.16,0,0,0,1.46,0,3.94,3.94,0,0,0,2.38-1.19,3.55,3.55,0,0,0,.87-3,5.09,5.09,0,0,0-1-2.32,4.46,4.46,0,0,0-2.18-1.53c.13-.12-.62-.41-1.54-.42a9.38,9.38,0,0,0-2.45.37,15.78,15.78,0,0,0-4.94,2.79c0-.17.46-.55.38-.66a20.66,20.66,0,0,1,2.39-1.52c.43,0,1.43-.58,2.8-.91a5.86,5.86,0,0,1,4.34.47,5.67,5.67,0,0,1,2,2.44,4.09,4.09,0,0,1-.4,4.17,5,5,0,0,1-3.81,1.58,29,29,0,0,1-3,0c-2.66-.31-6.23-.69-9.5-2.77a10.45,10.45,0,0,1-3.84-4.35A10.6,10.6,0,0,1,236.34,99.7Z"/><path class="cls-17" d="M243.85,58.14c-.86.18-.12-.42-1-.07a19.72,19.72,0,0,0-1.41,1.48A23.36,23.36,0,0,0,239,62.82c.17-1.06,2.75-3.92,4.28-5.32C243.31,57.81,245.12,56.75,243.85,58.14Z"/><path class="cls-6" d="M263.78,70.71a11.48,11.48,0,0,1-3.42,3.89l-.6.4a27.14,27.14,0,0,1-4.18,1.71,16.37,16.37,0,0,1-5.24.7c.12-.18,1.09-.14,2.07-.23a15,15,0,0,0,8.87-3.72,12.76,12.76,0,0,0,1.44-1.59c.18-.06.52-.36.94-1.23Z"/><path class="cls-6" d="M237.25,68.39a5.1,5.1,0,0,0,.79,3.37A10.58,10.58,0,0,0,241,74.83l-.08.12a8.86,8.86,0,0,1-3.7-4.93,8.73,8.73,0,0,1,.86-6.09c.16-.08.46-.58.58-.51a10.27,10.27,0,0,0-1.37,4.18A6.91,6.91,0,0,0,237.25,68.39Z"/><path class="cls-9" d="M244.63,107.4a18.82,18.82,0,0,0-3.08,3.45c-.93,1.31-1.63,2.58-2.08,3.15a28.54,28.54,0,0,1,2.47-4A11,11,0,0,1,244.63,107.4Z"/><path class="cls-2" d="M240.85,584.1a19.93,19.93,0,0,0-39.86,0c0,11,8.92,8.18,19.93,8.18S240.85,595.11,240.85,584.1Z"/><path d="M231.1,593.79c-1.43,0-3-.07-4.56-.15-3.56-.17-7.68-.17-11.25,0-5.48.27-10.23.49-13-2.19-1.65-1.57-2.45-4-2.45-7.35a21.13,21.13,0,1,1,42.25,0c0,3.37-.81,5.78-2.46,7.35C237.6,593.36,234.63,593.79,231.1,593.79Zm-10.18-2.7c2,0,3.92.09,5.74.17,4.94.24,9.21.44,11.29-1.53,1.15-1.1,1.71-2.94,1.71-5.63a18.74,18.74,0,0,0-37.48,0c0,2.69.56,4.53,1.71,5.63,2.07,2,6.34,1.77,11.29,1.53C217,591.18,218.93,591.09,220.92,591.09Z"/><path class="cls-2" d="M283.79,584.1a19.94,19.94,0,0,1,39.87,0c0,11-8.93,8.18-19.93,8.18S283.79,595.11,283.79,584.1Z"/><path d="M313.91,593.79c-1.44,0-3-.07-4.56-.15-3.57-.17-7.68-.17-11.25,0-5.48.27-10.23.49-13-2.19-1.65-1.57-2.46-4-2.46-7.35a21.13,21.13,0,1,1,42.25,0c0,3.37-.8,5.78-2.45,7.35C320.4,593.36,317.43,593.79,313.91,593.79Zm-10.18-2.7c2,0,3.92.09,5.73.17,4.94.24,9.22.44,11.29-1.53,1.16-1.1,1.72-2.94,1.72-5.63a18.74,18.74,0,0,0-37.48,0c0,2.69.56,4.53,1.71,5.63,2.07,2,6.34,1.77,11.29,1.53C299.81,591.18,301.73,591.09,303.73,591.09Z"/><circle class="cls-2" cx="200.99" cy="525.91" r="19.93"/><path d="M201,547a21.13,21.13,0,1,1,21.12-21.13A21.16,21.16,0,0,1,201,547Zm0-39.87a18.75,18.75,0,1,0,18.74,18.74A18.76,18.76,0,0,0,201,507.17Z"/><circle class="cls-2" cx="323.66" cy="525.91" r="19.93"/><path d="M323.66,547a21.13,21.13,0,1,1,21.12-21.13A21.16,21.16,0,0,1,323.66,547Zm0-39.87a18.75,18.75,0,1,0,18.74,18.74A18.77,18.77,0,0,0,323.66,507.17Z"/><path class="cls-1" d="M273.37,154.78c0-15.08-15.47-27.3-34.56-27.3s-34.56,12.22-34.56,27.3"/><path d="M274.56,154.78h-2.38c0-14.4-15-26.11-33.37-26.11s-33.37,11.71-33.37,26.11h-2.38c0-15.71,16-28.49,35.75-28.49S274.56,139.07,274.56,154.78Z"/><g class="cls-18"><rect class="cls-19" x="204.25" y="146.51" width="69.12" height="8.27"/></g><g class="cls-18"><rect class="cls-19" x="194.6" y="254.77" width="96.29" height="8.27"/></g><rect x="357.57" y="254.59" width="2.38" height="111.3" transform="translate(-113.9 349.57) rotate(-45.61)"/><rect x="343.13" y="322.28" width="2.38" height="59.34" transform="translate(-147.79 367.72) rotate(-47.46)"/><rect x="191.61" y="319.42" width="118.09" height="13.9"/><polygon class="cls-20" points="303.44 328.65 198.95 328.65 213.15 448.63 309.71 446.68 303.44 328.65"/><path d="M212.09,449.85l-.13-1.08L197.61,327.46h107l.06,1.13L311,447.84Zm-11.8-120L214.2,447.42l94.25-1.91-6.14-115.66Z"/><rect x="213.59" y="349.8" width="11.37" height="2.38" transform="translate(-183.96 257.86) rotate(-45)"/><rect x="218.15" y="352.4" width="2.38" height="11.39" transform="translate(-188.95 259.93) rotate(-44.99)"/><rect x="235.6" y="356.91" width="11.37" height="2.38" transform="translate(-182.54 275.5) rotate(-45)"/><rect x="240.02" y="345.3" width="2.38" height="11.39" transform="translate(-177.54 273.37) rotate(-45)"/><rect x="266.03" y="419.62" width="11.37" height="2.38" transform="translate(-217.97 315.38) rotate(-45)"/><rect x="270.59" y="422.22" width="2.38" height="11.39" transform="translate(-222.96 317.44) rotate(-44.99)"/><rect x="288.04" y="426.72" width="11.37" height="2.38" transform="translate(-216.55 333.03) rotate(-45)"/><rect x="292.46" y="415.12" width="2.38" height="11.39" transform="translate(-211.55 330.9) rotate(-45)"/><rect x="241.22" y="374.46" width="55" height="2.38"/><rect x="241.22" y="386.72" width="55" height="2.38"/><rect x="241.22" y="398.99" width="55" height="2.38"/><rect x="268.6" y="423.22" width="29.26" height="2.39" transform="translate(-201.13 584.83) rotate(-74.61)"/><polyline class="cls-1" points="364.19 348.04 306.49 386.18 309.71 425.12 390.9 376.03"/><polygon points="308.68 427.13 305.25 385.57 363.54 347.05 364.85 349.04 307.74 386.78 310.74 423.1 390.28 375.01 391.52 377.05 308.68 427.13"/><circle class="cls-2" cx="381.03" cy="358.71" r="19.93"/><path d="M381,379.84a21.13,21.13,0,1,1,21.12-21.13A21.15,21.15,0,0,1,381,379.84ZM381,340a18.74,18.74,0,1,0,18.74,18.74A18.77,18.77,0,0,0,381,340Z"/></g><g id="CC_Laura_Henneke" data-name="CC Laura Henneke"><text class="cls-21" transform="translate(345.89 608.98)">Laura Henneke</text></g></svg>